<svg xmlns="http://www.w3.org/2000/svg" xmlns:xlink="http://www.w3.org/1999/xlink" fill="none" version="1.1" width="50" height="42" viewBox="0 0 50 42"><g><g><path d="M24.5000319,15C20.3636014,15,17,18.3636332,17,22.499033C17,26.634496,20.363599100000002,30,24.5000319,30C28.634602,30,32.000001,26.634496,32.000001,22.4990306C31.999997999999998,18.3636332,28.634602,15,24.5000319,15Z" fill="#FFFFFF" fill-opacity="1" style="mix-blend-mode:passthrough"/></g><g><path d="M49.958138,35.635086C49.945381,35.67001,49.923641,35.703285,49.905342,35.734547L49.905342,35.447163L49.905342,8.6151371C49.905342,6.9009547,48.520973,5.5063901,46.820076,5.5063901L37.585938,5.5063901L37.471413,5.5063901L37.418613,5.4032555L36.21069,2.9715433C36.072487,2.6601849,34.8372,0,33.15443,0L16.752722,5.8376332e-7C15.031778,5.8376332e-7,13.763871,2.8222876,13.711079,2.9429772L12.488599,5.4032569L12.435804,5.5063906L12.321274,5.5063906L3.0853171,5.5063906C1.3844876,5.5063906,0,6.9009562,0,8.615139L0,38.890278C0,40.605434,1.3844876,42,3.0853171,42L46.820148,42C48.521034,42,49.905407,40.605434,49.905407,38.890278L49.905407,35.767704C49.936451,35.723476,49.972698,35.68298,49.999996,35.635086L49.958138,35.635086ZM24.795256,33.177555C18.970196,33.177555,14.229538,28.402462,14.229538,22.534985C14.229538,16.667566,18.970196,11.894365,24.795256,11.894365C30.620253,11.894365,35.359222,16.667566,35.359222,22.534985C35.359222,28.402462,30.620253,33.177555,24.795256,33.177555ZM40.965965,14.743324C39.6106,14.743324,38.506332,13.625127,38.506332,12.251728C38.506332,10.876492,39.6106,9.7591486,40.965965,9.7591486C42.32304,9.7591486,43.427246,10.876492,43.427246,12.251728C43.427246,13.625128,42.32304,14.743324,40.965965,14.743324Z" fill="#FFFFFF" fill-opacity="1" style="mix-blend-mode:passthrough"/></g></g></svg>