<?xml version="1.0" encoding="UTF-8"?>
<svg width="22px" height="12px" viewBox="0 0 22 12" version="1.1" xmlns="http://www.w3.org/2000/svg" xmlns:xlink="http://www.w3.org/1999/xlink">
    <title>上</title>
    <g id="页面-1" stroke="none" stroke-width="1" fill="none" fill-rule="evenodd">
        <g id="编辑/完善资料" transform="translate(-677.000000, -952.000000)" fill="#999999" fill-rule="nonzero">
            <g id="上" transform="translate(688.000000, 958.000000) rotate(-90.000000) translate(-688.000000, -958.000000) translate(682.000000, 947.000000)">
                <path d="M11.561476,11.6527295 L1.84901681,21.3638416 L1.84901688,21.3638415 C1.4877771,21.7250813 0.902091518,21.7250813 0.540849379,21.3638416 C0.179609603,21.0026019 0.179609603,20.4169163 0.540849251,20.0556741 L10.2533084,10.3450111 L10.2533084,10.3450111 C10.6145482,9.9837713 11.2002338,9.9837713 11.5614759,10.3450111 C11.9227157,10.7062508 11.9227157,11.2919364 11.5614759,11.6531786 L11.561476,11.6527295 Z M11.5574161,11.654985 L11.5574161,11.654985 C11.1963914,12.0162247 10.6108784,12.0163996 10.2496386,11.6553739 C10.2495089,11.6552443 10.2493792,11.6551146 10.2492496,11.6549849 L0.538822872,1.94432188 L0.538822868,1.94432188 C0.177583093,1.5830821 0.177583093,0.997396516 0.538822876,0.636154377 C0.900062652,0.274914601 1.48574824,0.274914601 1.84699037,0.636154385 L11.5574171,10.3472665 L11.5574171,10.3472665 C11.918508,10.7083928 11.918508,11.2938563 11.5574171,11.6549826 L11.5574161,11.654985 Z" id="形状"></path>
            </g>
        </g>
    </g>
</svg>