<?xml version="1.0" encoding="UTF-8"?>
<svg width="30px" height="30px" viewBox="0 0 30 30" version="1.1" xmlns="http://www.w3.org/2000/svg" xmlns:xlink="http://www.w3.org/1999/xlink">
    <title>日历</title>
    <g id="页面-1" stroke="none" stroke-width="1" fill="none" fill-rule="evenodd">
        <g id="信息3" transform="translate(-647.000000, -653.000000)" fill="#999999" fill-rule="nonzero">
            <g id="日历" transform="translate(647.000000, 653.000000)">
                <path d="M22.8233097,2.38305819 L25.5764544,2.38305819 C27.9648192,2.38305819 29.8987814,4.31859276 29.8987814,6.71049528 L29.8987814,25.5709512 C29.8987814,27.9612814 27.964033,29.8987814 25.5764544,29.8987814 L4.34689464,29.8987814 C1.95852989,29.8987814 0.0245676223,27.9632469 0.0245676223,25.5713443 L0.0245676223,6.71088838 C0.0245676223,4.32055819 1.95931604,2.38305819 4.34689464,2.38305819 L7.10003932,2.38305819 L7.10003932,1.20381291 C7.10003932,0.552533719 7.62800542,0.0245676223 8.2792846,0.0245676223 C8.93056379,0.0245676223 9.45852989,0.552533719 9.45852989,1.20381291 L9.45852989,2.38305819 L20.4648192,2.38305819 L20.4648192,1.20381291 C20.4648192,0.552533719 20.9927853,0.0245676223 21.6440645,0.0245676223 C22.2953436,0.0245676223 22.8233097,0.552533719 22.8233097,1.20381291 L22.8233097,2.38305819 Z M22.8233097,4.74154875 L22.8233097,5.92079404 C22.8233097,6.57207322 22.2953436,7.10003932 21.6440645,7.10003932 C20.9927853,7.10003932 20.4648192,6.57207322 20.4648192,5.92079404 L20.4648192,4.74154875 L9.45852989,4.74154875 L9.45852989,5.92079404 C9.45852989,6.57207322 8.93056379,7.10003932 8.2792846,7.10003932 C7.62800542,7.10003932 7.10003932,6.57207322 7.10003932,5.92079404 L7.10003932,4.74154875 L4.34689464,4.74154875 C3.82535901,4.74217385 3.32543827,4.94997968 2.95713611,5.31924019 C2.58883395,5.68850071 2.38232796,6.18895979 2.38305153,6.71049528 L2.38305153,25.5709512 C2.38170077,26.092714 2.58799241,26.5935776 2.95641909,26.9630367 C3.32484576,27.3324958 3.82513011,27.5402909 4.34689464,27.5402909 L25.5764544,27.5402909 C26.09799,27.5396658 26.5979108,27.3318599 26.9662129,26.9625994 C27.3345151,26.5933389 27.5410211,26.0928798 27.5402975,25.5713443 L27.5402975,6.71088838 C27.5416483,6.1891256 27.3353566,5.68826202 26.96693,5.31880292 C26.5985033,4.94934382 26.0982189,4.74154875 25.5764544,4.74154875 L22.8233097,4.74154875 Z M22.430228,12.9962657 C23.0815072,12.9962657 23.6094733,13.5242318 23.6094733,14.175511 C23.6094733,14.8267902 23.0815072,15.3547563 22.430228,15.3547563 L7.49312106,15.3547563 C6.84184187,15.3547563 6.31387577,14.8267902 6.31387577,14.175511 C6.31387577,13.5242318 6.84184187,12.9962657 7.49312106,12.9962657 L22.430228,12.9962657 L22.430228,12.9962657 Z M17.7132469,18.8924922 C18.3645261,18.8924922 18.8924922,19.4204582 18.8924922,20.0717374 C18.8924922,20.7230166 18.3645261,21.2509827 17.7132469,21.2509827 L7.49312106,21.2509827 C6.84184187,21.2509827 6.31387577,20.7230166 6.31387577,20.0717374 C6.31387577,19.4204582 6.84184187,18.8924922 7.49312106,18.8924922 L17.7132469,18.8924922 Z" id="形状"></path>
            </g>
        </g>
    </g>
</svg>