<?xml version="1.0" encoding="UTF-8"?>
<svg width="30px" height="30px" viewBox="0 0 30 30" version="1.1" xmlns="http://www.w3.org/2000/svg" xmlns:xlink="http://www.w3.org/1999/xlink">
    <title>编辑备份</title>
    <g id="页面-1" stroke="none" stroke-width="1" fill="none" fill-rule="evenodd">
        <g id="信息2" transform="translate(-642.000000, -653.000000)" fill="#999999" fill-rule="nonzero">
            <g id="编辑备份" transform="translate(642.000000, 653.000000)">
                <path d="M10.6327766,23.8366769 L26.7322825,7.53006452 C27.4994629,6.75301233 27.4994629,5.58934797 26.7322825,4.81229579 L22.9001413,0.927034856 C22.1329609,0.149982669 20.9821904,0.149982669 20.21501,0.927034856 L4.11550408,17.6240873 C4.11550408,17.6240873 3.73191389,18.0106994 2.96473351,24.6137291 C2.96473351,25.0003413 2.96473351,25.0003413 3.3483237,25.3907813 L3.73191389,25.3907813 C10.2491864,24.6137291 10.6327766,24.2271169 10.6327766,23.8366769 Z M21.1326747,2.09452706 L25.3484061,6.36640016 L23.0468649,8.3071167 L19.2147237,4.42185577 L21.1326747,2.09452706 Z M17.680363,5.58934797 L21.8960944,9.86122108 L10.0123198,21.8959604 L5.80034913,17.6240873 L17.680363,5.58934797 L17.680363,5.58934797 Z M5.03316875,19.1781916 L8.86530996,23.0596247 C7.71453939,23.0596247 5.80034913,23.4462369 4.26598837,23.4462369 C4.26598837,21.8959604 4.64957856,19.9552438 5.03316875,19.1781916 L5.03316875,19.1781916 Z M28.9502219,27.2673226 L1.77853994,27.2673226 C1.3097457,27.2673226 0.840951453,27.6539348 0.840951453,28.0443748 C0.37215721,28.430987 0.840951453,28.821427 1.77853994,28.821427 L28.9502219,28.821427 C29.4190162,28.821427 29.8878104,28.4348148 29.8878104,28.0443748 C29.8878104,27.6539348 29.4190162,27.2673226 28.9502219,27.2673226 Z" id="形状"></path>
            </g>
        </g>
    </g>
</svg>