<?xml version="1.0" encoding="UTF-8"?>
<svg width="31px" height="31px" viewBox="0 0 31 31" version="1.1" xmlns="http://www.w3.org/2000/svg" xmlns:xlink="http://www.w3.org/1999/xlink">
    <title>形状结合</title>
    <g id="页面-1" stroke="none" stroke-width="1" fill="none" fill-rule="evenodd">
        <g id="宠物详情备份-2" transform="translate(-46.000000, -1284.000000)" fill="#979797">
            <path d="M69,1284 C73.418278,1284 77,1287.58172 77,1292 L77,1307 C77,1311.41828 73.418278,1315 69,1315 L54,1315 C49.581722,1315 46,1311.41828 46,1307 L46,1292 C46,1287.58172 49.581722,1284 54,1284 L69,1284 Z M61,1302 L54,1302 C52.8954305,1302 52,1302.89543 52,1304 C52,1305.10457 52.8954305,1306 54,1306 L54,1306 L61,1306 C62.1045695,1306 63,1305.10457 63,1304 C63,1302.89543 62.1045695,1302 61,1302 L61,1302 Z M69,1294 L54,1294 C52.8954305,1294 52,1294.89543 52,1296 C52,1297.10457 52.8954305,1298 54,1298 L54,1298 L69,1298 C70.1045695,1298 71,1297.10457 71,1296 C71,1294.89543 70.1045695,1294 69,1294 L69,1294 Z" id="形状结合"></path>
        </g>
    </g>
</svg>