<?xml version="1.0" encoding="UTF-8"?>
<svg width="26px" height="24px" viewBox="0 0 26 24" version="1.1" xmlns="http://www.w3.org/2000/svg" xmlns:xlink="http://www.w3.org/1999/xlink">
    <title>健康备份</title>
    <g id="页面-1" stroke="none" stroke-width="1" fill="none" fill-rule="evenodd">
        <g id="宠物详情备份-2" transform="translate(-47.000000, -1683.000000)" fill-rule="nonzero">
            <g id="健康备份" transform="translate(47.000000, 1683.000000)">
                <polygon id="路径" fill-opacity="0.603360263" fill="#3BC99A" points="1.78051758 11.394043 9.55957031 20.128418 13.1396484 22.6547852 22.8928223 13.5935059 23.8100586 10.8354492 16.5546875 10.6386719 15.2756348 9.61987305 13.6315918 13.0698242 10.2832031 8.63598633 8.67407227 10.9338379 1.48535156 10.8671875"></polygon>
                <path d="M18.4621582,0.0222167969 C16.4182129,0.0222167969 14.4631348,0.799804687 12.9841309,2.18041992 C11.505127,0.799804687 9.55004883,0.0222167969 7.50610352,0.0222167969 C3.31030273,0.0222167969 0.0222167969,3.25317383 0.0222167969,7.38232422 C0.0222167969,12.2033691 4.15454102,15.9072266 10.4101562,21.512207 L12.4191895,23.2736816 C12.7429199,23.5561523 13.2253418,23.5561523 13.5490723,23.2736816 L15.2788086,21.7597656 L15.5549316,21.512207 C21.8105469,15.9072266 25.9428711,12.2033691 25.9428711,7.38232422 C25.9428711,3.25317383 22.657959,0.0222167969 18.4621582,0.0222167969 Z M7.72192383,1.6027832 C9.55957031,1.65991211 11.2766113,2.54858398 12.4794922,3.9387207 L12.980957,4.51635742 L13.4824219,3.9387207 C14.6884766,2.54858398 16.4023437,1.65991211 18.2399902,1.6027832 C21.715332,1.49169922 24.3654785,4.01489258 24.3654785,7.38232422 C24.3654785,8.37255859 24.1337891,9.32470703 23.7084961,10.2800293 L17.0466309,10.2800293 L16.434082,9.00097656 C16.2849121,8.68676758 15.973877,8.50268555 15.6184082,8.48681641 C15.2724609,8.48999023 14.9519043,8.69311523 14.8059082,9.00732422 L13.295166,12.076416 L11.3972168,8.09960937 C11.2416992,7.77270508 10.9274902,7.52832031 10.5656738,7.515625 C10.2197266,7.50292969 9.91503906,7.66796875 9.73730469,7.95361328 L8.27099609,10.286377 L2.25976562,10.286377 C1.83129883,9.33105469 1.59960653,8.37255859 1.59960653,7.38232422 C1.59643555,4.01171875 4.24658203,1.49169922 7.72192383,1.6027832 Z M14.5043945,20.3378906 L13.5490723,21.1789551 C13.2253418,21.4645996 12.7397461,21.4645996 12.4160156,21.1789551 L11.4606934,20.3378906 C7.73779297,17.0021973 4.80517578,14.3742676 3.13891602,11.8637695 L9.14379883,11.8637695 L10.451416,9.77856445 L12.4223633,13.904541 C12.5842285,14.2473145 12.9238281,14.4599609 13.3015137,14.4599609 L13.3046875,14.4599609 C13.6855469,14.4599609 14.0219727,14.2441406 14.1838379,13.8981934 L15.6279297,10.9719238 L16.0214844,11.7971191 L22.8674316,11.800293 C21.2075195,14.3266602 18.262207,16.970459 14.5043945,20.3378906 L14.5043945,20.3378906 Z" id="形状" fill="#1FB61C"></path>
            </g>
        </g>
    </g>
</svg>