<?xml version="1.0" encoding="UTF-8"?>
<svg width="25px" height="25px" viewBox="0 0 25 25" version="1.1" xmlns="http://www.w3.org/2000/svg" xmlns:xlink="http://www.w3.org/1999/xlink">
    <title>用药备份</title>
    <g id="页面-1" stroke="none" stroke-width="1" fill="none" fill-rule="evenodd">
        <g id="宠物详情备份-2" transform="translate(-48.000000, -1557.000000)" fill="#38C1CA" fill-rule="nonzero">
            <g id="用药备份" transform="translate(48.000000, 1557.000000)">
                <path d="M19.7428741,17.4716865 L6.80564816,5.03596475 L9.35682266,2.58487165 C10.6429817,1.3439388 12.287076,0.502997762 14.0760879,0.171005393 C16.4246431,-0.26651139 18.8580396,0.19540311 20.8574847,1.45827011 C21.8926258,2.11659727 22.7790163,2.96693653 23.4636765,3.9642238 C25.4694996,6.90231196 25.4694996,10.7051124 23.4636765,13.6432005 C23.1213464,14.1389052 22.7280743,14.6013017 22.2899732,15.0205934 L19.7428741,17.4716865 L19.7428741,17.4716865 Z M9.15509241,24.0099177 C7.36611306,24.0099177 5.6163578,23.5057497 4.12202451,22.5600068 C3.08622677,21.9018089 2.1991302,21.0494978 1.51379499,20.0540531 C-0.492028036,17.115965 -0.492028036,13.3131646 1.51379499,10.3750764 C1.85612511,9.87937173 2.24735954,9.41697527 2.68749827,8.99768357 L5.23459741,6.54659047 L18.1697857,18.9823122 L15.6226865,21.4334053 C13.9107551,23.0876713 11.582144,24.0153177 9.15509241,24.0099177 L9.15509241,24.0099177 Z M4.49288214,11.1979854 C2.33294207,13.2748508 2.15566397,16.4822364 4.09757235,18.349456 C4.53323433,18.7454901 5.21741988,18.736688 5.64190638,18.3295881 C6.06639288,17.9224882 6.07732642,17.2646425 5.66658542,16.8447082 C5.40432557,16.5939005 5.20864039,16.2861264 5.09603522,15.9473456 C5.03842332,15.7766769 4.99949649,15.6006919 4.9798875,15.4222513 C4.95856552,15.2381095 4.95583588,15.0524152 4.97173678,14.8677674 C5.00559811,14.4769337 5.11477284,14.0955663 5.29369011,13.7431252 C5.48523197,13.3551824 5.74401724,13.0044664 6.05985753,12.7027332 C6.33940674,12.4332359 6.44819476,12.0408084 6.34524219,11.6732745 C6.24228963,11.3057405 5.94323742,11.0189372 5.56073565,10.9209006 C5.17823387,10.8228639 4.77039366,10.9284881 4.49084446,11.1979854 L4.49288214,11.1979854 Z" id="形状"></path>
            </g>
        </g>
    </g>
</svg>