<?xml version="1.0" encoding="UTF-8"?>
<svg width="34px" height="34px" viewBox="0 0 34 34" version="1.1" xmlns="http://www.w3.org/2000/svg" xmlns:xlink="http://www.w3.org/1999/xlink">
    <title>新增备份 5</title>
    <g id="页面-1" stroke="none" stroke-width="1" fill="none" fill-rule="evenodd">
        <g id="编辑/完善资料" transform="translate(-585.000000, -694.000000)" fill="#999999" fill-rule="nonzero">
            <g id="新增备份-5" transform="translate(585.000000, 694.000000)">
                <path d="M4.97650057,4.96228801 C-1.62529297,11.5640816 -1.62440215,22.2690525 4.97844417,28.8719393 C11.5818574,35.4753525 22.2868283,35.4762838 28.8886623,28.8744498 C35.4907393,22.2723728 35.4896865,11.5675638 28.8862733,4.96411014 C22.283427,-1.63873619 11.5785776,-1.63978897 4.97654106,4.96228801 L4.97650057,4.96228801 Z M27.6872356,27.6730231 C21.7484518,33.6118069 12.1192216,33.6111185 6.17926353,27.6711604 C0.239669874,21.7315668 0.239102992,12.1024176 6.17784632,6.16363377 C12.1164682,0.225011909 21.7456174,0.225578792 27.685211,6.16517245 C33.6251286,12.1051305 33.625817,21.7344012 27.6871951,27.6729826 L27.6872356,27.6730231 Z M15.9796113,7.65538538 L15.9796923,13.4612352 L15.9758861,13.457429 L15.9758456,15.9615925 L7.66963843,15.961633 L7.66963843,17.8713796 L15.9758861,17.8751048 L15.9758456,26.1813524 L17.8855516,26.1813524 L17.8855111,20.3755026 L17.8893579,20.3793493 L17.8893174,17.8751858 L26.195565,17.8751453 L26.195565,15.9654392 L17.8893983,15.9615925 L17.8893579,7.65538538 L15.9796113,7.65538538 Z" id="形状"></path>
            </g>
        </g>
    </g>
</svg>