<?xml version="1.0" encoding="UTF-8"?>
<svg width="30px" height="30px" viewBox="0 0 30 30" version="1.1" xmlns="http://www.w3.org/2000/svg" xmlns:xlink="http://www.w3.org/1999/xlink">
    <title>形状结合</title>
    <defs>
        <linearGradient x1="50%" y1="0%" x2="50%" y2="98.2280171%" id="linearGradient-1">
            <stop stop-color="#F4BE5D" offset="0%"></stop>
            <stop stop-color="#E27536" offset="100%"></stop>
        </linearGradient>
    </defs>
    <g id="页面-1" stroke="none" stroke-width="1" fill="none" fill-rule="evenodd">
        <g id="陪伴师详情5" transform="translate(-46.000000, -2352.000000)" fill="url(#linearGradient-1)">
            <g id="编组-8备份" transform="translate(22.000000, 2315.000000)">
                <path d="M46,37 C50.418278,37 54,40.581722 54,45 L54,59 C54,63.418278 50.418278,67 46,67 L32,67 C27.581722,67 24,63.418278 24,59 L24,45 C24,40.581722 27.581722,37 32,37 L46,37 Z M38.516129,54.4193548 L31.7419355,54.4193548 C30.6729973,54.4193548 29.8064516,55.2859005 29.8064516,56.3548387 C29.8064516,57.4237769 30.6729973,58.2903226 31.7419355,58.2903226 L31.7419355,58.2903226 L38.516129,58.2903226 C39.5850673,58.2903226 40.4516129,57.4237769 40.4516129,56.3548387 C40.4516129,55.2859005 39.5850673,54.4193548 38.516129,54.4193548 L38.516129,54.4193548 Z M46.2580645,46.6774194 L31.7419355,46.6774194 C30.6729973,46.6774194 29.8064516,47.543965 29.8064516,48.6129032 C29.8064516,49.6818415 30.6729973,50.5483871 31.7419355,50.5483871 L31.7419355,50.5483871 L46.2580645,50.5483871 C47.3270027,50.5483871 48.1935484,49.6818415 48.1935484,48.6129032 C48.1935484,47.543965 47.3270027,46.6774194 46.2580645,46.6774194 L46.2580645,46.6774194 Z" id="形状结合"></path>
            </g>
        </g>
    </g>
</svg>