<?xml version="1.0" encoding="UTF-8"?>
<svg width="30px" height="24px" viewBox="0 0 30 24" version="1.1" xmlns="http://www.w3.org/2000/svg" xmlns:xlink="http://www.w3.org/1999/xlink">
    <title>形状结合</title>
    <defs>
        <linearGradient x1="50%" y1="0%" x2="50%" y2="98.2280171%" id="linearGradient-1">
            <stop stop-color="#F4BE5D" offset="0%"></stop>
            <stop stop-color="#E27536" offset="100%"></stop>
        </linearGradient>
    </defs>
    <g id="页面-1" stroke="none" stroke-width="1" fill="none" fill-rule="evenodd">
        <g id="陪伴师详情5" transform="translate(-46.000000, -1462.000000)" fill="url(#linearGradient-1)">
            <g id="编组-11备份-2" transform="translate(22.000000, 1421.000000)">
                <g id="服务2" transform="translate(24.000000, 41.000000)">
                    <path d="M11.8133152,2.0585986 L13.7605202,4.00394022 L10.2145575,7.62257376 C8.64561335,9.22692158 8.58784938,11.8207104 10.1269798,13.5405862 C10.8667314,14.3697787 12.0835016,14.6790955 13.2387811,14.6790955 C14.3977873,14.6790955 15.0480978,14.2356172 16.1512034,13.4287849 L19.8313276,9.79897127 L24.8344332,14.8020769 L16.2443711,23.392139 C16.2182842,23.4182259 16.1810171,23.4275427 16.1530668,23.4517663 C15.4356755,24.0797166 14.280396,24.0685365 13.6002717,23.392139 L2.04002329,11.8281638 C0.739583932,10.535375 0.0102602907,8.77614171 0.0145385715,6.94244953 C0.0145385715,5.09772904 0.735675466,3.36108307 2.04002329,2.05673525 C4.64871894,-0.551960404 9.20089286,-0.553823758 11.8133152,2.0585986 Z M27.8083463,2.05487189 C30.5009934,4.75697309 30.5009934,9.12792597 27.8083463,11.8300272 L25.9058618,13.7325116 L21.3630047,9.1896545 L20.7443711,8.57102096 L20.7425078,8.57288432 L19.7549301,7.59462345 L14.9772904,12.4207104 C14.0791537,13.2387228 12.1897127,13.192139 11.317663,12.3219526 C10.4493401,11.4536297 10.4661102,9.64990295 11.3400233,8.77598991 L15.3257376,4.75300854 L15.3313276,4.7585986 L18.033191,2.05673525 C20.7339321,-0.638474671 25.1065779,-0.639308191 27.8083463,2.05487189 Z" id="形状结合"></path>
                </g>
            </g>
        </g>
    </g>
</svg>