<svg xmlns="http://www.w3.org/2000/svg" xmlns:xlink="http://www.w3.org/1999/xlink" fill="none" version="1.1" width="433" height="433" viewBox="0 0 433 433"><defs><mask id="master_svg0_8_3388" style="mask-type:alpha" maskUnits="objectBoundingBox"><g><ellipse cx="216.5" cy="216.5" rx="216.5" ry="216.5" fill="#FFFFFF" fill-opacity="1"/></g></mask></defs><g><g><ellipse cx="216.5" cy="216.5" rx="216.5" ry="216.5" fill="#E7CB29" fill-opacity="1"/></g><g mask="url(#master_svg0_8_3388)"><g><g><path d="M115.11376569003906,163.4777551610547C122.04339529003906,161.19787618105468,130.88142729003906,169.0492920810547,134.81991729003906,181.0017760810547C138.75840529003906,192.95426008105468,136.34931229003905,204.50203708105468,129.40613529003906,206.7684250810547C122.46296129003906,209.0348200810547,113.63847539003906,201.19688808105468,109.69998779003906,189.24440608105468C105.76150039003906,177.2919180810547,108.17058858003907,165.74415138105468,115.11376569003906,163.4777551610547ZM317.900387290039,163.4777551610547C310.95719729003906,161.19787618105468,302.1327372900391,169.0492920810547,298.1807072900391,181.0017760810547C294.2286672900391,192.9677450810547,296.651287290039,204.50203708105468,303.59446729003906,206.7684250810547C310.5376572900391,209.0348200810547,319.3621372900391,201.19688808105468,323.3141772900391,189.24440608105468C327.26620729003906,177.2919180810547,324.84356729003906,165.74415138105468,317.900387290039,163.4777551610547Z" fill="#F7C5AA" fill-opacity="1" style="mix-blend-mode:passthrough"/></g><g><path d="M179.82167,284.000732421875C98.709747,319.439991421875,74.388317,338.339996421875,64.765345,346.825466421875C49.972206,359.897659421875,41.743238399999996,408.624942421875,33,449.99998242187496L400,449.99998242187496C391.25677,408.624942421875,383.0549,359.911155421875,368.23471,346.825466421875C358.61172,338.339996421875,335.15652,319.925624421875,254.07166,284.486387251875L179.80821,284.000732421875L179.82167,284.000732421875Z" fill="#2696FF" fill-opacity="1" style="mix-blend-mode:passthrough"/></g><g><path d="M255.8863377265625,213.35190620703125L255.8863377265625,302.96855720703127C234.2312207265625,329.4097272070312,198.7845057265625,328.49236720703124,177.1158447265625,302.96855720703127L177.1158447265625,213.35190620703125C177.1158447265625,164.96188320703124,255.8863377265625,164.96188320703124,255.8863377265625,213.35190620703125Z" fill="#FFDECC" fill-opacity="1" style="mix-blend-mode:passthrough"/></g><g><path d="M255.8862537265625,213.35190620703125L255.8862537265625,273.34365820703124C240.9848137265625,284.1629672070312,226.6247867265625,290.23365720703123,216.5010487265625,290.23365720703123C206.3773117265625,290.23365720703123,192.0172017265625,284.18994720703125,177.1158447265625,273.34365820703124L177.1158447265625,213.35190620703125C177.1158447265625,164.96188320703124,255.8863377265625,164.96188320703124,255.8862537265625,213.35190620703125Z" fill="#F7C5AA" fill-opacity="1" style="mix-blend-mode:passthrough"/></g><g><path d="M173.3797264003906,283.0428161621094L145.45816040039062,298.11160016210937L185.95319340039063,354.06975516210935L216.6763994003906,325.01144016210935L173.36617840039062,283.04283674680835L173.3797264003906,283.0428161621094Z" fill="#FFFFFF" fill-opacity="1" style="mix-blend-mode:passthrough"/></g><g><path d="M259.9874606396484,283.0428161621094L287.9090196396484,298.11160016210937L247.41398963964843,354.06975516210935L216.69078063964844,325.01144016210935L259.9874606396484,283.0428161621094Z" fill="#FFFFFF" fill-opacity="1" style="mix-blend-mode:passthrough"/></g><g><path d="M107.77640533447266,449.9863619628906L114.06995583447265,449.9863619628906C113.78570273447265,422.15568196289064,113.78570273447265,402.0685119628906,113.78570273447265,402.0685119628906C113.78570273447265,402.0685119628906,110.99761013447265,422.92464296289063,107.77640533447266,449.9863619628906ZM325.22080533447263,449.9863619628906L318.9272353344727,449.9863619628906C319.21147533447265,422.15568196289064,319.21147533447265,402.0685119628906,319.21147533447265,402.0685119628906C319.21147533447265,402.0685119628906,321.99956533447266,422.92464296289063,325.22080533447263,449.9863619628906Z" fill="#0978D3" fill-opacity="1" style="mix-blend-mode:passthrough"/></g><g><path d="M216.6763994448242,58.92696646910781C84.49895444482422,58.92696646910781,132.04546974482423,218.1135561767578,140.66698844482423,230.7945061767578C150.1817434448242,244.77055617675782,195.3190914448242,281.8016661767578,216.6763994448242,281.8016661767578C238.03371844482422,281.8016661767578,283.1575884448242,244.7570661767578,292.6723384448242,230.7945061767578C301.3208684448242,218.1135561767578,348.8538484448242,58.92696646910781,216.6763994448242,58.92696646910781Z" fill="#FFDECC" fill-opacity="1" style="mix-blend-mode:passthrough"/></g><g><path d="M156.25841491992188,112.200851C148.58440391992187,153.9536,129.3925710199219,150.05488,130.9084234199219,199.05197C124.73671853992188,160.87416000000002,115.53331281992187,110.055862,141.57357191992187,76.58621C162.38955291992187,49.8347652,231.32048291992186,30.705398000000002,275.95704291992183,62.785547C325.26301291992183,73.281069,309.8608429199219,173.32580000000002,303.22900291992187,192.23933C298.61375291992186,161.61613,288.27345291992185,148.85423,275.22622291992184,112.834908C257.52314291992184,125.488892,178.95570791992188,128.321854,156.25841491992188,112.187355L156.25841491992188,112.200851Z" fill="#3C3C3B" fill-opacity="1" style="mix-blend-mode:passthrough"/></g></g></g></g></svg>