<svg xmlns="http://www.w3.org/2000/svg" xmlns:xlink="http://www.w3.org/1999/xlink" fill="none" version="1.1" width="35" height="60" viewBox="0 0 35 60"><g><g><path d="M31.499998,0L3.5000002,0C1.5645,0,0,1.6764706,0,3.7482355L0,56.251774C0,58.323528,1.5645,60,3.5000002,60L31.499998,60C33.432003,60,35.000004,58.319996,35.000004,56.251774L35.000004,3.7482355C35.000004,1.6764706,33.432003,0,31.499998,0ZM17.500002,56.470585C15.567003,56.470585,13.999999,54.890415,13.999999,52.941174C13.999999,50.991932,15.567003,49.411762,17.500002,49.411762C19.432999,49.411762,21.000002,50.991932,21.000002,52.941174C21.000002,54.890415,19.432999,56.470585,17.500002,56.470585ZM31.499998,45.882355L3.5000002,45.882355L3.5000002,7.0588231L31.499998,7.0588231L31.499998,45.882355Z" fill="#DADADA" fill-opacity="1" style="mix-blend-mode:passthrough"/></g></g></svg>