<svg xmlns="http://www.w3.org/2000/svg" xmlns:xlink="http://www.w3.org/1999/xlink" fill="none" version="1.1" width="60" height="60" viewBox="0 0 60 60"><g><g><path d="M22.57802724375,23.1027097609375Q22.57802724375,23.3232431609375,22.56670764375,23.5427150609375Q22.55538754375,23.762186060937502,22.532856943749998,23.9784817609375Q22.51032684375,24.1947774609375,22.47680284375,24.4058151609375Q22.44327924375,24.6168522609375,22.39908404375,24.8205985609375Q22.35488934375,25.0243453609375,22.30044934375,25.2188386609375Q22.24600984375,25.413331960937498,22.18184854375,25.5966982609375Q22.11768774375,25.7800655609375,22.04442404375,25.9505405609375Q21.97115994375,26.121015060937502,21.88949874375,26.276955560937502Q21.80783744375,26.4328966609375,21.718565443750002,26.5728011609375Q21.62929294375,26.7127056609375,21.53326944375,26.8352270609375Q21.43724634375,26.9577503609375,21.33539624375,27.0617084609375Q21.23354624375,27.1656675609375,21.12685064375,27.250061060937497Q21.02015544375,27.334455460937498,20.90964174375,27.3984737609375Q20.79912804375,27.462491060937502,20.685860443750002,27.505515060937498Q20.57259324375,27.5485401609375,20.45766304375,27.5701560609375Q20.34273264375,27.5917720609375,20.22724604375,27.5917720609375Q20.11175964375,27.5917720609375,19.99682924375,27.5701560609375Q19.88189884375,27.5485401609375,19.768631343750002,27.505515060937498Q19.65536394375,27.4624919609375,19.54485024375,27.3984737609375Q19.43433654375,27.3344573609375,19.32764084375,27.2500619609375Q19.22094534375,27.1656684609375,19.11909544375,27.0617093609375Q19.01724554375,26.9577503609375,18.921221943749998,26.8352279609375Q18.82519853375,26.712706560937498,18.73592621375,26.572802060937498Q18.64665401375,26.4328970609375,18.56499266375,26.2769560609375Q18.48333144375,26.1210155609375,18.41006755375,25.9505410609375Q18.33680373375,25.7800664609375,18.27264285375,25.5966987609375Q18.20848202375,25.413331960937498,18.15404209375,25.2188386609375Q18.09960213375,25.0243453609375,18.05540737375,24.8205985609375Q18.01121263375,24.6168522609375,17.97768867375,24.4058151609375Q17.94416472275,24.1947774609375,17.92163443575,23.9784817609375Q17.89910414775,23.762186060937502,17.88778449575,23.5427150609375Q17.87646484375,23.3232431609375,17.87646484375,23.1027097609375Q17.87646484375,22.8821763609375,17.88778449575,22.6627044609375Q17.89910414775,22.4432330609375,17.92163443575,22.2269370609375Q17.94416472275,22.010641060937502,17.97768867375,21.7996036609375Q18.01121263375,21.5885662609375,18.05540737375,21.3848199609375Q18.09960213375,21.1810736609375,18.15404206375,20.9865805609375Q18.20848202375,20.7920873609375,18.27264285375,20.6087204609375Q18.33680373375,20.4253535609375,18.41006755375,20.2548788609375Q18.48333144375,20.0844042609375,18.56499266375,19.9284633609375Q18.64665401375,19.7725226609375,18.73592615375,19.6326177609375Q18.82519841375,19.4927127409375,18.92122184375,19.370190860937498Q19.01724544375,19.2476690409375,19.11909544375,19.1437102509375Q19.22094534375,19.0397514709375,19.32764084375,18.9553569509375Q19.43433654375,18.8709624709375,19.54485024375,18.8069449709375Q19.65536384375,18.7429274809375,19.76863124375,18.6999035249375Q19.88189884375,18.6568795819375,19.99682924375,18.6352635209375Q20.11175964375,18.6136474609375,20.22724604375,18.6136474609375Q20.34273264375,18.6136474609375,20.45766304375,18.6352635209375Q20.57259344375,18.6568795819375,20.68586064375,18.6999035249375Q20.79912804375,18.7429274809375,20.90964174375,18.8069449709375Q21.02015544375,18.8709624709375,21.12685064375,18.9553569509375Q21.233546543750002,19.0397514709375,21.33539624375,19.1437102509375Q21.43724634375,19.2476690409375,21.53326964375,19.370190860937498Q21.62929344375,19.4927127409375,21.71856594375,19.6326177609375Q21.807837943750002,19.7725226609375,21.88949914375,19.9284633609375Q21.97116044375,20.0844042609375,22.04442404375,20.2548788609375Q22.11768814375,20.4253535609375,22.18184854375,20.6087202609375Q22.24600984375,20.7920873609375,22.30044934375,20.9865803609375Q22.35488934375,21.1810736609375,22.39908404375,21.3848197609375Q22.44327924375,21.5885662609375,22.47680334375,21.7996036609375Q22.51032734375,22.010641060937502,22.53285744375,22.2269368609375Q22.55538754375,22.4432330609375,22.56670764375,22.6627044609375Q22.57802724375,22.8821763609375,22.57802724375,23.1027097609375Z" fill="#DADADA" fill-opacity="1" style="mix-blend-mode:passthrough"/></g><g><path d="M41.656640525,23.1027097609375Q41.656640525,23.3232431609375,41.645320925,23.5427150609375Q41.634000825,23.762186060937502,41.611470225,23.9784817609375Q41.588940125,24.1947774609375,41.555416125,24.4058151609375Q41.521892525,24.6168522609375,41.477697325,24.8205985609375Q41.433502625,25.0243453609375,41.379062625,25.2188386609375Q41.324623125,25.413331960937498,41.260461825,25.5966982609375Q41.196301025,25.7800655609375,41.123037325,25.9505405609375Q41.049773225,26.121015060937502,40.968112024999996,26.276955560937502Q40.886450725,26.4328966609375,40.797178725,26.5728011609375Q40.707906225,26.7127056609375,40.611882725,26.8352270609375Q40.515859625,26.9577503609375,40.414009525,27.0617084609375Q40.312159525,27.1656675609375,40.205463925000004,27.250061060937497Q40.098768725,27.334455460937498,39.988255025,27.3984737609375Q39.877741325,27.462491060937502,39.764473725,27.505515060937498Q39.651206525,27.5485401609375,39.536276325,27.5701560609375Q39.421345925,27.5917720609375,39.305859325,27.5917720609375Q39.190372925,27.5917720609375,39.075442525,27.5701560609375Q38.960512125,27.5485401609375,38.847244625,27.505515060937498Q38.733977225,27.4624919609375,38.623463525,27.3984737609375Q38.512949825,27.3344573609375,38.406254125,27.2500619609375Q38.299558625,27.1656684609375,38.197708725,27.0617093609375Q38.095858825,26.9577503609375,37.999835225,26.8352279609375Q37.903811815,26.712706560937498,37.814539495,26.572802060937498Q37.725267295,26.4328970609375,37.643605945,26.2769560609375Q37.561944725000004,26.1210155609375,37.488680835,25.9505410609375Q37.415417015,25.7800664609375,37.351256135,25.5966987609375Q37.287095305,25.413331960937498,37.232655375,25.2188386609375Q37.178215415,25.0243453609375,37.134020655,24.8205985609375Q37.089825915,24.6168522609375,37.056301955,24.4058151609375Q37.022778004,24.1947774609375,37.000247717,23.9784817609375Q36.977717429,23.762186060937502,36.966397777,23.5427150609375Q36.955078125,23.3232431609375,36.955078125,23.1027097609375Q36.955078125,22.8821763609375,36.966397777,22.6627044609375Q36.977717429,22.4432330609375,37.000247717,22.2269370609375Q37.022778004,22.010641060937502,37.056301955,21.7996036609375Q37.089825915,21.5885662609375,37.134020655,21.3848199609375Q37.178215415,21.1810736609375,37.232655345,20.9865805609375Q37.287095305,20.7920873609375,37.351256135,20.6087204609375Q37.415417015,20.4253535609375,37.488680835,20.2548788609375Q37.561944725000004,20.0844042609375,37.643605945,19.9284633609375Q37.725267295,19.7725226609375,37.814539435,19.6326177609375Q37.903811695,19.4927127409375,37.999835125,19.370190860937498Q38.095858725,19.2476690409375,38.197708725,19.1437102509375Q38.299558625,19.0397514709375,38.406254125,18.9553569509375Q38.512949825,18.8709624709375,38.623463525,18.8069449709375Q38.733977125,18.7429274809375,38.847244525,18.6999035249375Q38.960512125,18.6568795819375,39.075442525,18.6352635209375Q39.190372925,18.6136474609375,39.305859325,18.6136474609375Q39.421345925,18.6136474609375,39.536276325,18.6352635209375Q39.651206725,18.6568795819375,39.764473925,18.6999035249375Q39.877741325,18.7429274809375,39.988255025,18.8069449709375Q40.098768725,18.8709624709375,40.205463925000004,18.9553569509375Q40.312159825,19.0397514709375,40.414009525,19.1437102509375Q40.515859625,19.2476690409375,40.611882925,19.370190860937498Q40.707906725,19.4927127409375,40.797179225,19.6326177609375Q40.886451225,19.7725226609375,40.968112425,19.9284633609375Q41.049773725,20.0844042609375,41.123037325,20.2548788609375Q41.196301425,20.4253535609375,41.260461825,20.6087202609375Q41.324623125,20.7920873609375,41.379062625,20.9865803609375Q41.433502625,21.1810736609375,41.477697325,21.3848197609375Q41.521892525,21.5885662609375,41.555416625,21.7996036609375Q41.588940625,22.010641060937502,41.611470725000004,22.2269368609375Q41.634000825,22.4432330609375,41.645320925,22.6627044609375Q41.656640525,22.8821763609375,41.656640525,23.1027097609375Z" fill="#DADADA" fill-opacity="1" style="mix-blend-mode:passthrough"/></g><g><path d="M29.76992075,49.3863030859375C20.35351565,49.3863030859375,12.68359375,42.4933350859375,12.68359375,34.0198976859375C12.68359375,32.6452880859375,13.79921865,31.5296630859375,15.17382815,31.5296630859375L44.35937475,31.5296630859375C45.73398175,31.5296630859375,46.84960975,32.6452880859375,46.84960975,34.0198976859375C46.84960975,42.4933350859375,39.18632475,49.3863030859375,29.76992075,49.3863030859375ZM18.01601555,36.5101322859375C19.31757735,41.0390376859375,24.09218575,44.4058350859375,29.76328075,44.4058350859375C35.43437175,44.4058350859375,40.20898475,41.0390376859375,41.51054375,36.5101322859375L18.01601555,36.5101322859375Z" fill="#DADADA" fill-opacity="1" style="mix-blend-mode:passthrough"/></g><g><path d="M29.769922,59.546478C13.354298,59.546478,0,46.192181,0,29.776558C0,26.535934,0.51796877,23.341793,1.5406251,20.293747C1.9789063,18.992186,3.3867188,18.29492,4.694922,18.726561C5.9964848,19.164841,6.7003908,20.579294,6.2621098,21.880857C5.4121099,24.417574,4.9804692,27.073824,4.9804692,29.776558C4.9804692,43.449604,16.103516,54.56601,29.769922,54.56601C43.436329,54.56601,54.559376,43.442963,54.559376,29.776558C54.559376,16.110153,43.436329,4.9871087,29.769922,4.9871087C22.013674,4.9871087,14.848438,8.5132799,10.113672,14.669139C9.2703123,15.758202,7.7097659,15.95742,6.6207032,15.127342C5.5316405,14.290624,5.3257813,12.723435,6.1625004,11.634374C11.846875,4.2367182,20.453127,0,29.769922,0C46.185547,0,59.539845,13.354295,59.539845,29.769918C59.539845,46.185539,46.185547,59.546478,29.769922,59.546478Z" fill="#DADADA" fill-opacity="1" style="mix-blend-mode:passthrough"/></g></g></svg>