<svg xmlns="http://www.w3.org/2000/svg" xmlns:xlink="http://www.w3.org/1999/xlink" fill="none" version="1.1" width="61" height="60" viewBox="0 0 61 60"><defs><clipPath id="master_svg0_8_1298"><rect x="60.9375" y="60.00000317765421" width="60.9375" height="60" rx="0"/></clipPath></defs><g transform="matrix(-1,-5.2146120310681e-8,5.2146120310681e-8,-1,121.87499687123261,120.00000953296262)" clip-path="url(#master_svg0_8_1298)"><g><path d="M97.933926,115.7165141776542L84.88406,115.7165141776542C83.65638,115.6751551776542,82.63834,116.6457741776542,82.63834,117.85763817765421C82.63834,119.0694951776542,83.65638200000001,120.0401151776542,84.88406,119.99875217765421L97.933926,119.99875217765421C99.161606,120.0401151776542,100.179649,119.0694951776542,100.179649,117.85763817765421C100.179649,116.6457741776542,99.161606,115.6751551776542,97.933926,115.7165141776542ZM91.408993,68.6094639776542C92.608337,68.6094639776542,93.580597,67.6502936776542,93.580597,66.46709857765421L93.580597,62.14236887765421C93.580597,60.95917327765421,92.608337,60.00000317765421,91.408993,60.00000317765421C90.209656,60.00000317765421,89.237398,60.95917250765421,89.237394,62.14236887765421L89.237394,66.46709857765421C89.237394,67.6495240776542,90.210432,68.6094639776542,91.408993,68.6094639776542ZM115.61079000000001,70.36435317765421C114.763012,69.52934297765421,113.389954,69.52934297765421,112.542175,70.36435317765421L109.440617,73.42166217765421C108.593243,74.25832017765421,108.593807,75.61425017765421,109.441879,76.45022117765421C110.28995499999999,77.28618917765421,111.664394,77.28563217765421,112.51176799999999,76.44897217765421L115.61079000000001,73.3916651776542C116.45859899999999,72.55587117765421,116.45859899999999,71.2001471776542,115.61079000000001,70.36435317765421ZM73.022617,76.3589791776542C73.868732,75.52347217765421,73.868732,74.16967717765421,73.022617,73.3341691776542L69.9210577,70.2718611776542C69.0729828,69.4352019776542,67.6979814,69.4352019776542,66.849905,70.2718591776542C66.0018296,71.1085181776542,66.0018291,72.4650111776542,66.8499045,73.3016691776542L69.9539986,76.3589791776542C70.8020658,77.19565717765421,72.17708400000001,77.19565717765421,73.025151,76.3589791776542L73.022617,76.3589791776542ZM67.5670137,94.4578511776542L63.1807384,94.4578511776542C61.9530354,94.41645017765421,60.9349582382,95.38708017765421,60.9349582382,96.5989601776542C60.9349581674,97.81084717765421,61.9530355,98.78147817765421,63.1807384,98.7400771776542L67.5644803,98.7400771776542C68.7921829,98.78147817765421,69.8102608,97.81084717765421,69.8102608,96.5989601776542C69.8102598,95.38708017765421,68.7921848,94.41645017765421,67.5644803,94.4578471776542L67.5670137,94.4578511776542ZM119.652447,94.4578511776542L115.268703,94.4578511776542C114.041004,94.41644617765421,113.02292299999999,95.3870771776542,113.02292299999999,96.5989601776542C113.02292299999999,97.81084717765421,114.041004,98.78147817765421,115.268703,98.7400771776542L119.652447,98.7400771776542C120.880157,98.78147817765421,121.89823200000001,97.81084717765421,121.89823200000001,96.5989601776542C121.89823200000001,95.3870771776542,120.880157,94.41644617765421,119.652447,94.4578511776542ZM100.313313,109.2819211776542L82.50467499999999,109.2819211776542C81.276995,109.24055817765421,80.258955,110.21117317765422,80.258955,111.42303417765422C80.258955,112.63489817765421,81.276995,113.6055181776542,82.50467499999999,113.56415117765421L100.313313,113.56415117765421C101.540993,113.6055181776542,102.55902900000001,112.63489817765421,102.55902900000001,111.42303417765422C102.55902900000001,110.21117317765422,101.540993,109.24055817765421,100.313313,109.2819211776542ZM91.408993,72.7842041776542C86.189045,72.7842041776542,81.283308,74.7865781776542,77.591337,78.42635117765421C73.915713,82.0312451776542,71.855307,86.93738317765421,71.869669,92.0504981776542C71.869669,97.6401471776542,74.327605,102.9498131776542,78.612522,106.6120861776542C79.00782,106.94956517765421,79.514608,107.1370541776542,80.036606,107.1370541776542L102.78138,107.1370541776542C103.30464599999999,107.1368361776542,103.810272,106.9504391776542,104.205467,106.6120861776542C108.488422,102.95344117765421,110.94900899999999,97.63966717765422,110.94832199999999,92.0504981776542C110.962685,86.9373811776542,108.902275,82.0312451776542,105.22665,78.4263491776542C101.569176,74.80092517765421,96.59376499999999,72.7693221776542,91.408993,72.7842041776542ZM101.942642,102.8548231776542L80.875343,102.8548231776542C77.893538,100.03036017765422,76.207951,96.1286081776542,76.207799,92.0504981776542C76.218973,83.77529117765421,83.018326,77.07082117765421,91.406454,77.0639351776542C99.79458600000001,77.07081917765422,106.593948,83.77529117765421,106.605118,92.0504981776542C106.605633,96.1282341776542,104.920986,100.02994117765421,101.940105,102.8548231776542L101.942642,102.8548231776542Z" fill="#DADADA" fill-opacity="1" style="mix-blend-mode:passthrough"/></g></g></svg>