<svg xmlns="http://www.w3.org/2000/svg" xmlns:xlink="http://www.w3.org/1999/xlink" fill="none" version="1.1" width="706" height="206" viewBox="0 0 706 206"><defs><clipPath id="master_svg0_50_8526"><rect x="0" y="0" width="706" height="206" rx="0"/></clipPath><linearGradient x1="0" y1="0.5" x2="1" y2="0.5" id="master_svg1_50_9498"><stop offset="0%" stop-color="#FFE7BA" stop-opacity="1"/><stop offset="100%" stop-color="#FFD381" stop-opacity="1"/></linearGradient></defs><g clip-path="url(#master_svg0_50_8526)"><g><path d="M180.09,9.3500004L180.09,196.65001L180.00999,196.65001C174.84,196.65001,170.65999,200.83,170.65999,206.00002L12,206.00002C5.4000001,206.00002,0,200.60002,0,194.00002L0,12C0,5.4000001,5.4000001,0,12,0L170.66,0C170.66,5.1599998,174.84,9.3500004,180.01001,9.3500004L180.09,9.3500004Z" fill="url(#master_svg1_50_9498)" fill-opacity="1" style="mix-blend-mode:passthrough"/></g><g><path d="M706.0000263378906,12L706.0000263378906,194C706.0000263378906,200.60001,700.6000063378906,206,694.0000263378906,206L189.36000063789064,206C189.36000063789064,200.86,185.21000673789064,196.69,180.08999633789062,196.64999L180.08999633789062,9.3500004C185.20999143789064,9.3100004,189.36000063789064,5.1300006,189.36000063789064,0L694.0000263378906,0C700.6000063378906,0,706.0000263378906,5.4000001,706.0000263378906,12Z" fill="#FFFFFF" fill-opacity="1" style="mix-blend-mode:passthrough"/></g></g></svg>