<svg xmlns="http://www.w3.org/2000/svg" xmlns:xlink="http://www.w3.org/1999/xlink" fill="none" version="1.1" width="130" height="113" viewBox="0 0 130 113"><g><g><path d="M106.3854937385254,72.90426518450927C106.4902377385254,72.69477018450928,106.28075073852538,72.38052318450927,105.96650273852539,72.48526718450928L102.82407773852539,73.42800018450927C102.71932573852538,73.42800018450927,102.61458173852539,73.42800018450927,102.5098307385254,73.32324918450928L99.89114773852539,71.22829718450927C99.68164473852539,71.01880918450928,99.3674047385254,71.22829718450927,99.3674047385254,71.43780018450929L99.3674047385254,74.78971718450927C99.3674047385254,74.89446918450928,99.2626607385254,74.99921318450927,99.2626607385254,75.10395718450928L96.4344747385254,77.09416818450927C96.22498673852539,77.19891218450928,96.22498673852539,77.61790418450927,96.53922673852539,77.72264718450927L99.68164473852539,78.77011818450927C99.78639573852539,78.77011818450927,99.89114773852539,78.87486918450928,99.89114773852539,78.97962118450928L100.83387373852538,82.22679018450928C100.9386177385254,82.43628618450927,101.25286473852539,82.54103018450928,101.35760873852539,82.33154218450927L103.34781273852539,79.60810718450928C103.45255673852539,79.50335618450927,103.5573077385254,79.50335618450927,103.66205973852539,79.50335618450927L107.01396573852539,79.60810718450928C107.32822073852539,79.60810718450928,107.4329717385254,79.29386818450928,107.32822073852539,79.08436518450928L105.33800873852539,76.36093818450928C105.23326473852539,76.25618618450927,105.23326473852539,76.15143518450928,105.33800873852539,76.04668318450928L106.3854937385254,72.90426518450927ZM22.48274099852539,40.537284184509275L26.35839893852539,39.38506218450928C26.46314623852539,39.38506218450928,26.56789353852539,39.38506218450928,26.67264083852539,39.48981018450928L29.29132893852539,41.584758184509276C29.500823538525392,41.79425318450928,29.81506633852539,41.584758184509276,29.81506633852539,41.37526618450928L29.81506633852539,38.02334518450928C29.81506633852539,37.91859518450928,29.91981313852539,37.81384918450928,29.91981313852539,37.709103184509274L32.74799773852539,35.82364718450928C32.957490738525394,35.71889818450928,32.957490738525394,35.29991018450927,32.643248738525386,35.195163184509276L29.500823538525392,34.14768518450928C29.39607663852539,34.14768518450928,29.29132893852539,34.04293718450928,29.29132893852539,33.93818918450928L28.348600838525392,30.69101818450928C28.24385313852539,30.481524184509276,27.92961073852539,30.376777184509276,27.82486343852539,30.586270184509278L25.83466143852539,33.309705184509276C25.729913938525392,33.41445418450928,25.62516593852539,33.41445418450928,25.52041843852539,33.41445418450928L22.168498548525392,33.309705184509276C21.85425605252539,33.309705184509276,21.74950854452539,33.623950184509276,21.85425605252539,33.83344318450928L23.84445853852539,36.55687818450927C23.94920613852539,36.661628184509276,23.94920613852539,36.76637318450928,23.84445853852539,36.87112318450927C23.84445853852539,37.49960818450928,22.79698347852539,40.22304018450928,22.48274099852539,40.537284184509275ZM60.40133673852539,100.66235218450927C60.19184073852539,100.87185618450928,60.296588738525394,101.18608718450928,60.61083173852539,101.18608718450928L63.96274973852539,101.60507918450928C64.06750073852538,101.60507918450928,64.1722447385254,101.70983018450927,64.1722447385254,101.81457418450928L65.74346173852538,104.85224818450928C65.84820173852539,105.06175118450928,66.1624487385254,105.06175118450928,66.3719447385254,104.85224818450928L67.7336617385254,101.81457418450928C67.7336617385254,101.70983018450927,67.8384097385254,101.60507918450928,67.94315373852538,101.60507918450928L71.19032673852539,100.97660018450928C71.50457373852538,100.97660018450928,71.50457373852538,100.55760818450928,71.39982173852539,100.45285718450928L68.88588673852539,98.14840618450928C68.78113573852539,98.04366218450927,68.78113573852539,97.93892618450927,68.78113573852539,97.83417418450928L69.2001227385254,94.48225318450928C69.2001227385254,94.16800618450928,68.9906307385254,94.06325418450928,68.67638773852539,94.16800618450928L65.74346173852538,95.84396218450928C65.63870973852539,95.84396218450928,65.5339697385254,95.94872218450928,65.42921473852539,95.84396218450928L62.39154073852539,94.37750118450927C62.18204473852539,94.27275718450927,61.867801738525394,94.48225318450928,61.97254973852539,94.69174118450928L62.70577973852539,98.04366218450927C62.70577973852539,98.14840618450928,62.70577973852539,98.25315718450928,62.60103273852539,98.35790918450928L60.40133673852539,100.66235218450927ZM92.7683067385254,91.65406718450927C92.9778097385254,91.44457118450927,92.8730657385254,91.13033218450927,92.6635707385254,91.13033218450927L89.3116417385254,90.39710118450928C89.20690573852539,90.39710118450928,89.10215373852539,90.29235018450927,89.10215373852539,90.18759818450928L87.84518073852539,87.04518018450928C87.74043673852539,86.83568518450927,87.4261897385254,86.73094118450928,87.2166937385254,87.04518018450928L85.5407367385254,89.97810218450928L85.33123773852539,90.18759818450928L81.7698327385254,90.29235018450927C81.45558173852538,90.29235018450927,81.3508377385254,90.60658918450928,81.5603337385254,90.81609218450927L83.76002873852539,93.33002418450928C83.86477273852539,93.43478318450927,83.86477273852539,93.53952718450928,83.86477273852539,93.64427118450928L83.13154173852539,96.99619218450928C83.0267987385254,97.20568718450927,83.34104173852539,97.51993418450928,83.55053673852538,97.41517518450928L86.69295873852539,96.05347318450927L87.00720573852539,96.05347318450927L89.94013573852538,97.83417418450928C90.14962373852539,97.93892618450927,90.46387073852539,97.83417418450928,90.46387073852539,97.51993418450928L90.14962373852539,94.16800618450928C90.14962373852539,94.06325418450928,90.14962373852539,93.95851018450928,90.25436773852539,93.85376618450928L92.7683067385254,91.65406718450927ZM68.57163973852539,12.360204684509277C68.78113573852539,12.150709384509277,68.67638773852539,11.836467284509277,68.36214873852539,11.836467284509277L65.01022673852539,11.522224684509277C64.90547573852538,11.522224684509277,64.80073573852539,11.417477084509278,64.80073573852539,11.312729884509277L63.22951873852539,8.379799454509277C63.12477073852539,8.170304428509278,62.70577973852539,8.170304428509278,62.60103273852539,8.379799454509277L61.239314738525394,11.522224684509277C61.239314738525394,11.626972184509277,61.13456773852539,11.731719684509278,61.02981973852539,11.731719684509278C60.50608473852539,11.836467284509277,58.62063173852539,12.150709384509277,57.57315473852539,12.360204684509277C57.258910738525394,12.464951984509277,57.258910738525394,12.779194784509277,57.46840273852539,12.883942084509277L59.98234973852539,15.083640084509277C60.08709373852539,15.188387384509277,60.08709373852539,15.293135184509278,60.08709373852539,15.397882484509278L59.66810573852539,18.749802184509278C59.66810573852539,19.064046184509277,59.87759773852539,19.168793184509276,60.19184073852539,19.064046184509277L63.12477073852539,17.388084384509277C63.22951873852539,17.28333668450928,63.33426673852539,17.28333668450928,63.43901073852539,17.388084384509277L66.4766957385254,18.85455018450928C66.68618773852539,18.95929818450928,67.00042773852539,18.749802184509278,66.89568373852539,18.54030818450928L66.1624487385254,15.188387384509277C66.1624487385254,15.083640084509277,66.1624487385254,14.978892284509278,66.26719273852538,14.874145484509278L68.57163973852539,12.360204684509277ZM36.099916738525394,21.892227184509277C35.89042073852539,22.101723184509275,35.99516873852539,22.415965184509275,36.20466273852539,22.415965184509275L39.55658373852539,23.149197184509276C39.66133073852539,23.149197184509276,39.766078738525394,23.25394418450928,39.766078738525394,23.358691184509276L41.02304873852539,26.501118184509277C41.12779573852539,26.71061418450928,41.442039738525395,26.815360184509277,41.65153273852539,26.501118184509277L43.32749373852539,23.568188184509278L43.536988738525395,23.358691184509276L46.88890873852539,23.044450184509277C47.20314973852539,23.044450184509277,47.30789973852539,22.730207184509275,47.09840373852539,22.52071218450928L45.108199738525386,20.006773184509278C45.003453738525394,19.902026184509275,45.003453738525394,19.797277184509277,45.003453738525394,19.692529184509276L45.73668673852539,16.340609584509277C45.84143473852539,16.131114984509278,45.52719073852539,15.816872584509277,45.31769573852539,15.921620384509279L42.28001973852539,17.28333668450928L41.96577473852539,17.28333668450928L39.03284873852539,15.502630184509277C38.82335273852539,15.397882484509278,38.50910973852539,15.502630184509277,38.50910973852539,15.816872584509277L38.82335273852539,19.168793184509276C38.82335273852539,19.273539184509275,38.82335273852539,19.378287184509276,38.71860273852539,19.483036184509277C38.404361738525395,19.902026184509275,36.93789573852539,21.263742184509276,36.099916738525394,21.892227184509277Z" fill="#B2B2B2" fill-opacity="1" style="mix-blend-mode:passthrough"/></g><g><path d="M119.16445,58.658596C119.05972,58.658596,119.05972,58.658596,119.16445,58.658596C118.53596,58.658596,118.01224,59.077591,118.01224,59.706074C116.33627,88.197403,92.558586,110.40387,64.067261,110.40387C57.049183,110.40387,50.135845,109.04215,43.641499,106.42347C43.013016,106.21396,42.384529,106.42347,42.175037,107.05194C42.07029,107.36619,42.07029,107.68043,42.175037,107.88993C42.279781,108.20417,42.489281,108.41366,42.80352,108.5184C49.507362,111.24185,56.73494,112.70831,64.067261,112.70831C78.522423,112.70831,92.244354,107.26144,102.71909,97.415176C113.19384,87.568909,119.37393,74.265976,120.31667,59.810825C120.31667,59.496582,120.21192,59.182339,120.00243,58.972847C119.68819,58.763348,119.47868,58.658596,119.16445,58.658596ZM9.9128065,53.316475C10.541291,53.316475,11.065028,52.897488,11.065028,52.269001C13.159979,24.30142,36.832916,2.304445,65.009987,2.304445C72.761307,2.304445,80.303123,3.8756571,87.321213,7.1228304C87.844948,7.3323245,88.578186,7.1228304,88.787666,6.5990925C88.892418,6.2848501,88.892418,5.9706078,88.787666,5.7611127C88.682922,5.4468699,88.473434,5.2373753,88.159195,5.1326275C80.93161,1.6759601,73.075554,0,65.009987,0C50.764336,0,37.147156,5.3421221,26.672407,15.083641C16.197657,24.825157,9.9128065,37.918594,8.8653316,52.059509C8.8653316,52.373749,8.9700785,52.687992,9.1795731,52.897488C9.2843218,53.106979,9.5985641,53.316475,9.9128065,53.316475ZM129.11546,37.394859L113.50809,10.370003C112.56535,8.79879,111.09888,7.6465673,109.31818,7.1228304C107.53748,6.5990925,105.65203,6.9133353,104.08081,7.8560619L3.5232086,65.886177C0.17128843,67.771637,-0.98093402,72.066277,0.90452093,75.418198L16.511898,102.44305C17.454626,104.01427,18.921089,105.16649,20.701799,105.69023C21.330284,105.89972,21.854021,105.89972,22.482506,105.89972C23.739477,105.89972,24.891699,105.58548,25.939175,104.957L126.49679,46.926884C128.06798,45.984154,129.22021,44.517689,129.74396,42.736977C130.26768,40.851524,129.95345,38.966072,129.11546,37.394859ZM127.54425,42.108494C127.23001,43.365467,126.49679,44.308193,125.34456,44.936676L24.786953,102.9668C23.739477,103.59528,22.482506,103.80478,21.225534,103.38578C19.968567,103.07155,19.025839,102.33831,18.397354,101.18608L2.8947234,74.265976C1.6377534,72.066277,2.370986,69.133347,4.5706835,67.876381L105.12828,9.8462648C105.86151,9.4272747,106.59475,9.2177801,107.43273,9.2177801C107.85172,9.2177801,108.27071,9.3225279,108.6897,9.4272747C109.94667,9.741518,110.8894,10.474751,111.51788,11.626974L127.12526,38.651829C127.75375,39.594559,127.8585,40.851524,127.54425,42.108494Z" fill="#B2B2B2" fill-opacity="1" style="mix-blend-mode:passthrough"/></g><g><path d="M45.00345609277343,72.27577432006836C46.36517109277344,74.89446432006835,46.993656092773435,76.57042532006835,46.78416109277344,77.09416232006836C46.57466709277344,77.61789932006836,46.26042509277344,77.93214232006835,45.841436092773435,78.24638332006836L33.58597809277344,85.36921532006836C32.643250092773435,85.89295232006836,32.014766092773435,85.68345832006835,31.491029092773438,84.74073232006836L27.615369792773436,78.03688832006836L42.69901109277344,69.34284632006836L36.72840109277344,58.97284222006836L18.188095092773438,69.76183532006836L19.445065092773437,71.96153432006835L35.68092709277344,62.534257920068356L39.032848092773435,68.40011832006836L26.253652592773438,75.73244432006837L24.368197892773438,72.38052332006836L22.06375219277344,73.74224132006836L29.39607709277344,86.52143832006837C30.65304809277344,88.61638232006837,32.224260092773434,89.14012132006836,34.31921009277344,87.98790332006837L47.93638609277343,80.13183832006835C48.879114092773435,79.50335332006836,49.50760109277344,78.77012232006837,49.82184009277344,77.93214232006835C50.03133809277344,77.09416232006836,49.29810309277344,74.99921032006836,47.83163609277344,71.75203932006836L45.00345609277343,72.27577432006836ZM59.772854092773436,56.24940702006836C62.18204109277344,57.29688212006836,64.17224909277343,58.23961022006836,65.74345809277344,59.287084620068356L66.89568309277344,56.77314452006836C65.32447009277344,55.93516472006836,63.33426709277344,54.99243700006836,60.92507209277344,54.04970932006836L59.772854092773436,56.24940702006836Z" fill="#B2B2B2" fill-opacity="1" style="mix-blend-mode:passthrough"/></g><g><path d="M77.26568755664063,60.64880248496094L73.91376855664063,62.63900418496094C72.44730155664062,63.476985484960935,70.66659555664063,64.52446028496094,68.67638955664063,65.57193568496093C67.10517855664062,66.40991498496093,65.95295755664063,66.82890608496093,64.90548255664062,66.93365288496094C64.06750155664062,66.93365288496094,63.124774556640624,66.82890608496093,62.18204655664063,66.51466278496093C61.972551556640624,66.40991498496093,61.763054556640625,66.40991498496093,61.553561556640624,66.40991498496093L56.211437656640626,57.08738708496094L50.659820556640625,60.33455988496094L51.91679055664063,62.53425738496094L55.26871065664062,60.64880248496094L59.24911595664062,67.56213808496094C58.51588345664062,68.60961308496094,58.20164205664062,70.59981508496094,58.096893756640625,73.32325208496094L60.715580556640624,73.95173408496093C60.715580556640624,70.91405908496094,60.92507555664062,69.34284508496094,61.44881355664062,69.02860308496093C61.763054556640625,68.81910908496094,62.18204655664063,68.81910908496094,62.810531556640626,69.02860308496093C64.06750155664062,69.44759408496094,65.32447055664062,69.44759408496094,66.47669555664062,69.13335108496094C67.73366355664062,68.81910908496094,69.09538055664062,68.08587408496093,70.77134155664062,67.24789508496093C72.97104055664062,65.99092488496093,74.54225355664062,65.15294458496093,75.38023355664063,64.62920858496094L80.61760855664062,61.591529384960936L79.77962855664063,58.86809478496094C79.25588755664063,59.39183208496094,78.41791155664063,59.91556978496094,77.26568755664063,60.64880248496094Z" fill="#B2B2B2" fill-opacity="1" style="mix-blend-mode:passthrough"/></g><g><path d="M56.83992294731445,54.049709713623045L65.53396624731445,49.021831713623044L71.29508024731444,58.86809871362305C71.60932124731445,59.39183771362305,71.39982624731445,59.810825713623046,70.77134124731445,60.229816713623045C69.82861124731446,60.753555713623044,68.78113724731446,61.277290713623046,67.62891724731446,61.80102571362305L69.40962224731445,63.791229713623046L72.76154324731445,61.90577671362305C74.43750424731445,60.963046713623044,74.75174524731446,59.706077713623046,73.91376724731445,58.13486071362305L67.83841124731445,47.66011571362304L71.08558424731446,45.774656713623045L69.82861124731446,43.57496271362305L66.58144224731446,45.46041671362305L64.38174424731446,41.68950671362305L62.077297247314455,42.946475713623045L64.27699424731445,46.71738671362304L55.58295154731445,51.74526571362305L56.83992294731445,54.049709713623045ZM54.53547814731445,52.58324671362305C52.65002254731445,51.95476171362304,50.55507254731445,51.53577071362305,48.145879867314456,51.221530713623046L47.41264724731445,53.630721713623046C49.92658734731445,54.049709713623045,52.02153734731445,54.57344771362305,53.80224564731445,55.306680713623045L54.53547814731445,52.58324671362305ZM97.16771324731445,23.568187713623047L88.47366724731445,28.596067913623045L95.28226124731445,40.32779171362304C97.06296524731445,43.47021471362305,97.90094424731446,46.50789071362305,97.79620024731446,49.54557071362305C96.64397424731445,48.91708371362304,95.17751324731445,48.18385171362304,93.39680524731446,47.555366713623044L92.24457524731446,49.65031671362304C94.23477924731446,50.48829671362304,95.80599624731445,51.431024713623046,97.06296524731445,52.16425471362305L97.90094424731446,50.38355071362305L100.41488624731446,51.01203571362305C100.83387724731446,47.97435771362305,100.20539124731445,44.727184713623046,98.73892624731445,41.27051771362305L102.92882924731445,38.86132471362305L105.44276424731444,43.26071971362305C105.86175524731445,43.99395171362305,105.75700724731445,44.517688713623045,105.23327224731446,44.83192971362305L102.71933324731445,46.08890371362305L104.70953724731444,47.97435771362305L107.22347224731445,46.50789071362305C108.79469324731446,45.565162713623046,109.10892524731446,44.308194713623045,108.27095024731446,42.73698271362305L97.16771324731445,23.568187713623047ZM94.23477924731446,33.204958913623045L92.03508724731445,29.434048613623048L96.01549124731446,27.129603113623048L98.21519124731445,30.900512713623048L94.23477924731446,33.204958913623045ZM97.58670024731445,39.07081771362304L95.38700524731445,35.299909713623045L99.36741224731446,32.99546341362304L101.56711224731445,36.76637371362305L97.58670024731445,39.07081771362304ZM88.05468024731445,50.593044713623044C88.05468024731445,52.687995713623046,87.84518824731445,54.678199713623044,87.32144924731446,56.45890471362305L89.94013224731445,56.668399713623046C90.35912324731444,54.678199713623044,90.56861924731444,52.58324671362305,90.46387124731444,50.38355071362305L88.05468024731445,50.593044713623044Z" fill="#B2B2B2" fill-opacity="1" style="mix-blend-mode:passthrough"/></g><g><path d="M95.49175407763673,42.94647301940918L94.13003707763671,43.78445301940918L88.47367307763672,33.938188119409176L89.73064307763671,33.20495511940918L88.47367307763672,31.00525811940918L87.21670307763672,31.73849061940918L85.75023647763672,29.32929801940918L83.55053997763672,30.58626801940918L85.01700447763672,33.10020831940918L80.82710457763672,35.50940081940918L79.36063977763672,32.995460319409176L77.16094207763672,34.25243041940918L78.62740717763671,36.76637081940918L77.26568958763671,37.49960231940918L78.52265967763672,39.69930101940918L79.88437727763672,38.96606821940918L85.54074287763672,48.81233401940918L83.96953007763672,49.75506001940918L85.22650047763672,51.954758019409184L96.95822107763672,45.14617101940918L95.49175407763673,42.94647301940918ZM81.97932717763672,37.70909881940918L86.16922757763672,35.299905819409176L87.32145107763672,37.18535991940918L83.13155027763672,39.594553019409176L81.97932717763672,37.70909881940918ZM85.33124737763671,43.57495901940918L84.17902517763672,41.68950401940918L88.36892507763672,39.28031061940918L89.52114907763672,41.165766019409176L85.33124737763671,43.57495901940918ZM87.63569307763672,47.55536301940918L86.48346997763672,45.66990701940918L90.67337007763672,43.260715019409176L91.82559207763671,45.14617101940918L87.63569307763672,47.55536301940918Z" fill="#B2B2B2" fill-opacity="1" style="mix-blend-mode:passthrough"/></g></g></svg>