<svg xmlns="http://www.w3.org/2000/svg" xmlns:xlink="http://www.w3.org/1999/xlink" fill="none" version="1.1" width="24" height="40" viewBox="0 0 24 40"><g><g><path d="M21.17647,0L2.352941,0C1.0517647,0,0,1.1176468,0,2.4988234L0,37.501175C0,38.882351,1.0517647,40,2.352941,40L21.17647,40C22.475296,40,23.529411,38.879997,23.529411,37.501175L23.529411,2.4988234C23.529411,1.1176468,22.475296,0,21.17647,0ZM11.764706,37.647057C10.465212,37.647057,9.4117632,36.593609,9.4117632,35.294113C9.4117632,33.994617,10.465212,32.941174,11.764706,32.941174C13.064198,32.941174,14.117649,33.994617,14.117649,35.294113C14.117649,36.593609,13.064198,37.647057,11.764706,37.647057ZM21.17647,30.588234L2.352941,30.588234L2.352941,4.7058821L21.17647,4.7058821L21.17647,30.588234Z" fill="#7E7E7E" fill-opacity="1" style="mix-blend-mode:passthrough"/></g></g></svg>