<svg xmlns="http://www.w3.org/2000/svg" xmlns:xlink="http://www.w3.org/1999/xlink" fill="none" version="1.1" width="600" height="85" viewBox="0 0 600 85"><g><g><rect x="0" y="0" width="600" height="85" rx="42.5" fill="#F0F1F3" fill-opacity="1"/></g><g><g><path d="M269.096001,31.5439987Q264.776001,32.6959991,259.112001,33.271999L259.112001,37.911999L269.032001,37.911999L269.032001,40.855999L259.112001,40.855999L259.112001,45.4L271.432001,45.4L271.432001,48.312L259.112001,48.312L259.112001,54.872Q259.112001,58.040001,255.784,58.040001L250.8240004,58.040001L250.1200008,55.096001Q252.776001,55.256001,254.728001,55.256001Q256.072001,55.256001,256.072001,54.135999999999996L256.072001,48.312L242.6,48.312L242.6,45.4L256.072001,45.4L256.072001,40.855999L245.256,40.855999L245.256,37.911999L256.072001,37.911999L256.072001,33.528Q250.9520006,33.879999,245.5440001,33.879999L244.5840001,31.1279984Q258.152,31.1279984,267.592001,28.9839993L269.096001,31.5439987ZM274.759998,34.775999L279.271999,34.775999L279.271999,28.7919979L282.279999,28.7919979L282.279999,34.775999L285.992001,34.775999L285.992001,37.688L282.279999,37.688L282.279999,39.032Q284.327999,40.983999,286.664001,43.736000000000004L284.872002,46.424Q283.30400099999997,43.639999,282.279999,42.039999L282.279999,58.136002L279.271999,58.136002L279.271999,43.127998000000005Q277.799999,47.191998999999996,275.400002,50.84L274.088001,47.543999Q277.512001,43.256001,279.112,37.688L274.759998,37.688L274.759998,34.775999ZM284.136002,56.279999Q286.120003,53.336,286.920002,50.104Q287.560001,47.256001,287.560001,42.039999L287.560001,29.8479996L298.536003,29.8479996L298.536003,54.104Q298.536003,54.68,298.984001,54.68L299.976002,54.68Q300.42400399999997,54.68,300.648003,54.488001Q300.872002,54.263999999999996,300.968002,53.848Q301.192001,52.952,301.192001,48.119999L303.976002,48.983999Q303.976002,52.472,303.720001,54.424Q303.528,56.183998,302.79200000000003,56.919998Q301.992001,57.528,300.360001,57.528L298.952003,57.528Q295.464001,57.528,295.464001,54.424L295.464001,32.7279987L290.568001,32.7279987L290.568001,42.039999Q290.568001,47.416,289.704002,51.16Q288.903999,54.936001000000005,286.632,58.52L284.136002,56.279999ZM311.272003,29.719999299999998L330.727997,29.719999299999998L330.727997,38.935999L311.272003,38.935999L311.272003,29.719999299999998ZM327.655998,36.216L327.655998,32.439998599999996L314.344002,32.439998599999996L314.344002,36.216L327.655998,36.216ZM313.512001,43.959998999999996L306.440002,43.959998999999996L306.440002,41.048L335.528,41.048L335.528,43.959998999999996L316.552002,43.959998999999996L315.624001,47.032L331.176003,47.032Q330.79200000000003,55.16,329.608002,56.632Q328.391998,58.136002,324.936005,58.136002Q322.69599900000003,58.136002,320.711998,57.880001L319.688004,55.127998Q322.440002,55.383999,324.264,55.383999Q326.69599900000003,55.383999,327.272003,54.424Q327.783997,53.495999999999995,328.071999,49.784L312.00800300000003,49.784L313.512001,43.959998999999996ZM343.91200000000003,42.167998999999995L362.216,42.167998999999995L362.216,50.327999L343.91200000000003,50.327999L343.91200000000003,42.167998999999995ZM359.176,47.639999L359.176,44.823999L346.952,44.823999L346.952,47.639999L359.176,47.639999ZM347.304,50.68Q348.904,52.375999,350.152,54.552L356.264,54.552Q357.576,52.664,358.664,50.552L361.512,51.544001Q360.68,53.048,359.528,54.552L366.76,54.552L366.76,57.431999L339.176003,57.431999L339.176003,54.552L346.92,54.552Q345.896,53.048,344.424,51.736000000000004L347.304,50.68ZM342.248,33.047998Q344.424,34.584,346.28,36.344Q348.072,34.551998,349.224,32.5359993L341.736,32.5359993L341.736,29.7519989L352.68,29.7519989L352.68,32.0239983Q351.496,34.967999,349.512,37.24L357.96,37.24Q354.92,34.039999,353.224,30.1999989L355.72,28.7919979Q356.488,30.711998,357.64,32.3119984Q359.336,30.9999981,360.744,29.2719994L362.88800000000003,31.1599979Q361.416,32.9519997,359.304,34.455999Q360.23199999999997,35.543999,361.224,36.439999Q363.336,34.807999,364.776,32.8879986L366.92,34.775999Q365.32,36.759997999999996,363.4,38.231998000000004Q365.576,39.896,368.23199999999997,41.208L366.216,43.543999Q362.408,41.4,359.496,38.775999L359.496,39.992001L347.784,39.992001L347.784,38.967999Q344.712,41.688,340.10400400000003,43.608000000000004L338.279999,41.208Q341.544,39.896,344.13599999999997,38.104Q342.568,36.695999,340.199997,35L342.248,33.047998ZM374.408,29.7839985L393.32001,29.7839985L393.32001,40.119999L398.82401,40.119999L398.82401,42.903999L386.312,42.903999L386.312,46.167998999999995Q387.368,47.351999,388.45599000000004,48.279999000000004Q391.72,46.424,393.99199999999996,43.063998999999995L396.328,45.015999Q393.73600999999996,48.216,390.536,49.976Q394.18401,52.664,398.952,54.712L397.416,57.400002Q390.56799,54.167998999999995,386.312,49.528L386.312,55.063999Q386.312,58.327999,383.496,58.327999L379.784,58.327999L379.11199999999997,55.448002Q381.192,55.672001,382.472,55.672001Q383.304,55.672001,383.304,54.360001L383.304,49.688Q378.536,53.879999,371.976,57.304001L370.75999,54.488001Q378.05600000000004,51.16,383.304,46.519999999999996L383.304,42.903999L371.20801,42.903999L371.20801,40.119999L390.216,40.119999L390.216,37.655998L375.496,37.655998L375.496,35.032L390.216,35.032L390.216,32.5039997L374.408,32.5039997L374.408,29.7839985ZM375.048,43.576Q377.89599999999996,45.528,379.81599,47.480000000000004L377.832,49.464000999999996Q376.10400000000004,47.639999,373.03200000000004,45.528L375.048,43.576Z" fill="#7E7E7E" fill-opacity="1"/></g><g><path d="M221.17647,23L202.352941,23C201.0517647,23,200,24.1176468,200,25.4988234L200,60.501175C200,61.882351,201.0517647,63,202.352941,63L221.17647,63C222.47529600000001,63,223.529411,61.879997,223.529411,60.501175L223.529411,25.4988234C223.529411,24.1176468,222.47529600000001,23,221.17647,23ZM211.764706,60.647057C210.465212,60.647057,209.4117632,59.593609,209.4117632,58.294113C209.4117632,56.994617,210.465212,55.941174,211.764706,55.941174C213.064198,55.941174,214.117649,56.994617,214.117649,58.294113C214.117649,59.593609,213.064198,60.647057,211.764706,60.647057ZM221.17647,53.588234L202.352941,53.588234L202.352941,27.7058821L221.17647,27.7058821L221.17647,53.588234Z" fill="#7E7E7E" fill-opacity="1" style="mix-blend-mode:passthrough"/></g></g></g></svg>