<svg xmlns="http://www.w3.org/2000/svg" xmlns:xlink="http://www.w3.org/1999/xlink" fill="none" version="1.1" width="80" height="80" viewBox="0 0 80 80"><g><g><ellipse cx="40" cy="40" rx="40" ry="40" fill="#07C160" fill-opacity="1"/></g><g><path d="M50.19253945996094,32.47325044165039C50.519470459960935,32.47325044165039,50.60224545996094,32.48566444165039,50.92503745996094,32.49807944165039C49.56764645996094,25.29314184165039,42.38754245996094,19.78494644165039,33.432066459960936,19.78494644165039C23.52062415996094,19.78494644165039,15.483871459960938,26.53465844165039,15.483871459960938,34.86109944165039C15.483871459960938,39.40505244165039,17.900690759960938,43.49378044165039,21.687317859960938,46.25822444165039C21.98942045996094,46.47755644165039,22.188062659960938,46.83345844165039,22.188062659960938,47.243158441650394C22.188062659960938,47.375587441650396,22.15909435996094,47.49974044165039,22.125986559960936,47.628030441650395C21.823883559960937,48.76608644165039,21.339691659960938,50.58284044165039,21.319000259960937,50.66974644165039C21.281754459960936,50.81459444165039,21.22381735996094,50.95943444165039,21.22381735996094,51.11256044165039C21.22381735996094,51.44363444165039,21.49281315996094,51.71676844165039,21.823883559960937,51.71676844165039C21.952174159960936,51.71676844165039,22.059772059960938,51.66710644165039,22.167371259960937,51.60502844165039L26.098838459960938,49.31649944165039C26.392664459960937,49.14682344165039,26.70718245996094,49.03922444165039,27.050670459960937,49.03922444165039C27.232760459960936,49.03922444165039,27.410711459960936,49.06819744165039,27.580383459960938,49.11785844165039C29.413688459960937,49.64757144165039,31.391839459960938,49.94553744165039,33.44034345996094,49.94553744165039C33.771415459960934,49.94553744165039,34.09834445996094,49.93725944165039,34.42527945996093,49.92070744165039C34.03627045996094,48.745407441650386,33.82107545996094,47.50802444165039,33.82107545996094,46.22512644165039C33.82107545996094,38.63118144165039,41.15016145996094,32.47325644165039,50.19253945996094,32.47325044165039ZM39.41617545996094,27.896192541650393C40.58734145996094,27.896192541650393,41.539167459960936,28.85215854165039,41.539167459960936,30.035739441650392C41.539167459960936,31.21931844165039,40.58733945996094,32.17528544165039,39.41617545996094,32.17528544165039C38.24501645996094,32.17528544165039,37.29318445996094,31.21931844165039,37.29318445996094,30.035739441650392C37.29318445996094,28.85215854165039,38.24501645996094,27.896192541650393,39.41617545996094,27.896192541650393ZM27.452095459960937,32.17528544165039C26.280929459960937,32.17528544165039,25.32910155996094,31.21931844165039,25.32910155996094,30.035739441650392C25.32910155996094,28.85215854165039,26.280932459960937,27.896192541650393,27.452095459960937,27.896192541650393C28.62325645996094,27.896192541650393,29.57508545996094,28.85215854165039,29.57508545996094,30.035739441650392C29.57508545996094,31.21931844165039,28.62325645996094,32.17528544165039,27.452095459960937,32.17528544165039Z" fill="#FFFFFF" fill-opacity="1" style="mix-blend-mode:passthrough"/></g><g><path d="M65.1404170234375,46.21681418457031C65.1404170234375,39.27673678457031,58.4445000234375,33.65266418457031,50.1842780234375,33.65266418457031C41.9240560234375,33.65266418457031,35.2239990234375,39.27673678457031,35.2239990234375,46.21681418457031C35.2239990234375,53.15689318457031,41.9199133234375,58.78096218457031,50.1842780234375,58.78096218457031C51.8892920234375,58.78096218457031,53.5405120234375,58.53680018457031,55.0675810234375,58.09398618457031C55.208282023437505,58.052601184570314,55.3531280234375,58.02777118457031,55.506247023437496,58.02777118457031C55.7917980234375,58.02777118457031,56.0525170234375,58.114681184570316,56.3008170234375,58.25952118457032L59.5742850234375,60.163183184570315C59.6653310234375,60.21698218457031,59.7563760234375,60.25836418457031,59.8639720234375,60.25836418457031C60.1412430234375,60.25836418457031,60.3647170234375,60.03489518457032,60.3647170234375,59.75761618457031C60.3647170234375,59.63346118457031,60.315060023437496,59.50931018457031,60.2860890234375,59.38929718457031C60.2653960234375,59.31894718457031,59.8639720234375,57.80015918457031,59.611530023437496,56.85660718457031C59.5825580234375,56.74901018457031,59.557728023437505,56.64555118457031,59.557728023437505,56.53795018457031C59.557728023437505,56.19859918457031,59.7232610234375,55.90063818457031,59.9757020234375,55.71855018457031L59.971569023437496,55.71855018457031C63.1250170234375,53.40932818457031,65.1404170234375,50.00343318457031,65.1404170234375,46.21681418457031ZM45.1975174234375,44.08140718457031C44.1670599234375,44.08140718457031,43.3311033234375,43.237174984570316,43.3311033234375,42.19843958457031C43.3311033234375,41.159702284570315,44.167056123437504,40.315470184570316,45.1975174234375,40.315470184570316C46.2279790234375,40.315470184570316,47.0639310234375,41.159702284570315,47.0639310234375,42.19843958457031C47.0639310234375,43.237174984570316,46.2279790234375,44.08140718457031,45.1975174234375,44.08140718457031ZM55.1710400234375,44.08140718457031C54.1405770234375,44.08140718457031,53.3046260234375,43.237174984570316,53.3046260234375,42.19843958457031C53.3046260234375,41.159702284570315,54.1405830234375,40.315470184570316,55.1710400234375,40.315470184570316C56.201494023437505,40.315470184570316,57.0374490234375,41.159702284570315,57.0374490234375,42.19843958457031C57.0374490234375,43.237174984570316,56.201494023437505,44.08140718457031,55.1710400234375,44.08140718457031Z" fill="#FFFFFF" fill-opacity="1" style="mix-blend-mode:passthrough"/></g></g></svg>