<svg xmlns="http://www.w3.org/2000/svg" xmlns:xlink="http://www.w3.org/1999/xlink" fill="none" version="1.1" width="45" height="37" viewBox="0 0 45 37"><g><g><path d="M31.453865,11.498458C31.750135,11.498458,31.825148,11.509708,32.117672,11.520959C30.887569,4.9916644,24.380781,0,16.265102,0C7.2831063,0,0,6.1167574,0,13.662387C0,17.78023,2.1901822,21.485537,5.6217184,23.990746C5.8954906,24.18951,6.0755053,24.512037,6.0755053,24.88332C6.0755053,25.003328,6.0492535,25.115839,6.0192504,25.232098C5.7454777,26.263432,5.3066902,27.909822,5.2879395,27.988577C5.2541862,28.119843,5.2016826,28.251099,5.2016826,28.389866C5.2016826,28.689892,5.4454532,28.937414,5.7454777,28.937414C5.8617377,28.937414,5.9592452,28.89241,6.0567546,28.836155L9.6195488,26.76223C9.8858213,26.608467,10.170845,26.51096,10.482122,26.51096C10.647137,26.51096,10.8084,26.537212,10.962161,26.582218C12.623549,27.062258,14.416198,27.332281,16.272604,27.332281C16.57263,27.332281,16.8689,27.32478,17.165176,27.30978C16.812649,26.244692,16.617632,25.123348,16.617632,23.960751C16.617632,17.07893,23.259434,11.498463,31.453865,11.498458ZM21.688053,7.3506136C22.749392,7.3506136,23.611961,8.2169342,23.611961,9.2895241C23.611961,10.362113,22.74939,11.228435,21.688053,11.228435C20.626717,11.228435,19.764143,10.362113,19.764143,9.2895241C19.764143,8.2169342,20.626717,7.3506136,21.688053,7.3506136ZM10.845902,11.228435C9.784564,11.228435,8.9219942,10.362113,8.9219942,9.2895241C8.9219942,8.2169342,9.7845669,7.3506136,10.845902,7.3506136C11.907239,7.3506136,12.769812,8.2169342,12.769812,9.2895241C12.769812,10.362113,11.907239,11.228435,10.845902,11.228435Z" fill="#FFFFFF" fill-opacity="1" style="mix-blend-mode:passthrough"/></g><g><path d="M45.00000021691895,23.953222000976563C45.00000021691895,17.663950900976563,38.93199321691894,12.567276000976562,31.446373216918943,12.567276000976562C23.960752916918945,12.567276000976562,17.888994216918945,17.663950900976563,17.888994216918945,23.953222000976563C17.888994216918945,30.24249500097656,23.956999316918946,35.339165000976564,31.446373216918943,35.339165000976564C32.991499216918946,35.339165000976564,34.487875216918944,35.117899000976564,35.871742216918946,34.71661200097657C35.999250216918945,34.67910800097656,36.13051421691895,34.656607000976564,36.269274216918944,34.656607000976564C36.52804721691895,34.656607000976564,36.764318216918944,34.73536500097656,36.98933421691895,34.86662300097656L39.955831216918945,36.59176800097656C40.03833921691894,36.64052400097656,40.120847216918946,36.67802400097656,40.21835121691895,36.67802400097656C40.46962321691895,36.67802400097656,40.672144216918944,36.47551000097656,40.672144216918944,36.224234000976566C40.672144216918944,36.11172300097657,40.62714221691894,35.99921200097656,40.60088721691895,35.89045500097656C40.582134216918945,35.82670200097657,40.21835121691895,34.45033800097656,39.98958421691894,33.59526800097656C39.96332921691895,33.49776300097656,39.940828216918945,33.40400500097656,39.940828216918945,33.30649200097656C39.940828216918945,32.998964000976564,40.09083721691894,32.72894700097656,40.319607216918946,32.563932000976564L40.31586121691895,32.563932000976564C43.17359521691894,30.47125800097656,45.00000021691895,27.384751000976564,45.00000021691895,23.953222000976563ZM26.927246116918944,22.018063500976563C25.993418716918946,22.018063500976563,25.235854116918944,21.252998400976562,25.235854116918944,20.311670300976562C25.235854116918944,19.370341300976563,25.993416816918945,18.60527710097656,26.927246116918944,18.60527710097656C27.861075416918943,18.60527710097656,28.618638216918946,19.370341300976563,28.618638216918946,20.311670300976562C28.618638216918946,21.252998400976562,27.861075416918943,22.018063500976563,26.927246116918944,22.018063500976563ZM35.96550021691894,22.018063500976563C35.031671216918944,22.018063500976563,34.274111216918946,21.252998400976562,34.274111216918946,20.311670300976562C34.274111216918946,19.370341300976563,35.03167521691894,18.60527710097656,35.96550021691894,18.60527710097656C36.89932421691894,18.60527710097656,37.65688921691894,19.370341300976563,37.65688921691894,20.311670300976562C37.65688921691894,21.252998400976562,36.89932421691894,22.018063500976563,35.96550021691894,22.018063500976563Z" fill="#FFFFFF" fill-opacity="1" style="mix-blend-mode:passthrough"/></g></g></svg>