<?xml version="1.0" encoding="UTF-8"?>
<svg width="34px" height="34px" viewBox="0 0 34 34" version="1.1" xmlns="http://www.w3.org/2000/svg" xmlns:xlink="http://www.w3.org/1999/xlink">
    <title>指缘地点5</title>
    <defs>
        <linearGradient x1="69.5167294%" y1="3.57089091%" x2="36.5964101%" y2="93.891728%" id="linearGradient-1">
            <stop stop-color="#CBE6FF" offset="0%"></stop>
            <stop stop-color="#FBFEFF" offset="100%"></stop>
        </linearGradient>
    </defs>
    <g id="页面-1" stroke="none" stroke-width="1" fill="none" fill-rule="evenodd">
        <g id="预览发布" transform="translate(-46.000000, -1259.000000)" fill-rule="nonzero">
            <g id="指缘地点5" transform="translate(46.000000, 1259.000000)">
                <circle id="椭圆形" fill="url(#linearGradient-1)" cx="17" cy="17" r="17"></circle>
                <path d="M16.7269117,28.9533872 C12.5687662,28.9533872 8.37305041,27.8253109 8.37305041,25.3052658 C8.37305041,23.3380206 11.2466084,22.1178324 13.9171975,21.816918 L14.0633785,21.8000814 L10.3725305,15.8898167 C10.2535231,15.676625 10.1412311,15.4504334 10.042202,15.2215566 L9.94485185,15.0246738 L9.92955021,14.9459111 C9.60509749,14.1057109 9.4408098,13.2262739 9.4408098,12.3326737 C9.4408098,8.3153643 12.7099933,5.0468605 16.7279355,5.0468605 C20.7457605,5.0468605 24.0143814,8.3153643 24.0143814,12.3326737 C24.0143814,13.2271481 23.8497328,14.1062007 23.5243942,14.9459111 L23.4755871,15.0722096 L23.4801441,15.0722096 L23.4425615,15.1495572 C23.3362655,15.4002122 23.2186731,15.6409367 23.0909845,15.8690705 L16.7238756,26.4359969 L15.2157762,23.9728768 L15.1588148,23.9778415 C12.7159682,24.1872197 11.1580523,24.8614995 10.7494893,25.2369171 L10.6756913,25.3048391 L10.7494893,25.3731449 C11.2824329,25.8682416 13.3317189,26.6513128 16.5804649,26.6744082 L16.8705253,26.6748879 L16.8701416,26.6744082 C20.1128876,26.6516956 22.1663196,25.8704002 22.7037187,25.3763114 L22.7794114,25.3067584 L22.7024236,25.2388364 C22.4042326,24.9746557 21.3178399,24.4534168 19.6468731,24.1474305 L20.9301715,22.0925242 C23.6078621,22.6959327 25.0815435,23.8353528 25.0815435,25.3052232 C25.0815435,27.8254137 20.8858277,28.9533872 16.7271666,28.9533872 L16.7269268,28.9533872 L16.7269117,28.9533872 Z M16.7267678,8.40226177 C15.0139181,8.40226177 13.6206626,9.79653449 13.6206626,11.5100545 C13.6206626,13.2221846 15.013808,14.6150581 16.7267678,14.6150581 C18.4408151,14.6150581 19.835123,13.2221775 19.835123,11.5100545 C19.835123,9.79653449 18.4408268,8.40226177 16.7267678,8.40226177 L16.7267678,8.40226177 L16.7267678,8.40226177 Z" id="形状" fill="#508EF9"></path>
            </g>
        </g>
    </g>
</svg>