<?xml version="1.0" encoding="UTF-8"?>
<svg width="34px" height="36px" viewBox="0 0 34 36" version="1.1" xmlns="http://www.w3.org/2000/svg" xmlns:xlink="http://www.w3.org/1999/xlink">
    <title>打卡记录</title>
    <g id="页面-1" stroke="none" stroke-width="1" fill="none" fill-rule="evenodd">
        <g id="服务端-首页备份" transform="translate(-117.000000, -329.000000)" fill="#FFFFFF" fill-rule="nonzero">
            <g id="打卡记录" transform="translate(117.000000, 329.000000)">
                <path d="M33.4326857,32.6509714 C33.4270202,34.4980404 31.9286774,35.9927041 30.0816,35.9938286 L3.34697143,35.9938286 C2.46039059,35.9938286 1.6101218,35.6416357 0.983214474,35.0147284 C0.356307152,34.3878211 0.00411428571,33.5375523 0.00411428571,32.6509714 L0.00411428571,15.5293714 L33.4326857,15.5293714 L33.4326857,32.6509714 L33.4326857,32.6509714 Z M26.9053714,18.7652571 C26.3084307,18.1698689 25.3580789,18.1219072 24.7042286,18.6541714 L24.5808,18.7673143 L15.5602286,27.7858286 L10.9069714,23.1325714 C10.2604814,22.5172612 9.24136166,22.5294001 8.60971119,23.1599346 C7.97806071,23.7904691 7.96411962,24.8095658 8.57828571,25.4571429 L14.3979429,31.2747429 C15.0403104,31.9155565 16.0801468,31.9155565 16.7225143,31.2747429 L26.9053714,21.0939429 L27.0205714,20.9684571 C27.5517409,20.3135771 27.5019999,19.3631694 26.9053714,18.7673143 L26.9053714,18.7652571 Z M5.85462857,5.07702857 C5.85462857,6.92323759 7.35127669,8.41988571 9.19748571,8.41988571 C11.0436947,8.41988571 12.5403429,6.92323759 12.5403429,5.07702857 L12.5403429,2.56731429 L20.8964571,2.56731429 L20.8964571,5.07702857 C20.8964571,6.92323759 22.3931053,8.41988571 24.2393143,8.41988571 C26.0855233,8.41988571 27.5821714,6.92323759 27.5821714,5.07702857 L27.5821714,2.56731429 L30.0898286,2.56731429 C31.9330286,2.56731429 33.4326857,4.06285714 33.4326857,5.91017143 L33.4326857,12.24 L0.00411428571,12.24 L0.00411428571,5.91017143 C0.00411428571,4.06697143 1.49965714,2.56731429 3.34697143,2.56731429 L5.85462857,2.56731429 L5.85462857,5.07702857 Z M9.2448,0.1152 C10.1293714,0.144 10.8349714,0.851657143 10.8637714,1.73417143 L10.8637714,5.07702857 C10.8637714,6.00013308 10.1154474,6.74845714 9.19234286,6.74845714 C8.26923835,6.74845714 7.52091429,6.00013308 7.52091429,5.07702857 L7.52091429,1.73211429 C7.54971429,0.808457143 8.32114286,0.0864 9.2448,0.113142857 L9.2448,0.1152 Z M24.1837714,0.0123428571 C25.1060547,-0.0165256228 25.8774645,0.707016278 25.9076571,1.62925714 L25.9076571,5.07702857 C25.8760679,5.97732181 25.1370758,6.6908391 24.2362286,6.6908391 C23.3353813,6.6908391 22.5963892,5.97732181 22.5648,5.07702857 L22.5648,1.73211429 C22.550391,1.28868872 22.7129778,0.857746751 23.0166972,0.534345447 C23.3204165,0.210944143 23.740315,0.0216539949 24.1837714,0.00822857143 L24.1837714,0.0123428571 Z" id="形状"></path>
            </g>
        </g>
    </g>
</svg>