<?xml version="1.0" encoding="UTF-8"?>
<svg width="30px" height="13px" viewBox="0 0 30 13" version="1.1" xmlns="http://www.w3.org/2000/svg" xmlns:xlink="http://www.w3.org/1999/xlink">
    <title>眼睛1</title>
    <g id="页面-1" stroke="none" stroke-width="1" fill="none" fill-rule="evenodd">
        <g id="我的" transform="translate(-180.000000, -406.000000)" fill="#000000" fill-rule="nonzero">
            <g id="眼睛1" transform="translate(180.000000, 406.437500)">
                <path d="M14.9260199,6.83354064 C9.55703151,6.83354064 4.196335,5.20335821 0.376268657,1.94962687 C0.156558137,1.7580604 0.0222671141,1.4868197 0.00312493853,1.19595204 C-0.016017237,0.905084371 0.081568493,0.618583723 0.274278597,0.399875612 C0.67706516,-0.0566307213 1.3730288,-0.101842413 1.83149254,0.298714756 C8.56781095,6.09473467 21.3132504,6.09473467 28.0205473,0.298714756 C28.479011,-0.101842413 29.1749746,-0.0566307213 29.5777612,0.399875612 C29.9790879,0.855928667 29.9343118,1.54995852 29.4757711,1.95045604 C25.6557048,5.20335821 20.2950083,6.83354064 14.9260199,6.83354064 Z M10.9392869,11.6295605 C10.873978,11.636743 10.8080784,11.636743 10.7427695,11.6295605 C10.4417745,11.5881012 10.1706302,11.4222637 9.99815919,11.1735075 C9.82485903,10.923922 9.76598674,10.6129768 9.83398009,10.3177861 L10.5611774,6.04332503 C10.6673307,5.44219036 11.2400824,5.04044805 11.8414428,5.14531509 C12.130412,5.1943552 12.3879727,5.3564107 12.5572434,5.59569217 C12.726514,5.83497364 12.7935687,6.13179538 12.7435987,6.42060529 L12.0164013,10.6942371 C11.9397363,11.2303883 11.480891,11.6288313 10.9392869,11.6295605 L10.9392869,11.6295605 Z M27.2933499,9.45543117 C27.0031343,9.45543117 26.7245274,9.33768657 26.5222056,9.12956052 L22.9359701,5.50766998 C22.625416,5.24070686 22.4918689,4.82148806 22.5907813,4.42408456 C22.6896938,4.02668105 23.0041703,3.71897387 23.4036319,3.62873134 C23.8025272,3.53621955 24.2196991,3.67410381 24.4848922,3.98611112 L28.0719569,7.60800166 C28.49733,8.03254562 28.49733,8.71994196 28.0719569,9.14448589 C27.8613433,9.34349088 27.5827363,9.45460197 27.2925207,9.45543117 L27.2933499,9.45543117 Z M2.55868989,9.45544791 C2.2868873,9.44216029 2.02886231,9.33183032 1.83149254,9.14448589 C1.62707534,8.94108992 1.51214871,8.66461214 1.51214871,8.37624378 C1.51214871,8.08787541 1.62707534,7.81139763 1.83149254,7.60800166 L5.41772802,3.98611112 C5.66902544,3.62852878 6.10908074,3.45488549 6.53684499,3.544514 C6.96460925,3.63414251 7.29794501,3.96983273 7.38456052,4.39821723 C7.46846265,4.82714572 7.2867119,5.26452433 6.92353233,5.50766998 L3.33729685,9.12956052 C3.13279074,9.33942231 2.85171218,9.45706222 2.55868989,9.45544791 L2.55868989,9.45544791 Z M18.9633333,11.6295605 C18.4363237,11.6280706 17.9859266,11.2495973 17.8936816,10.7307214 L17.1664843,6.45626038 C17.0327144,6.05578917 17.1437065,5.61408573 17.4508955,5.32441957 C17.7585118,5.03394337 18.2059921,4.94677188 18.6001493,5.10053898 C18.9948425,5.25559701 19.2634992,5.62292703 19.2908623,6.04332503 L20.0180597,10.3177861 C20.0711277,10.6013681 20.0081095,10.8940713 19.842272,11.1312189 C19.6764345,11.3683665 19.4235324,11.5292288 19.1374627,11.5789801 C19.0812443,11.6013891 19.0229046,11.6180575 18.9633333,11.6287313 L18.9633333,11.6295605 Z" id="形状"></path>
            </g>
        </g>
    </g>
</svg>