<?xml version="1.0" encoding="UTF-8"?>
<svg width="36px" height="36px" viewBox="0 0 36 36" version="1.1" xmlns="http://www.w3.org/2000/svg" xmlns:xlink="http://www.w3.org/1999/xlink">
    <title>微服务配置</title>
    <g id="页面-1" stroke="none" stroke-width="1" fill="none" fill-rule="evenodd">
        <g id="服务端-首页备份" transform="translate(-598.000000, -329.000000)" fill="#FFFFFF" fill-rule="nonzero">
            <g id="微服务配置" transform="translate(598.000000, 329.000000)">
                <path d="M21.6547927,15.6858808 L27.9967617,15.6858808 C32.3242228,15.6858808 35.8309585,12.1791451 35.8309585,7.85168394 C35.8309585,3.5242228 32.3242228,0.0174870466 27.9967617,0.0174870466 C23.6693005,0.0174870466 20.1625648,3.5242228 20.1625648,7.85168394 L20.1625648,14.1936528 C20.1625648,15.0143782 20.8340674,15.6858808 21.6547927,15.6858808 L21.6547927,15.6858808 Z M7.85168394,0.0174870466 C3.5242228,0.0174870466 0.0174870466,3.5242228 0.0174870466,7.85168394 C0.0174870466,12.1791451 3.5242228,15.6858808 7.85168394,15.6858808 L14.1936528,15.6858808 C15.0143782,15.6858808 15.6858808,15.0143782 15.6858808,14.1936528 L15.6858808,7.85168394 C15.6858808,3.5242228 12.1791451,0.0174870466 7.85168394,0.0174870466 Z M14.1936528,20.1625648 L7.85168394,20.1625648 C3.5242228,20.1625648 0.0174870466,23.6693005 0.0174870466,27.9967617 C0.0174870466,32.3242228 3.5242228,35.8309585 7.85168394,35.8309585 C12.1791451,35.8309585 15.6858808,32.3242228 15.6858808,27.9967617 L15.6858808,21.6547927 C15.6858808,20.8340674 15.0143782,20.1625648 14.1936528,20.1625648 L14.1936528,20.1625648 Z M21.6547927,24.6392487 C20.8340674,24.6392487 20.1625648,25.3107513 20.1625648,26.1314767 L20.1625648,34.3387306 C20.1625648,35.159456 20.8340674,35.8309585 21.6547927,35.8309585 C22.4755181,35.8309585 23.1470207,35.159456 23.1470207,34.3387306 L23.1470207,26.1314767 C23.1470207,25.3107513 22.4755181,24.6392487 21.6547927,24.6392487 L21.6547927,24.6392487 Z" id="形状"></path>
                <path d="M20.1625648,21.6547927 C20.1625648,22.4789275 20.830658,23.1470207 21.6547927,23.1470207 C22.4789275,23.1470207 23.1470207,22.4789275 23.1470207,21.6547927 C23.1470207,20.830658 22.4789275,20.1625648 21.6547927,20.1625648 C20.830658,20.1625648 20.1625648,20.830658 20.1625648,21.6547927 Z" id="路径"></path>
                <path d="M33.5926166,24.6392487 C32.7718912,24.6392487 32.1003886,25.3107513 32.1003886,26.1314767 L32.1003886,34.3387306 C32.1003886,35.159456 32.7718912,35.8309585 33.5926166,35.8309585 C34.413342,35.8309585 35.0848446,35.159456 35.0848446,34.3387306 L35.0848446,26.1314767 C35.0848446,25.3107513 34.413342,24.6392487 33.5926166,24.6392487 L33.5926166,24.6392487 Z" id="路径"></path>
                <path d="M32.1003886,21.6547927 C32.1003886,22.4789275 32.7684818,23.1470207 33.5926166,23.1470207 C34.4167513,23.1470207 35.0848446,22.4789275 35.0848446,21.6547927 C35.0848446,20.830658 34.4167513,20.1625648 33.5926166,20.1625648 C32.7684818,20.1625648 32.1003886,20.830658 32.1003886,21.6547927 Z" id="路径"></path>
                <path d="M26.1314767,34.3387306 C26.1314767,35.1628653 26.7995699,35.8309585 27.6237047,35.8309585 C28.4478394,35.8309585 29.1159326,35.1628653 29.1159326,34.3387306 C29.1159326,33.8056088 28.8315156,33.312984 28.3698187,33.0464232 C27.9081217,32.7798623 27.3392876,32.7798623 26.8775906,33.0464232 C26.4158937,33.312984 26.1314767,33.8056088 26.1314767,34.3387306 L26.1314767,34.3387306 Z" id="路径"></path>
                <path d="M27.6237047,20.1625648 C26.8029793,20.1625648 26.1314767,20.8340674 26.1314767,21.6547927 L26.1314767,29.8620466 C26.1314767,30.682772 26.8029793,31.3542746 27.6237047,31.3542746 C28.4444301,31.3542746 29.1159326,30.682772 29.1159326,29.8620466 L29.1159326,21.6547927 C29.1159326,20.8340674 28.4444301,20.1625648 27.6237047,20.1625648 L27.6237047,20.1625648 Z" id="路径"></path>
            </g>
        </g>
    </g>
</svg>