<?xml version="1.0" encoding="UTF-8"?>
<svg width="414px" height="329px" viewBox="0 0 414 329" version="1.1" xmlns="http://www.w3.org/2000/svg" xmlns:xlink="http://www.w3.org/1999/xlink">
    <title>暂无搜索内容</title>
    <defs>
        <linearGradient x1="50%" y1="0%" x2="50%" y2="98.9890359%" id="linearGradient-1">
            <stop stop-color="#A5A7A7" offset="0%"></stop>
            <stop stop-color="#B8BABA" stop-opacity="0.692896703" offset="24.6800563%"></stop>
            <stop stop-color="#B2B3B3" stop-opacity="0.427983637" offset="42.8859471%"></stop>
            <stop stop-color="#ADAFAF" stop-opacity="0.325797128" offset="69.4075578%"></stop>
            <stop stop-color="#B2B3B3" stop-opacity="0" offset="100%"></stop>
        </linearGradient>
        <linearGradient x1="73.3996267%" y1="64.6183109%" x2="6.51988244%" y2="28.9593252%" id="linearGradient-2">
            <stop stop-color="#FF7400" stop-opacity="0" offset="0%"></stop>
            <stop stop-color="#FF7400" stop-opacity="0.787185989" offset="100%"></stop>
            <stop stop-color="#0072FF" offset="100%"></stop>
        </linearGradient>
        <path d="M18.0218061,3.0028422 C18.8306709,2.40748329 19.4335208,1.99059294 19.8303559,1.75217116 C22.423758,0.194034055 24.8729511,-0.239286867 27.1779353,0.452208394 C31.0293406,2.02906457 32.4972372,4.96482112 31.5816251,9.25947803 C29.4887869,13.9683404 27.6684575,16.5843751 26.120637,17.107582 L26.120637,19.6909163 C30.0318192,20.3551633 32.8485216,21.5919988 34.5707445,23.4014228 C36.2929673,25.2108467 38.1132914,27.1292722 40.0317168,29.156699 L43.5306632,35.565984 C43.799455,37.7678132 42.6331395,39.5772371 40.0317168,40.9942559 C37.4302942,42.4112747 34.6135969,44.1770981 31.5816251,46.2917261 C30.7276209,46.9675351 29.7801715,46.9675351 28.7392771,46.2917261 C27.1779353,45.2780127 24.7498242,41.1904585 28.7392771,43.7410923 C29.5854939,43.7628926 30.2707727,43.490389 30.7951137,42.9235815 C31.3194546,42.356774 31.3194546,41.7136655 30.7951137,40.9942559 L31.5816251,40.9942559 L34.5707445,39.8170403 L36.6527819,37.756913 C36.994393,36.8631012 36.7327896,36.1327915 35.8679715,35.565984 C35.0031535,34.9991765 33.8477382,34.0726642 32.4017256,32.7864471 L31.5816251,32.7864471 L30.7951137,39.8170403 L28.7392771,48.9266889 C32.0650061,53.222795 33.0124554,59.2513152 31.5816251,67.0122494 L30.7951137,83.5914319 C30.4654504,93.3288524 29.7801715,100.486593 28.7392771,105.064654 L28.7392771,111.146934 L28.7392771,112.978159 L29.7381274,112.978159 L29.7381274,118.079426 C28.7353141,118.995038 27.2746947,119.223941 25.3562693,118.766135 L22.9364372,117.327316 C22.1042233,115.5715 21.7220732,114.363418 21.7899871,113.703069 C21.9286227,112.355068 23.348932,113.934967 23.7579915,112.978159 C24.26325,111.796337 23.7576216,108.161364 23.7579915,107.326477 C23.7593881,104.173816 22.9973087,100.855689 22.9364372,99.0071711 C22.7384698,92.9953854 22.0485858,87.5943041 21.7899871,83.5914319 C21.298195,75.9789385 20.7647329,73.0513917 20.1896008,74.8087916 C19.226742,79.0174508 18.7924103,82.2697157 18.8866059,84.5655862 C19.0306611,88.0767088 20.0241259,90.9471885 20.1896008,93.9644692 C20.4842414,99.336966 20.0717435,104.372571 20.1896008,108.144796 C20.2688612,110.681662 21.7115292,113.07956 21.7899871,114.763671 C21.9471409,118.137006 20.6607418,119.518245 20.1896008,119.518245 C18.7444044,119.518245 15.0403328,119.518245 9.07738616,119.518245 C6.06894629,118.798836 5.31683633,118.068526 6.82105626,117.327316 C8.3252762,116.586106 11.0176119,114.896584 14.8980633,112.258749 L14.8980633,111.146934 L14.8980633,105.064654 L10.3171697,85.3936911 C9.20535496,77.0045873 9.20535496,68.8294777 10.3171697,60.8683622 L13.7507152,50.0118183 L13.7507152,48.0824927 C14.4047239,46.5480417 14.4047239,43.7928909 13.7507152,39.8170403 C13.0967065,35.8411897 12.682501,32.6433484 12.5080987,30.2235163 C8.23523687,27.9958075 4.25668153,24.4849408 0.572432701,19.6909163 C-0.376832027,17.9489309 -0.121154713,16.3258282 1.33946464,14.8216083 C2.7296183,13.3899575 6.54422033,10.6120335 12.7832707,6.48783627 C12.9941055,6.34846825 13.316587,6.13595711 13.7507152,5.85030286 C15.3188854,4.68175686 16.5191234,3.93409085 17.3514292,3.60730482 C17.3514894,3.60728115 21.5202528,2.85653292 22.4800109,3.0028422 C23.8275986,3.20827373 22.1356252,4.4497111 22.4800109,4.7343394 C23.6157909,5.67304025 21.2534828,6.88053301 21.7899871,7.71069805 C22.4012985,8.6566168 20.2852546,7.92809507 20.1896008,8.76131074 C20.0558813,9.92610786 16.5830527,9.5673822 16.5965524,10.7750808 C16.612175,12.1726815 17.1071133,13.045749 17.3514292,14.0498937 C17.7764163,15.7966023 19.4422846,14.8216083 20.1896008,14.8216083 C20.679257,14.8216083 19.9497433,16.0630273 19.8303559,17.1036391 C19.6990738,18.2479288 19.7514056,18.8707606 18.8866059,18.8707606 C18.0218061,18.8707606 13.0966719,18.1371237 11.7069208,17.9053486 C10.3171697,17.6735735 8.39305693,17.3393571 7.92375615,17.9053486 C5.58723043,20.7232721 8.19604905,14.6578105 7.4906249,15.6884932 C5.68937191,18.320272 10.8389745,13.1463723 10.3171697,14.0498937 C10.1227558,14.3865274 11.053594,12.8666386 11.7069208,11.9879883 C12.871516,10.4217401 14.2975774,8.88773592 14.380168,9.25947803 C14.5264122,9.91772682 16.1153968,10.3294523 17.3514292,10.1155182 C18.1285516,9.98101279 18.552774,9.25947803 18.8866059,9.25947803 C19.9965074,9.25947803 22.219288,7.23523229 22.4800109,7.71069805 C22.8791088,8.43851066 20.4380303,7.06257234 20.9964845,7.20959847 C22.0763738,7.49390461 22.3273603,4.21133945 22.9364372,4.16796656 C23.384768,4.13604054 23.2326259,3.74766575 22.4800109,3.0028422 L18.0218061,3.0028422 Z" id="path-3"></path>
        <path d="M18.0218061,3.0028422 C18.8306709,2.40748329 19.4335208,1.99059294 19.8303559,1.75217116 C22.423758,0.194034055 24.8729511,-0.239286867 27.1779353,0.452208394 C31.0293406,2.02906457 32.4972372,4.96482112 31.5816251,9.25947803 C29.4887869,13.9683404 27.6684575,16.5843751 26.120637,17.107582 L26.120637,19.6909163 C30.0318192,20.3551633 32.8485216,21.5919988 34.5707445,23.4014228 C36.2929673,25.2108467 38.1132914,27.1292722 40.0317168,29.156699 L43.5306632,35.565984 C43.799455,37.7678132 42.6331395,39.5772371 40.0317168,40.9942559 C37.4302942,42.4112747 34.6135969,44.1770981 31.5816251,46.2917261 C30.7276209,46.9675351 29.7801715,46.9675351 28.7392771,46.2917261 C27.1779353,45.2780127 24.7498242,41.1904585 28.7392771,43.7410923 C29.5854939,43.7628926 30.2707727,43.490389 30.7951137,42.9235815 C31.3194546,42.356774 31.3194546,41.7136655 30.7951137,40.9942559 L31.5816251,40.9942559 L34.5707445,39.8170403 L36.6527819,37.756913 C36.994393,36.8631012 36.7327896,36.1327915 35.8679715,35.565984 C35.0031535,34.9991765 33.8477382,34.0726642 32.4017256,32.7864471 L31.5816251,32.7864471 L30.7951137,39.8170403 L28.7392771,48.9266889 C32.0650061,53.222795 33.0124554,59.2513152 31.5816251,67.0122494 L30.7951137,83.5914319 C30.4654504,93.3288524 29.7801715,100.486593 28.7392771,105.064654 L28.7392771,111.146934 L28.7392771,112.978159 L29.7381274,112.978159 L29.7381274,118.079426 C28.7353141,118.995038 27.2746947,119.223941 25.3562693,118.766135 L22.9364372,117.327316 C22.1042233,115.5715 21.7220732,114.363418 21.7899871,113.703069 C21.9286227,112.355068 23.348932,113.934967 23.7579915,112.978159 C24.26325,111.796337 23.7576216,108.161364 23.7579915,107.326477 C23.7593881,104.173816 22.9973087,100.855689 22.9364372,99.0071711 C22.7384698,92.9953854 22.0485858,87.5943041 21.7899871,83.5914319 C21.298195,75.9789385 20.7647329,73.0513917 20.1896008,74.8087916 C19.226742,79.0174508 18.7924103,82.2697157 18.8866059,84.5655862 C19.0306611,88.0767088 20.0241259,90.9471885 20.1896008,93.9644692 C20.4842414,99.336966 20.0717435,104.372571 20.1896008,108.144796 C20.2688612,110.681662 21.7115292,113.07956 21.7899871,114.763671 C21.9471409,118.137006 20.6607418,119.518245 20.1896008,119.518245 C18.7444044,119.518245 15.0403328,119.518245 9.07738616,119.518245 C6.06894629,118.798836 5.31683633,118.068526 6.82105626,117.327316 C8.3252762,116.586106 11.0176119,114.896584 14.8980633,112.258749 L14.8980633,111.146934 L14.8980633,105.064654 L10.3171697,85.3936911 C9.20535496,77.0045873 9.20535496,68.8294777 10.3171697,60.8683622 L13.7507152,50.0118183 L13.7507152,48.0824927 C14.4047239,46.5480417 14.4047239,43.7928909 13.7507152,39.8170403 C13.0967065,35.8411897 12.682501,32.6433484 12.5080987,30.2235163 C8.23523687,27.9958075 4.25668153,24.4849408 0.572432701,19.6909163 C-0.376832027,17.9489309 -0.121154713,16.3258282 1.33946464,14.8216083 C2.7296183,13.3899575 6.54422033,10.6120335 12.7832707,6.48783627 C12.9941055,6.34846825 13.316587,6.13595711 13.7507152,5.85030286 C15.3188854,4.68175686 16.5191234,3.93409085 17.3514292,3.60730482 C17.3514894,3.60728115 21.5202528,2.85653292 22.4800109,3.0028422 C23.8275986,3.20827373 22.1356252,4.4497111 22.4800109,4.7343394 C23.6157909,5.67304025 21.2534828,6.88053301 21.7899871,7.71069805 C22.4012985,8.6566168 20.2852546,7.92809507 20.1896008,8.76131074 C20.0558813,9.92610786 16.5830527,9.5673822 16.5965524,10.7750808 C16.612175,12.1726815 17.1071133,13.045749 17.3514292,14.0498937 C17.7764163,15.7966023 19.4422846,14.8216083 20.1896008,14.8216083 C20.679257,14.8216083 19.9497433,16.0630273 19.8303559,17.1036391 C19.6990738,18.2479288 19.7514056,18.8707606 18.8866059,18.8707606 C18.0218061,18.8707606 13.0966719,18.1371237 11.7069208,17.9053486 C10.3171697,17.6735735 8.39305693,17.3393571 7.92375615,17.9053486 C5.58723043,20.7232721 8.19604905,14.6578105 7.4906249,15.6884932 C5.68937191,18.320272 10.8389745,13.1463723 10.3171697,14.0498937 C10.1227558,14.3865274 11.053594,12.8666386 11.7069208,11.9879883 C12.871516,10.4217401 14.2975774,8.88773592 14.380168,9.25947803 C14.5264122,9.91772682 16.1153968,10.3294523 17.3514292,10.1155182 C18.1285516,9.98101279 18.552774,9.25947803 18.8866059,9.25947803 C19.9965074,9.25947803 22.219288,7.23523229 22.4800109,7.71069805 C22.8791088,8.43851066 20.4380303,7.06257234 20.9964845,7.20959847 C22.0763738,7.49390461 22.3273603,4.21133945 22.9364372,4.16796656 C23.384768,4.13604054 23.2326259,3.74766575 22.4800109,3.0028422 L18.0218061,3.0028422 Z" id="path-5"></path>
        <path d="M18.0218061,3.0028422 C18.8306709,2.40748329 19.4335208,1.99059294 19.8303559,1.75217116 C22.423758,0.194034055 24.8729511,-0.239286867 27.1779353,0.452208394 C31.0293406,2.02906457 32.4972372,4.96482112 31.5816251,9.25947803 C29.4887869,13.9683404 27.6684575,16.5843751 26.120637,17.107582 L26.120637,19.6909163 C30.0318192,20.3551633 32.8485216,21.5919988 34.5707445,23.4014228 C36.2929673,25.2108467 38.1132914,27.1292722 40.0317168,29.156699 L43.5306632,35.565984 C43.799455,37.7678132 42.6331395,39.5772371 40.0317168,40.9942559 C37.4302942,42.4112747 34.6135969,44.1770981 31.5816251,46.2917261 C30.7276209,46.9675351 29.7801715,46.9675351 28.7392771,46.2917261 C27.1779353,45.2780127 24.7498242,41.1904585 28.7392771,43.7410923 C29.5854939,43.7628926 30.2707727,43.490389 30.7951137,42.9235815 C31.3194546,42.356774 31.3194546,41.7136655 30.7951137,40.9942559 L31.5816251,40.9942559 L34.5707445,39.8170403 L36.6527819,37.756913 C36.994393,36.8631012 36.7327896,36.1327915 35.8679715,35.565984 C35.0031535,34.9991765 33.8477382,34.0726642 32.4017256,32.7864471 L31.5816251,32.7864471 L30.7951137,39.8170403 L28.7392771,48.9266889 C32.0650061,53.222795 33.0124554,59.2513152 31.5816251,67.0122494 L30.7951137,83.5914319 C30.4654504,93.3288524 29.7801715,100.486593 28.7392771,105.064654 L28.7392771,111.146934 L28.7392771,112.978159 L29.7381274,112.978159 L29.7381274,118.079426 C28.7353141,118.995038 27.2746947,119.223941 25.3562693,118.766135 L22.9364372,117.327316 C22.1042233,115.5715 21.7220732,114.363418 21.7899871,113.703069 C21.9286227,112.355068 23.348932,113.934967 23.7579915,112.978159 C24.26325,111.796337 23.7576216,108.161364 23.7579915,107.326477 C23.7593881,104.173816 22.9973087,100.855689 22.9364372,99.0071711 C22.7384698,92.9953854 22.0485858,87.5943041 21.7899871,83.5914319 C21.298195,75.9789385 20.7647329,73.0513917 20.1896008,74.8087916 C19.226742,79.0174508 18.7924103,82.2697157 18.8866059,84.5655862 C19.0306611,88.0767088 20.0241259,90.9471885 20.1896008,93.9644692 C20.4842414,99.336966 20.0717435,104.372571 20.1896008,108.144796 C20.2688612,110.681662 21.7115292,113.07956 21.7899871,114.763671 C21.9471409,118.137006 20.6607418,119.518245 20.1896008,119.518245 C18.7444044,119.518245 15.0403328,119.518245 9.07738616,119.518245 C6.06894629,118.798836 5.31683633,118.068526 6.82105626,117.327316 C8.3252762,116.586106 11.0176119,114.896584 14.8980633,112.258749 L14.8980633,111.146934 L14.8980633,105.064654 L10.3171697,85.3936911 C9.20535496,77.0045873 9.20535496,68.8294777 10.3171697,60.8683622 L13.7507152,50.0118183 L13.7507152,48.0824927 C14.4047239,46.5480417 14.4047239,43.7928909 13.7507152,39.8170403 C13.0967065,35.8411897 12.682501,32.6433484 12.5080987,30.2235163 C8.23523687,27.9958075 4.25668153,24.4849408 0.572432701,19.6909163 C-0.376832027,17.9489309 -0.121154713,16.3258282 1.33946464,14.8216083 C2.7296183,13.3899575 6.54422033,10.6120335 12.7832707,6.48783627 C12.9941055,6.34846825 13.316587,6.13595711 13.7507152,5.85030286 C15.3188854,4.68175686 16.5191234,3.93409085 17.3514292,3.60730482 C17.3514894,3.60728115 21.5202528,2.85653292 22.4800109,3.0028422 C23.8275986,3.20827373 22.1356252,4.4497111 22.4800109,4.7343394 C23.6157909,5.67304025 21.2534828,6.88053301 21.7899871,7.71069805 C22.4012985,8.6566168 20.2852546,7.92809507 20.1896008,8.76131074 C20.0558813,9.92610786 16.5830527,9.5673822 16.5965524,10.7750808 C16.612175,12.1726815 17.1071133,13.045749 17.3514292,14.0498937 C17.7764163,15.7966023 19.4422846,14.8216083 20.1896008,14.8216083 C20.679257,14.8216083 19.9497433,16.0630273 19.8303559,17.1036391 C19.6990738,18.2479288 19.7514056,18.8707606 18.8866059,18.8707606 C18.0218061,18.8707606 13.0966719,18.1371237 11.7069208,17.9053486 C10.3171697,17.6735735 8.39305693,17.3393571 7.92375615,17.9053486 C5.58723043,20.7232721 8.19604905,14.6578105 7.4906249,15.6884932 C5.68937191,18.320272 10.8389745,13.1463723 10.3171697,14.0498937 C10.1227558,14.3865274 11.053594,12.8666386 11.7069208,11.9879883 C12.871516,10.4217401 14.2975774,8.88773592 14.380168,9.25947803 C14.5264122,9.91772682 16.1153968,10.3294523 17.3514292,10.1155182 C18.1285516,9.98101279 18.552774,9.25947803 18.8866059,9.25947803 C19.9965074,9.25947803 22.219288,7.23523229 22.4800109,7.71069805 C22.8791088,8.43851066 20.4380303,7.06257234 20.9964845,7.20959847 C22.0763738,7.49390461 22.3273603,4.21133945 22.9364372,4.16796656 C23.384768,4.13604054 23.2326259,3.74766575 22.4800109,3.0028422 L18.0218061,3.0028422 Z" id="path-7"></path>
        <path d="M18.0218061,3.0028422 C18.8306709,2.40748329 19.4335208,1.99059294 19.8303559,1.75217116 C22.423758,0.194034055 24.8729511,-0.239286867 27.1779353,0.452208394 C31.0293406,2.02906457 32.4972372,4.96482112 31.5816251,9.25947803 C29.4887869,13.9683404 27.6684575,16.5843751 26.120637,17.107582 L26.120637,19.6909163 C30.0318192,20.3551633 32.8485216,21.5919988 34.5707445,23.4014228 C36.2929673,25.2108467 38.1132914,27.1292722 40.0317168,29.156699 L43.5306632,35.565984 C43.799455,37.7678132 42.6331395,39.5772371 40.0317168,40.9942559 C37.4302942,42.4112747 34.6135969,44.1770981 31.5816251,46.2917261 C30.7276209,46.9675351 29.7801715,46.9675351 28.7392771,46.2917261 C27.1779353,45.2780127 24.7498242,41.1904585 28.7392771,43.7410923 C29.5854939,43.7628926 30.2707727,43.490389 30.7951137,42.9235815 C31.3194546,42.356774 31.3194546,41.7136655 30.7951137,40.9942559 L31.5816251,40.9942559 L34.5707445,39.8170403 L36.6527819,37.756913 C36.994393,36.8631012 36.7327896,36.1327915 35.8679715,35.565984 C35.0031535,34.9991765 33.8477382,34.0726642 32.4017256,32.7864471 L31.5816251,32.7864471 L30.7951137,39.8170403 L28.7392771,48.9266889 C32.0650061,53.222795 33.0124554,59.2513152 31.5816251,67.0122494 L30.7951137,83.5914319 C30.4654504,93.3288524 29.7801715,100.486593 28.7392771,105.064654 L28.7392771,111.146934 L28.7392771,112.978159 L29.7381274,112.978159 L29.7381274,118.079426 C28.7353141,118.995038 27.2746947,119.223941 25.3562693,118.766135 L22.9364372,117.327316 C22.1042233,115.5715 21.7220732,114.363418 21.7899871,113.703069 C21.9286227,112.355068 23.348932,113.934967 23.7579915,112.978159 C24.26325,111.796337 23.7576216,108.161364 23.7579915,107.326477 C23.7593881,104.173816 22.9973087,100.855689 22.9364372,99.0071711 C22.7384698,92.9953854 22.0485858,87.5943041 21.7899871,83.5914319 C21.298195,75.9789385 20.7647329,73.0513917 20.1896008,74.8087916 C19.226742,79.0174508 18.7924103,82.2697157 18.8866059,84.5655862 C19.0306611,88.0767088 20.0241259,90.9471885 20.1896008,93.9644692 C20.4842414,99.336966 20.0717435,104.372571 20.1896008,108.144796 C20.2688612,110.681662 21.7115292,113.07956 21.7899871,114.763671 C21.9471409,118.137006 20.6607418,119.518245 20.1896008,119.518245 C18.7444044,119.518245 15.0403328,119.518245 9.07738616,119.518245 C6.06894629,118.798836 5.31683633,118.068526 6.82105626,117.327316 C8.3252762,116.586106 11.0176119,114.896584 14.8980633,112.258749 L14.8980633,111.146934 L14.8980633,105.064654 L10.3171697,85.3936911 C9.20535496,77.0045873 9.20535496,68.8294777 10.3171697,60.8683622 L13.7507152,50.0118183 L13.7507152,48.0824927 C14.4047239,46.5480417 14.4047239,43.7928909 13.7507152,39.8170403 C13.0967065,35.8411897 12.682501,32.6433484 12.5080987,30.2235163 C8.23523687,27.9958075 4.25668153,24.4849408 0.572432701,19.6909163 C-0.376832027,17.9489309 -0.121154713,16.3258282 1.33946464,14.8216083 C2.7296183,13.3899575 6.54422033,10.6120335 12.7832707,6.48783627 C12.9941055,6.34846825 13.316587,6.13595711 13.7507152,5.85030286 C15.3188854,4.68175686 16.5191234,3.93409085 17.3514292,3.60730482 C17.3514894,3.60728115 21.5202528,2.85653292 22.4800109,3.0028422 C23.8275986,3.20827373 22.1356252,4.4497111 22.4800109,4.7343394 C23.6157909,5.67304025 21.2534828,6.88053301 21.7899871,7.71069805 C22.4012985,8.6566168 20.2852546,7.92809507 20.1896008,8.76131074 C20.0558813,9.92610786 16.5830527,9.5673822 16.5965524,10.7750808 C16.612175,12.1726815 17.1071133,13.045749 17.3514292,14.0498937 C17.7764163,15.7966023 19.4422846,14.8216083 20.1896008,14.8216083 C20.679257,14.8216083 19.9497433,16.0630273 19.8303559,17.1036391 C19.6990738,18.2479288 19.7514056,18.8707606 18.8866059,18.8707606 C18.0218061,18.8707606 13.0966719,18.1371237 11.7069208,17.9053486 C10.3171697,17.6735735 8.39305693,17.3393571 7.92375615,17.9053486 C5.58723043,20.7232721 8.19604905,14.6578105 7.4906249,15.6884932 C5.68937191,18.320272 10.8389745,13.1463723 10.3171697,14.0498937 C10.1227558,14.3865274 11.053594,12.8666386 11.7069208,11.9879883 C12.871516,10.4217401 14.2975774,8.88773592 14.380168,9.25947803 C14.5264122,9.91772682 16.1153968,10.3294523 17.3514292,10.1155182 C18.1285516,9.98101279 18.552774,9.25947803 18.8866059,9.25947803 C19.9965074,9.25947803 22.219288,7.23523229 22.4800109,7.71069805 C22.8791088,8.43851066 20.4380303,7.06257234 20.9964845,7.20959847 C22.0763738,7.49390461 22.3273603,4.21133945 22.9364372,4.16796656 C23.384768,4.13604054 23.2326259,3.74766575 22.4800109,3.0028422 L18.0218061,3.0028422 Z" id="path-9"></path>
        <linearGradient x1="69.900177%" y1="10.789932%" x2="27.2236986%" y2="70.5782007%" id="linearGradient-11">
            <stop stop-color="#D1D1D1" offset="0%"></stop>
            <stop stop-color="#DDDCDC" offset="100%"></stop>
        </linearGradient>
        <linearGradient x1="77.7440921%" y1="22.673027%" x2="29.2011677%" y2="80.6928353%" id="linearGradient-12">
            <stop stop-color="#D7D7D7" offset="0%"></stop>
            <stop stop-color="#D4D4D4" offset="100%"></stop>
        </linearGradient>
        <linearGradient x1="72.4110827%" y1="13.6349497%" x2="41.4588964%" y2="91.4776337%" id="linearGradient-13">
            <stop stop-color="#C3C3C3" offset="0%"></stop>
            <stop stop-color="#D9D9D9" offset="100%"></stop>
        </linearGradient>
        <linearGradient x1="58.1504016%" y1="30.2825435%" x2="40.9097544%" y2="73.9866112%" id="linearGradient-14">
            <stop stop-color="#DEDEDE" offset="0%"></stop>
            <stop stop-color="#DCDCDC" offset="100%"></stop>
        </linearGradient>
        <linearGradient x1="50%" y1="0%" x2="50%" y2="100%" id="linearGradient-15">
            <stop stop-color="#E6E6E6" offset="0%"></stop>
            <stop stop-color="#E3E3E3" offset="100%"></stop>
        </linearGradient>
        <linearGradient x1="66.0244129%" y1="35.9822377%" x2="33.6603264%" y2="68.7404902%" id="linearGradient-16">
            <stop stop-color="#EFEFEF" offset="0%"></stop>
            <stop stop-color="#E5E2E2" offset="100%"></stop>
        </linearGradient>
        <linearGradient x1="50%" y1="0%" x2="50%" y2="98.9890359%" id="linearGradient-17">
            <stop stop-color="#A5A7A7" offset="0%"></stop>
            <stop stop-color="#B8BABA" stop-opacity="0.692896703" offset="24.6800563%"></stop>
            <stop stop-color="#B2B3B3" stop-opacity="0.427983637" offset="42.8859471%"></stop>
            <stop stop-color="#ADAFAF" stop-opacity="0.325797128" offset="69.4075578%"></stop>
            <stop stop-color="#B2B3B3" stop-opacity="0" offset="100%"></stop>
        </linearGradient>
    </defs>
    <g id="页面-1" stroke="none" stroke-width="1" fill="none" fill-rule="evenodd">
        <g id="异常状态" transform="translate(-648.000000, -692.000000)">
            <g id="暂无搜索内容" transform="translate(648.000000, 692.000000)">
                <ellipse id="椭圆形" fill="url(#linearGradient-1)" fill-rule="nonzero" opacity="0.2" cx="206.684685" cy="237.650671" rx="167" ry="70.5"></ellipse>
                <polygon id="路径-13" fill="url(#linearGradient-2)" fill-rule="nonzero" opacity="0.305137185" points="91.7062985 250.938937 109.406944 246.001571 218.630433 299.255351 172.152944 328.337434"></polygon>
                <g id="编组-2备份-15" transform="translate(99.799695, 192.358043) scale(-1, 1) translate(-99.799695, -192.358043) translate(77.799695, 132.358043)">
                    <g id="编组-8">
                        <g id="路径-8" fill="#FBD0C1" fill-rule="nonzero">
                            <path d="M18.0218061,3.0028422 C18.8306709,2.40748329 19.4335208,1.99059294 19.8303559,1.75217116 C22.423758,0.194034055 24.8729511,-0.239286867 27.1779353,0.452208394 C31.0293406,2.02906457 32.4972372,4.96482112 31.5816251,9.25947803 C29.4887869,13.9683404 27.6684575,16.5843751 26.120637,17.107582 L26.120637,19.6909163 C30.0318192,20.3551633 32.8485216,21.5919988 34.5707445,23.4014228 C36.2929673,25.2108467 38.1132914,27.1292722 40.0317168,29.156699 L43.5306632,35.565984 C43.799455,37.7678132 42.6331395,39.5772371 40.0317168,40.9942559 C37.4302942,42.4112747 34.6135969,44.1770981 31.5816251,46.2917261 C30.7276209,46.9675351 29.7801715,46.9675351 28.7392771,46.2917261 C27.1779353,45.2780127 24.7498242,41.1904585 28.7392771,43.7410923 C29.5854939,43.7628926 30.2707727,43.490389 30.7951137,42.9235815 C31.3194546,42.356774 31.3194546,41.7136655 30.7951137,40.9942559 L31.5816251,40.9942559 L34.5707445,39.8170403 L36.6527819,37.756913 C36.994393,36.8631012 36.7327896,36.1327915 35.8679715,35.565984 C35.0031535,34.9991765 33.8477382,34.0726642 32.4017256,32.7864471 L31.5816251,32.7864471 L30.7951137,39.8170403 L28.7392771,48.9266889 C32.0650061,53.222795 33.0124554,59.2513152 31.5816251,67.0122494 L30.7951137,83.5914319 C30.4654504,93.3288524 29.7801715,100.486593 28.7392771,105.064654 L28.7392771,111.146934 L28.7392771,112.978159 L29.7381274,112.978159 L29.7381274,118.079426 C28.7353141,118.995038 27.2746947,119.223941 25.3562693,118.766135 L22.9364372,117.327316 C22.1042233,115.5715 21.7220732,114.363418 21.7899871,113.703069 C21.9286227,112.355068 23.348932,113.934967 23.7579915,112.978159 C24.26325,111.796337 23.7576216,108.161364 23.7579915,107.326477 C23.7593881,104.173816 22.9973087,100.855689 22.9364372,99.0071711 C22.7384698,92.9953854 22.0485858,87.5943041 21.7899871,83.5914319 C21.298195,75.9789385 20.7647329,73.0513917 20.1896008,74.8087916 C19.226742,79.0174508 18.7924103,82.2697157 18.8866059,84.5655862 C19.0306611,88.0767088 20.0241259,90.9471885 20.1896008,93.9644692 C20.4842414,99.336966 20.0717435,104.372571 20.1896008,108.144796 C20.2688612,110.681662 21.7115292,113.07956 21.7899871,114.763671 C21.9471409,118.137006 20.6607418,119.518245 20.1896008,119.518245 C18.7444044,119.518245 15.0403328,119.518245 9.07738616,119.518245 C6.06894629,118.798836 5.31683633,118.068526 6.82105626,117.327316 C8.3252762,116.586106 11.0176119,114.896584 14.8980633,112.258749 L14.8980633,111.146934 L14.8980633,105.064654 L10.3171697,85.3936911 C9.20535496,77.0045873 9.20535496,68.8294777 10.3171697,60.8683622 L13.7507152,50.0118183 L13.7507152,48.0824927 C14.4047239,46.5480417 14.4047239,43.7928909 13.7507152,39.8170403 C13.0967065,35.8411897 12.682501,32.6433484 12.5080987,30.2235163 C8.23523687,27.9958075 4.25668153,24.4849408 0.572432701,19.6909163 C-0.376832027,17.9489309 -0.121154713,16.3258282 1.33946464,14.8216083 C2.7296183,13.3899575 6.54422033,10.6120335 12.7832707,6.48783627 C12.9941055,6.34846825 13.316587,6.13595711 13.7507152,5.85030286 C15.3188854,4.68175686 16.5191234,3.93409085 17.3514292,3.60730482 C17.3514894,3.60728115 21.5202528,2.85653292 22.4800109,3.0028422 C23.8275986,3.20827373 22.1356252,4.4497111 22.4800109,4.7343394 C23.6157909,5.67304025 21.2534828,6.88053301 21.7899871,7.71069805 C22.4012985,8.6566168 20.2852546,7.92809507 20.1896008,8.76131074 C20.0558813,9.92610786 16.5830527,9.5673822 16.5965524,10.7750808 C16.612175,12.1726815 17.1071133,13.045749 17.3514292,14.0498937 C17.7764163,15.7966023 19.4422846,14.8216083 20.1896008,14.8216083 C20.679257,14.8216083 19.9497433,16.0630273 19.8303559,17.1036391 C19.6990738,18.2479288 19.7514056,18.8707606 18.8866059,18.8707606 C18.0218061,18.8707606 13.0966719,18.1371237 11.7069208,17.9053486 C10.3171697,17.6735735 8.39305693,17.3393571 7.92375615,17.9053486 C5.58723043,20.7232721 8.19604905,14.6578105 7.4906249,15.6884932 C5.68937191,18.320272 10.8389745,13.1463723 10.3171697,14.0498937 C10.1227558,14.3865274 11.053594,12.8666386 11.7069208,11.9879883 C12.871516,10.4217401 14.2975774,8.88773592 14.380168,9.25947803 C14.5264122,9.91772682 16.1153968,10.3294523 17.3514292,10.1155182 C18.1285516,9.98101279 18.552774,9.25947803 18.8866059,9.25947803 C19.9965074,9.25947803 22.219288,7.23523229 22.4800109,7.71069805 C22.8791088,8.43851066 20.4380303,7.06257234 20.9964845,7.20959847 C22.0763738,7.49390461 22.3273603,4.21133945 22.9364372,4.16796656 C23.384768,4.13604054 23.2326259,3.74766575 22.4800109,3.0028422 L18.0218061,3.0028422 Z" id="path-3"></path>
                        </g>
                        <g id="路径-6-Clipped">
                            <mask id="mask-4" fill="white">
                                <use xlink:href="#path-3"></use>
                            </mask>
                            <g id="path-3"></g>
                            <path d="M13.9690543,112.518841 C14.5375496,114.62725 15.6925447,115.336246 17.4340395,114.645831 C18.8037193,115.165122 19.895595,114.456125 20.7096666,112.518841 L21.7899871,114.645831 L21.8280837,117.012978 L21.1680291,118.795559 C20.5084206,119.138491 19.8291928,119.51861 19.1303457,119.935916 C18.0820751,120.561876 13.6348129,119.935916 12.6764645,119.935916 C12.0375655,119.935916 10.7174795,119.935916 8.71620651,119.935916 L6.1100248,117.874493 L7.41862592,117.012978 L13.9690543,112.518841 Z" id="路径-6" fill="#323131" fill-rule="nonzero" mask="url(#mask-4)"></path>
                        </g>
                        <g id="路径-5-Clipped">
                            <mask id="mask-6" fill="white">
                                <use xlink:href="#path-5"></use>
                            </mask>
                            <g id="path-3"></g>
                            <path d="M11.2025444,45.9593935 C16.2912648,49.1321082 22.7856109,49.1321082 30.6855824,45.9593935 C38.585554,42.7866789 41.2866427,47.4896937 38.7888486,60.0684379 L37.6465873,86.1748241 L34.1832259,99.7725359 L29.2702549,109.677585 L28.4398422,111.424378 L12.0294381,109.677585 L3.96727324,69.8710099 L8.66897723,51.8243173 L11.2025444,45.9593935 Z" id="路径-5" fill="#474545" fill-rule="nonzero" mask="url(#mask-6)"></path>
                        </g>
                        <g id="路径-10-Clipped">
                            <mask id="mask-8" fill="white">
                                <use xlink:href="#path-7"></use>
                            </mask>
                            <g id="path-3"></g>
                            <path d="M7.92375615,17.9053486 L11.1671612,16.2848919 L18.1977701,18.6393231 L18.9498801,19.4568339 C20.6721134,20.6340495 23.4734557,20.9283534 27.3539071,20.3397456 C31.2343586,19.7511378 35.7232641,21.3419141 40.8206236,25.1120745 L40.8206236,27.6627201 L39.3818046,30.1152526 L32.776317,34.7260137 L30.6834893,48.8526009 L29.6278546,47.9092008 C24.0918421,50.4964771 18.5769994,50.2204945 13.0833266,47.0812529 C7.58965378,43.9420113 6.65224135,40.7591691 10.2710893,37.5327263 L7.92375615,31.0639418 L7.92375615,29.0365149 L6.69535931,27.6627201 L7.92375615,17.9053486 Z" id="路径-10" fill="#F67000" fill-rule="nonzero" mask="url(#mask-8)"></path>
                        </g>
                        <g id="路径-11-Clipped">
                            <mask id="mask-10" fill="white">
                                <use xlink:href="#path-9"></use>
                            </mask>
                            <g id="path-3"></g>
                            <path d="M17.3514292,0.133379169 L18.5705958,2.98288794 C21.6534303,2.51233667 23.299566,2.51233667 23.5090028,2.98288794 C23.5857574,3.15533599 23.8576352,4.26585556 23.5090028,5.26362463 C23.3497557,5.71938205 19.6594368,6.86984149 19.6594368,7.40952932 C19.6594368,7.94921715 21.4969577,7.40952932 21.7899871,7.40952932 C22.2379333,7.40952932 22.2379333,7.73252258 21.7899871,8.3785091 C20.8275041,9.08796605 20.3462626,9.44269453 20.3462626,9.44269453 C20.3462626,9.44269453 20.787998,12.3232948 20.787998,12.3232948 C20.787998,12.3232948 20.2592963,13.6230197 20.787998,14.5923061 C21.3166997,15.5615925 20.9855787,16.1784112 21.7899871,16.7952298 C22.5943954,17.4120484 24.7092074,16.1784112 25.2158798,16.7952298 C25.5536614,17.2064422 26.3099985,17.2064422 27.4848911,16.7952298 L30.0623118,15.2972417 C32.1771256,13.5936474 33.2345324,12.4481236 33.2345324,11.8606702 C33.2345324,10.9794902 35.6176444,6.99493686 34.4260884,5.76128376 C33.6317178,4.93884836 32.3445802,3.06288016 30.5646757,0.133379169 L25.2158798,-1.68224299 L19.2750885,-1.68224299 L17.3514292,0.133379169 Z" id="路径-11" fill="#18313C" fill-rule="nonzero" mask="url(#mask-10)"></path>
                        </g>
                        <g id="路径-12" transform="translate(26.000000, 29.000000)" fill="#FBD0C1" fill-rule="nonzero">
                            <path d="M1.0818681,13.3574694 C1.0818681,13.3574694 1.6314737,13.677138 2.7306851,14.3164752 L3.8411129,14.3164752 L5.2039106,13.3574694 L5.2039106,12.3479896 C5.2039106,11.8881155 5.2039106,11.6581784 5.2039106,11.6581784 C5.2039106,11.6581784 5.9385883,11.4731071 7.4079436,11.1029645 L9.3259552,10.026186 C10.2105064,9.5115485 10.6527819,9.0884574 10.6527819,8.756913 C10.6527819,8.4253686 10.6527819,7.9847935 10.6527819,7.4351878 C9.1176771,6.1228641 8.3501247,5.4667022 8.3501247,5.4667022 C8.3501247,5.4667022 8.0360644,5.2199405 7.4079436,4.726417 C10.2216283,3.536146 12.4295527,2.0129066 14.0317168,0.156699 L16.4553368,4.125437 L17.5684212,6.4977145 C17.6120948,8.1591422 17.0335625,9.4905894 15.8328242,10.492056 C14.632086,11.4935226 11.3321505,13.5570075 5.9330178,16.6825107 L4.469272,17.5573932 L2.366181,16.6825107 L1.0818681,15.6393815 L0.0555766,14.3164752 C0.7397709,13.677138 1.0818681,13.3574694 1.0818681,13.3574694 Z" id="path-5"></path>
                        </g>
                    </g>
                    <path d="M23.1711982,113.570226 C23.1711982,113.570226 23.4155994,113.476706 23.9044017,113.289667 C26.0874332,114.51256 27.8879751,114.60608 29.3060275,113.570226 L29.7381274,115.600778 C29.7381274,116.938659 29.7381274,117.764875 29.7381274,118.079426 C29.7381274,118.551254 27.5175707,118.738915 27.5175707,118.738915 C27.5175707,118.738915 26.6947822,118.592899 25.0492052,118.300867 C24.4721239,118.313261 24.1637067,118.313261 24.1239538,118.300867 C22.9112205,117.92277 22.7363158,117.689447 22.7363158,117.548739 C22.7363158,117.401111 22.5104548,117.327304 22.0587327,117.327316 C21.7384346,117.163859 21.571911,117.068762 21.5591621,117.042026 C21.1573636,116.199397 21.8280837,114.894968 21.8280837,114.725029 C21.8280837,114.457988 21.246756,113.289667 21.5591621,113.289667 C21.8715682,113.289667 23.1711982,113.570226 23.1711982,113.570226 Z" id="路径-14" fill="#323131" fill-rule="nonzero"></path>
                </g>
                <polygon id="路径-23" fill="url(#linearGradient-11)" fill-rule="nonzero" points="131.015003 123.097986 206.684685 198.480842 271.445713 82.630918 215.145452 62.7480148"></polygon>
                <polygon id="路径-22" fill="url(#linearGradient-12)" fill-rule="nonzero" points="166.684685 42.6506707 257.305454 24.1506707 206.684685 123.097986 131.015003 123.097986"></polygon>
                <polygon id="路径-24" fill="url(#linearGradient-13)" fill-rule="nonzero" points="206.684685 198.480842 276.684685 211.150671 289.508308 88.3433256 248.096496 93.3663748"></polygon>
                <polygon id="路径-25" fill="url(#linearGradient-14)" fill-rule="nonzero" points="257.305454 23.1506707 206.684685 123.097986 276.684685 213.798358 331.567247 132.491422"></polygon>
                <polygon id="路径-26" fill="url(#linearGradient-15)" fill-rule="nonzero" points="117.832421 68.4948777 206.684685 57.5641404 206.684685 123.097986 131.015003 123.097986"></polygon>
                <polygon id="路径-27" fill="url(#linearGradient-16)" fill-rule="nonzero" points="206.684685 123.097986 257.305454 84.1989383 331.567247 198.480842 276.684685 211.150671"></polygon>
                <path d="M150.684685,192.150671 C150.684685,192.150671 192.291119,227.283162 207.812749,204.392514 C207.812749,204.392514 206.638165,191.13119 189.071112,204.392514 C189.071112,204.392514 179.538727,217.081895 201.697482,220.710664 C206.627374,222.697775 212.114131,222.811567 217.122172,221.030564 C217.122172,221.030564 222.473233,220.595952 233.278756,224.261881" id="形状_1" stroke="#A9AAAB" stroke-dasharray="3"></path>
                <path d="M358.649102,32 C371.664486,32.013927 382.466033,41.603675 384.587874,54.196135 L384.695,54.196 L384.770206,54.1678854 C387.089491,53.3069668 389.560802,52.8554867 392.077796,52.8580237 C395.798649,52.8651503 399.29384,53.8449673 402.330063,55.5599771 C408.774716,58.2660706 413.309309,64.7098766 413.309309,72.2284556 L413.309309,77.8396568 C413.309309,87.7982216 405.35394,95.8712335 395.540494,95.8712335 L329.671995,95.8718381 C329.255206,95.8932188 328.835661,95.9039039 328.413619,95.9039039 C327.997322,95.9039039 327.583459,95.8931531 327.172277,95.8721714 L323.057054,95.8712335 C313.709128,95.8712335 306.047176,88.5459726 305.341293,79.2434779 C304.472578,76.7013221 304,73.9708369 304,71.1285294 C304.003533,64.5529058 306.581014,58.2480272 311.165425,53.6008954 C315.749836,48.9537635 321.965646,46.3450475 328.445448,46.3486352 L328.443226,46.3441273 C330.662017,46.3463801 332.811415,46.6488721 334.854132,47.2137023 C336.132633,44.4969307 337.867199,41.9929842 340.007082,39.823835 C344.952839,34.8104362 351.658574,31.9961214 358.649102,32 Z" id="圆角矩形_1备份-3" fill="url(#linearGradient-17)" fill-rule="nonzero" opacity="0.2"></path>
                <path d="M54.6491019,1.77635684e-14 C67.6644865,0.0139270422 78.4660333,9.603675 80.5878738,22.196135 L80.695,22.196 L80.7702062,22.1678854 C83.0894905,21.3069668 85.5608015,20.8554867 88.0777962,20.8580237 C91.7986488,20.8651503 95.2938397,21.8449673 98.3300628,23.5599771 C104.774716,26.2660706 109.309309,32.7098766 109.309309,40.2284556 L109.309309,45.8396568 C109.309309,55.7982216 101.35394,63.8712335 91.540494,63.8712335 L25.6719955,63.8718381 C25.2552058,63.8932188 24.8356614,63.9039039 24.4136194,63.9039039 C23.9973218,63.9039039 23.5834587,63.8931531 23.1722767,63.8721714 L19.0570544,63.8712335 C9.70912816,63.8712335 2.04717647,56.5459726 1.3412932,47.2434779 C0.472578421,44.7013221 -2.1813662e-12,41.9708369 -2.1813662e-12,39.1285294 C0.00353347333,32.5529058 2.58101391,26.2480272 7.16542483,21.6008954 C11.7498358,16.9537635 17.9656459,14.3450475 24.4454476,14.3486352 L24.4432265,14.3441273 C26.6620172,14.3463801 28.8114154,14.6488721 30.8541325,15.2137023 C32.1326326,12.4969307 33.8671989,9.99298421 36.0070815,7.82383502 C40.9528387,2.81043615 47.658574,-0.00387862749 54.6491019,1.77635684e-14 Z" id="圆角矩形_1备份-5" fill="url(#linearGradient-17)" fill-rule="nonzero" opacity="0.2"></path>
            </g>
        </g>
    </g>
</svg>