<?xml version="1.0" encoding="UTF-8"?>
<svg width="24px" height="24px" viewBox="0 0 24 24" version="1.1" xmlns="http://www.w3.org/2000/svg" xmlns:xlink="http://www.w3.org/1999/xlink">
    <title>时间</title>
    <g id="页面-1" stroke="none" stroke-width="1" fill="none" fill-rule="evenodd">
        <g id="搜索" transform="translate(-31.000000, -381.000000)" fill="#999999" fill-rule="nonzero">
            <g id="时间" transform="translate(31.000000, 381.000000)">
                <path d="M21.9000269,12.0000154 L21.9000269,12.0000154 C21.9000269,6.53239884 17.4676319,2.10000384 12.0000154,2.10000384 C6.53239884,2.10000384 2.10000384,6.53239884 2.10000384,12.0000154 C2.10000384,17.4676319 6.53239884,21.9000269 12.0000154,21.9000269 L12.0000149,21.9000269 C17.4676314,21.9000269 21.9000269,17.4676319 21.9000269,12.0000154 L21.9000269,12.0000154 Z M23.5500288,12.0000154 L23.5500288,12.0000154 C23.5500288,18.3789228 18.3789228,23.5500288 12.0000154,23.5500288 C5.62110794,23.5500288 0.45000192,18.3789228 0.45000192,12.0000154 C0.45000192,5.62110794 5.62110794,0.45000192 12.0000154,0.45000192 L12.0000149,0.45000192 C18.3789223,0.45000192 23.5500288,5.62110794 23.5500288,12.0000154 C23.5500288,12.0000154 23.5500288,12.0000154 23.5500288,12.0000154 L23.5500288,12.0000154 Z M12.8250163,11.661765 L15.8857699,14.7142685 L15.8857699,14.7142686 C16.2092709,15.0377695 16.2092709,15.562269 15.8857698,15.8857699 C15.5622689,16.2092709 15.0377694,16.2092709 14.7142685,15.8857698 L11.4142646,12.585766 L11.4142646,12.5857659 C11.2598355,12.4300728 11.1737466,12.2193031 11.1750005,12.0000153 L11.1750005,4.57500662 L11.1750005,4.57500674 C11.1750005,4.1193716 11.5443801,3.75000578 12.0000153,3.75000578 C12.4556504,3.75000578 12.8250162,4.1193716 12.8250162,4.57500674 C12.8250162,4.57500674 12.8250162,4.57500674 12.8250162,4.57500674 L12.8250163,11.661765 Z" id="形状"></path>
            </g>
        </g>
    </g>
</svg>