<svg xmlns="http://www.w3.org/2000/svg" xmlns:xlink="http://www.w3.org/1999/xlink" fill="none" version="1.1" width="26" height="26" viewBox="0 0 26 26"><g><g><path d="M13.000001,26.000002C5.8322067,26.000002,0,20.168747,0,13.000001C0,5.8322062,5.8321557,0,13.000001,0C20.168747,0,26,5.8312531,26,13.000001C26,20.168747,20.168747,26.000002,13.000001,26.000002ZM13.000001,1.8654003C6.860044,1.8654003,1.8654013,6.8599944,1.8654013,12.999999C1.8654013,19.139053,6.8599944,24.134596,13.000001,24.134596C19.139057,24.134596,24.134598,19.140001,24.134598,12.999998C24.134598,6.8599944,19.139057,1.8654003,13.000001,1.8654003Z" fill="#FFFFFF" fill-opacity="1" style="mix-blend-mode:passthrough"/></g><g><path d="M14.39900832286377,6.9373899634277345Q14.39900832286377,7.006121563427734,14.39227152286377,7.074522063427734Q14.38553452286377,7.1429226634277345,14.37212542286377,7.210333563427734Q14.35871672286377,7.277744563427735,14.33876512286377,7.343516563427734Q14.31881332286377,7.409288663427734,14.292510722863769,7.472788263427734Q14.26620842286377,7.536288063427734,14.23380852286377,7.5969037634277345Q14.201408822863769,7.657519863427734,14.16322322286377,7.714667763427734Q14.125038122863769,7.771816263427734,14.08143542286377,7.824946363427735Q14.03783252286377,7.878076563427735,13.989231822863768,7.9266772634277345Q13.94063142286377,7.975277863427735,13.887501222863769,8.018880863427734Q13.83437082286377,8.062483763427734,13.777222422863769,8.100668663427735Q13.720074222863769,8.138854063427734,13.65945842286377,8.171253963427734Q13.598842622863769,8.203653763427734,13.535342722863769,8.229956163427735Q13.47184312286377,8.256258463427734,13.406071222863769,8.276210263427735Q13.340299122863769,8.296162163427734,13.27288802286377,8.309571063427734Q13.20547722286377,8.322979963427734,13.13707672286377,8.329716663427735Q13.06867602286377,8.336453663427735,12.99994442286377,8.336453663427735Q12.93121292286377,8.336453663427735,12.862812122863769,8.329716663427735Q12.794411422863769,8.322979963427734,12.727000522863769,8.309571063427734Q12.65958962286377,8.296162163427734,12.59381759286377,8.276210263427735Q12.528045652863769,8.256258463427734,12.46454584286377,8.229956163427735Q12.401046152863769,8.203653763427734,12.340430322863769,8.171254163427735Q12.27981448286377,8.138854063427734,12.222666202863769,8.100668663427735Q12.16551798286377,8.062483763427734,12.11238771286377,8.018880863427734Q12.059257502863769,7.975277863427735,12.01065689286377,7.9266772634277345Q11.96205634286377,7.878076563427735,11.91845345286377,7.824946363427735Q11.874850632863769,7.771816263427734,11.83666536286377,7.714667763427734Q11.79848015286377,7.657519863427734,11.76608029286377,7.5969040634277345Q11.73368044286377,7.536288263427735,11.70737800286377,7.472788363427735Q11.68107556586377,7.409288663427734,11.66112383486377,7.343516563427734Q11.64117210686377,7.277744563427735,11.62776323786377,7.210333563427734Q11.614354370863769,7.1429226634277345,11.607617496963769,7.074522063427734Q11.60088062286377,7.006121563427734,11.60088062286377,6.9373899634277345Q11.60088062286377,6.868658463427734,11.607617496963769,6.800257763427735Q11.614354370863769,6.731857063427734,11.62776323786377,6.664446163427734Q11.64117210686377,6.597035163427734,11.66112383486377,6.531263173427734Q11.68107556586377,6.4654911734277345,11.70737800286377,6.401991363427735Q11.73368044286377,6.338491733427734,11.76608029286377,6.277875903427734Q11.79848015286377,6.217260003427734,11.83666536286377,6.160111783427734Q11.874850632863769,6.102963563427735,11.91845348286377,6.049833293427734Q11.96205634286377,5.996703083427734,12.01065689286377,5.948102503427735Q12.059257502863769,5.899501953427734,12.11238771286377,5.855899063427734Q12.165517922863769,5.812296213427734,12.222666142863769,5.774110973427734Q12.279814422863769,5.735925763427734,12.34043026286377,5.703525933427734Q12.401046152863769,5.671126063427734,12.46454584286377,5.644823623427734Q12.528045652863769,5.618521191427734,12.59381759286377,5.598569467427734Q12.65958962286377,5.578617744427734,12.727000522863769,5.565208874427734Q12.794411422863769,5.551800009427734,12.862812122863769,5.545063136627735Q12.93121292286377,5.538326263427734,12.99994442286377,5.538326263427734Q13.06867602286377,5.538326263427734,13.13707672286377,5.545063136627735Q13.20547722286377,5.551800009427734,13.27288822286377,5.565208874427734Q13.340299122863769,5.578617744427734,13.40607102286377,5.598569467427734Q13.47184312286377,5.618521191427734,13.535342722863769,5.644823623427734Q13.598842622863769,5.671126063427734,13.65945842286377,5.703525913427734Q13.720074222863769,5.735925763427734,13.777222422863769,5.774110983427734Q13.83437062286377,5.812296243427735,13.88750072286377,5.855899093427734Q13.94063092286377,5.899501953427734,13.98923162286377,5.948102503427735Q14.03783222286377,5.996703083427734,14.08143542286377,6.049833353427735Q14.125038122863769,6.102963563427735,14.16322322286377,6.160111783427734Q14.201408822863769,6.217260003427734,14.23380852286377,6.277875903427734Q14.26620812286377,6.338491733427734,14.29251052286377,6.401991363427735Q14.31881312286377,6.4654911734277345,14.33876492286377,6.531263233427734Q14.35871652286377,6.597035163427734,14.37212542286377,6.664446163427734Q14.38553452286377,6.731857063427734,14.39227152286377,6.800257663427734Q14.39900832286377,6.868658463427734,14.39900832286377,6.9373899634277345Z" fill="#FFFFFF" fill-opacity="1" style="mix-blend-mode:passthrough"/></g><g><path d="M12.999957028283692,20.46156291027832C12.48508503828369,20.46156291027832,12.067231178283691,20.04466251027832,12.067231178283691,19.52883721027832L12.067231178283691,11.13455570027832C12.067231178283691,10.61968371027832,12.48508503828369,10.20182991027832,12.999957028283692,10.20182991027832C13.514828778283691,10.20182991027832,13.932682878283691,10.61968371027832,13.932682878283691,11.13455570027832L13.932682878283691,19.52883721027832C13.932682878283691,20.04466251027832,13.514828778283691,20.46156291027832,12.999957028283692,20.46156291027832Z" fill="#FFFFFF" fill-opacity="1" style="mix-blend-mode:passthrough"/></g></g></svg>