<?xml version="1.0" encoding="UTF-8"?>
<svg width="26px" height="26px" viewBox="0 0 26 26" version="1.1" xmlns="http://www.w3.org/2000/svg" xmlns:xlink="http://www.w3.org/1999/xlink">
    <title>保险</title>
    <g id="页面-1" stroke="none" stroke-width="1" fill="none" fill-rule="evenodd">
        <g id="订单详情（修改过的订单）" transform="translate(-135.000000, -1773.000000)">
            <g id="编组-7备份" transform="translate(22.000000, 1742.000000)">
                <g id="保险" transform="translate(113.000000, 31.000000)">
                    <rect id="矩形备份-12" x="0" y="0" width="26" height="26"></rect>
                    <path d="M12.8892024,25.8787239 C10.655676,25.8787239 7.91824428,23.3047209 6.48143309,21.7657668 C4.79266922,19.9544313 2.89280986,17.4212855 2.72257157,16.134284 C2.71576204,16.0866173 2.70214298,16.018522 2.68171438,15.9436171 C2.64766672,15.7869979 2.6,15.5827119 2.6,15.3511879 L2.6,4.89855666 C2.6,4.68065164 2.68852391,4.46955616 2.84514314,4.31293693 C3.00176237,4.1563177 3.21285786,4.07460332 3.4375724,4.08141285 C3.52609632,4.08141285 8.98053123,4.14269864 12.358059,0.758361365 C12.6712974,0.445122905 13.1820123,0.438313373 13.5088698,0.751551833 C17.0430168,4.19036536 22.4293564,4.08141285 22.4838327,4.08141285 C22.7017377,4.07460332 22.9196427,4.1563177 23.0762619,4.31293693 C23.2328812,4.46955616 23.3214051,4.68065164 23.3214051,4.89855666 L23.3214051,15.8414742 C23.2260716,17.1148566 21.271736,19.7365263 19.5012578,21.6295761 C18.0167798,23.216197 15.1772051,25.8787239 12.8892024,25.8787239 Z" id="路径" fill="#FF9E4A" fill-rule="nonzero"></path>
                    <path d="M15.9534917,13.8394718 L9.85896083,13.8394718 C9.40953173,13.8394718 9.04181702,13.4717571 9.04181702,13.022328 C9.04181702,12.5728989 9.40953173,12.2051842 9.85896083,12.2051842 L15.9534917,12.2051842 C16.4029208,12.2051842 16.7706355,12.5728989 16.7706355,13.022328 C16.7706355,13.4717571 16.4029208,13.8394718 15.9534917,13.8394718 Z M15.9194441,16.6654275 L9.82491317,16.6654275 C9.37548407,16.6654275 9.00776936,16.2977128 9.00776936,15.8482837 C9.00776936,15.3988546 9.37548407,15.0311399 9.82491317,15.0311399 L15.9194441,15.0311399 C16.3688732,15.0311399 16.7365879,15.3988546 16.7365879,15.8482837 C16.7365879,16.2977128 16.3688732,16.6654275 15.9194441,16.6654275 Z" id="形状" fill="#FFFFFF" fill-rule="nonzero"></path>
                    <path d="M12.8619643,13.5398524 C12.6236307,13.5398524 12.3989162,13.4377095 12.2422969,13.2538521 L9.07586468,9.56989543 C8.78305481,9.22941884 8.81710247,8.71189443 9.16438859,8.41908456 C9.50486518,8.1262747 10.0223896,8.16032236 10.3151995,8.50760848 L12.8415357,11.4493262 L15.2384909,8.50079895 C15.5244912,8.15351283 16.0352061,8.09903657 16.3893018,8.38503691 C16.7365879,8.67103724 16.7910641,9.18175212 16.5050638,9.53584777 L13.4884412,13.240233 C13.3386315,13.4308999 13.1071075,13.5398524 12.8687739,13.5398524 L12.8619643,13.5398524 Z" id="路径" fill="#FFFFFF" fill-rule="nonzero"></path>
                    <path d="M12.8619643,18.81043 C12.4125352,18.81043 12.0448205,18.4427153 12.0448205,17.9932862 L12.0448205,12.5048036 C12.0448205,12.0553745 12.4125352,11.6876598 12.8619643,11.6876598 C13.3113934,11.6876598 13.6791081,12.0553745 13.6791081,12.5048036 L13.6791081,17.9932862 C13.6791081,18.4495248 13.3113934,18.81043 12.8619643,18.81043 Z" id="路径" fill="#FFFFFF" fill-rule="nonzero"></path>
                </g>
            </g>
        </g>
    </g>
</svg>