<?xml version="1.0" encoding="UTF-8"?>
<svg width="22px" height="22px" viewBox="0 0 22 22" version="1.1" xmlns="http://www.w3.org/2000/svg" xmlns:xlink="http://www.w3.org/1999/xlink">
    <title>保险</title>
    <g id="页面-1" stroke="none" stroke-width="1" fill="none" fill-rule="evenodd">
        <g id="理赔申请" transform="translate(-521.000000, -961.000000)">
            <g id="保险" transform="translate(521.000000, 961.000000)">
                <rect id="矩形备份-12" x="0" y="0" width="22" height="22"></rect>
                <path d="M10.9062482,21.8973818 C9.01634127,21.8973818 6.70005286,19.7193793 5.48428954,18.4171873 C4.05533549,16.8845188 2.44776219,14.7410877 2.30371441,13.6520865 C2.29795249,13.6117531 2.28642867,13.554134 2.26914294,13.490753 C2.24033338,13.358229 2.2,13.1853716 2.2,12.9894667 L2.2,4.14493256 C2.2,3.96055139 2.27490485,3.78193213 2.40742881,3.64940817 C2.53995278,3.51688421 2.71857203,3.44774127 2.90871511,3.45350318 C2.98361996,3.45350318 7.59891104,3.50536038 10.4568191,0.641690386 C10.7218671,0.376642458 11.1540104,0.370880547 11.4305822,0.635928474 C14.4210142,3.54569376 18.9786862,3.45350318 19.0247815,3.45350318 C19.2091626,3.44774127 19.3935438,3.51688421 19.5260678,3.64940817 C19.6585917,3.78193213 19.7334966,3.96055139 19.7334966,4.14493256 L19.7334966,13.4043243 C19.6528298,14.4818017 17.9991612,16.7001376 16.5010643,18.301949 C15.2449676,19.6444744 12.8422505,21.8973818 10.9062482,21.8973818 Z" id="路径" fill="#508EF9" fill-rule="nonzero"></path>
                <path d="M13.4991084,11.7103223 L8.34219762,11.7103223 C7.96191147,11.7103223 7.65076825,11.3991791 7.65076825,11.0188929 C7.65076825,10.6386068 7.96191147,10.3274636 8.34219762,10.3274636 L13.4991084,10.3274636 C13.8793945,10.3274636 14.1905378,10.6386068 14.1905378,11.0188929 C14.1905378,11.3991791 13.8793945,11.7103223 13.4991084,11.7103223 Z M13.4702988,14.1015156 L8.31338807,14.1015156 C7.93310191,14.1015156 7.62195869,13.7903724 7.62195869,13.4100862 C7.62195869,13.0298 7.93310191,12.7186568 8.31338807,12.7186568 L13.4702988,12.7186568 C13.850585,12.7186568 14.1617282,13.0298 14.1617282,13.4100862 C14.1617282,13.7903724 13.850585,14.1015156 13.4702988,14.1015156 Z" id="形状" fill="#FFFFFF" fill-rule="nonzero"></path>
                <path d="M10.8832006,11.4567982 C10.6815337,11.4567982 10.4913906,11.3703695 10.3588666,11.2147979 L7.6795778,8.09760382 C7.43181561,7.80950825 7.46062517,7.37160298 7.75448265,7.12384079 C8.04257823,6.87607859 8.4804835,6.90488815 8.72824569,7.19874563 L10.8659148,9.68789139 L12.8941077,7.19298372 C13.136108,6.89912624 13.5682513,6.85303095 13.8678707,7.09503123 C14.1617282,7.33703151 14.2078235,7.76917487 13.9658232,8.06879427 L11.4132964,11.2032741 C11.2865344,11.3646076 11.0906294,11.4567982 10.8889625,11.4567982 L10.8832006,11.4567982 Z" id="路径" fill="#FFFFFF" fill-rule="nonzero"></path>
                <path d="M10.8832006,15.9165177 C10.5029144,15.9165177 10.1917712,15.6053745 10.1917712,15.2250883 L10.1917712,10.5809877 C10.1917712,10.2007015 10.5029144,9.88955829 10.8832006,9.88955829 C11.2634867,9.88955829 11.57463,10.2007015 11.57463,10.5809877 L11.57463,15.2250883 C11.57463,15.6111364 11.2634867,15.9165177 10.8832006,15.9165177 Z" id="路径" fill="#FFFFFF" fill-rule="nonzero"></path>
            </g>
        </g>
    </g>
</svg>