<?xml version="1.0" encoding="UTF-8"?>
<svg width="46px" height="46px" viewBox="0 0 46 46" version="1.1" xmlns="http://www.w3.org/2000/svg" xmlns:xlink="http://www.w3.org/1999/xlink">
    <title>课程培训</title>
    <g id="页面-1" stroke="none" stroke-width="1" fill="none" fill-rule="evenodd">
        <g id="工作台数据" transform="translate(-67.000000, -1086.000000)">
            <g id="课程培训" transform="translate(67.000000, 1086.000000)">
                <circle id="椭圆形" fill="#FF9E4A" cx="23" cy="23" r="23"></circle>
                <g id="培训" transform="translate(11.000000, 11.000000)" fill="#FFFFFF" fill-rule="nonzero">
                    <path d="M24,2.4 L13.2,2.4 L13.2,0 L10.8,0 L10.8,2.4 L0,2.4 L0,19.044 L6.996,19.044 L4.8,22.8 L6.876,24 L9.756,19.044 L14.232,19.044 L17.124,24 L19.2,22.8 L17.004,19.032 L24,19.032 L24,2.4 Z M19.2,14.28 L4.8,14.28 L4.8,11.88 L19.2,11.88 L19.2,14.28 Z M19.2,9.48 L4.8,9.48 L4.8,7.2 L19.2,7.2 L19.2,9.48 Z" id="形状"></path>
                </g>
            </g>
        </g>
    </g>
</svg>