<?xml version="1.0" encoding="UTF-8"?>
<svg width="70px" height="70px" viewBox="0 0 70 70" version="1.1" xmlns="http://www.w3.org/2000/svg" xmlns:xlink="http://www.w3.org/1999/xlink">
    <title>通知</title>
    <defs>
        <rect id="path-1" x="0" y="0" width="70" height="70" rx="10"></rect>
    </defs>
    <g id="页面-1" stroke="none" stroke-width="1" fill="none" fill-rule="evenodd">
        <g id="消息" transform="translate(-30.000000, -214.000000)">
            <g id="通知" transform="translate(30.000000, 214.000000)">
                <mask id="mask-2" fill="white">
                    <use xlink:href="#path-1"></use>
                </mask>
                <use id="矩形" fill="#FC9326" xlink:href="#path-1"></use>
                <g id="编组" mask="url(#mask-2)" fill="#FFFFFF" fill-rule="nonzero">
                    <path d="M40.6916497,49.6531023 C40.8589934,49.6531023 40.8108684,49.8588366 40.5439934,50.2689929 C40.2771184,50.6791491 39.8702434,51.1307585 39.3233684,51.622946 C38.7753997,52.1162273 38.1300872,52.567946 37.3863372,52.9781023 C36.6425872,53.3882585 35.8496184,53.5938835 35.0085247,53.5938835 C34.2505559,53.5938835 33.5210247,53.3882585 32.8188372,52.9781023 C32.1177434,52.567946 31.4997747,52.1162273 30.9671184,51.622946 C30.4333684,51.1307585 30.0264934,50.6791491 29.7464934,50.2689929 C29.4654106,49.8588366 29.3811919,49.6531023 29.4927434,49.6531023 C29.4927434,49.6531023 40.6916497,49.6531023 40.6916497,49.6531023 C40.6916497,49.6531023 40.6916497,49.6531023 40.6916497,49.6531023 Z M51.1314934,46.1640398 C51.3272747,46.4101335 51.4191497,46.6496648 51.4049309,46.8826335 C51.3907122,47.1156023 51.3272747,47.3136804 51.2157122,47.4777429 C51.1030559,47.641696 50.9630559,47.7718523 50.7946184,47.8681023 C50.6261809,47.9633679 50.4577434,48.0113835 50.2893059,48.0113835 C50.2893059,48.0113835 19.5582242,48.0113835 19.5582242,48.0113835 C19.1655745,48.0113835 18.8779183,47.8539929 18.6952535,47.5388835 C18.5126058,47.2249773 18.5760418,46.8346179 18.8844764,46.3696648 C19.3624419,45.5482585 19.9235356,44.631696 20.5688481,43.6199773 C21.2141497,42.6072741 21.8244841,41.5189929 22.3997747,40.3562273 C22.9750872,39.193571 23.4738481,37.9620085 23.8938481,36.6626335 C24.3149419,35.3622741 24.5260247,34.0015398 24.5260247,32.578571 C24.5260247,31.2102898 24.7229106,29.9788366 25.1155559,28.8839929 C25.5082231,27.7890398 26.0201091,26.8319866 26.6511919,26.0106132 C27.2833794,25.1903007 28.0129106,24.4925538 28.8408794,23.9172413 C29.6688372,23.3429898 30.5318059,22.9054679 31.4297747,22.6035929 C30.9802434,21.8926226 30.7560247,21.153357 30.7560247,20.3876445 C30.7560247,19.265457 31.1486809,18.3215179 31.9350872,17.5548757 C32.7203997,16.7891698 33.6894622,16.4063835 34.8400872,16.4063835 C35.9907122,16.4063835 36.9586809,16.7891698 37.7439934,17.5548757 C38.5303997,18.3215179 38.9230559,19.265457 38.9230559,20.3876445 C38.9230559,20.7704351 38.8672747,21.1466741 38.7546184,21.5163835 C38.6419622,21.886082 38.4877434,22.2208023 38.2919622,22.5216054 C39.2457122,22.8224195 40.1513372,23.2610132 41.0066497,23.8351226 C41.8630559,24.4104351 42.6068059,25.1214054 43.2378997,25.9701554 C43.8689934,26.8178335 44.3743059,27.7890398 44.7538372,28.8839929 C45.1322747,29.9788366 45.3214934,31.196071 45.3214934,32.5370085 C45.3214934,33.9052898 45.5325872,35.2528991 45.9536809,36.5807116 C46.3747747,37.9074304 46.8789934,39.1663366 47.4685247,40.3562273 C48.0580559,41.5462273 48.6825872,42.6345085 49.3421184,43.6199773 C50.0016497,44.6043523 50.5977434,45.4531023 51.1314934,46.1640398 C51.1314934,46.1640398 51.1314934,46.1640398 51.1314934,46.1640398 C51.1314934,46.1640398 51.1314934,46.1640398 51.1314934,46.1640398 Z M33.1972747,20.3876445 C33.1972747,20.8251773 33.3525872,21.2014163 33.6610247,21.5163835 C33.9694622,21.831471 34.3478997,21.9878226 34.7974309,21.9878226 C34.7974309,21.9878226 34.8816497,21.9878226 34.8816497,21.9878226 C35.3311809,21.960446 35.7096184,21.7963616 36.0180559,21.4956898 C36.3275872,21.1948757 36.4818059,20.8251773 36.4818059,20.3876445 C36.4818059,19.9228882 36.3275872,19.5388945 36.0180559,19.2380913 C35.7096184,18.9374195 35.3169622,18.7864163 34.8400872,18.7864163 C34.3621184,18.7864163 33.9694622,18.9374195 33.6610247,19.2380913 C33.3525872,19.5388945 33.1972747,19.9228882 33.1972747,20.3876445 C33.1972747,20.3876445 33.1972747,20.3876445 33.1972747,20.3876445 C33.1972747,20.3876445 33.1972747,20.3876445 33.1972747,20.3876445 Z" id="形状"></path>
                </g>
            </g>
        </g>
    </g>
</svg>