<?xml version="1.0" encoding="UTF-8"?>
<svg width="31px" height="23px" viewBox="0 0 31 23" version="1.1" xmlns="http://www.w3.org/2000/svg" xmlns:xlink="http://www.w3.org/1999/xlink">
    <title>眼睛</title>
    <g id="页面-1" stroke="none" stroke-width="1" fill="none" fill-rule="evenodd">
        <g id="我的" transform="translate(-179.000000, -430.000000)" fill="#000000" fill-rule="nonzero">
            <g id="眼睛" transform="translate(179.601562, 430.000000)">
                <path d="M14.9817552,22.4550898 C9.49260853,22.4550898 4.59552771,18.991018 0.301366006,12.2238024 C-0.0850161717,11.6158252 -0.0850161717,10.8392646 0.301366006,10.2312874 C4.59552771,3.46407187 9.49260853,0 14.9817552,0 C20.4709019,0 25.3679828,3.46407187 29.6621445,10.2312874 C30.0485267,10.8392646 30.0485267,11.6158252 29.6621445,12.2238024 C25.3679828,18.991018 20.4709019,22.4550898 14.9817552,22.4550898 Z M14.9817552,2.24550898 C10.4375936,2.24550898 6.22913549,5.18750001 2.34665046,11.2275449 C6.22913549,17.2675898 10.4375936,20.2095808 14.9817552,20.2095808 C19.5259169,20.2095808 23.734375,17.2675898 27.61686,11.2275449 C23.734375,5.18750001 19.5259169,2.24550898 14.9817552,2.24550898 Z M14.9817552,16.4670659 C12.0622193,16.4670659 9.69545283,14.1212575 9.69545283,11.2275449 C9.69545283,8.33383236 12.0622193,5.98802396 14.9817552,5.98802396 C17.9012912,5.98802396 20.2680576,8.33383236 20.2680576,11.2275449 C20.2680576,14.1212575 17.9012912,16.4670659 14.9817552,16.4670659 Z M14.9817552,14.2215569 C16.6501684,14.2215569 18.0027133,12.880988 18.0027133,11.2275449 C18.0027133,9.57410181 16.6501684,8.23353295 14.9817552,8.23353295 C13.3133421,8.23353295 11.9607972,9.57410181 11.9607972,11.2275449 C11.9607972,12.880988 13.3133421,14.2215569 14.9817552,14.2215569 Z" id="形状"></path>
            </g>
        </g>
    </g>
</svg>