<?xml version="1.0" encoding="UTF-8"?>
<svg width="40px" height="40px" viewBox="0 0 40 40" version="1.1" xmlns="http://www.w3.org/2000/svg" xmlns:xlink="http://www.w3.org/1999/xlink">
    <title>编组 2</title>
    <g id="页面-1" stroke="none" stroke-width="1" fill="none" fill-rule="evenodd">
        <g id="预览发布" transform="translate(-657.000000, -1216.000000)">
            <g id="编组-10" transform="translate(22.000000, 995.000000)">
                <g id="编组-2" transform="translate(635.000000, 221.000000)">
                    <circle id="椭圆形" fill="#EFF1F4" cx="20" cy="20" r="20"></circle>
                    <path d="M30.7943596,28.5710412 L29.7613114,29.6007761 C29.339382,30.0217626 28.815038,30.3577573 28.1992926,30.6014176 C27.5224706,30.8708771 26.7620924,31 25.949564,31 C22.8296249,31.0014328 17.8995131,28.0924714 14.6324519,24.8347163 C10.5136616,20.7274444 8.04582722,15.0758845 9.35006178,11.8068894 C9.54065921,11.3282189 9.80525773,10.9028068 10.1201458,10.5290938 L10.1192909,10.527409 L10.1862263,10.4193587 C10.2160229,10.370526 10.2507981,10.3263705 10.290024,10.2872189 L11.3740406,9.20716779 C11.6487724,8.93094407 12.0951928,8.93094407 12.3698493,9.20716779 L12.8579346,9.69355791 L17.1098917,13.9344029 C17.3845732,14.2073325 17.3845732,14.6519308 17.1090367,14.9264194 L15.9722161,16.0615895 L15.1991399,16.8326774 C15.1991399,16.8326774 14.7945855,19.4181666 17.674392,22.2895354 C20.5540978,25.1596217 23.1351843,24.7685081 23.1351843,24.7685081 L25.0568489,22.8517141 C25.3315305,22.5772255 25.7785544,22.5772255 26.0524314,22.8517141 L30.7935047,27.5774405 C31.0686891,27.8521806 31.0686891,28.2965023 30.7943596,28.5710412 L30.7943596,28.5710412 Z" id="路径" fill="#333333" fill-rule="nonzero"></path>
                </g>
            </g>
        </g>
    </g>
</svg>