<?xml version="1.0" encoding="UTF-8"?>
<svg width="46px" height="46px" viewBox="0 0 46 46" version="1.1" xmlns="http://www.w3.org/2000/svg" xmlns:xlink="http://www.w3.org/1999/xlink">
    <title>服务者行为准则</title>
    <g id="页面-1" stroke="none" stroke-width="1" fill="none" fill-rule="evenodd">
        <g id="工作台数据" transform="translate(-67.000000, -1192.000000)">
            <g id="服务者行为准则" transform="translate(67.000000, 1192.000000)">
                <circle id="椭圆形备份-2" fill="#63ADEB" cx="23" cy="23" r="23"></circle>
                <g id="Gc_75_face-InstitutionalNorms" transform="translate(11.000000, 12.000000)" fill="#FFFFFF" fill-rule="nonzero">
                    <path d="M21.27066,0 L16.6297887,0 C15.6242666,0 14.2165357,0.386739271 13.3502397,1.25303524 L11.9889175,2.61435747 L10.6275952,1.25303524 C9.76129923,0.386739271 8.36903785,0 7.34804618,0 L2.7071749,0 C1.2220961,0 0,1.2220961 0,2.7071749 L0,16.6297887 C0,18.1148675 1.2220961,19.3369636 2.7071749,19.3369636 L7.61102888,19.3369636 C8.12152472,19.3369636 8.61655099,19.5380681 8.97235112,19.9093378 L10.6121256,21.5491123 C10.9710151,21.9141933 11.4615047,22.1198223 11.9734479,22.1198223 C12.4853911,22.1198223 12.9758806,21.9141933 13.3347701,21.5491123 L14.9745446,19.9093378 C15.3458143,19.5380681 15.825371,19.3369636 16.3358669,19.3369636 L21.2397208,19.3369636 C22.7247996,19.3369636 23.9468957,18.1148675 23.9468957,16.6297887 L23.9468957,2.7071749 C23.9468957,1.2220961 22.7247996,0 21.2397208,0 L21.27066,0 Z M8.12152472,13.1491353 L5.02761055,13.1491353 C4.39335814,13.1491353 3.86739273,12.6231699 3.86739273,11.9889175 C3.86739273,11.354665 4.39335814,10.8286996 5.02761055,10.8286996 L8.12152472,10.8286996 C8.75577712,10.8286996 9.28174253,11.354665 9.28174253,11.9889175 C9.28174253,12.6231699 8.75577712,13.1491353 8.12152472,13.1491353 L8.12152472,13.1491353 Z M8.12152472,8.50826399 L5.02761055,8.50826399 C4.39335814,8.50826399 3.86739273,7.98229858 3.86739273,7.34804618 C3.86739273,6.71379377 4.39335814,6.18782836 5.02761055,6.18782836 L8.12152472,6.18782836 C8.75577712,6.18782836 9.28174253,6.71379377 9.28174253,7.34804618 C9.28174253,7.98229858 8.75577712,8.50826399 8.12152472,8.50826399 Z M18.9502243,13.1491353 L15.8563102,13.1491353 C15.2220578,13.1491353 14.6960924,12.6231699 14.6960924,11.9889175 C14.6960924,11.354665 15.2220578,10.8286996 15.8563102,10.8286996 L18.9502243,10.8286996 C19.5844767,10.8286996 20.1104422,11.354665 20.1104422,11.9889175 C20.1104422,12.6231699 19.5844768,13.1491353 18.9502243,13.1491353 L18.9502243,13.1491353 Z M18.9502243,8.50826399 L15.8563102,8.50826399 C15.2220578,8.50826399 14.6960924,7.98229858 14.6960924,7.34804618 C14.6960924,6.71379377 15.2220578,6.18782836 15.8563102,6.18782836 L18.9502243,6.18782836 C19.5844767,6.18782836 20.1104422,6.71379377 20.1104422,7.34804618 C20.1104422,7.98229858 19.5844768,8.50826399 18.9502243,8.50826399 L18.9502243,8.50826399 Z" id="形状"></path>
                </g>
            </g>
        </g>
    </g>
</svg>