<?xml version="1.0" encoding="UTF-8"?>
<svg width="46px" height="46px" viewBox="0 0 46 46" version="1.1" xmlns="http://www.w3.org/2000/svg" xmlns:xlink="http://www.w3.org/1999/xlink">
    <title>提升服务分</title>
    <g id="页面-1" stroke="none" stroke-width="1" fill="none" fill-rule="evenodd">
        <g id="工作台数据" transform="translate(-67.000000, -1298.000000)">
            <g id="提升服务分" transform="translate(67.000000, 1298.000000)">
                <circle id="椭圆形备份-3" fill="#2E9FBB" cx="23" cy="23" r="23"></circle>
                <path d="M16.3580208,26.0536198 L16.3580208,33.3196615 L12.1913542,33.3196615 L12.1913542,29.4254167 L16.3580208,26.0536198 L16.3580208,26.0536198 Z M19.9777083,23.8533073 L21.2785156,25.4585417 C21.3152355,25.5339678 21.3598513,25.6052868 21.4116146,25.6713021 L21.425,25.6880469 L21.7105729,26.0404688 C21.8614896,26.2268297 22.0654894,26.3629143 22.2955208,26.4306771 L22.2955208,33.3196615 L18.1288542,33.3196615 L18.1288542,25.3494792 L19.9777083,23.8533073 L19.9777083,23.8533073 Z M28.2069792,22.2052083 L28.2069792,33.3196615 L24.0403125,33.3196615 L24.0403125,25.5770833 L28.2069792,22.2052083 Z M34.1444792,18.2294271 L34.1444792,33.3196615 L29.9778125,33.3196615 L29.9778125,21.6013021 L34.1444792,18.2294271 Z M34.1760677,13.0029167 C34.3380442,13.0168329 34.4911464,13.0828762 34.6124219,13.1911458 C34.7724219,13.3296094 34.8736198,13.5341667 34.8736198,13.7623698 C34.8736198,13.8245313 34.8661198,13.8849479 34.8519531,13.9427604 L34.592474,16.9082292 C34.5561458,17.32375 34.1898437,17.6310938 33.7743229,17.5947656 C33.3588281,17.5584115 33.0514583,17.1921094 33.0878125,16.7765885 L33.1509375,16.0551042 L22.9569531,24.3066667 C22.903061,24.3829243 22.8389058,24.4513822 22.7663021,24.5101042 L22.7659115,24.5104167 C22.4304427,24.7819531 21.974401,24.8046354 21.62125,24.6019271 C21.4982843,24.5377686 21.3898441,24.4489811 21.3026823,24.3410938 C21.2653249,24.2950328 21.2320564,24.2458011 21.2032552,24.1939583 L19.7717448,22.4270573 L12.6532552,28.1891406 C12.2177344,28.5416927 11.5789062,28.4745573 11.2261719,28.0392188 C10.8736458,27.6041406 10.9405729,26.9656771 11.375651,26.613151 L11.3760156,26.6128385 L19.2311719,20.2545052 C19.3755808,20.1372275 19.5495709,20.0621055 19.7339583,20.0374219 C20.0955469,19.9604948 20.4863542,20.0845052 20.735026,20.3914323 L22.2540885,22.2663542 L31.8269531,14.5175781 L31.2538542,14.5175781 C30.8367448,14.5175781 30.4986458,14.1794792 30.4986458,13.7623698 C30.4986458,13.3452865 30.8367448,13.0071615 31.2538542,13.0071615 L34.005599,13.0071615 C34.0620811,12.9993358 34.1192661,12.9979119 34.1760677,13.0029167 L34.1760677,13.0029167 Z" id="形状" fill="#FFFFFF" fill-rule="nonzero"></path>
            </g>
        </g>
    </g>
</svg>