<?xml version="1.0" encoding="UTF-8"?>
<svg width="36px" height="35px" viewBox="0 0 36 35" version="1.1" xmlns="http://www.w3.org/2000/svg" xmlns:xlink="http://www.w3.org/1999/xlink">
    <title>异常上报</title>
    <g id="页面-1" stroke="none" stroke-width="1" fill="none" fill-rule="evenodd">
        <g id="服务端-首页备份" transform="translate(-359.000000, -330.000000)" fill="#FFFFFF" fill-rule="nonzero">
            <g id="异常上报" transform="translate(359.000000, 330.000000)">
                <path d="M13.6059659,26.0196023 L7.00596591,26.0196023 C6.15142045,26.0196023 5.35142045,25.2196023 5.35142045,24.3650568 C5.35142045,23.5105114 6.15142045,23.1286932 7.00596591,23.1286932 L13.6059659,23.1286932 C13.8241477,21.6196023 14.1514205,20.2923295 14.8423295,19.0014205 L7.00596591,19.0014205 C6.15142045,19.0014205 5.56960227,18.2559659 5.56960227,17.4014205 C5.56960227,16.546875 6.16960227,15.6923295 7.00596591,15.6923295 L17.3150568,15.6923295 C19.6059659,13.4559659 22.7877841,12.2196023 26.2423295,12.2196023 C27.9150568,12.2196023 29.4605114,12.6196023 30.9332386,13.2196023 L30.9332386,3.346875 L30.9696023,2.58323864 C30.9696023,2.58323864 30.9332386,2.546875 30.9332386,2.51051136 L30.9332386,2.346875 C30.9332386,2.29232955 30.9150568,2.23778409 30.9150568,2.18323864 C30.9150568,2.146875 30.9150568,2.12869318 30.896875,2.11051136 C30.896875,2.07414773 30.8786932,2.03778409 30.8605114,2.00142045 C30.8423295,1.96505682 30.8423295,1.92869318 30.8241477,1.87414773 C30.7514205,1.60142045 30.6241477,1.36505682 30.4786932,1.146875 C30.7514205,1.65596591 30.7514205,1.63778409 30.7332386,1.63778409 L30.7332386,1.61960227 C30.696875,1.56505682 30.6786932,1.51051136 30.6423295,1.45596591 L30.6423295,1.43778409 C30.4605114,1.09232955 30.2241477,0.801420455 29.9332386,0.546875 C30.5332386,1.23778409 30.496875,1.16505682 30.4605114,1.11051136 C30.0059659,0.455965909 28.896875,0.00142045455 28.0423295,0.00142045455 L2.87869318,0.00142045455 C1.496875,0.0559659091 0.00596590909,1.546875 0.00596590909,2.92869318 L0.0241477273,32.2377841 L0.00596590909,32.2377841 L0.00596590909,32.4377841 C0.00596590909,32.4741477 0.00596590909,32.4923295 0.0241477273,32.5286932 C0.0423295455,32.6559659 0.0605113636,32.7832386 0.096875,32.9105114 C0.115056818,32.9832386 0.151420455,33.0559659 0.169602273,33.146875 L0.169602273,33.1650568 C0.205965909,33.2377841 0.242329545,33.2559659 0.260511364,33.3105114 C0.678693182,34.1286932 1.07869318,34.6923295 2.04232955,34.6923295 L18.1150568,34.6923295 C15.7332386,32.5650568 13.9150568,29.3832386 13.6059659,26.0196023 L13.6059659,26.0196023 Z M7.00596591,8.71051136 L23.9150568,8.71051136 C24.7696023,8.71051136 25.3514205,9.27414773 25.3514205,10.1105114 C25.3514205,10.9650568 24.7696023,11.5832386 23.9150568,11.5832386 L7.00596591,11.5832386 C6.15142045,11.5832386 5.56960227,10.9105114 5.56960227,10.0741477 C5.56960227,9.21960227 6.16960227,8.71051136 7.00596591,8.71051136 Z M30.9696023,16.6014205 C29.5696023,15.8014205 27.9514205,15.346875 26.2241477,15.346875 C25.1332386,15.346875 24.096875,15.5286932 23.1332386,15.8559659 C21.3877841,16.4559659 19.8605114,17.546875 18.7150568,18.9650568 C17.7514205,20.1650568 17.0605114,21.6196023 16.7696023,23.2014205 C16.6605114,23.7832386 16.6059659,24.4014205 16.6059659,25.0196023 C16.6059659,25.4014205 16.6241477,25.8014205 16.6786932,26.1650568 C17.2059659,30.6559659 20.8423295,34.2196023 25.3514205,34.6377841 C25.6423295,34.6559659 25.9332386,34.6741477 26.2423295,34.6741477 C26.5332386,34.6741477 26.8423295,34.6559659 27.1332386,34.6377841 C28.296875,34.5286932 29.4059659,34.2196023 30.4059659,33.7286932 C33.6423295,32.1650568 35.8786932,28.8559659 35.8786932,25.0196023 C35.8605114,21.4196023 33.896875,18.2559659 30.9696023,16.6014205 L30.9696023,16.6014205 Z M29.3514205,31.5650568 C28.5696023,31.946875 27.7514205,32.1650568 26.896875,32.2377841 C26.6786932,32.2559659 26.4423295,32.2741477 26.2241477,32.2741477 C26.0059659,32.2741477 25.7877841,32.2559659 25.5514205,32.2377841 C22.1696023,31.9286932 19.4423295,29.2559659 19.0241477,25.8741477 C18.9877841,25.6014205 18.9696023,25.3105114 18.9696023,25.0196023 C18.9696023,24.5650568 19.0059659,24.1105114 19.096875,23.6559659 C19.3150568,22.4923295 19.8241477,21.4014205 20.5696023,20.4741477 C21.4423295,19.3832386 22.5877841,18.5832386 23.8786932,18.1286932 C24.6241477,17.8741477 25.4059659,17.746875 26.2059659,17.746875 C27.4605114,17.746875 28.6786932,18.0741477 29.7696023,18.6923295 C32.0423295,19.9832386 33.4605114,22.4014205 33.4605114,25.0196023 C33.4786932,27.7832386 31.8605114,30.3650568 29.3514205,31.5650568 L29.3514205,31.5650568 Z M26.2423295,28.1650568 C25.6605114,28.1650568 25.1877841,28.6377841 25.1877841,29.2196023 C25.1877841,29.8014205 25.6605114,30.2741477 26.2423295,30.2741477 C26.8241477,30.2741477 27.296875,29.8014205 27.296875,29.2196023 C27.296875,28.6377841 26.8241477,28.1650568 26.2423295,28.1650568 Z M26.2423295,19.8377841 C25.5696023,19.8377841 25.0241477,20.3832386 25.0241477,21.0559659 L25.096875,23.8559659 L25.1332386,25.4196023 L25.1514205,25.9650568 C25.1514205,26.6377841 25.5696023,27.1105114 26.2241477,27.1105114 C26.896875,27.1105114 27.296875,26.6377841 27.296875,25.9650568 L27.4423295,21.0377841 C27.4423295,20.7105114 27.296875,20.4014205 27.0786932,20.1832386 C26.8786932,19.9832386 26.5696023,19.8377841 26.2423295,19.8377841 L26.2423295,19.8377841 Z" id="形状"></path>
            </g>
        </g>
    </g>
</svg>