<svg xmlns="http://www.w3.org/2000/svg" xmlns:xlink="http://www.w3.org/1999/xlink" fill="none" version="1.1" width="414" height="295" viewBox="0 0 414 295"><defs><linearGradient x1="0.49997949600219727" y1="1" x2="0.49997949600219727" y2="-1.9539925233402755e-14" id="master_svg0_59_01781"><stop offset="0%" stop-color="#DAE0E8" stop-opacity="1"/><stop offset="77.99999713897705%" stop-color="#FFFFFF" stop-opacity="1"/></linearGradient><linearGradient x1="0.5" y1="0" x2="0.5" y2="1" id="master_svg1_59_01782"><stop offset="2.9999999329447746%" stop-color="#F0F2FC" stop-opacity="1"/><stop offset="74.00000095367432%" stop-color="#C9CFDB" stop-opacity="1"/></linearGradient><linearGradient x1="0.5" y1="0" x2="0.5" y2="1" id="master_svg2_59_01783"><stop offset="2.9999999329447746%" stop-color="#F0F2FC" stop-opacity="1"/><stop offset="74.00000095367432%" stop-color="#C9CFDB" stop-opacity="1"/></linearGradient><linearGradient x1="0.5" y1="1" x2="0.5" y2="1.2434497875801753e-14" id="master_svg3_59_01784"><stop offset="0%" stop-color="#DAE0E8" stop-opacity="1"/><stop offset="77.99999713897705%" stop-color="#FFFFFF" stop-opacity="1"/></linearGradient><linearGradient x1="0.5" y1="1" x2="0.5" y2="0.00008390669245272875" id="master_svg4_59_01785"><stop offset="25.999999046325684%" stop-color="#C9CFDB" stop-opacity="1"/><stop offset="97.00000286102295%" stop-color="#F0F2FC" stop-opacity="1"/></linearGradient><linearGradient x1="0.5" y1="1" x2="0.5" y2="0.0000882846288732253" id="master_svg5_59_01787"><stop offset="0%" stop-color="#C9CFDB" stop-opacity="1"/><stop offset="97.00000286102295%" stop-color="#F0F2FC" stop-opacity="1"/></linearGradient><linearGradient x1="0.5" y1="0.9999690055847168" x2="0.5" y2="4.163336342344337e-16" id="master_svg6_59_01790"><stop offset="0%" stop-color="#BCC3CE" stop-opacity="1"/><stop offset="100%" stop-color="#FFFFFF" stop-opacity="1"/></linearGradient><linearGradient x1="-8.43769498715119e-15" y1="0.5" x2="1" y2="0.5" id="master_svg7_59_01791"><stop offset="2.9999999329447746%" stop-color="#BCC3CE" stop-opacity="1"/><stop offset="74.00000095367432%" stop-color="#EDEFF4" stop-opacity="1"/></linearGradient><linearGradient x1="0.5000830888748169" y1="1" x2="0.5000830888748169" y2="4.773959005888173e-15" id="master_svg8_59_01792"><stop offset="25.999999046325684%" stop-color="#EDEFF4" stop-opacity="1"/><stop offset="97.00000286102295%" stop-color="#BCC3CE" stop-opacity="1"/></linearGradient><linearGradient x1="0.5002374053001404" y1="1.0001780986785889" x2="0.5002374053001404" y2="2.220446049250313e-15" id="master_svg9_59_01795"><stop offset="25.999999046325684%" stop-color="#EDEFF4" stop-opacity="1"/><stop offset="97.00000286102295%" stop-color="#BCC3CE" stop-opacity="1"/></linearGradient><linearGradient x1="0.5" y1="0" x2="0.5" y2="0.9898903369903564" id="master_svga_57_19135"><stop offset="0%" stop-color="#A5A7A7" stop-opacity="1"/><stop offset="24.680055677890778%" stop-color="#B8BABA" stop-opacity="0.6928967237472534"/><stop offset="42.88594722747803%" stop-color="#B2B3B3" stop-opacity="0.4279836416244507"/><stop offset="69.40755844116211%" stop-color="#ADAFAF" stop-opacity="0.3257971405982971"/><stop offset="100%" stop-color="#B2B3B3" stop-opacity="0"/></linearGradient><linearGradient x1="0.5" y1="0" x2="0.5" y2="0.9898903369903564" id="master_svgb_57_19135"><stop offset="0%" stop-color="#A5A7A7" stop-opacity="1"/><stop offset="24.680055677890778%" stop-color="#B8BABA" stop-opacity="0.6928967237472534"/><stop offset="42.88594722747803%" stop-color="#B2B3B3" stop-opacity="0.4279836416244507"/><stop offset="69.40755844116211%" stop-color="#ADAFAF" stop-opacity="0.3257971405982971"/><stop offset="100%" stop-color="#B2B3B3" stop-opacity="0"/></linearGradient></defs><g><g style="opacity:0.3499999940395355;"><g><g><path d="M136.7789531953125,285.84673697949216L61.8145751953125,294.8325879794922L106.10453019531249,232.5362395794922L155.7367091953125,224.2590789794922L136.7789531953125,285.84673697949216Z" fill="url(#master_svg0_59_01781)" fill-opacity="1" style="mix-blend-mode:passthrough"/></g><g><path d="M136.7789306640625,285.84673697949216L205.0645756640625,292.3097689794922L205.0645756640625,233.36049557949218L155.7366806640625,224.2590789794922L136.7789306640625,285.84673697949216Z" fill="url(#master_svg1_59_01782)" fill-opacity="1" style="mix-blend-mode:passthrough"/></g><g><path d="M273.3463118046875,285.84673697949216L348.3145448046875,294.8325879794922L304.0245708046875,232.5362395794922L254.3885498046875,224.2590789794922L273.3463118046875,285.84673697949216Z" fill="url(#master_svg2_59_01783)" fill-opacity="1" style="mix-blend-mode:passthrough"/></g><g><path d="M273.3463671953125,285.84673697949216L205.0645751953125,292.3097689794922L205.0645751953125,233.36049557949218L254.3886071953125,224.2590789794922L273.3463671953125,285.84673697949216Z" fill="url(#master_svg3_59_01784)" fill-opacity="1" style="mix-blend-mode:passthrough"/></g><g><path d="M320.9756885859375,221.0853307763672C320.9756885859375,233.7610547763672,315.1905245859375,240.49758177636718,308.0534575859375,240.49758177636718C300.9163894859375,240.49758177636718,295.1312255859375,233.7610737763672,295.1312255859375,221.0853407763672C295.1312255859375,208.40960977636718,300.9163894859375,194.5937957763672,308.0534575859375,194.5937957763672C315.1905245859375,194.5937957763672,320.9756885859375,208.40960977636718,320.9756885859375,221.0853307763672Z" fill="url(#master_svg4_59_01785)" fill-opacity="1" style="mix-blend-mode:passthrough"/></g><g><path d="M307.448618396875,215.80089390554687L304.209403513475,252.17189368554688C304.113112635875,253.24266068554687,304.956621706875,254.16318468554687,306.031219596875,254.16318468554687L310.075436596875,254.16318468554687C311.150034896875,254.16318468554687,311.993543596875,253.24263768554687,311.897252596875,252.17189368554688L308.658037696875,215.80090564554686C308.592566496875,215.05754285554687,307.510257996875,215.05754285554687,307.440931096875,215.80090564554686L307.448618396875,215.80089390554687Z" fill="#9298A5" fill-opacity="1" style="mix-blend-mode:passthrough"/></g><g><path d="M302.9501414140625,229.743812828125C302.9501414140625,241.791736828125,297.4499934140625,248.193153828125,290.6672704140625,248.193153828125C283.8845458140625,248.193153828125,278.3843994140625,241.791736828125,278.3843994140625,229.743812828125C278.3843994140625,217.695885828125,283.8845458140625,204.565673828125,290.6672704140625,204.565673828125C297.4499934140625,204.565673828125,302.9501414140625,217.695896828125,302.9501414140625,229.743812828125Z" fill="url(#master_svg5_59_01787)" fill-opacity="1" style="mix-blend-mode:passthrough"/></g><g><path d="M290.089332371875,224.72127825191407L287.011879294675,259.28970321191406C286.919443808875,260.30654521191406,287.724422451875,261.18470421191404,288.745115171875,261.18470421191404L292.589039771875,261.18470421191404C293.609732671875,261.18470421191404,294.414711471875,260.30651821191407,294.322276071875,259.28970321191406L291.244822971875,224.72127825191407C291.183207071875,224.01642236191407,290.150948071875,224.01642236191407,290.089332371875,224.72127825191407Z" fill="#9298A5" fill-opacity="1" style="mix-blend-mode:passthrough"/></g><g><path d="M103.16955200000001,176.0404529628906C101.99865700000001,176.0404529628906,100.862423,176.19451496289062,99.783962,176.47954396289063C98.690102,170.25530006289063,93.259296,165.52163696289062,86.719221,165.52163696289062C80.17914400000001,165.52163696289062,74.748335,170.25530006289063,73.654472,176.47954396289063C72.572162,176.19452696289062,71.43978,176.0404529628906,70.268885,176.0404529628906C62.9430733,176.0404529628906,57,181.97967896289063,57,189.30934096289062C57,196.63900196289063,62.9392219,202.57822796289062,70.268885,202.57822796289062L103.16955200000001,202.57822796289062C110.49536499999999,202.57822796289062,116.43844200000001,196.63900196289063,116.43844200000001,189.30934096289062C116.43844200000001,181.97967896289063,110.499218,176.0404529628906,103.16955200000001,176.0404529628906Z" fill="#DAE0E8" fill-opacity="1" style="mix-blend-mode:passthrough"/></g><g><path d="M346.6159053984375,108.75623699863282C345.6992113984375,108.75623699863282,344.8094863984375,108.87563709863281,343.9659763984375,109.09903139863282C343.1109233984375,104.22671559863281,338.8587033984375,100.52143859863281,333.7398893984375,100.52143859863281C328.6210743984375,100.52143859863281,324.3688553984375,104.22670979863281,323.5138023984375,109.09903139863282C322.6664383984375,108.87563709863281,321.7805663984375,108.75623699863282,320.8638753984375,108.75623699863282C315.1287850984375,108.75623699863282,310.4798583984375,113.40515759863281,310.4798583984375,119.1402495986328C310.4798583984375,124.87533959863282,315.1287850984375,129.52425159863282,320.8638753984375,129.52425159863282L346.6197583984375,129.52425159863282C352.3548503984375,129.52425159863282,357.0037723984375,124.87532759863281,357.0037723984375,119.1402495986328C357.0037723984375,113.40516959863281,352.3548503984375,108.75624279863281,346.6197583984375,108.75624279863281L346.6159053984375,108.75623699863282Z" fill="#DAE0E8" fill-opacity="1" style="mix-blend-mode:passthrough"/></g><g><path d="M201.2744373203125,253.17715C202.1256413203125,254.44434,203.4891203203125,255.17229,205.0143663203125,255.17229C206.5396113203125,255.17229,207.9030993203125,254.44434,208.7543033203125,253.17715L267.1065933203125,166.1456L267.1489533203125,166.08781C279.5512233203125,148.78243,286.1066933203125,128.38031999999998,286.1066933203125,107.088478C286.1028633203125,62.374844,249.7280233203125,26,205.0143813203125,26C160.3007473203125,26,123.9259033203125,62.374844,123.9259033203125,107.088478C123.9259033203125,128.38031999999998,130.4813885203125,148.78243,142.8836533203125,166.08781L142.9645403203125,166.20337L201.2744373203125,253.17715Z" fill="#9298A5" fill-opacity="1" style="mix-blend-mode:passthrough"/></g><g><ellipse cx="205.0143699645996" cy="107.10002517700195" rx="62.08065414428711" ry="62.08065414428711" fill="url(#master_svg6_59_01790)" fill-opacity="1" style="mix-blend-mode:passthrough"/></g></g><g><g><path d="M198.539806676133,96.04969024658203L251.938872921875,96.04969024658203L251.938872921875,134.90884424658202C251.938872921875,137.83223724658203,249.566260921875,140.20484124658202,246.642875921875,140.20484124658202L198.539794921875,140.20484124658202L198.539806676133,96.04969024658203Z" fill="url(#master_svg7_59_01791)" fill-opacity="1" style="mix-blend-mode:passthrough"/></g><g><path d="M201.89464578125,140.20484973339842L166.11679938125,140.20484973339842C163.19340948125,140.20484973339842,160.82080078125,137.83608973339844,160.82080078125,134.90884373339844L160.82080078125,97.80604173339844L184.00379378125,69.74302673339844L207.18678678125,97.80604173339844L207.18678678125,134.90884373339844C207.18678678125,137.83223773339844,204.81803478125,140.20484973339842,201.89079278125,140.20484973339842L201.89464578125,140.20484973339842Z" fill="url(#master_svg8_59_01792)" fill-opacity="1" style="mix-blend-mode:passthrough"/></g><g><path d="M261.1329424609375,107.75866692626954L232.1339724609375,65.82591162626953C231.2673644609375,64.57413011626953,229.8460994609375,63.82691192626953,228.3246994609375,63.82691192626953L183.8190464609375,63.82691192626953C183.7188984609375,63.82691192626953,183.6149104609375,63.83076438426953,183.5147664609375,63.83846636226953C183.4801024609375,63.83846636226953,183.4454384609375,63.84616833926953,183.4107784609375,63.84616833926953C183.3452944609375,63.85387031926953,183.2798234609375,63.85772277626953,183.2143404609375,63.86542769526953C183.1758194609375,63.86928015226953,183.1334574609375,63.87698212626953,183.0949404609375,63.88468704726953C183.0371664609375,63.89238902226953,182.9755364609375,63.90394639226953,182.91776646093751,63.91550083426953C182.8754044609375,63.92320280526953,182.8330304609375,63.934760176269535,182.7945134609375,63.94246216626953C182.73674046093748,63.95401659626953,182.6828074609375,63.969423486269534,182.6288944609375,63.98483037626953C182.5865284609375,63.996384826269534,182.5441584609375,64.00793926626953,182.5056384609375,64.01949368626953C182.4517094609375,64.03490058626953,182.3977924609375,64.05415700626953,182.3438644609375,64.06956389626953C182.3053474609375,64.08111831626952,182.2629814609375,64.09652522626953,182.2244644609375,64.11193212626954C182.1705374609375,64.13119146626953,182.1127644609375,64.15430033626953,182.0588494609375,64.17740920626953C182.0241834609375,64.19281610626953,181.9856664609375,64.20822301626953,181.9510024609375,64.22362989626953C181.88937546093752,64.25059121626953,181.8316024609375,64.27755257626953,181.7738304609375,64.30836632626954C181.7430224609375,64.32377323626953,181.7160584609375,64.33532768626954,181.6852394609375,64.35073459626953C181.5966474609375,64.39695525626954,181.5119094609375,64.44317299626952,181.4271754609375,64.49324613626953C181.4156184609375,64.50094812626953,181.4040644609375,64.50865304626953,181.3886544609375,64.51635497626953C181.3154714609375,64.55872321626953,181.2461454609375,64.60494392626953,181.1768204609375,64.65501415626953C181.1460094609375,64.67427343626953,181.1190474609375,64.69738232626953,181.0920834609375,64.71664160626953C181.0420094609375,64.75515740626953,180.9880944609375,64.78982365626953,180.9418654609375,64.83219192626953C180.9110544609375,64.85530082626953,180.8802354609375,64.88226212626954,180.8494284609375,64.90922342626953C180.8032114609375,64.94773912626952,180.7608374609375,64.98625492626954,180.7146204609375,65.02477362626954C180.6838094609375,65.05173502626953,180.6529904609375,65.08254882626953,180.6221824609375,65.11336252626953C180.5798204609375,65.15187832626953,180.5413014609375,65.19424662626953,180.5027824609375,65.23276232626954C180.4719754609375,65.26357602626953,180.4411544609375,65.29438982626954,180.4141924609375,65.32905332626953C180.3756714609375,65.37142142626954,180.3371544609375,65.41378962626953,180.30249246093751,65.45615782626953C180.2755264609375,65.49082122626953,180.2447184609375,65.52163492626953,180.2177544609375,65.55630132626953C180.1830904609375,65.60252182626954,180.1445734609375,65.64873972626953,180.1099074609375,65.69496042626953C180.0829444609375,65.72962362626953,180.0598354609375,65.76043732626952,180.0367264609375,65.79510382626952C180.0290274609375,65.80665812626953,180.0213164609375,65.81436312626953,180.0136164609375,65.82591752626954L151.0146528509375,107.75867092626953C149.5587351309375,109.86167192626954,150.0864073009375,112.75039692626953,152.1894028609375,114.20630692626953C154.2923979609375,115.66222392626953,157.1811246609375,115.13455592626954,158.6370429609375,113.03155892626953L183.8267364609375,76.60664492626952L209.0164264609375,113.03155892626953C209.0703544609375,113.11245392626952,209.1281244609375,113.18562692626952,209.1859014609375,113.26266892626953C209.2359734609375,113.32429492626953,209.2860484609375,113.38206492626952,209.3361164609375,113.43983792626953C209.3476754609375,113.45138892626953,209.3553734609375,113.46294392626953,209.3669314609375,113.47835192626954C209.80216646093749,113.97136292626953,210.32983746093748,114.34883092626953,210.8998834609375,114.61073692626954C210.9075814609375,114.61459392626952,210.91913946093752,114.61844992626953,210.9268454609375,114.62229492626953C210.9923284609375,114.65311092626953,211.0616564609375,114.68006492626952,211.1309854609375,114.70702792626953C211.1502344609375,114.71474092626954,211.1695024609375,114.72244292626954,211.1887554609375,114.73013692626952C211.2503814609375,114.75324992626953,211.3081584609375,114.77251092626953,211.3697854609375,114.79176292626954C211.3967474609375,114.79947692626953,211.4275554609375,114.81103092626952,211.45452146093749,114.81872892626953C211.5084454609375,114.83414092626953,211.56236646093748,114.84955192626953,211.6162944609375,114.86494792626954C211.6509514609375,114.87265392626952,211.68561946093752,114.88421592626953,211.7241404609375,114.89576692626953C211.7742114609375,114.90732192626953,211.82812546093749,114.91887292626953,211.8782004609375,114.93043092626954C211.9167214609375,114.93812892626954,211.95524246093748,114.94968792626953,211.9937434609375,114.95353692626952C212.0476764609375,114.96509592626953,212.10544546093752,114.97279392626953,212.1632194609375,114.98050292626954C212.1978834609375,114.98434492626953,212.2325404609375,114.99205792626952,212.2672084609375,114.99590292626954C212.3480874609375,115.00745792626952,212.42512846093751,115.01131092626953,212.5060084609375,115.01900892626952C212.51756246093748,115.01900892626952,212.5291174609375,115.01900892626952,212.5406684609375,115.01900892626952C212.6369594609375,115.02672192626953,212.7332574609375,115.02672192626953,212.8256914609375,115.02672192626953C212.8295474609375,115.02672192626953,212.8333854609375,115.02672192626953,212.8410984609375,115.02672192626953L257.3274724609375,115.02672192626953C259.04915246093753,115.02672192626953,260.6321824609375,114.07151392626953,261.4294624609375,112.54626892626953C262.2306324609375,111.02101092626953,262.1150724609375,109.17608292626953,261.1367424609375,107.75868592626952L261.1329424609375,107.75866692626954Z" fill="#868C9B" fill-opacity="1" style="mix-blend-mode:passthrough"/></g><g><path d="M184.007783934375,107.80873107910156C188.483381234375,107.80873107910156,192.119327234375,111.44467587910157,192.119327234375,115.92027477910156L192.119327234375,140.20483007910155L175.896240234375,140.20483007910155L175.896240234375,115.92026807910156C175.896240234375,111.44466967910157,179.532185034375,107.80872520197276,184.007783934375,107.80873107910156Z" fill="#ACB4C1" fill-opacity="1" style="mix-blend-mode:passthrough"/></g><g><path d="M211.6625003421875,56.97869873046875L222.5895882421875,56.97869873046875C224.0493612421875,56.97869873046875,225.2356602421875,58.16500303046875,225.2356602421875,59.62477353046875L225.2356602421875,74.63459773046876C225.2356602421875,76.82617973046875,223.4562052421875,78.60563273046876,221.2646242421875,78.60563273046876L212.9836080421875,78.60563273046876C210.7920268421875,78.60563273046876,209.0125732421875,76.82617973046875,209.0125732421875,74.63459773046876L209.0125732421875,59.62477353046875C209.0125732421875,58.16500303046875,210.1988717421875,56.97869873046875,211.6586446421875,56.97869873046875L211.6625003421875,56.97869873046875Z" fill="url(#master_svg9_59_01795)" fill-opacity="1" style="mix-blend-mode:passthrough"/></g></g></g><g><g style="opacity:0.20000000298023224;"><path d="M54.649101,0.0000040120458C67.66449,0.013927042,78.466034,9.6036749,80.587875,22.196135L80.695,22.195999L80.770203,22.167885C83.089493,21.306967,85.560799,20.855486,88.077797,20.858025C91.798645,20.86515,95.293839,21.844967,98.330063,23.559977C104.77472,26.266071,109.30931,32.709877,109.30931,40.228455L109.30931,45.839657C109.30931,55.798222,101.35394,63.871235,91.540497,63.871235L25.671995,63.871838C25.255205,63.893219,24.835661,63.903996,24.41362,63.903904C23.997322,63.903812,23.583458,63.893154,23.172277,63.872169L19.057055,63.871235C9.7091284,63.871235,2.0471764,56.545971,1.3412932,47.243477C0.47257841,44.701321,0.00051093241,41.970837,0,39.128529C0.0035334732,32.552906,2.5810139,26.248028,7.1654248,21.600895C11.749836,16.953764,17.965647,14.345048,24.445448,14.348636L24.443226,14.344128C26.662018,14.34638,28.811415,14.648872,30.854132,15.213702C32.132633,12.496931,33.867199,9.9929838,36.00708,7.8238349C40.952839,2.8104362,47.658573,-0.0038786274,54.649101,0.0000040120458Z" fill="url(#master_svga_57_19135)" fill-opacity="1"/></g><g style="opacity:0.20000000298023224;"><path d="M358.649101,32.0000040119644C371.66449,32.013927012,382.466034,41.6036749,384.587875,54.196135L384.695,54.195999L384.770203,54.167885C387.089493,53.306967,389.560799,52.855486,392.07779700000003,52.858025C395.798653,52.86515,399.293839,53.844967,402.330063,55.559977C408.77472,58.266071,413.30931,64.709877,413.30931,72.228455L413.30931,77.839657C413.30931,87.79822200000001,405.35393999999997,95.871235,395.540497,95.871235L329.671995,95.871838C329.255205,95.893219,328.835661,95.903996,328.413618,95.903904C327.997322,95.903812,327.58346,95.89315400000001,327.172277,95.872173L323.057055,95.871235C313.7091284,95.871235,306.0471759,88.54597100000001,305.341293,79.243477C304.47257799,76.70132100000001,304.00051099999,73.970837,304,71.128529C304.0035329999,64.55290600000001,306.5810139,58.248028000000005,311.1654248,53.600895C315.749836,48.953764,321.965647,46.345048,328.445448,46.348636L328.443226,46.344128C330.662018,46.346379999999996,332.811415,46.648872,334.854132,47.213702C336.132633,44.496931000000004,337.867199,41.9929838,340.007084,39.8238349C344.952839,34.8104362,351.658573,31.9961214119,358.649101,32.0000040119644Z" fill="url(#master_svgb_57_19135)" fill-opacity="1"/></g></g></g></svg>