<?xml version="1.0" encoding="UTF-8"?>
<svg width="44px" height="44px" viewBox="0 0 44 44" version="1.1" xmlns="http://www.w3.org/2000/svg" xmlns:xlink="http://www.w3.org/1999/xlink">
    <title>编组 5</title>
    <defs>
        <rect id="path-1" x="0" y="0" width="44" height="44"></rect>
    </defs>
    <g id="页面-1" stroke="none" stroke-width="1" fill="none" fill-rule="evenodd">
        <g id="图标" transform="translate(-1212.000000, -159.000000)">
            <g id="编组-5" transform="translate(1212.000000, 159.000000)">
                <mask id="mask-2" fill="white">
                    <use xlink:href="#path-1"></use>
                </mask>
                <g id="path-1"></g>
                <path d="M8.53846177,7.38458136 L29.9789845,7.38458136 C34.1964527,7.38458136 37.6153481,10.8034959 37.6153481,15.0209545 L37.6153481,27.8461318 L39.1818527,27.8461318 C39.3068981,27.8461318 39.4316254,27.8400227 39.5560345,27.8278045 C39.6805072,27.8155227 39.8040572,27.7971955 39.9266845,27.7728227 C40.0493754,27.7483864 40.170539,27.7180318 40.2901754,27.6817591 C40.4098754,27.6454227 40.5274754,27.6033273 40.6429754,27.5554727 C40.7584754,27.5076182 40.8713981,27.4542273 40.9817436,27.3953 C41.0919618,27.3363727 41.1990618,27.2721636 41.3030436,27.2026727 C41.4070254,27.1331818 41.5073481,27.0587909 41.6040118,26.9795 C41.7006754,26.9001455 41.7932345,26.8162409 41.881689,26.7277864 C41.97008,26.6393955 42.0539527,26.5468682 42.1333072,26.4502045 C42.2126618,26.3535409 42.2870527,26.2532182 42.35648,26.1492364 C42.4259709,26.0452545 42.4902118,25.9381227 42.5492027,25.8278409 C42.60813,25.7175591 42.6615209,25.6046682 42.7093754,25.4891682 C42.75723,25.3736045 42.7992936,25.2560045 42.8355663,25.1363682 C42.8719027,25.0166682 42.9022572,24.8955045 42.92663,24.7728773 C42.9510027,24.65025 42.96933,24.5267 42.9816118,24.4022273 C42.9938936,24.2777545 43.0000345,24.1529955 43.0000345,24.02795 L43.0000345,5.81818182 C43.0000345,5.69313 42.9938936,5.56838045 42.9816118,5.44393318 C42.96933,5.31948591 42.9510027,5.19593909 42.92663,5.07329273 C42.9022572,4.95064636 42.8719027,4.82948909 42.8355663,4.70982091 C42.7992936,4.59015909 42.75723,4.47256227 42.7093754,4.35703045 C42.6615209,4.24149864 42.60813,4.12858864 42.5492027,4.01830045 C42.4902118,3.90801864 42.4259709,3.80089 42.35648,3.69691455 C42.2870527,3.59293909 42.2126618,3.49261955 42.1333072,3.39595591 C42.0539527,3.29928591 41.97008,3.20673955 41.881689,3.11831682 C41.7932345,3.02989409 41.7006754,2.94601754 41.6040118,2.86668718 C41.5073481,2.78735618 41.4070254,2.7129535 41.3030436,2.64347914 C41.1990618,2.57400541 41.09193,2.50979441 40.9816481,2.45084614 C40.8713663,2.39189786 40.7584754,2.33849645 40.6429754,2.29064191 C40.5274118,2.24278736 40.4098118,2.20071004 40.2901754,2.16440995 C40.170539,2.12810986 40.0493754,2.09776165 39.9266845,2.07336531 C39.8040572,2.04896923 39.6805072,2.03064266 39.5560345,2.0183856 C39.4316254,2.00612853 39.3068981,2 39.1818527,2 L12.3566436,2 C12.2315918,2 12.1068422,2.00612853 11.982395,2.0183856 C11.8579477,2.03064266 11.7344009,2.04896923 11.6117545,2.07336531 C11.4891081,2.09776165 11.3679509,2.12810986 11.2482827,2.16440995 C11.1286209,2.20071004 11.011024,2.24278736 10.8954922,2.29064191 C10.7799604,2.33849645 10.6670504,2.39189786 10.5567622,2.45084614 C10.4464804,2.50979441 10.3393518,2.57400541 10.2353763,2.64347914 C10.1314009,2.7129535 10.0310813,2.78735618 9.93441768,2.86668718 C9.83774768,2.94601754 9.74520132,3.02989409 9.65677859,3.11831682 C9.56835586,3.20673955 9.48447932,3.29928591 9.40514895,3.39595591 C9.32581795,3.49261955 9.25141527,3.59293909 9.18194091,3.69691455 C9.11246718,3.80089 9.04825618,3.90801864 8.98930791,4.01830045 C8.93035964,4.12858864 8.87695823,4.24149864 8.82910368,4.35703045 C8.78124914,4.47256227 8.73917182,4.59015909 8.70287173,4.70982091 C8.66657164,4.82948909 8.63622342,4.95064636 8.61182709,5.07329273 C8.587431,5.19593909 8.56910443,5.31948591 8.55684737,5.44393318 C8.5445903,5.56838045 8.53846177,5.69313 8.53846177,5.81818182 L8.53846177,7.38458136 L8.53846177,7.38458136 Z" id="路径" fill="#FD7B02" fill-rule="nonzero" mask="url(#mask-2)"></path>
                <path d="M28.6573818,10.615385 C31.8204591,10.615385 34.3846545,13.1795709 34.3846545,16.3426577 L34.3846545,16.3426577 L34.3846545,30.7342441 C34.3846545,33.8973214 31.8204591,36.4615168 28.6573818,36.4615168 L28.6573818,36.4615168 L8.53846545,36.4615168 L2.57575409,41.5724396 C1.95656909,42.1031668 1,41.6632168 1,40.8476532 L1,40.8476532 L1,16.3426577 C1,13.1795709 3.56418591,10.615385 6.72727273,10.615385 L6.72727273,10.615385 Z M10.6923591,20.3076486 C10.5865509,20.3076486 10.4809941,20.312835 10.3756886,20.3232077 C10.2703896,20.3335805 10.1658509,20.3490759 10.0620727,20.3696941 C9.95828818,20.3903759 9.85577,20.4160532 9.75451818,20.4467259 C9.65326,20.4774623 9.553755,20.5130668 9.45600318,20.5535396 C9.358245,20.5940759 9.26270773,20.6392896 9.16939136,20.6891805 C9.07606864,20.7390077 8.98541864,20.7933214 8.89744136,20.8521214 C8.80946409,20.9109214 8.72457636,20.9738896 8.64277818,21.0410259 C8.56098636,21.1081623 8.48268182,21.1791168 8.40786455,21.2538896 C8.33304091,21.3287259 8.26206727,21.4070305 8.19494364,21.4888032 C8.12782,21.5706396 8.06486455,21.6555305 8.00607727,21.7434759 C7.94729,21.831485 7.89295727,21.922135 7.84307909,22.0154259 C7.79320091,22.1087805 7.74801273,22.2043305 7.70751455,22.3020759 C7.66702273,22.3998214 7.63142136,22.4993168 7.60071045,22.6005623 C7.56999318,22.7018077 7.54431273,22.8043259 7.52366909,22.9081168 C7.50302545,23.0119077 7.48751727,23.1164623 7.47714455,23.2217805 C7.46677818,23.327035 7.461595,23.4325759 7.461595,23.5384032 C7.461595,23.6442305 7.46677818,23.7498032 7.47714455,23.8551214 C7.48751727,23.9603759 7.50302545,24.0648986 7.52366909,24.1686896 C7.54431273,24.2724805 7.56999318,24.3749986 7.60071045,24.4762441 C7.63142136,24.5774896 7.66702273,24.6770168 7.70751455,24.7748259 C7.74801273,24.8725714 7.79320091,24.9680896 7.84307909,25.0613805 C7.89295727,25.154735 7.94729,25.245385 8.00607727,25.3333305 C8.06486455,25.4213396 8.12782,25.5062305 8.19494364,25.5880032 C8.26206727,25.6697759 8.33304091,25.7480805 8.40786455,25.8229168 C8.48268182,25.8977532 8.56098636,25.9687396 8.64277818,26.0358759 C8.72457636,26.1030123 8.80946409,26.1659486 8.89744136,26.224685 C8.98541864,26.283485 9.07606545,26.3378305 9.16938182,26.3877214 C9.26270455,26.4376123 9.35824182,26.4827941 9.45599364,26.5232668 C9.55375182,26.5637396 9.65326,26.5993441 9.75451818,26.6300805 C9.85577,26.6608168 9.95828818,26.6864941 10.0620727,26.7071123 C10.1658509,26.7277305 10.2703896,26.7432259 10.3756886,26.7535986 C10.4809941,26.7639714 10.5865509,26.7691577 10.6923591,26.7691577 C10.7981864,26.7691577 10.9037591,26.7639714 11.0090773,26.7535986 C11.1143318,26.7432259 11.2188545,26.7277305 11.3226455,26.7071123 C11.4264364,26.6864941 11.5289545,26.6608168 11.6302,26.6300805 C11.7314455,26.5993441 11.8309409,26.5637396 11.9286864,26.5232668 C12.0264955,26.4827941 12.1220455,26.4376123 12.2153364,26.3877214 C12.3086273,26.3378305 12.3992773,26.283485 12.4872864,26.224685 C12.5752318,26.1659486 12.6601227,26.1030123 12.7419591,26.0358759 C12.8237318,25.9687396 12.9020364,25.8977532 12.9768727,25.8229168 C13.0517091,25.7480805 13.1226636,25.6697759 13.1897364,25.5880032 C13.2568727,25.5062305 13.3198409,25.4213396 13.3786409,25.3333305 C13.4374409,25.245385 13.4917864,25.154735 13.5416773,25.0613805 C13.5915045,24.9680896 13.6366864,24.8725714 13.6772227,24.7748259 C13.7176955,24.6770168 13.7533,24.5774896 13.7840364,24.4762441 C13.8147091,24.3749986 13.8403864,24.2724805 13.8610682,24.1686896 C13.8816864,24.0648986 13.8971818,23.9603759 13.9075545,23.8551214 C13.9179273,23.7498032 13.9231136,23.6442305 13.9231136,23.5384032 C13.9231136,23.4325759 13.9179273,23.327035 13.9075545,23.2217805 C13.8971818,23.1164623 13.8816864,23.0119077 13.8610682,22.9081168 C13.8403864,22.8043259 13.8147091,22.7018077 13.7840364,22.6005623 C13.7533,22.4993168 13.7176955,22.3998214 13.6772227,22.3020759 C13.6366864,22.2043305 13.5915045,22.1087805 13.5416773,22.0154259 C13.4917864,21.922135 13.4374409,21.831485 13.3786409,21.7434759 C13.3198409,21.6555305 13.2568727,21.5706396 13.1897364,21.4888032 C13.1226636,21.4070305 13.0517091,21.3287259 12.9768727,21.2538896 C12.9020364,21.1791168 12.8237318,21.1081623 12.7419591,21.0410259 C12.6601227,20.9738896 12.5752318,20.9109214 12.4872864,20.8521214 C12.3992773,20.7933214 12.3086273,20.7390077 12.2153364,20.6891805 C12.1220455,20.6392896 12.0264955,20.5940759 11.9286864,20.5535396 C11.8309409,20.5130668 11.7314455,20.4774623 11.6302,20.4467259 C11.5289545,20.4160532 11.4264364,20.3903759 11.3226455,20.3696941 C11.2188545,20.3490759 11.1143318,20.3335805 11.0090773,20.3232077 C10.9037591,20.312835 10.7981864,20.3076486 10.6923591,20.3076486 Z M24.6922955,20.3076486 C24.5865318,20.3076486 24.4809909,20.312835 24.3756727,20.3232077 C24.2703545,20.3335805 24.1658,20.3490759 24.0620091,20.3696941 C23.9582182,20.3903759 23.8557,20.4160532 23.7544545,20.4467259 C23.6532091,20.4774623 23.5537136,20.5130668 23.4559682,20.5535396 C23.3582227,20.5940759 23.2626727,20.6392896 23.1693182,20.6891805 C23.0760273,20.7390077 22.9853773,20.7933214 22.8973682,20.8521214 C22.8094227,20.9109214 22.7245318,20.9738896 22.6426955,21.0410259 C22.5609227,21.1081623 22.4826182,21.1791168 22.4077818,21.2538896 C22.3330091,21.3287259 22.2620545,21.4070305 22.1949182,21.4888032 C22.1277818,21.5706396 22.0648136,21.6555305 22.0060136,21.7434759 C21.9472136,21.831485 21.8929,21.922135 21.8430727,22.0154259 C21.7931818,22.1087805 21.7479682,22.2043305 21.7074318,22.3020759 C21.6669591,22.3998214 21.6313864,22.4993168 21.6007136,22.6005623 C21.5699773,22.7018077 21.5442682,22.8043259 21.5235864,22.9081168 C21.5029682,23.0119077 21.4874727,23.1164623 21.4771,23.2217805 C21.4667273,23.327035 21.4615409,23.4325759 21.4615409,23.5384032 C21.4615409,23.6442305 21.4667273,23.7498032 21.4771,23.8551214 C21.4874727,23.9603759 21.5029682,24.0648986 21.5235864,24.1686896 C21.5442682,24.2724805 21.5699773,24.3749986 21.6007136,24.4762441 C21.6313864,24.5774896 21.6669591,24.6770168 21.7074318,24.7748259 C21.7479682,24.8725714 21.7931818,24.9680896 21.8430727,25.0613805 C21.8929,25.154735 21.9472136,25.245385 22.0060136,25.3333305 C22.0648136,25.4213396 22.1277818,25.5062305 22.1949182,25.5880032 C22.2620545,25.6697759 22.3330091,25.7480805 22.4077818,25.8229168 C22.4826182,25.8977532 22.5609227,25.9687396 22.6426955,26.0358759 C22.7245318,26.1030123 22.8094227,26.1659486 22.8973682,26.224685 C22.9853773,26.283485 23.0760273,26.3378305 23.1693182,26.3877214 C23.2626727,26.4376123 23.3582227,26.4827941 23.4559682,26.5232668 C23.5537136,26.5637396 23.6532091,26.5993441 23.7544545,26.6300805 C23.8557,26.6608168 23.9582182,26.6864941 24.0620091,26.7071123 C24.1658,26.7277305 24.2703545,26.7432259 24.3756727,26.7535986 C24.4809909,26.7639714 24.5865318,26.7691577 24.6922955,26.7691577 C24.7981227,26.7691577 24.9036955,26.7639714 25.0090136,26.7535986 C25.1143318,26.7432259 25.2188545,26.7277305 25.3225818,26.7071123 C25.4263727,26.6864941 25.5288909,26.6608168 25.6301364,26.6300805 C25.7313818,26.5993441 25.8309091,26.5637396 25.9287182,26.5232668 C26.0264636,26.4827941 26.1219818,26.4376123 26.2152727,26.3877214 C26.3086273,26.3378305 26.3992773,26.283485 26.4872227,26.224685 C26.5752318,26.1659486 26.6601227,26.1030123 26.7418955,26.0358759 C26.8236682,25.9687396 26.9019727,25.8977532 26.9768091,25.8229168 C27.0516455,25.7480805 27.1226318,25.6697759 27.1897682,25.5880032 C27.2569045,25.5062305 27.3198409,25.4213396 27.3785773,25.3333305 C27.4373773,25.245385 27.4917227,25.154735 27.5416136,25.0613805 C27.5915045,24.9680896 27.6366864,24.8725714 27.6771591,24.7748259 C27.7176318,24.6770168 27.7532364,24.5774896 27.7839727,24.4762441 C27.8147091,24.3749986 27.8403864,24.2724805 27.8610045,24.1686896 C27.8816227,24.0648986 27.8971182,23.9603759 27.9074909,23.8551214 C27.9178636,23.7498032 27.92305,23.6442305 27.92305,23.5384032 C27.92305,23.4325759 27.9178636,23.327035 27.9074909,23.2217805 C27.8971182,23.1164623 27.8816227,23.0119077 27.8610045,22.9081168 C27.8403864,22.8043259 27.8147091,22.7018077 27.7839727,22.6005623 C27.7532364,22.4993168 27.7176318,22.3998214 27.6771591,22.3020759 C27.6366864,22.2043305 27.5915045,22.1087805 27.5416136,22.0154259 C27.4917227,21.922135 27.4373773,21.831485 27.3785773,21.7434759 C27.3198409,21.6555305 27.2569045,21.5706396 27.1897682,21.4888032 C27.1226318,21.4070305 27.0516455,21.3287259 26.9768091,21.2538896 C26.9019727,21.1791168 26.8236682,21.1081623 26.7418955,21.0410259 C26.6601227,20.9738896 26.5752318,20.9109214 26.4872227,20.8521214 C26.3992773,20.7933214 26.3086273,20.7390077 26.2152727,20.6891805 C26.1219818,20.6392896 26.0264636,20.5940759 25.9287182,20.5535396 C25.8309091,20.5130668 25.7313818,20.4774623 25.6301364,20.4467259 C25.5288909,20.4160532 25.4263727,20.3903759 25.3225818,20.3696941 C25.2188545,20.3490759 25.1143318,20.3335805 25.0090136,20.3232077 C24.9036955,20.312835 24.7981227,20.3076486 24.6922955,20.3076486 Z" id="形状结合" fill="#FD7B02" fill-rule="nonzero" mask="url(#mask-2)"></path>
            </g>
        </g>
    </g>
</svg>