<?xml version="1.0" encoding="UTF-8"?>
<svg width="41px" height="41px" viewBox="0 0 41 41" version="1.1" xmlns="http://www.w3.org/2000/svg" xmlns:xlink="http://www.w3.org/1999/xlink">
    <title>高亮-数据 </title>
    <g id="页面-1" stroke="none" stroke-width="1" fill="none" fill-rule="evenodd">
        <g id="图标" transform="translate(-1372.000000, -812.000000)" fill="#FD7B02" fill-rule="nonzero">
            <g id="高亮-数据-" transform="translate(1372.000000, 812.000000)">
                <path d="M20.0155938,0.0155937968 C31.0610938,0.0155937968 40.0155938,8.97009377 40.0155938,20.0155938 C40.0155938,31.0610938 31.0610938,40.0155938 20.0155938,40.0155938 C8.97009382,40.0155938 0.0155937968,31.0610938 0.0155937968,20.0155938 C0.0155937968,8.97009382 8.97009382,0.0155937968 20.0155938,0.0155937968 Z M30.0745938,14.9535938 C29.4880161,14.3688486 28.538515,14.3701916 27.9535938,14.9565938 L21.5500938,21.3780938 L17.7160938,17.2010938 C17.4363602,16.8962514 17.0431361,16.7204878 16.629429,16.7153757 C16.2157218,16.7102635 15.8182747,16.8762567 15.5310938,17.1740938 L9.93609382,22.9740938 C9.36088926,23.5702852 9.37790243,24.5198892 9.97409381,25.0950938 C10.5702852,25.6702983 11.5198892,25.6532852 12.0950938,25.0570938 L16.5835938,20.4040938 L20.4000938,24.5620938 C20.6768704,24.8637568 21.0649208,25.039184 21.4742295,25.0476817 C21.8835382,25.0561795 22.2785353,24.8970093 22.5675938,24.6070938 L30.0775938,17.0745938 C30.662339,16.4880161 30.660996,15.538515 30.0745938,14.9535938 L30.0745938,14.9535938 Z" id="形状"></path>
            </g>
        </g>
    </g>
</svg>