<?xml version="1.0" encoding="UTF-8"?>
<svg width="40px" height="40px" viewBox="0 0 40 40" version="1.1" xmlns="http://www.w3.org/2000/svg" xmlns:xlink="http://www.w3.org/1999/xlink">
    <title>形状</title>
    <g id="页面-1" stroke="none" stroke-width="1" fill="none" fill-rule="evenodd">
        <g id="图标" transform="translate(-1372.000000, -691.000000)" fill="#ffffff" fill-rule="nonzero">
            <g id="常规-数据-" transform="translate(1372.000000, 691.000000)">
                <path d="M19.9756737,39.9357535 C8.95222057,39.9357535 0.0155937968,30.9991267 0.0155937968,19.9756737 C0.0155937968,8.95222057 8.95222057,0.0155937968 19.9756737,0.0155937968 C30.9991267,0.0155937968 39.9357535,8.95222053 39.9357535,19.9756737 C39.9357535,30.9991268 30.9991268,39.9357535 19.9756737,39.9357535 Z M19.9756737,37.9756737 C29.9169678,37.9756737 37.9756737,29.9169678 37.9756737,19.9756737 C37.9756737,10.0343795 29.9169678,1.97567365 19.9756737,1.97567365 C10.0343795,1.97567365 1.97567365,10.0343795 1.97567365,19.9756737 C1.97567365,29.9169678 10.0343795,37.9756737 19.9756737,37.9756737 Z M16.550524,20.3633982 L12.070983,25.0071108 C11.4969266,25.6021122 10.7408215,25.7688944 10.1458202,25.1948379 C9.55081879,24.6207815 9.70693919,23.8724328 10.2809956,23.2774314 L15.5001248,18.1398453 C15.7867324,17.8426027 16.1833863,17.6769408 16.5962677,17.6820428 C17.009149,17.6871448 17.4015883,17.8625575 17.6807635,18.1667914 L21.5071108,22.3354541 L28.2915599,15.1478793 C28.6668773,14.7582279 29.2232302,14.601397 29.7467983,14.7376606 C30.2703664,14.8739242 30.285946,15.0609704 30.4236902,15.5841509 C30.5614343,16.1073314 30.4061779,16.6641258 30.0175898,17.0405439 L22.5225799,24.55751 C22.2340984,24.8468468 21.8398896,25.0056993 21.4313979,24.9972185 C21.0229062,24.9887377 20.6356303,24.8136606 20.3594062,24.5125998 L16.550524,20.3633982 Z" id="形状"></path>
            </g>
        </g>
    </g>
</svg>