<?xml version="1.0" encoding="UTF-8"?>
<svg width="50px" height="50px" viewBox="0 0 50 50" version="1.1" xmlns="http://www.w3.org/2000/svg" xmlns:xlink="http://www.w3.org/1999/xlink">
    <title>首页-高亮</title>
    <defs>
        <rect id="path-1" x="0" y="0" width="44" height="44"></rect>
    </defs>
    <g id="页面-1" stroke="none" stroke-width="1" fill="none" fill-rule="evenodd">
        <g id="图标" transform="translate(-887.000000, -156.000000)">
            <g id="首页-高亮-2" transform="translate(887.000000, 156.000000)">
                <g id="首页-高亮" transform="translate(3.000000, 3.000000)">
                    <mask id="mask-2" fill="white">
                        <use xlink:href="#path-1"></use>
                    </mask>
                    <g id="矩形"></g>
                    <g id="编组" mask="url(#mask-2)">
                        <path d="M19.979883,0.716009452 C21.156971,-0.238670117 22.8417713,-0.238670117 24.0188612,0.716009452 L42.7657542,15.839004 C44.174746,16.9750044 44.4127457,19.0590052 43.2967498,20.4950038 C42.8524947,21.0692277 42.2286095,21.477995 41.524758,21.6560043 L41.35076,21.6940075 L41.351761,38.6399988 C41.351761,41.4230007 39.2667733,43.7249963 36.5457895,43.9779982 L36.3237912,43.9949987 L36.091792,43.9999998 L7.9079539,43.9999998 C5.1029704,43.9999998 2.79598385,41.7590012 2.65298422,38.8759983 L2.64798417,38.6399988 L2.64698445,21.6940038 L2.53198532,21.6710047 C1.13999345,21.3500008 0.086999539,20.1200028 0.00499989453,18.626003 L0,18.4380057 C0,17.4250048 0.453997317,16.4680043 1.23399283,15.8380039 L19.979883,0.716009452 Z" id="路径" fill="#FD7B02" fill-rule="nonzero"></path>
                        <path d="M19.9402415,30.947347 C19.2211135,30.719223 18.5896183,30.4012095 18.0457561,29.9933065 C17.7918817,29.8029007 17.4830789,29.7000224 17.1657359,29.7000224 C16.3557182,29.7000224 15.6990916,30.356649 15.6990916,31.1666667 C15.6990916,31.6283106 15.9164564,32.0630405 16.2857717,32.3400268 C17.0953312,32.9471422 18.0178352,33.4149496 19.0532836,33.7434489 C20.1059024,34.0773638 21.2052049,34.2443033 22.3511913,34.2443033 C23.4972035,34.2443033 24.5965246,34.0773519 25.6491546,33.7434489 C26.6847226,33.414943 27.6072266,32.9471356 28.4166666,32.3400268 C28.7859826,32.0630405 29.0033468,31.628311 29.0033468,31.1666667 C29.0033468,30.356649 28.3466641,29.7000224 27.5366464,29.7000224 C27.2193036,29.7000224 26.9105565,29.8029005 26.6566824,29.9933065 C26.1128317,30.4011942 25.4813366,30.7192077 24.7621969,30.947347 C23.9981466,31.1897215 23.194478,31.3109068 22.3511913,31.3109029 C21.5079196,31.3109029 20.7042697,31.1897176 19.9402415,30.947347 Z" id="路径" fill="#FFFFFF"></path>
                    </g>
                </g>
            </g>
        </g>
    </g>
</svg>