<?xml version="1.0" encoding="UTF-8"?>
<svg width="44px" height="44px" viewBox="0 0 44 44" version="1.1" xmlns="http://www.w3.org/2000/svg" xmlns:xlink="http://www.w3.org/1999/xlink">
    <title>编组备份</title>
    <g id="页面-1" stroke="none" stroke-width="1" fill="none" fill-rule="evenodd">
        <g id="图标" transform="translate(-890.000000, -272.000000)">
            <g id="编组备份" transform="translate(890.000000, 272.000000)">
                <rect id="矩形" x="-7.10542736e-14" y="0" width="44.0000035" height="44"></rect>
                <path d="M19.979883,0.716009507 C21.156971,-0.238669787 22.8417713,-0.238669787 24.0188612,0.716009507 L42.7657542,15.8390058 C44.174746,16.975006 44.4127457,19.059007 43.2967498,20.4950057 C42.8524947,21.0692295 42.2286095,21.477995 41.524758,21.6560043 L41.35076,21.6940075 L41.351761,38.6399988 C41.351761,41.4230007 39.2667733,43.7249963 36.5457895,43.9780018 L36.3237912,43.9949987 L36.091792,44 L7.9079539,44 C5.1029704,44 2.79598385,41.7590012 2.65298422,38.8759983 L2.64798417,38.6399988 L2.64698445,21.6940038 L2.53198532,21.6710047 C1.13999345,21.3500027 0.086999539,20.1200047 0.00499989453,18.6260048 L-2.84217094e-14,18.4380075 C-2.84217094e-14,17.4250065 0.453997317,16.4680059 1.23399283,15.8380057 L19.979883,0.716009507 Z M22.1698712,3.06100905 C22.0707703,2.98069108 21.9289767,2.98069108 21.829874,3.06100905 L3.1029823,18.2100063 C3.03706333,18.2640214 2.99898243,18.3447843 2.99898243,18.4300068 C2.99898243,18.5860052 3.12198187,18.7120065 3.27398097,18.7120065 L4.15597563,18.7120065 C4.97797062,18.7110073 5.64396708,19.3920045 5.64396708,20.2310057 L5.64396708,38.6309972 L5.64696733,38.7900003 C5.70796637,40.0249997 6.70896068,40.9999993 7.92395432,40.9999993 L36.0377912,40.9999993 L36.1937895,40.995999 C37.4017857,40.9340012 38.354778,39.9109993 38.354778,38.6700013 L38.354778,20.2320048 C38.354778,19.3920045 39.020773,18.7120065 39.8427663,18.7120065 L40.7247628,18.7120065 C40.8087662,18.7120065 40.8877627,18.6730042 40.9407607,18.6060032 C41.0346878,18.4837327 41.014776,18.3090165 40.8957597,18.2110045 L22.1698712,3.06100905 Z M28.6448323,29.5310015 C29.1799933,30.1633695 29.1011948,31.109837 28.468836,31.6450017 C26.6338453,33.1980037 24.6298562,34.0000027 22.4998675,34.0000027 C20.3698807,34.0000027 18.3658933,33.1980037 16.5299046,31.6450017 C15.8972031,31.1093713 15.8186649,30.1621888 16.3545101,29.5296687 C16.8903553,28.8971467 17.8375631,28.8189348 18.4698947,29.3550033 C19.782884,30.4680053 21.1118783,30.9999983 22.4998675,30.9999983 C23.8868612,30.9999983 25.2158537,30.4680053 26.5298422,29.3550033 C27.162355,28.8191622 28.1095888,28.8979863 28.6448323,29.5310015 Z" id="形状" fill="#FFFFFF" fill-rule="nonzero"></path>
            </g>
        </g>
    </g>
</svg>