<?xml version="1.0" encoding="UTF-8"?>
<svg width="42px" height="43px" viewBox="0 0 42 43" version="1.1" xmlns="http://www.w3.org/2000/svg" xmlns:xlink="http://www.w3.org/1999/xlink">
    <title>编组 6备份</title>
    <g id="页面-1" stroke="none" stroke-width="1" fill="none" fill-rule="evenodd">
        <g id="图标" transform="translate(-1374.000000, -272.000000)">
            <g id="编组-6备份" transform="translate(1374.000000, 273.000000)">
                <ellipse id="椭圆形" stroke="#FFFFFF" stroke-width="2" cx="21" cy="10.2439024" rx="10" ry="10.2439024"></ellipse>
                <path d="M0,33.5096693 C0,38.1987951 3.71074,42 8.28818,42 L33.7118,42 C38.2893,42 42,38.1987951 42,33.5096693 C42,29.986699 39.9224,26.7861454 36.6135,25.8260766 C31.4089667,24.3160093 26.2044667,23.5609756 21,23.5609756 C15.7955333,23.5609756 10.5910333,24.3160093 5.3865,25.8260766 C2.07757,26.7861454 0,29.986699 0,33.5096693 Z M2,33.5096693 C2,35.2884751 2.61392,36.8067512 3.84176,38.0644976 C5.06960667,39.3223122 6.55174667,39.9512195 8.28818,39.9512195 L33.7118,39.9512195 C35.4482667,39.9512195 36.9304,39.3223122 38.1582,38.0644976 C39.3860667,36.8067512 40,35.2884751 40,33.5096693 C40,32.1514849 39.6370333,30.9430937 38.9111,29.8844956 C38.1905667,28.8338263 37.2430333,28.138098 36.0685,27.7973107 C31.0421667,26.338941 26.0193333,25.6097561 21,25.6097561 C15.9806667,25.6097561 10.9578467,26.338941 5.93154,27.7973107 C4.75699333,28.138098 3.80946,28.8338263 3.08894,29.8844956 C2.36298,30.9430937 2,32.1514849 2,33.5096693 Z" id="形状" fill="#FFFFFF"></path>
            </g>
        </g>
    </g>
</svg>