<?xml version="1.0" encoding="UTF-8"?>
<svg width="44px" height="44px" viewBox="0 0 44 44" version="1.1" xmlns="http://www.w3.org/2000/svg" xmlns:xlink="http://www.w3.org/1999/xlink">
    <title>我的-高亮</title>
    <defs>
        <rect id="path-1" x="0" y="0" width="44.0000035" height="44"></rect>
        <rect id="path-3" x="0" y="0" width="44" height="44"></rect>
    </defs>
    <g id="页面-1" stroke="none" stroke-width="1" fill="none" fill-rule="evenodd">
        <g id="图标" transform="translate(-1373.000000, -158.000000)">
            <g id="我的-高亮" transform="translate(1373.000000, 158.000000)">
                <mask id="mask-2" fill="white">
                    <use xlink:href="#path-1"></use>
                </mask>
                <g id="矩形"></g>
                <g id="Clipped" mask="url(#mask-2)">
                    <mask id="mask-4" fill="white">
                        <use xlink:href="#path-3"></use>
                    </mask>
                    <g id="矩形"></g>
                    <g id="编组" mask="url(#mask-4)" fill="#FD7B02">
                        <path d="M1.00000003,34.7118204 C1.00000003,39.2893008 4.7107404,43.0000016 9.28818085,43.0000016 L34.711799,43.0000016 C39.2893005,43.0000016 43,39.2893008 43,34.7118204 C43,31.2727318 40.9224027,28.148382 37.6135019,27.2111718 C32.4089674,25.7370583 27.2044659,25.0000016 22,25.0000016 C16.7955334,25.0000016 11.5910338,25.7370583 6.3865002,27.2111718 C3.07757003,28.148382 1.00000003,31.2727318 1.00000003,34.7118204 Z" id="路径" fill-rule="nonzero"></path>
                        <path d="M22.0000001,23 C22.1800008,23 22.3599001,22.995567 22.5396997,22.9866992 C22.7195668,22.977901 22.8990673,22.9646662 23.0781999,22.9470002 C23.2573344,22.9294002 23.4359346,22.9073654 23.6140006,22.8809012 C23.7920668,22.8544994 23.9694012,22.8237324 24.1460004,22.788602 C24.3225331,22.7535322 24.4981331,22.7141009 24.6728003,22.6703007 C24.8474011,22.6265665 25.0208348,22.578568 25.1931005,22.5263015 C25.3653663,22.474101 25.5362665,22.4176674 25.7057995,22.3570005 C25.8752669,22.2963337 26.0431678,22.2315675 26.2095005,22.162702 C26.3758348,22.0937687 26.5403682,22.020835 26.7031007,21.9438992 C26.8658334,21.866901 27.0266008,21.7859667 27.1854012,21.7010999 C27.3441334,21.6162349 27.5007012,21.5275327 27.6551008,21.4349989 C27.8095007,21.3424669 27.961568,21.2462022 28.1112994,21.1462012 C28.260968,21.0461342 28.4081013,20.9425014 28.5527012,20.8353009 C28.6973012,20.7280344 28.8391665,20.617301 28.9783009,20.5031009 C29.1175001,20.3889025 29.2537671,20.2713675 29.3870996,20.1504995 C29.5205003,20.0295674 29.6508686,19.9054672 29.7782009,19.7782009 C29.9054673,19.6508685 30.0295674,19.5205002 30.1504996,19.3870995 C30.2713676,19.2537671 30.3889026,19.1175 30.5031009,18.9783008 C30.6173011,18.8391664 30.7280344,18.6973011 30.8353009,18.5527011 C30.9425014,18.4081012 31.0461343,18.2609679 31.1462013,18.1112994 C31.2462023,17.9615679 31.3424669,17.8095006 31.4349989,17.6551008 C31.5275328,17.5007011 31.6162349,17.3441333 31.7010999,17.1854011 C31.7859668,17.0266007 31.8669011,16.8658333 31.9438993,16.7031006 C32.0208351,16.5403681 32.0937688,16.3758347 32.1627021,16.2095004 C32.2315676,16.0431677 32.2963338,15.8752668 32.3570006,15.7058012 C32.4176674,15.5362665 32.4741011,15.365367 32.5263016,15.1931004 C32.5785681,15.0208338 32.6265666,14.8474001 32.6703008,14.6728002 C32.7141009,14.4981338 32.7535323,14.3225338 32.7886021,14.1460003 C32.8237324,13.9694012 32.8544994,13.7920667 32.8809013,13.6140005 C32.9073654,13.4359336 32.9294003,13.2573343 32.9470003,13.0782008 C32.9646663,12.8990672 32.9779011,12.7195667 32.9866993,12.5396996 C32.9955671,12.359901 33.0000001,12.1800007 33.0000001,12 C33.0000001,11.8200002 32.9955671,11.6401 32.9866993,11.4603004 C32.9779011,11.2804343 32.9646663,11.1009372 32.9470003,10.9218106 C32.9294003,10.7426571 32.9073654,10.5640402 32.8809013,10.3859601 C32.8544994,10.207887 32.8237324,10.0305666 32.7886021,9.85400068 C32.7535323,9.67744005 32.7141009,9.50184705 32.6703008,9.32722003 C32.6265666,9.15258696 32.5785681,8.97913658 32.5263016,8.80686998 C32.4741011,8.63459715 32.4176674,8.46370995 32.3570006,8.29421021 C32.2963338,8.12471048 32.2315676,7.95680043 32.1627021,7.79048043 C32.0937688,7.62416025 32.0208351,7.45963013 31.9438993,7.29689008 C31.8669011,7.13415718 31.7859668,6.97340685 31.7010999,6.81464036 C31.6162349,6.6558737 31.5275328,6.49928356 31.4349989,6.34487033 C31.3424669,6.1904571 31.2462023,6.03841033 31.1462013,5.8887304 C31.0461343,5.7390435 30.9425014,5.5919031 30.8353009,5.4473103 C30.7280344,5.30271035 30.6173011,5.16082996 30.5031009,5.02166988 C30.3889026,4.88251016 30.2713676,4.74623648 30.1504996,4.61284993 C30.0295674,4.47946338 29.9054673,4.34912328 29.7782009,4.22183 C29.6508686,4.0945303 29.5205003,3.97043343 29.3870996,3.84954013 C29.2537671,3.72864023 29.1175001,3.61108671 28.9783009,3.49688031 C28.8391665,3.38267996 28.6973012,3.27196001 28.5527012,3.1647201 C28.4081013,3.05748018 28.260968,2.9538501 28.1112994,2.85383003 C27.961568,2.75381676 27.8095007,2.6575367 27.6551008,2.56499012 C27.5007012,2.47243678 27.3441334,2.38373012 27.1854012,2.29887009 C27.0266008,2.21400337 26.8658334,2.13308675 26.7031007,2.05612008 C26.5403682,1.97914871 26.3758348,1.90621704 26.2095005,1.83732505 C26.0431678,1.76843306 25.8752669,1.70366303 25.7057995,1.64301509 C25.5362665,1.58236703 25.3653663,1.52591404 25.1931005,1.47365603 C25.0208348,1.42139806 24.8474011,1.37339805 24.6728003,1.32965604 C24.4981331,1.28591403 24.3225331,1.24648271 24.1460004,1.21136204 C23.9694012,1.17624138 23.7920668,1.14547337 23.6140006,1.11905803 C23.4359346,1.09264336 23.2573344,1.07061337 23.0781999,1.05296803 C22.8990673,1.0353227 22.7195668,1.02208336 22.5396997,1.01325003 C22.3599001,1.0044167 22.1800008,1.00000003 22.0000001,1.00000003 C21.8200003,1.00000003 21.640101,1.0044167 21.4603005,1.01325003 C21.2804344,1.02208336 21.1009373,1.0353227 20.9218107,1.05296803 C20.7426572,1.07061337 20.5640394,1.09264336 20.3859602,1.11905803 C20.207888,1.14547337 20.0305676,1.17624138 19.8540008,1.21136204 C19.6774409,1.24648271 19.5018471,1.28591403 19.327221,1.32965604 C19.1525861,1.37339805 18.9791376,1.42139806 18.8068701,1.47365603 C18.6345963,1.52591404 18.4637109,1.58236703 18.2942107,1.64301509 C18.1247106,1.70366303 17.9568009,1.76843306 17.7904801,1.83732505 C17.6241611,1.90621704 17.4596295,1.97914871 17.2968907,2.05612008 C17.1341576,2.13308675 16.9734069,2.21400337 16.8146404,2.29887009 C16.6558738,2.38373012 16.4992833,2.47243678 16.34487,2.56499012 C16.1904568,2.6575367 16.0384104,2.75381676 15.8887305,2.85383003 C15.7390436,2.9538501 15.5919041,3.05748018 15.4473107,3.1647201 C15.3027099,3.27196001 15.1608297,3.38267996 15.0216703,3.49688031 C14.8825106,3.61108671 14.7462371,3.72864023 14.6128506,3.84954013 C14.4794638,3.97043343 14.3491232,4.0945303 14.2218306,4.22183 C14.0945304,4.34912328 13.9704335,4.47946338 13.84954,4.61284993 C13.7286399,4.74623648 13.6110872,4.88251016 13.4968797,5.02166988 C13.38268,5.16082996 13.2719605,5.30271035 13.1647198,5.4473103 C13.0574801,5.5919031 12.95385,5.7390435 12.8538305,5.8887304 C12.7538167,6.03841033 12.6575367,6.1904571 12.5649902,6.34487033 C12.4724371,6.49928356 12.3837301,6.6558737 12.2988703,6.81464036 C12.2140037,6.97340685 12.1330873,7.13415718 12.05612,7.29689008 C11.979149,7.45963013 11.9062167,7.62416025 11.8373252,7.79048043 C11.7684328,7.95680043 11.703663,8.12471048 11.6430151,8.29421021 C11.5823671,8.46370995 11.5259143,8.63459715 11.4736558,8.80686998 C11.4213983,8.97913658 11.3733979,9.15258696 11.3296558,9.32722003 C11.2859145,9.50184705 11.246483,9.67744005 11.211362,9.85400068 C11.176241,10.0305666 11.1454736,10.207887 11.1190578,10.3859601 C11.0926438,10.5640402 11.070613,10.7426571 11.0529681,10.9218106 C11.0353233,11.1009372 11.0220834,11.2804343 11.0132505,11.4603004 C11.0044166,11.6401 11.0000001,11.8200002 11.0000001,12 C11.0000001,12.1800007 11.0044166,12.359901 11.0132505,12.5396996 C11.0220834,12.7195667 11.0353233,12.8990672 11.0529681,13.0782008 C11.070613,13.2573343 11.0926438,13.4359336 11.1190578,13.6140005 C11.1454736,13.7920667 11.176241,13.9694012 11.211362,14.1460003 C11.246483,14.3225338 11.2859145,14.4981338 11.3296558,14.6728002 C11.3733979,14.8474001 11.4213983,15.0208338 11.4736558,15.1931004 C11.5259143,15.365367 11.5823671,15.5362665 11.6430151,15.7058012 C11.703663,15.8752668 11.7684328,16.0431677 11.8373252,16.2095004 C11.9062167,16.3758347 11.979149,16.5403681 12.05612,16.7031006 C12.1330873,16.8658333 12.2140037,17.0266007 12.2988703,17.1854011 C12.3837301,17.3441333 12.4724371,17.5007011 12.5649902,17.6551008 C12.6575367,17.8095006 12.7538167,17.9615679 12.8538305,18.1112994 C12.95385,18.2609679 13.0574801,18.4081012 13.1647198,18.5527011 C13.2719605,18.6973011 13.38268,18.8391664 13.4968797,18.9783008 C13.6110872,19.1175 13.7286399,19.2537671 13.84954,19.3870995 C13.9704335,19.5205002 14.0945304,19.6508685 14.2218306,19.7782009 C14.3491232,19.9054672 14.4794638,20.0295674 14.6128506,20.1504995 C14.7462371,20.2713675 14.8825106,20.3889025 15.0216703,20.5031009 C15.1608297,20.617301 15.3027099,20.7280344 15.4473107,20.8353009 C15.5919041,20.9425014 15.7390436,21.0461342 15.8887305,21.1462012 C16.0384104,21.2462022 16.1904568,21.3424669 16.34487,21.4349989 C16.4992833,21.5275327 16.6558738,21.6162349 16.8146404,21.7010999 C16.9734069,21.7859667 17.1341576,21.866901 17.2968907,21.9438992 C17.4596295,22.020835 17.6241611,22.0937687 17.7904801,22.162702 C17.9568009,22.2315675 18.1247106,22.2963337 18.2942107,22.3570005 C18.4637109,22.4176674 18.6345963,22.474101 18.8068701,22.5263015 C18.9791376,22.578568 19.1525861,22.6265665 19.327221,22.6703007 C19.5018471,22.7141009 19.6774409,22.7535322 19.8540008,22.788602 C20.0305676,22.8237324 20.207888,22.8544994 20.3859602,22.8809012 C20.5640394,22.9073654 20.7426572,22.9294002 20.9218107,22.9470002 C21.1009373,22.9646662 21.2804344,22.977901 21.4603005,22.9866992 C21.640101,22.995567 21.8200003,23 22.0000001,23 Z M25.8110009,14.3976007 C23.5778009,15.7933332 21.1846148,15.7820332 18.6314397,14.3637 C18.4350206,14.2545342 18.2245737,14.2000006 18.0000004,14.2000006 C17.9574264,14.2000006 17.9149538,14.2021003 17.8725799,14.2063001 C17.8302061,14.2104333 17.7881395,14.2166672 17.7463802,14.225001 C17.7046209,14.2332673 17.6633704,14.2436005 17.6226295,14.2560001 C17.5818829,14.2683342 17.5418437,14.2826676 17.5025102,14.2990004 C17.463177,14.3152666 17.4247344,14.3334333 17.3871809,14.3535006 C17.3496342,14.3735672 17.3131604,14.3954335 17.2777597,14.4190999 C17.2423593,14.4427671 17.2082025,14.4680997 17.1752892,14.4951003 C17.1423765,14.5221009 17.1108668,14.5506672 17.0807592,14.5808 C17.0506539,14.6108674 17.0220968,14.6423667 16.9950898,14.6753003 C16.9680769,14.7082334 16.9427433,14.7424007 16.9190906,14.7777996 C16.8954364,14.8132003 16.8735735,14.8496668 16.8535005,14.8872006 C16.8334332,14.9247337 16.8152533,14.963167 16.7989599,15.0025001 C16.7826675,15.041833 16.7683402,15.0818671 16.7559798,15.1226005 C16.7436204,15.1633329 16.7332874,15.2046005 16.7249807,15.2464005 C16.7166732,15.288134 16.710433,15.3302005 16.70626,15.3726002 C16.7020866,15.4149333 16.6999999,15.4574003 16.6999999,15.5000002 C16.6999999,15.6159341 16.7152303,15.7298016 16.7456904,15.8416013 C16.7761569,15.9534677 16.8207839,16.0593667 16.8795701,16.1593002 C16.9383567,16.2591672 17.0092378,16.3495667 17.0922113,16.4305003 C17.1751843,16.5115002 17.2673344,16.5801338 17.3686604,16.6364008 C20.8150865,18.5510682 24.0881675,18.5399675 27.1879015,16.6031007 L27.1889995,16.6023997 C27.2824672,16.5439996 27.3671669,16.4748013 27.4431,16.3948012 C27.5189669,16.3148014 27.5835999,16.2265997 27.6369998,16.1302016 C27.6904658,16.0337998 27.7310008,15.9322333 27.7586011,15.8255003 C27.7861998,15.7187673 27.7999998,15.6102668 27.7999998,15.5000002 C27.7999998,15.4574003 27.7978999,15.4149333 27.7937003,15.3726002 C27.789567,15.3302005 27.7833341,15.288134 27.7749994,15.2464005 C27.7667329,15.2046005 27.7563998,15.1633329 27.7440003,15.1226005 C27.7316671,15.0818671 27.7173335,15.041833 27.701,15.0025001 C27.6847328,14.963167 27.6665669,14.9247337 27.6465005,14.8872006 C27.6264325,14.8496668 27.6045668,14.8132003 27.5809005,14.7777996 C27.557234,14.7424007 27.5319014,14.7082334 27.5049008,14.6753003 C27.4779004,14.6423667 27.4493332,14.6108674 27.4192011,14.5808 C27.3891339,14.5506672 27.3576346,14.5221009 27.3247001,14.4951003 C27.291767,14.4680997 27.2576015,14.4427671 27.2222015,14.4190999 C27.1868,14.3954335 27.1503336,14.3735672 27.1128005,14.3535006 C27.0752659,14.3334333 27.0368341,14.3152666 26.9975003,14.2990004 C26.9581665,14.2826676 26.9181333,14.2683342 26.8774008,14.2560001 C26.8366666,14.2436005 26.7954008,14.2332673 26.7535999,14.225001 C26.7118673,14.2166672 26.6698008,14.2104333 26.6274002,14.2063001 C26.5850661,14.2021003 26.5426008,14.2000006 26.5000011,14.2000006 C26.3782003,14.2000006 26.2587337,14.2168001 26.1415995,14.2504 C26.0245351,14.2840008 25.9143332,14.3330672 25.8110009,14.3976007 Z" id="形状"></path>
                    </g>
                </g>
            </g>
        </g>
    </g>
</svg>