<?xml version="1.0" encoding="UTF-8"?>
<svg width="44px" height="46px" viewBox="0 0 44 46" version="1.1" xmlns="http://www.w3.org/2000/svg" xmlns:xlink="http://www.w3.org/1999/xlink">
    <title>编组 3</title>
    <g id="页面-1" stroke="none" stroke-width="1" fill="none" fill-rule="evenodd">
        <g id="图标" transform="translate(-1205.000000, -230.000000)" fill-rule="nonzero" stroke="#FFFFFF" stroke-width="2">
            <g id="编组-33" transform="translate(1207.000000, 231.000000)">
                <path d="M17.8389125,8.60706236 C18.4923019,14.0035433 18.401807,18.8005998 15.8621401,19.409987 C14.4972455,19.737927 10.9314169,16.7125768 8.77780588,11.3609281 C6.59762757,5.94120077 8.14185136,0.862697063 11.1755039,0.103868816 C14.3918065,-0.697301051 17.1905046,3.23133709 17.8389125,8.60706236 Z" id="路径"></path>
                <path d="M7.42868564,17.9570883 C9.71264243,20.965834 10.2157605,23.3079067 9.04181834,24.2825942 C7.40709972,25.6400167 4.03554446,25.0571968 2.15673885,23.1003498 C-0.612901224,20.215308 -0.360511961,17.2538853 0.93879461,15.9695229 C2.31365191,14.6079492 5.21944936,15.0496304 7.42868564,17.9570883 Z" id="路径"></path>
                <path d="M33.447196,17.9570883 C31.1640694,20.965834 30.6601211,23.3079067 31.8340633,24.2825942 C33.4687819,25.6400167 36.8411674,25.0571968 38.7191427,23.1003498 C41.4887828,20.215308 41.2372238,17.2538853 39.937087,15.9695229 C38.5638901,14.6079492 35.6572625,15.0496304 33.447196,17.9570883 Z" id="路径"></path>
                <path d="M23.2270912,8.60706236 C22.5745321,14.0035433 22.665027,18.8005998 25.2038637,19.409987 C26.5687583,19.737927 30.1354171,16.7125768 32.2881979,11.3609281 C34.4692064,5.94120077 32.9249826,0.862697063 29.8904999,0.103868816 C26.6766879,-0.697301051 23.8779899,3.23133709 23.2270912,8.60706236 Z" id="路径"></path>
                <path d="M33.7792871,31.9348042 C33.7792871,31.9348042 24.807845,40.4728674 16.9920801,42.7775798 C11.4171002,44.421431 6.76450337,41.5148033 6.63913897,35.4840283 C6.50630251,29.0763298 11.6014108,23.3402856 19.4246477,22.9724947 C26.9548142,22.6179874 31.6206947,26.3755986 33.7792871,31.9348042 Z" id="路径"></path>
            </g>
        </g>
    </g>
</svg>