<?xml version="1.0" encoding="UTF-8"?>
<svg width="40px" height="40px" viewBox="0 0 40 40" version="1.1" xmlns="http://www.w3.org/2000/svg" xmlns:xlink="http://www.w3.org/1999/xlink">
    <title>高亮-宠物</title>
    <g id="页面-1" stroke="none" stroke-width="1" fill="none" fill-rule="evenodd">
        <g id="图标" transform="translate(-1204.000000, -549.000000)" fill="#FD7B02" fill-rule="nonzero">
            <g id="高亮-宠物" transform="translate(1204.000000, 549.000000)">
                <path d="M17.4334827,7.82460215 C18.0720223,12.7304939 17.9835841,17.0914544 15.5016369,17.6454428 C14.1677626,17.94357 10.6829756,15.1932516 8.5783103,10.3281165 C6.44768149,5.40109161 7.95680928,0.784270057 10.9215152,0.0944261963 C14.06472,-0.633910046 16.7998113,2.93757918 17.4334827,7.82460215 Z" id="路径"></path>
                <path d="M7.25985188,16.3246257 C9.49190056,19.0598491 9.98358413,21.1890061 8.83632247,22.0750857 C7.23875654,23.3091061 3.94382754,22.7792698 2.10772206,21.000318 C-0.598971651,18.3775528 -0.352318507,15.6853503 0.917458369,14.5177481 C2.26106892,13.2799538 5.10082551,13.6814822 7.25985188,16.3246257 Z" id="路径"></path>
                <path d="M32.6870324,16.3246257 C30.4557951,19.0598491 29.9633002,21.1890061 31.1105618,22.0750857 C32.7081277,23.3091061 36.0038681,22.7792698 37.8391622,21.000318 C40.5458559,18.3775528 40.3000142,15.6853503 39.0294259,14.5177481 C37.6874381,13.2799538 34.8468701,13.6814822 32.6870324,16.3246257 Z" id="路径"></path>
                <path d="M22.6992028,7.82460215 C22.0614746,12.7304939 22.1499127,17.0914544 24.6310486,17.6454428 C25.9649229,17.94357 29.4505212,15.1932516 31.5543752,10.3281165 C33.6858154,5.40109161 32.1766876,0.784270057 29.2111703,0.0944261963 C26.0703995,-0.633910046 23.3353083,2.93757918 22.6992028,7.82460215 Z" id="路径"></path>
                <path d="M33.011576,29.0316402 C33.011576,29.0316402 24.2440304,36.7935158 16.6058965,38.8887089 C11.1576206,40.3831191 6.61076466,37.7407303 6.48824944,32.2582075 C6.358432,26.4330271 11.3377423,21.2184415 18.9831785,20.8840861 C26.3422048,20.5618067 30.9020425,23.9778169 33.011576,29.0316402 Z" id="路径"></path>
            </g>
        </g>
    </g>
</svg>