<?xml version="1.0" encoding="UTF-8"?>
<svg width="38px" height="40px" viewBox="0 0 38 40" version="1.1" xmlns="http://www.w3.org/2000/svg" xmlns:xlink="http://www.w3.org/1999/xlink">
    <title>常规-服务</title>
    <g id="页面-1" stroke="none" stroke-width="1" fill="none" fill-rule="evenodd">
        <g id="图标" transform="translate(-1155.000000, -691.000000)">
            <g id="常规-服务" transform="translate(1155.000000, 691.000000)">
                <path d="M29.2682927,3.90243902 L31.2195122,3.90243902 C32.2971057,3.90243902 33.2169106,4.2834374 33.9789268,5.04543415 C34.7409431,5.8074374 35.1219512,6.72725203 35.1219512,7.80487805 L35.1219512,34.1463415 C35.1219512,35.223935 34.7409431,36.1437398 33.9789268,36.9057561 C33.2169106,37.6677724 32.2971057,38.0487805 31.2195122,38.0487805 L5.85365854,38.0487805 C4.77603252,38.0487805 3.85621789,37.6677724 3.09421463,36.9057561 C2.33221789,36.1437398 1.95121951,35.223935 1.95121951,34.1463415 L1.95121951,7.80487805 C1.95121951,6.72725203 2.33221789,5.8074374 3.09421463,5.04543415 C3.85621789,4.2834374 4.77603252,3.90243902 5.85365854,3.90243902 L7.80487805,3.90243902 L7.80487805,1.95121951 L5.85365854,1.95121951 C5.75786016,1.95121951 5.66211707,1.95356984 5.56642927,1.9582705 C5.47074797,1.96297114 5.37523902,1.97001646 5.27990244,1.97940644 C5.18455935,1.98879649 5.08950894,2.00051984 4.99475122,2.01457649 C4.89998699,2.0286332 4.80562602,2.04500624 4.71166829,2.06369561 C4.61771057,2.08238504 4.52426667,2.10336846 4.43133659,2.12664585 C4.3384065,2.14992325 4.24610407,2.17546667 4.15442927,2.2032761 C4.06275447,2.23108488 3.97181789,2.2611265 3.88161951,2.29340098 C3.79142114,2.3256748 3.70206829,2.36014211 3.61356098,2.39680293 C3.52505366,2.43346374 3.43749919,2.47227382 3.35089756,2.51323317 C3.26429593,2.55419317 3.17875122,2.59725268 3.09426341,2.64241171 C3.00977561,2.68757138 2.92644553,2.73477659 2.84427317,2.78402732 C2.76210732,2.83327805 2.68119675,2.88451447 2.60154146,2.93773659 C2.52188618,2.99095935 2.44358374,3.04610407 2.36663415,3.10317073 C2.28969106,3.1602439 2.21419187,3.21916748 2.14013659,3.27994146 C2.0660813,3.34071545 1.99356423,3.40326829 1.92258537,3.4676 C1.8516,3.53193821 1.7822374,3.59797724 1.71449756,3.66571707 C1.64675772,3.73345691 1.5807187,3.80281951 1.51638049,3.87380488 C1.45204878,3.94478374 1.38949593,4.01730081 1.32872195,4.0913561 C1.26794797,4.16541138 1.20902439,4.24091057 1.15195122,4.31785366 C1.09488455,4.39480325 1.03973984,4.47310569 0.986517073,4.55276098 C0.933294959,4.63241626 0.882058537,4.71332683 0.832807805,4.79549268 C0.783557073,4.87766504 0.73635187,4.96099512 0.691192195,5.04548293 C0.646033171,5.12997073 0.602973659,5.21551545 0.562013659,5.30211707 C0.521054309,5.3887187 0.482244228,5.47627317 0.445583415,5.56478049 C0.408922602,5.6532878 0.374455285,5.74264065 0.342181463,5.83283902 C0.309906992,5.9230374 0.279865366,6.01397398 0.252056585,6.10564878 C0.224247154,6.19732358 0.19870374,6.28962602 0.175426341,6.3825561 C0.152148943,6.47548618 0.131165528,6.56893008 0.112476098,6.6628878 C0.0937867317,6.75684553 0.0774136911,6.8512065 0.0633569756,6.94597073 C0.0493003252,7.04073496 0.0375769756,7.13578537 0.0281869268,7.23112195 C0.0187969431,7.32645854 0.0117516293,7.42196748 0.00705098537,7.51764878 C0.00235032846,7.61333659 0,7.70907967 0,7.80487805 L0,34.1463415 C0,34.2421463 0.00235032846,34.3378862 0.00705098537,34.433561 C0.0117516293,34.5292358 0.0187969431,34.624748 0.0281869268,34.7200976 C0.0375769756,34.8154472 0.0493003252,34.9105041 0.0633569756,35.0052683 C0.0774136911,35.1000325 0.0937867317,35.194374 0.112476098,35.2882927 C0.131165528,35.3822764 0.152148943,35.4757398 0.175426341,35.5686829 C0.19870374,35.661626 0.224247154,35.7539187 0.252056585,35.845561 C0.279865366,35.9372683 0.309906992,36.0281951 0.342181463,36.1183415 C0.374455285,36.2085528 0.408922602,36.2979187 0.445583415,36.386439 C0.482244228,36.4749593 0.521054309,36.5625041 0.562013659,36.6490732 C0.602973659,36.7357073 0.646033171,36.8212683 0.691192195,36.9057561 C0.73635187,36.9902439 0.783557073,37.073561 0.832807805,37.1557073 C0.882058537,37.2379187 0.933294959,37.3188293 0.986517073,37.398439 C1.03973984,37.4781138 1.09488455,37.5564228 1.15195122,37.6333659 C1.20902439,37.7103089 1.26794797,37.7858211 1.32872195,37.8599024 C1.38949593,37.9339187 1.45204878,38.006439 1.51638049,38.0774634 C1.5807187,38.1484228 1.64675772,38.2177561 1.71449756,38.2854634 C1.7822374,38.3532358 1.8516,38.4192846 1.92258537,38.4836098 C1.99356423,38.547935 2.0660813,38.6105041 2.14013659,38.6713171 C2.21419187,38.732065 2.28969106,38.7909593 2.36663415,38.848 C2.44358374,38.9051057 2.52188618,38.9602602 2.60154146,39.0134634 C2.68119675,39.0666667 2.76210732,39.1179187 2.84427317,39.1672195 C2.92644553,39.2164553 3.00977561,39.2636423 3.09426341,39.3087805 C3.17875122,39.3539837 3.26429593,39.3970407 3.35089756,39.4379512 C3.43749919,39.4789268 3.52505366,39.5177561 3.61356098,39.554439 C3.70206829,39.5910569 3.79142114,39.6255285 3.88161951,39.6578537 C3.97181789,39.6901138 4.06275447,39.7201301 4.15442927,39.7479024 C4.24610407,39.7757398 4.3384065,39.8013008 4.43133659,39.8245854 C4.52426667,39.8478699 4.61771057,39.8688455 4.71166829,39.8875122 C4.80562602,39.9061789 4.89998699,39.9225691 4.99475122,39.9366829 C5.08951545,39.9507317 5.18456585,39.962439 5.27990244,39.9718049 C5.37523902,39.9811707 5.47074797,39.9882276 5.56642927,39.9929756 C5.66211707,39.9976585 5.75786016,40 5.85365854,40 L31.2195122,40 C31.3153171,40 31.4110569,39.9976585 31.5067317,39.9929756 C31.6024065,39.9882276 31.6979187,39.9811707 31.7932683,39.9718049 C31.8886179,39.962439 31.9836748,39.9507317 32.078439,39.9366829 C32.1732033,39.9225691 32.2675447,39.9061789 32.3614634,39.8875122 C32.4554472,39.8688455 32.5489106,39.8478699 32.6418537,39.8245854 C32.7347967,39.8013008 32.8270894,39.7757398 32.9187317,39.7479024 C33.010439,39.7201301 33.1013659,39.6901138 33.1915122,39.6578537 C33.2817236,39.6255285 33.3710894,39.5910569 33.4596098,39.554439 C33.5481301,39.5177561 33.6356748,39.4789268 33.7222439,39.4379512 C33.808878,39.3970407 33.894439,39.3539837 33.9789268,39.3087805 C34.0634146,39.2636423 34.1467317,39.2164553 34.228878,39.1672195 C34.3110244,39.1179187 34.391935,39.0666667 34.4716098,39.0134634 C34.5512846,38.9602602 34.6295935,38.9051057 34.7065366,38.848 C34.7834797,38.7909593 34.8589919,38.732065 34.9330732,38.6713171 C35.0070894,38.6105041 35.0796098,38.547935 35.1506341,38.4836098 C35.2215935,38.4192846 35.2909268,38.3532358 35.3586341,38.2854634 C35.4264065,38.2177561 35.4924553,38.1484228 35.5567805,38.0774634 C35.6211057,38.006439 35.6836748,37.9339187 35.7444878,37.8599024 C35.8052358,37.7858211 35.8641301,37.7103089 35.9211707,37.6333659 C35.9782764,37.5564228 36.0334309,37.4781138 36.0866341,37.398439 C36.1398374,37.3188293 36.1910894,37.2379187 36.2403902,37.1557073 C36.289626,37.073561 36.336813,36.9902439 36.3819512,36.9057561 C36.4271545,36.8212683 36.4702114,36.7357073 36.511122,36.6490732 C36.5520976,36.5625041 36.5909268,36.4749593 36.6276098,36.386439 C36.6642276,36.2979187 36.6986992,36.2085528 36.7310244,36.1183415 C36.7632846,36.0281951 36.7933008,35.9372683 36.8210732,35.845561 C36.8489106,35.7539187 36.8744715,35.661626 36.8977561,35.5686829 C36.9210407,35.4757398 36.9420163,35.3822764 36.9606829,35.2882927 C36.9793496,35.194374 36.9957398,35.1000325 37.0098537,35.0052683 C37.0239024,34.9105041 37.0356098,34.8154472 37.0449756,34.7200976 C37.0543415,34.624748 37.0613984,34.5292358 37.0661463,34.433561 C37.0708293,34.3378862 37.0731707,34.2421463 37.0731707,34.1463415 L37.0731707,7.80487805 C37.0731707,7.70907967 37.0708293,7.61333659 37.0661463,7.51764878 C37.0613984,7.42196748 37.0543415,7.32645854 37.0449756,7.23112195 C37.0356098,7.13577886 37.0239024,7.04072846 37.0098537,6.94597073 C36.9957398,6.8512065 36.9793496,6.75684553 36.9606829,6.6628878 C36.9420163,6.56893008 36.9210407,6.47548618 36.8977561,6.3825561 C36.8744715,6.28962602 36.8489106,6.19732358 36.8210732,6.10564878 C36.7933008,6.01397398 36.7632846,5.9230374 36.7310244,5.83283902 C36.6986992,5.74264065 36.6642276,5.6532878 36.6276098,5.56478049 C36.5909268,5.47627317 36.5520976,5.3887187 36.511122,5.30211707 C36.4702114,5.21551545 36.4271545,5.12997073 36.3819512,5.04548293 C36.336813,4.96099512 36.289626,4.87766504 36.2403902,4.79549268 C36.1910894,4.71332683 36.1398374,4.63241626 36.0866341,4.55276098 C36.0334309,4.47310569 35.9782764,4.39480325 35.9211707,4.31785366 C35.8641301,4.24091057 35.8052358,4.16541138 35.7444878,4.0913561 C35.6836748,4.01730081 35.6211057,3.94478374 35.5567805,3.87380488 C35.4924553,3.80281951 35.4264065,3.73345691 35.3586341,3.66571707 C35.2909268,3.59797724 35.2215935,3.53193821 35.1506341,3.4676 C35.0796098,3.40326829 35.0070894,3.34071545 34.9330732,3.27994146 C34.8589919,3.21916748 34.7834797,3.1602439 34.7065366,3.10317073 C34.6295935,3.04610407 34.5512846,2.99095935 34.4716098,2.93773659 C34.391935,2.88451447 34.3110244,2.83327805 34.228878,2.78402732 C34.1467317,2.73477659 34.0634146,2.68757138 33.9789268,2.64241171 C33.894439,2.59725268 33.808878,2.55419317 33.7222439,2.51323317 C33.6356748,2.47227382 33.5481301,2.43346374 33.4596098,2.39680293 C33.3710894,2.36014211 33.2817236,2.3256748 33.1915122,2.29340098 C33.1013659,2.2611265 33.010439,2.23108488 32.9187317,2.2032761 C32.8270894,2.17546667 32.7347967,2.14992325 32.6418537,2.12664585 C32.5489106,2.10336846 32.4554472,2.08238504 32.3614634,2.06369561 C32.2675447,2.04500624 32.1732033,2.0286332 32.078439,2.01457649 C31.9836748,2.00051984 31.8886179,1.98879649 31.7932683,1.97940644 C31.6979187,1.97001646 31.6024065,1.96297114 31.5067317,1.9582705 C31.4110569,1.95356984 31.3153171,1.95121951 31.2195122,1.95121951 L29.2682927,1.95121951 L29.2682927,3.90243902 Z" id="路径" fill="#ffffff"></path>
                <rect id="矩形" stroke="#fff" stroke-width="2" x="9.7804878" y="1" width="17.5121951" height="3.85365854" rx="1"></rect>
                <rect id="矩形" fill="#fff" x="6.66666667" y="13.3333333" width="22.8571429" height="1.9047619"></rect>
                <rect id="矩形备份-6" fill="#fff" x="6.66666667" y="20.952381" width="16.1904762" height="1.9047619"></rect>
            </g>
        </g>
    </g>
</svg>