<?xml version="1.0" encoding="UTF-8"?>
<svg width="39px" height="40px" viewBox="0 0 39 40" version="1.1" xmlns="http://www.w3.org/2000/svg" xmlns:xlink="http://www.w3.org/1999/xlink">
    <title>服务-高亮</title>
    <g id="页面-1" stroke="none" stroke-width="1" fill="none" fill-rule="evenodd">
        <g id="图标" transform="translate(-1155.000000, -813.000000)" fill="#FD7B02">
            <g id="服务-高亮" transform="translate(1155.000000, 813.000000)">
                <path d="M7.479,0.975384615 L7.4796748,4.12820513 C7.4796748,4.68048988 7.92739005,5.12820513 8.4796748,5.12820513 L8.4796748,5.12820513 L30.0694184,5.12820513 C30.6217031,5.12820513 31.0694184,4.68048988 31.0694184,4.12820513 L31.0694184,4.12820513 L31.069,0.975384615 L32.0200125,0.975609756 C32.0691432,0.975609756 32.1182572,0.976212404 32.1673546,0.977417701 L32.3145966,0.982841536 C32.4127246,0.987662709 32.5106858,0.994888672 32.6084803,1.00451942 C32.7062748,1.01415024 32.803769,1.02617419 32.9009631,1.04059127 C32.9981572,1.05500841 33.0949177,1.07180128 33.1912445,1.09096986 C33.2876381,1.1101385 33.383498,1.13165995 33.4788243,1.15553421 C33.5741505,1.17940846 33.6688097,1.20560684 33.7628018,1.23412933 C33.8568605,1.26265116 33.9501188,1.29346308 34.0425766,1.3265651 C34.1351011,1.35966646 34.2267584,1.39501755 34.3175485,1.43261839 C34.4083385,1.47021922 34.498128,1.51002443 34.5869168,1.55203402 C34.6757724,1.59404428 34.7635272,1.63820788 34.8501814,1.68452483 C34.9368355,1.73084244 35.0222889,1.77925804 35.1065416,1.82977161 C35.1907942,1.88028518 35.2737794,1.93283536 35.3554972,1.98742214 C35.4372149,2.04200959 35.5175318,2.09856827 35.5964478,2.15709819 C35.6753638,2.21563477 35.7528122,2.27606921 35.828793,2.3384015 C35.9047071,2.40073379 35.9790869,2.46489056 36.0519325,2.53087179 C36.1247113,2.5968597 36.1958224,2.66459204 36.2652658,2.73406879 C36.3347759,2.80354555 36.4025182,2.87468668 36.4684928,2.94749218 C36.5344674,3.02029102 36.5986408,3.0946675 36.6610131,3.17062164 C36.7233187,3.24657578 36.7837232,3.32401084 36.8422264,3.40292683 C36.9007963,3.48184949 36.957365,3.56215968 37.0119325,3.64385741 C37.0664999,3.72555514 37.1190661,3.80854034 37.169631,3.89281301 C37.2201292,3.97709235 37.2685262,4.0625591 37.3148218,4.14921326 C37.3611841,4.23586742 37.405345,4.32360559 37.4473046,4.41242777 C37.4893308,4.50124995 37.5291557,4.59104941 37.5667792,4.68182614 C37.604336,4.77260288 37.6396915,4.86424682 37.6728455,4.95675797 C37.7059329,5.04926913 37.7367188,5.14253742 37.7652033,5.23656285 C37.7937544,5.33058828 37.8199708,5.42525745 37.8438524,5.52057036 C37.867734,5.61588326 37.8892474,5.71172316 37.9083927,5.80809006 C37.927538,5.90445695 37.9443486,6.00123744 37.9588243,6.09843152 C37.9732333,6.19561893 37.9852408,6.29310652 37.9948468,6.39089431 C38.0044528,6.48867542 38.0116906,6.58663331 38.0165604,6.68476798 C38.0213634,6.78290932 38.0237649,6.88110736 38.0237649,6.9793621 L38.0237649,6.9793621 L38.0237649,33.9962477 C38.0237649,34.0945091 38.0213634,34.1927038 38.0165604,34.2908318 C38.0116906,34.3889598 38.0044528,34.486921 37.9948468,34.5847154 C37.9852408,34.6825099 37.9732333,34.7800042 37.9588243,34.8771982 C37.9443486,34.9743923 37.927538,35.0711528 37.9083927,35.1674797 C37.8892474,35.2638733 37.867734,35.3597332 37.8438524,35.4550594 C37.8199708,35.5503857 37.7937544,35.6450448 37.7652033,35.7390369 C37.7367188,35.8330957 37.7059329,35.926354 37.6728455,36.0188118 C37.6396915,36.1113363 37.604336,36.2029935 37.5667792,36.2937836 C37.5291557,36.3845737 37.4893308,36.4743631 37.4473046,36.563152 C37.405345,36.6520075 37.3611841,36.7397624 37.3148218,36.8264165 C37.2685262,36.9130707 37.2201292,36.9985241 37.169631,37.0827767 C37.1190661,37.1670961 37.0664999,37.2500813 37.0119325,37.3317323 C36.957365,37.4134501 36.9007963,37.4937669 36.8422264,37.5726829 C36.7837232,37.6515989 36.7233187,37.7290473 36.6610131,37.8050281 C36.5986408,37.8809423 36.5344674,37.9553221 36.4684928,38.0281676 C36.4025182,38.1009464 36.3347759,38.1720575 36.2652658,38.2415009 C36.1958224,38.311011 36.1247113,38.3787534 36.0519325,38.444728 C35.9790869,38.5107025 35.9047071,38.574876 35.828793,38.6372483 C35.7528122,38.6995539 35.6753638,38.7599583 35.5964478,38.8184615 C35.5175318,38.8770315 35.4372149,38.9336002 35.3554972,38.9881676 C35.2737794,39.042735 35.1907942,39.0953012 35.1065416,39.1458662 C35.0222889,39.1963644 34.9368355,39.2447613 34.8501814,39.2910569 C34.7635272,39.3374192 34.6757724,39.3815802 34.5869168,39.4235397 C34.498128,39.465566 34.4083385,39.5053909 34.3175485,39.5430144 C34.2267584,39.5805712 34.1351011,39.6159266 34.0425766,39.6490807 C33.9501188,39.682168 33.8568605,39.7129539 33.7628018,39.7414384 C33.6688097,39.7699896 33.5741505,39.796206 33.4788243,39.8200876 C33.383498,39.8439691 33.2876381,39.8654826 33.1912445,39.8846279 C33.0949177,39.9037732 32.9981572,39.9205837 32.9009631,39.9350594 C32.803769,39.9494684 32.7062748,39.9614759 32.6084803,39.9710819 C32.5106858,39.9806879 32.4127246,39.9879258 32.3145966,39.9927955 C32.2164686,39.9975985 32.1182739,40 32.0200125,40 L32.0200125,40 L6.00375235,40 C5.9054976,40 5.80729956,39.9975985 5.70915822,39.9927955 C5.61102356,39.9879258 5.51306567,39.9806879 5.41528455,39.9710819 C5.31750344,39.9614759 5.22001584,39.9494684 5.12282176,39.9350594 C5.02562768,39.9205837 4.9288472,39.9037732 4.8324803,39.8846279 C4.7361134,39.8654826 4.6402735,39.8439691 4.5449606,39.8200876 C4.4496477,39.796206 4.35497853,39.7699896 4.2609531,39.7414384 C4.16692766,39.7129539 4.07365937,39.682168 3.98114822,39.6490807 C3.88863706,39.6159266 3.79699312,39.5805712 3.70621639,39.5430144 C3.61543965,39.5053909 3.52564019,39.465566 3.43681801,39.4235397 C3.34799583,39.3815802 3.26025766,39.3374192 3.1736035,39.2910569 C3.08694934,39.2447613 3.00148259,39.1963644 2.91720325,39.1458662 C2.83293058,39.0953012 2.74994538,39.042735 2.66824765,38.9881676 C2.58654993,38.9336002 2.50623973,38.8770315 2.42731707,38.8184615 C2.34840108,38.7599583 2.27096602,38.6995539 2.19501188,38.6372483 C2.11905774,38.574876 2.04468126,38.5107025 1.97188243,38.444728 C1.89907692,38.3787534 1.82793579,38.311011 1.75845904,38.2415009 C1.68898228,38.1720575 1.62124995,38.1009464 1.55526204,38.0281676 C1.4892808,37.9553221 1.42512404,37.8809423 1.36279174,37.8050281 C1.30045945,37.7290473 1.24002502,37.6515989 1.18148843,37.5726829 C1.12295852,37.4937669 1.06639983,37.4134501 1.01181238,37.3317323 C0.957225599,37.2500813 0.904675422,37.1670961 0.854161851,37.0827767 C0.80364828,36.9985241 0.755232687,36.9130707 0.708915072,36.8264165 C0.662598124,36.7397624 0.618434522,36.6520075 0.576424265,36.563152 C0.534414676,36.4743631 0.494609464,36.3845737 0.45700863,36.2937836 C0.419407797,36.2029935 0.384056702,36.1113363 0.350955347,36.0188118 C0.317853325,35.926354 0.287041401,35.8330957 0.258519575,35.7390369 C0.229997082,35.6450448 0.203798708,35.5503857 0.179924453,35.4550594 C0.156050198,35.3597332 0.134528747,35.2638733 0.1153601,35.1674797 C0.0961915197,35.0711528 0.0793986575,34.9743923 0.0649815134,34.8771982 C0.0505644361,34.7800042 0.0385404878,34.6825099 0.0289096685,34.5847154 C0.019278916,34.486921 0.0120529531,34.3889598 0.00723177986,34.2908318 C0.00241059329,34.1927038 6.99611309e-13,34.0945091 6.99611309e-13,33.9962477 L6.99611309e-13,33.9962477 L6.99611309e-13,6.9793621 C6.99611309e-13,6.88110736 0.00241059329,6.78290932 0.00723177986,6.68476798 C0.0120529531,6.58663331 0.019278916,6.48867542 0.0289096685,6.39089431 C0.0385404878,6.2931132 0.0505644361,6.1956256 0.0649815134,6.09843152 C0.0793986575,6.00123744 0.0961915197,5.90445695 0.1153601,5.80809006 C0.134528747,5.71172316 0.156050198,5.61588326 0.179924453,5.52057036 C0.203798708,5.42525745 0.229997082,5.33058828 0.258519575,5.23656285 C0.287041401,5.14253742 0.317853325,5.04926913 0.350955347,4.95675797 C0.384056702,4.86424682 0.419407797,4.77260288 0.45700863,4.68182614 C0.494609464,4.59104941 0.534414676,4.50124995 0.576424265,4.41242777 C0.618434522,4.32360559 0.662598124,4.23586742 0.708915072,4.14921326 C0.755232687,4.0625591 0.80364828,3.97709235 0.854161851,3.89281301 C0.904675422,3.80854034 0.957225599,3.72555514 1.01181238,3.64385741 C1.06639983,3.56215968 1.12295852,3.48184949 1.18148843,3.40292683 C1.24002502,3.32401084 1.30045945,3.24657578 1.36279174,3.17062164 C1.42512404,3.0946675 1.4892808,3.02029102 1.55526204,2.94749218 C1.62124995,2.87468668 1.68898228,2.80354555 1.75845904,2.73406879 C1.82793579,2.66459204 1.89907692,2.5968597 1.97188243,2.53087179 C2.04468126,2.46489056 2.11905774,2.40073379 2.19501188,2.3384015 C2.27096602,2.27606921 2.34840108,2.21563477 2.42731707,2.15709819 C2.50623973,2.09856827 2.58654993,2.04200959 2.66824765,1.98742214 C2.74994538,1.93283536 2.83293058,1.88028518 2.91720325,1.82977161 C3.00148259,1.77925804 3.08694934,1.73084244 3.1736035,1.68452483 C3.26025766,1.63820788 3.34799583,1.59404428 3.43681801,1.55203402 C3.52564019,1.51002443 3.61543965,1.47021922 3.70621639,1.43261839 C3.79699312,1.39501755 3.88863706,1.35966646 3.98114822,1.3265651 C4.07365937,1.29346308 4.16692766,1.26265116 4.2609531,1.23412933 C4.35497853,1.20560684 4.4496477,1.17940846 4.5449606,1.15553421 C4.6402735,1.13165995 4.7361134,1.1101385 4.8324803,1.09096986 C4.9288472,1.07180128 5.02562768,1.05500841 5.12282176,1.04059127 C5.22000917,1.02617419 5.31749677,1.01415024 5.41528455,1.00451942 C5.51306567,0.994888672 5.61102356,0.987662709 5.70915822,0.982841536 C5.80729956,0.978020349 5.9054976,0.975609756 6.00375235,0.975609756 L6.00375235,0.975609756 L7.479,0.975384615 Z M23.4432234,20.4639805 L6.83760684,20.4639805 L6.83760684,22.4175824 L23.4432234,22.4175824 L23.4432234,20.4639805 Z M30.2808303,12.3582864 L6.83760684,12.3582864 L6.83760684,14.3118883 L30.2808303,14.3118883 L30.2808303,12.3582864 Z" id="形状结合"></path>
                <rect id="矩形" x="9.00562852" y="0" width="20.0125078" height="4.1025641" rx="1"></rect>
            </g>
        </g>
    </g>
</svg>