<svg xmlns="http://www.w3.org/2000/svg" xmlns:xlink="http://www.w3.org/1999/xlink" fill="none" version="1.1" width="271" height="294" viewBox="0 0 271 294"><defs><clipPath id="master_svg0_45_4754"><rect x="0" y="0" width="294" height="294" rx="0"/></clipPath></defs><g style="opacity:0.4000000059604645;" clip-path="url(#master_svg0_45_4754)"><g><path d="M146.95992,0.08013916015625C228.12189,0.08013916015625,293.91983,65.89146416015625,293.91983,147.04005916015626C293.91983,228.20199916015625,228.12186,293.99996916015624,146.95992,293.99996916015624C65.797981,293.99996916015624,0,228.20199916015625,0,147.04006916015626C0,65.89147216015625,65.797966,0.08014540299795,146.95992,0.08013916015625ZM147.96191,273.58590916015623C218.04845,273.58590916015623,274.88184,216.76586916015626,274.88184,146.66599916015625C274.88184,76.57946816015625,218.04843,19.74606116015625,147.96191,19.74606116015625C77.875389,19.74606116015625,21.041977,76.57946816015625,21.041977,146.66599916015625C21.041977,216.76586916015626,77.875389,273.58590916015623,147.96191,273.58590916015623Z" fill="#FFDB4A" fill-opacity="1" style="mix-blend-mode:passthrough"/></g><g><path d="M188.602711875,107.668166953125C171.595141875,90.691333953125,157.88711187500002,70.704600953125,148.17537687499998,48.723876953125C138.464187875,70.704904953125,124.756087875,90.691737953125,107.74803887499999,107.668166953125C90.762302875,124.693686953125,70.761533875,138.415618953125,48.763671875,148.13558995312502C70.139659875,157.567736953125,90.193011875,171.047976953125,107.707957875,188.603016953125C124.739463875,205.568436953125,138.462554875,225.557296953125,148.17537687499998,247.547306953125C167.775271875,203.185626953125,203.225421875,167.735496953125,247.587101875,148.13558995312502C225.588161875,138.411635953125,205.587311875,124.685119953125,188.602721875,107.654811953125L188.602711875,107.668166953125ZM168.22872187500002,167.975156953125C161.166351875,175.014906953125,154.591391875,182.527206953125,148.549445875,190.460026953125C142.479987875,182.549716953125,135.90658587500002,175.039156953125,128.87017087499999,167.975156953125C121.822723875,160.921046953125,114.310981875,154.34659695312502,106.385303875,148.295897953125C114.267699875,142.257186953125,121.762656875,135.684073953125,128.87017087499999,128.603271953125C135.93229687500002,121.563315953125,142.50723987499998,114.051009953125,148.549445875,106.118403953125C160.65645187500002,121.994491953125,174.83751187500002,136.175536953125,190.713591875,148.282531953125C182.844541875,154.33461695312502,175.34960187500002,160.90773695312498,168.22872187500002,167.975156953125Z" fill="#FFDB4A" fill-opacity="1" style="mix-blend-mode:passthrough"/></g></g></svg>