<svg xmlns="http://www.w3.org/2000/svg" xmlns:xlink="http://www.w3.org/1999/xlink" fill="none" version="1.1" width="71" height="34" viewBox="0 0 71 34"><g><g><g><path d="M58.533207,4.7338157L25.147352,4.7338157C23.934832,4.5843272,22.124355,4.2355194,20.264051,3.4880748C16.975294,2.1592844,14.849231,0.61456561,14.83262,0.5979557L14.002126,0L13.171633,0.5979557C13.155025,0.61456555,11.028959,2.1426744,7.7402029,3.4880748C4.5344968,4.7836456,1.4284499,4.8500853,1.3952299,4.8500853L3.1680824e-7,4.8666945L3.1680824e-7,18.968485C3.1680824e-7,26.044292,9.1022129,33.535343,14.002126,33.535343C16.476999,33.535343,20.031513,31.608597,22.93824,28.801531L58.516598,28.801531C65.143936,28.801531,70.558754,23.386709,70.558754,16.759369C70.575371,10.148634,65.160545,4.7338142,58.533207,4.7338157ZM2.8402891,18.968481L2.8402891,7.5741043C4.2189088,7.4246149,6.4778523,7.0425892,8.8032351,6.0958252C11.195058,5.1158428,13.022145,4.0694199,14.002126,3.4382443C14.998719,4.0694199,16.809195,5.1324525,19.201021,6.0958252C21.543011,7.0425892,23.785347,7.4246149,25.163965,7.5741043L25.163965,18.968481C25.163965,24.449741,17.241053,30.711666,14.002126,30.711666C10.763201,30.711666,2.8402891,24.449741,2.8402891,18.968481Z" fill="#66CCFF" fill-opacity="1" style="mix-blend-mode:passthrough"/></g><g><path d="M20.18124975,11.975738525390625L12.95595215,20.313900025390623L9.13568045,17.058361525390623L7.30859375,19.217647125390627L13.25493095,24.283659525390625L22.32392175,13.836046125390626L20.18124975,11.975738525390625Z" fill="#66CCFF" fill-opacity="1" style="mix-blend-mode:passthrough"/></g></g><g><g><path d="M42.887264267578125,18.9020366984375C42.854042967578124,19.3338927984375,42.80421446757813,19.6993112984375,42.75438686757813,19.9816779984375C42.521849667578124,21.2274188984375,42.239480967578125,21.5263976984375,40.860862767578126,21.5762280984375C39.249704367578126,21.6592778984375,37.72159626757812,21.6592778984375,36.110435767578124,21.5762280984375C34.73181527757812,21.5263976984375,34.299959947578124,21.1609801984375,34.299959947578124,19.7159213984375L34.299959947578124,14.5502495984375L35.462651367578125,14.6000797984375L35.462651367578125,15.8956510984375L40.76120236757812,15.8956510984375L40.76120236757812,13.5868777984375L34.050811767578125,13.5868777984375L34.050811767578125,12.4407958984375L41.90728566757812,12.4407958984375L41.90728566757812,16.9919027984375L35.47926236757812,16.9919027984375L35.47926236757812,19.4335541984375C35.47926236757812,20.2806577984375,35.62875036757813,20.4135369984375,36.49246596757813,20.4467572984375C37.837867267578126,20.5298070984375,39.183266167578125,20.5298070984375,40.528667467578124,20.4467572984375C41.408991367578125,20.3969268984375,41.52526046757812,20.297267398437498,41.64152856757813,19.5664324984375C41.69135906757813,19.2674545984375,41.72457786757813,18.8688182984375,41.74118856757813,18.5200089984375L42.887264267578125,18.9020366984375Z" fill="#FFFFFF" fill-opacity="1" style="mix-blend-mode:passthrough"/></g><g><path d="M53.200754167578125,21.792182890234375C52.18755106757813,21.327105490234374,50.31063656757812,20.496612590234378,49.28082276757812,20.064756390234376C48.367279067578124,20.895249390234376,46.938828467578126,21.410156290234376,44.713106067578124,21.891841990234376L44.347686767578125,20.845417990234374C46.789340767578125,20.380341490234375,48.035081667578126,19.882044790234374,48.732693667578125,19.084770690234375L44.347686767578125,19.084770690234375L44.347686767578125,18.054958390234376L47.785933467578126,18.054958390234376C47.17136576757812,17.656321490234376,46.02528546757812,16.991925690234375,45.377501267578126,16.692949790234376L45.82596976757812,15.845845690234375C46.55680346757813,16.178043390234375,47.819155167578124,16.875657990234373,48.383889667578124,17.257685190234376L48.00186486757813,18.054960690234374L49.26421686757813,18.054960690234374C49.39709376757813,17.589883290234376,49.43031506757812,17.041758490234376,49.463537167578124,16.393972390234374L49.513364267578126,14.450616790234374L50.62622876757813,14.500446990234375C50.62622876757813,14.865863790234375,50.57640126757813,16.161434690234376,50.57640126757813,16.543462290234373C50.55979016757813,17.124808290234377,50.493350967578124,17.639714690234374,50.393691067578125,18.071571790234376L53.582789467578124,18.071571790234376L53.582789467578124,19.101383690234375L50.028276467578124,19.101383690234375L49.928616567578125,19.284091990234373C51.074697467578126,19.749168890234376,52.80212306757812,20.430173890234375,53.61601166757812,20.778981190234376L53.200754167578125,21.792182890234375ZM45.709698767578125,15.297720690234375L44.63005673757812,15.297720690234375L44.63005673757812,13.038777090234374L48.59981636757813,13.038777090234374C48.483544867578125,12.656749370234374,48.350667967578126,12.241502370234375,48.26761886757812,11.992354150234375L49.38048316757813,11.842864990234375C49.496754167578125,12.141843320234376,49.66285276757812,12.606919170234375,49.79572966757812,13.055386790234374L53.36685276757812,13.055386790234374L53.36685276757812,15.330939790234375L52.27059986757813,15.330939790234375L52.27059986757813,14.051979290234375L45.709698767578125,14.051979290234375L45.709698767578125,15.297720690234375ZM48.716087867578125,16.543461290234376C48.118130967578125,16.111605190234375,46.889000867578126,15.380769690234375,46.274433367578126,15.081791390234375L46.756118967578125,14.201467490234375C47.437124767578126,14.533664990234374,48.58320526757812,15.181450590234375,49.13132956757813,15.563476790234375L48.716087867578125,16.543461290234376Z" fill="#FFFFFF" fill-opacity="1" style="mix-blend-mode:passthrough"/></g><g><path d="M63.88154793007813,13.8858549375C62.785294530078126,15.1648154375,61.423287830078124,16.1946287375,59.67925123007812,17.108172437500002L63.73206043007812,17.108172437500002L63.73206043007812,21.7091083375L62.652417630078126,21.7091083375L62.652417630078126,21.2108106375L58.05147983007812,21.2108106375L58.05147983007812,21.7091083375L56.988448630078125,21.7091083375L56.988448630078125,18.2874736375C56.42371383007813,18.5034027375,55.82575703007812,18.6861109375,55.177972820078125,18.9020390375L54.762725830078125,17.888835937499998C58.350460530078124,16.8424129375,60.841942330078126,15.5136227375,62.41988083007813,13.9024646375L58.63283043007812,13.9024646375L58.184361930078126,14.3509309375C58.616219530078126,14.6831288375,59.09790473007813,15.0485453375,59.49654103007813,15.3973536375L58.83214613007812,16.310897337500002C58.40028863007812,15.928869737500001,57.85216403007813,15.4637937375,57.35386773007812,15.0817661375C56.92200973007812,15.413963537499999,56.49015213007812,15.762770637500001,56.008466730078126,16.0783591375L55.32746071007813,15.1482055375C56.72268953007813,14.2678811375,58.234189530078126,12.806212737500001,59.01485543007813,11.7099609375L60.028059530078124,12.1418175375C59.86195993007813,12.3909656975,59.69586183007812,12.6235043375,59.513152630078125,12.8726526375L63.898159030078126,12.8726526375L63.898159030078126,13.8858549375L63.88154793007813,13.8858549375ZM62.635807030078126,18.1213741375L58.034868730078124,18.1213741375L58.034868730078124,20.2308302375L62.635807030078126,20.2308302375L62.635807030078126,18.1213741375Z" fill="#FFFFFF" fill-opacity="1" style="mix-blend-mode:passthrough"/></g></g></g></svg>