<svg xmlns="http://www.w3.org/2000/svg" xmlns:xlink="http://www.w3.org/1999/xlink" fill="none" version="1.1" width="30" height="30" viewBox="0 0 30 30"><g><g><path d="M25.255932,7.0282936L21.299601,7.0282936C20.71854,7.0095248,20.268103,6.5035357,20.286873,5.922473C20.310869,5.373404,20.750534,4.9337392,21.299601,4.9097424L25.255932,4.9097424L25.255932,2.2476652C25.255932,1.6658521,25.593758,1.5164573,26.005907,1.9286064L29.305351,5.246819C29.718252,5.659719,29.718252,6.3353729,29.305351,6.7287531L25.987139,10.046966C25.57424,10.459865,25.236414,10.328488,25.236414,9.7286568L25.236414,7.0282936L25.255932,7.0282936ZM16.405615,12.897475L18.749382,12.897475C19.330446,12.916244,19.780884,13.422235,19.762115,14.003295C19.738119,14.552364,19.29845,14.992028,18.749382,15.016026L16.050522,15.016026L16.050522,16.891342L18.750134,16.891342C19.331196,16.910109,19.781631,17.4161,19.762865,17.997162C19.738869,18.54623,19.299202,18.985895,18.750132,19.009893L16.050522,19.009893L16.050522,23.041298C16.031752,23.622356,15.525013,24.072044,14.943949,24.053274C14.395155,24.02931,13.955592,23.590075,13.931218,23.041298L13.931218,19.009893L11.250374,19.009893C10.669312,18.991123,10.218875,18.484385,10.237643,17.90332C10.262019,17.354544,10.70158,16.91531,11.250374,16.891342L13.931218,16.891342L13.931218,15.016026L11.250374,15.016026C10.669312,14.997258,10.218875,14.490518,10.237643,13.909455C10.262019,13.360681,10.70158,12.921444,11.250374,12.897475L13.575375,12.897475L10.78117,9.9914122C10.36902,9.5785131,10.387789,8.9028587,10.799938,8.4907103C11.212837,8.0785608,11.887742,8.0973291,12.300641,8.5094786L14.999504,11.303682L17.681099,8.5094776C18.090836,8.091773,18.760994,8.0833883,19.181051,8.4907093C19.593203,8.9036102,19.611969,9.5597448,19.19982,9.9914122L16.405615,12.896726L16.405615,12.897475ZM29.84963,12.897475C31.011755,21.090906,25.312235,28.685263,17.099287,29.847383C8.8870878,31.009512,1.3115041,25.289724,0.15012999,17.09704C-1.0127456,8.9036102,4.7070413,1.3092568,12.899721,0.1478824C14.474746,-0.077335633,16.067787,-0.039799292,17.624794,0.22295508C18.18709,0.37310043,18.524164,0.93614542,18.393539,1.4984399C18.243395,2.0607343,17.680349,2.3978105,17.118053,2.267184C10.086748,1.1043084,3.4495735,5.8481517,2.2874486,12.879458C1.124573,19.910767,5.8684149,26.547941,12.899721,27.710066C19.931028,28.872944,26.568201,24.129101,27.73033,17.097794C27.955549,15.766755,27.955549,14.416946,27.767866,13.085158C27.714941,12.504913,28.14382,11.992211,28.724289,11.941802C29.287334,11.885498,29.793324,12.317165,29.84963,12.898228L29.84963,12.897475Z" fill="#1B7AFF" fill-opacity="0.7300000190734863" style="mix-blend-mode:passthrough"/></g></g></svg>