<svg xmlns="http://www.w3.org/2000/svg" xmlns:xlink="http://www.w3.org/1999/xlink" fill="none" version="1.1" width="33" height="35" viewBox="0 0 33 35"><path d="M15.244363,25.90894187567139C14.840992,25.90894187567139,14.403374,26.028812875671385,13.906771,26.278064875671387C13.765972,26.348462875671387,13.638491,26.445501875671386,13.535747,26.565369875671387C12.561568,27.678444875671385,11.393315,28.751562875671386,10.055723,29.763794875671387L10.055723,21.808641875671388C10.139443,20.84397697567139,9.9453678,20.029625875671385,9.4773054,19.378903875671387C9.4830141,19.378903875671387,9.4868193,19.378903875671387,9.492527,19.378903875671387C10.369669,19.378903875671387,11.393315,18.809999475671386,11.393315,17.206030375671386C11.393315,16.966290975671388,11.322918,16.730358075671386,11.189728,16.530574775671386C10.053821,14.827666475671386,8.615387,13.292193075671387,6.9143801,11.967920805671387C6.7640672,11.851856545671387,6.5909228,11.771943855671386,6.4044585,11.733889885671386C6.176136,11.688224967671387,5.9668403,11.665392875671387,5.7670574,11.665392875671387C4.9641218,11.665392875671387,4.5017676,12.025001435671387,4.2544174,12.327530085671388C3.8624635,12.807007675671386,3.7444966,13.448215275671387,3.9043226,14.237832575671387C3.9518895,14.471863975671386,4.0679545,14.688770775671387,4.2353907,14.858110175671387C5.3427572,15.967379575671387,6.3454757,17.025275675671388,7.2264214,18.014674175671388C6.7526517,17.911928675671387,6.2237034,17.86055657567139,5.6319661,17.86055657567139L1.8855672,17.86055657567139C1.664855,17.86055657567139,1.4479481,17.919539975671388,1.2595817,18.033702875671388C0.42239746,18.536013175671386,0,19.156290975671386,0,19.879312475671387C0,20.602333975671385,0.42430019,21.224515875671386,1.2595817,21.724921875671384C1.4479481,21.839083875671385,1.664855,21.898068875671385,1.8855672,21.898068875671385L5.3617849,21.898068875671385C5.681437,21.898068875671385,5.8888302,21.924705875671386,6.0182133,21.953245875671385C6.0182133,21.974175875671385,6.0182133,21.995105875671385,6.0182133,22.017937875671386L6.0182133,31.37537287567139C6.0182133,32.378092875671385,6.1590123,33.14677887567139,6.4482212,33.725197875671384C6.8534951,34.53574287567139,7.5784202,35.00000087567139,8.4403391,35.00000087567139C8.9026928,35.00000087567139,9.3878803,34.87061987567139,9.9206333,34.60423987567138C9.9453688,34.592823875671385,9.9682007,34.57950487567139,9.9910336,34.56618787567139C12.213375,33.26854987567138,14.454745,31.495243875671388,16.654257,29.295733875671388C16.840723,29.10927087567139,16.962494,28.867626875671387,16.998644,28.60695887567139C17.048115,28.262571875671387,17.196526,27.21228687567139,16.572441,26.493069875671388C16.245178,26.116337875671388,15.775214,25.907039875671387,15.250072,25.907039875671387L15.244363,25.90894187567139ZM5.7480307,12.885020275671387C5.7480307,12.885020275671387,5.757544,12.885020275671387,5.7613497,12.885020275671387C5.7708626,12.885020275671387,5.782279,12.885020275671387,5.793695,12.885020275671387C5.7784739,12.885020275671387,5.7632523,12.885020275671387,5.7480307,12.885020275671387ZM8.4346313,33.78227887567139C8.4993219,33.78227887567139,8.5659161,33.77657187567139,8.6363163,33.767057875671384C8.565917,33.77657187567139,8.4993219,33.78227887567139,8.4346313,33.78227887567139ZM9.5077486,18.159280775671387C9.5077486,18.159280775671387,9.4963322,18.159280775671387,9.4906235,18.159280775671387C9.4811115,18.159280775671387,9.4696941,18.159280775671387,9.4601822,18.157377675671388C9.4773054,18.157377675671388,9.492527,18.157377675671388,9.5077486,18.157377675671388L9.5077486,18.159280775671387ZM15.20631,27.128567875671386C15.217726,27.128567875671386,15.231044,27.12476187567139,15.242461,27.12476187567139C15.246266,27.12476187567139,15.248169,27.12476187567139,15.251975,27.12476187567139C15.236753,27.12476187567139,15.221532,27.12476187567139,15.204408,27.126662875671386L15.20631,27.128567875671386Z" fill="#FF6D6D" fill-opacity="1" style="mix-blend-mode:passthrough"/><path d="M31.978502061645507,31.05767567376709L31.978502061645507,13.461582573767089C31.978502061645507,13.19710867376709,31.892881061645507,12.94214717376709,31.734959061645508,12.73094977376709C31.101361061645505,11.88615504376709,30.42019706164551,11.70920467376709,29.95974706164551,11.70920467376709C29.49929506164551,11.70920467376709,28.81623106164551,11.88615504376709,28.18453506164551,12.73094977376709C28.026611061645507,12.94214857376709,27.94099106164551,13.19901167376709,27.94099106164551,13.461582573767089L27.94099106164551,30.57439167376709C27.94099106164551,30.57439167376709,27.94099106164551,30.58771267376709,27.94099106164551,30.59341867376709C27.81161006164551,30.61244667376709,27.628950061645508,30.62766567376709,27.37589206164551,30.62766567376709C25.908915561645507,30.62766567376709,23.38023946164551,30.12535567376709,19.862162161645507,29.134053673767088C19.753708861645507,29.10360767376709,19.643352261645507,29.08838767376709,19.531094361645508,29.08838767376709C19.464500461645507,29.08838767376709,19.397906561645506,29.09409467376709,19.331311061645508,29.10550967376709C18.355230961645507,29.26723967376709,17.72734219164551,29.69914867376709,17.46477129164551,30.38601967376709C17.196491111645507,31.08620967376709,17.392469543645507,31.85680067376709,18.04699439164551,32.67305667376709C18.204918141645507,32.87093667376709,18.419921761645508,33.01363667376709,18.663465961645507,33.08213367376709C21.197850961645507,33.80515767376709,23.772191961645508,34.356936673767095,26.312284461645508,34.72035167376709C26.321798361645506,34.72035167376709,26.33321376164551,34.72225267376709,26.34272866164551,34.72415867376709C26.852648761645508,34.78314067376709,27.33022596164551,34.81358467376709,27.765942061645507,34.81358467376709C29.326148061645508,34.81358467376709,30.48298406164551,34.41401767376709,31.202201061645507,33.62820867376709C31.801547061645508,32.97177967376709,32.064119061645506,32.10605567376709,31.98230606164551,31.05767567376709L31.978502061645507,31.05767567376709Z" fill="#FF6D6D" fill-opacity="1" style="mix-blend-mode:passthrough"/><path d="M19.799353820703125,28.852446598327635C20.259804720703126,28.852446598327635,20.942871820703125,28.675497598327638,21.576468220703124,27.828797598327636C21.734391920703125,27.61759859832764,21.820012520703123,27.362638598327635,21.820012520703123,27.098164598327635L21.820012520703123,14.264512098327637C21.820012520703123,14.000038098327636,21.734391920703125,13.745076798327636,21.576468220703124,13.533879298327637C20.942871820703125,12.690987048327637,20.261707820703126,12.512133598327637,19.801256920703125,12.512133598327637C19.340805920703126,12.512133598327637,18.659642100703124,12.689083948327637,18.026045490703126,13.533879298327637C17.868121750703125,13.745078198327636,17.782501220703125,14.001941298327637,17.782501220703125,14.264512098327637L17.782501220703125,27.098164598327635C17.782501220703125,27.360736598327637,17.868121750703125,27.61759859832764,18.026045490703126,27.828797598327636C18.659642100703124,28.675494598327635,19.342707620703123,28.852446598327635,19.803158520703125,28.852446598327635L19.799353820703125,28.852446598327635Z" fill="#FF6D6D" fill-opacity="1" style="mix-blend-mode:passthrough"/><path d="M32.51320393467712,3.9480844C32.617852934677124,2.7741239,32.35147493467713,1.8265837,31.721682934677123,1.1301987C31.042422934677123,0.38053825,29.999747934677124,0,28.622199934677123,0L5.894552034677124,0C3.251713734677124,9.072739e-8,1.737171479041534,1.417505,1.737171479041534,3.8910038L1.737171479041534,6.8325639C1.737171479041534,9.4887209,3.1775089346771237,11.012776,5.687159034677125,11.012776C5.856498434677124,11.012776,6.033448934677124,11.005165,6.212301934677124,10.991846L27.779305934677122,10.991846C27.984797934677125,11.005165,28.184581934677123,11.012776,28.376752934677125,11.012776C29.815186934677126,11.012776,30.909232934677124,10.615113,31.632256934677123,9.8312054C32.31532293467713,9.0891552,32.612141934677126,8.0655079,32.517007934677125,6.784996L32.517007934677125,3.9480834L32.51320393467712,3.9480844ZM31.308799934677126,7.3215556C31.308799934677126,7.3995662,31.304993934677125,7.4794798,31.299285934677123,7.5536842C31.304993934677125,7.4794798,31.306893934677124,7.3995662,31.308799934677126,7.3215556ZM31.285968934677125,7.6830678C31.278359934677123,7.749661,31.270747934677125,7.814353,31.259331934677125,7.877142C31.270747934677125,7.814353,31.278359934677123,7.7477589,31.285968934677125,7.6830678ZM31.232693934677123,8.0046215C31.219373934677122,8.0617027,31.206055934677124,8.1206865,31.190835934677125,8.1758642C31.207957934677125,8.1206865,31.221278934677123,8.0636063,31.232693934677123,8.0046215ZM31.148974934677124,8.2957335C31.129946934677125,8.347106,31.110921934677123,8.3984785,31.089989934677124,8.4479494C31.110921934677123,8.3984785,31.129948934677124,8.347106,31.148974934677124,8.2957335ZM31.036715934677122,8.5602074C31.013884934677122,8.6077757,30.987246934677124,8.6534405,30.960610934677124,8.6972017C30.987246934677124,8.6534405,31.011983934677126,8.6077757,31.036715934677122,8.5602074ZM30.895915934677124,8.7980433C30.867377934677123,8.8399038,30.835028934677123,8.8798599,30.802684934677124,8.919816C30.835028934677123,8.8798599,30.865472934677125,8.8399038,30.895915934677124,8.7980433ZM14.867644934677124,6.9524336L14.867644934677124,4.0394125L19.919289934677124,4.0394125L19.919289934677124,6.9524336L14.867644934677124,6.9524336ZM13.649921934677124,2.8216908C13.649921934677124,2.8216908,21.137011934677123,2.8216908,21.137011934677123,2.8216908C21.137011934677123,2.8216908,13.649921934677124,2.8216908,13.649921934677124,2.8216908ZM5.059270634677124,9.7493906C4.958427934677124,9.7341681,4.8613910346771245,9.7151423,4.768158634677124,9.6923103C4.861390634677123,9.7151423,4.958427934677124,9.734169,5.059270634677124,9.7493906ZM4.7586455346771235,9.6904068C4.661608234677124,9.6656713,4.568376334677124,9.6371307,4.480852634677124,9.604785C4.570279134677124,9.6371307,4.661608434677124,9.6656713,4.7586455346771235,9.6904068ZM4.564570934677124,6.7773862C4.564570934677124,6.8002181,4.568376334677124,6.8211474,4.570279134677124,6.8420777C4.570279134677124,6.8192453,4.566473434677124,6.7983155,4.564570934677124,6.7773862ZM4.583597634677124,6.975266C4.5874033346771235,7.0000014,4.591208734677124,7.0228333,4.595013834677124,7.0475683C4.5912084346771245,7.0228333,4.5874030346771235,7.0000014,4.583597634677124,6.975266ZM4.615943634677124,7.1598272C4.621651934677124,7.1845627,4.6273596346771235,7.2073946,4.633067834677124,7.2302265C4.6273596346771235,7.2073946,4.621651934677124,7.1845617,4.615943634677124,7.1598272ZM4.661608234677124,7.3291669C4.669219034677123,7.3500962,4.674926734677124,7.3729286,4.684440634677124,7.3938584C4.676829534677124,7.3729286,4.669219034677123,7.3519993,4.661608234677124,7.3291669ZM4.722494134677124,7.4851875C4.730105134677125,7.5042138,4.739618534677124,7.5232415,4.7491316346771235,7.5422678C4.739618534677124,7.5232415,4.732007534677124,7.5042138,4.722494134677124,7.4851875ZM4.7986018346771235,7.6316948C4.808115034677124,7.6469164,4.815726034677124,7.6621375,4.825239434677124,7.6754565C4.815726034677124,7.6621375,4.808115034677124,7.6469159,4.7986018346771235,7.6316948ZM4.912763334677124,7.7934232C4.912763334677124,7.7934232,4.918471534677124,7.7991309,4.920374434677123,7.801034C4.918471534677124,7.7991319,4.914666134677124,7.7953262,4.912763334677124,7.7934232ZM10.824425434677124,6.950531L6.427305934677124,6.950531C6.364516534677124,6.950531,6.299825934677124,6.9562387,6.237036934677124,6.9657531C6.143804834677124,6.9790716,6.060086534677124,6.9847794,5.985881534677124,6.9847794C5.905968434677124,6.9847794,5.852692834677124,6.9771686,5.824152734677124,6.9714608C5.805125434677124,6.9200878,5.772779734677124,6.8002181,5.772779734677124,6.5642848L5.772779734677124,4.4256601C5.772779734677124,4.4256601,5.772779734677124,4.4218545,5.772779734677124,4.4199519C5.772779734677124,4.2125587,5.944021934677124,4.0394135,6.153317734677124,4.0394135C6.155220234677124,4.0394135,6.157123334677124,4.0394135,6.159025434677124,4.0394135L10.824425434677124,4.0394135L10.824425434677124,6.9524336L10.824425434677124,6.950531ZM5.801320334677124,8.194891C5.782293534677124,8.194891,5.7651693346771244,8.1910849,5.746142634677124,8.1891832C5.7651693346771244,8.1910849,5.782293534677124,8.194891,5.801320334677124,8.194891ZM5.987784134677124,8.2025013C6.027740734677124,8.2025013,6.069600334677124,8.1986961,6.109556934677124,8.1967936C6.067697734677124,8.1967936,6.025838134677124,8.2025013,5.987784134677124,8.2025013ZM6.364517434677124,8.1758642C6.309339334677124,8.1834755,6.254161134677124,8.1891832,6.200886034677124,8.194891C6.254161134677124,8.1910849,6.309339334677124,8.1834745,6.364517434677124,8.1758642ZM5.628175934677124,8.1720591C5.6072464346771245,8.1682529,5.586316834677124,8.1625452,5.565387234677123,8.15874C5.586316834677124,8.1625452,5.6072464346771245,8.1682529,5.628175934677124,8.1720591ZM5.468349934677124,8.1340046C5.447420334677124,8.1282969,5.426490734677124,8.1206865,5.407464034677124,8.1149788C5.428393634677124,8.1225891,5.447420334677124,8.1282969,5.468349934677124,8.1340046ZM5.319939834677124,8.0807304C5.300912834677124,8.0731192,5.281885834677124,8.0636063,5.262859334677124,8.055995C5.281886134677125,8.0655079,5.300913334677125,8.0731192,5.319939834677124,8.0807304ZM5.182946434677124,8.0122328C5.165822034677124,8.0027189,5.148697834677124,7.993206,5.133476234677124,7.9817896C5.148697834677124,7.993206,5.165822034677124,8.0027189,5.182946434677124,8.0122328ZM5.055465934677124,7.9247093C5.0421471346771245,7.9151959,5.028828334677124,7.905683,5.017411934677124,7.8942666C5.030730734677125,7.905683,5.044049534677124,7.9151959,5.055465934677124,7.9247093ZM29.710540934677123,7.0456662C29.710540934677123,7.0228343,29.714347934677125,6.9980989,29.714347934677125,6.9733639C29.714347934677125,6.9980989,29.712445934677124,7.0209312,29.710540934677123,7.0456662ZM29.699124934677123,7.1579251C29.695317934677124,7.1807575,29.691516934677125,7.2054925,29.687709934677123,7.2283244C29.691516934677125,7.2054925,29.695317934677124,7.1826596,29.699124934677123,7.1579251ZM29.712445934677124,6.7754841C29.712445934677124,6.7983165,29.712445934677124,6.8192463,29.712445934677124,6.8401761C29.712445934677124,6.8173442,29.712445934677124,6.7964139,29.712445934677124,6.7754841ZM29.723861934677124,4.0470247C29.723861934677124,3.9880419,29.721959934677123,3.9328637,29.716252934677122,3.8776855C29.704835934677124,3.7692323,29.682004934677124,3.6683896,29.649655934677124,3.5770605C29.617306934677124,3.4857314,29.571643934677123,3.4020128,29.516467934677124,3.3259053C29.265311934677126,2.9872265,28.789639934677123,2.8178866,28.087546934677125,2.8178866L22.739081934677124,2.8178866C22.739081934677124,2.8178866,28.087546934677125,2.8178866,28.087546934677125,2.8178866C28.789641934677125,2.8178866,29.265313934677124,2.9872265,29.516467934677124,3.3259053C29.571643934677123,3.4020128,29.617308934677123,3.4838285,29.649655934677124,3.5770605C29.683902934677125,3.6683896,29.704833934677126,3.7692323,29.716252934677122,3.8776855C29.721959934677123,3.932864,29.723861934677124,3.9880419,29.723861934677124,4.0470247ZM29.664878934677123,7.3272643C29.659169934677124,7.3481941,29.653460934677124,7.371026,29.645850934677124,7.3919563C29.653458934677126,7.371026,29.659169934677124,7.3500962,29.664878934677123,7.3272643ZM29.611602934677123,7.485188C29.603991934677126,7.5042148,29.596379934677124,7.5232425,29.586865934677125,7.5403666C29.596379934677124,7.5232425,29.603989934677124,7.5042152,29.611602934677123,7.485188ZM29.535495934677122,7.6316957C29.525981934677123,7.6450143,29.520274934677126,7.6602364,29.510760934677123,7.6735549C29.520274934677126,7.6602364,29.527882934677123,7.6450143,29.535495934677122,7.6316957ZM28.485207934677124,6.7336249C28.498528934677125,6.8306618,28.500430934677123,6.899159,28.498528934677125,6.9448237C28.431933934677122,6.9619479,28.312066934677123,6.9828777,28.114184934677123,6.9828777C27.986705934677126,6.9828777,27.842103934677123,6.9733644,27.686078934677123,6.9562402C27.640412934677123,6.9505324,27.596652934677124,6.9486294,27.550986934677123,6.9486294L23.956803934677126,6.9486294L23.956803934677126,4.0356083L28.087544934677123,4.0356083C28.298743934677123,4.0356083,28.430030934677124,4.0565386,28.506137934677124,4.0755649C28.506137934677124,4.1117163,28.500428934677124,4.1611862,28.490914934677125,4.2220721C28.479499934677126,4.2886667,28.473790934677123,4.3552613,28.473790934677123,4.4218545L28.473790934677123,6.5604801C28.473790934677123,6.6175609,28.477597934677124,6.6746416,28.485205934677126,6.7317228L28.485207934677124,6.7336249ZM27.842099934677123,8.1910858C27.769795934677123,8.1872807,27.691787934677123,8.1796694,27.615678934677124,8.17206C27.693690934677125,8.1796703,27.769795934677123,8.1872816,27.842099934677123,8.1910858ZM27.942940934677125,8.1948919L28.414809934677123,8.1853781C28.391976934677125,8.1872807,28.369143934677123,8.1910858,28.346310934677124,8.1910858C28.369143934677123,8.1910858,28.391976934677125,8.1872807,28.414809934677123,8.1853781L27.942940934677125,8.1948919ZM28.939954934677125,7.7991323C28.939954934677125,7.7991323,28.938050934677126,7.8010345,28.936147934677123,7.802938C28.936147934677123,7.802938,28.938048934677123,7.8010354,28.939954934677125,7.7991323ZM28.823888934677125,7.9018784C28.810569934677122,7.9113917,28.795348934677126,7.9209046,28.780127934677125,7.930419C28.793446934677124,7.9209056,28.808665934677123,7.9113917,28.823888934677125,7.9018784ZM28.688796934677125,7.9894018C28.669766934677124,7.9989147,28.650742934677123,8.0084276,28.631715934677125,8.0179424C28.650742934677123,8.0084286,28.669766934677124,7.9989157,28.688796934677125,7.9894018ZM28.534678934677125,8.0617037C28.513749934677126,8.0712166,28.490918934677126,8.0788279,28.468083934677125,8.0864391C28.490914934677125,8.0788279,28.513749934677126,8.0712166,28.534678934677125,8.0617037ZM28.361531934677124,8.1206884C28.336797934677126,8.1282988,28.313964934677124,8.1340065,28.287328934677124,8.1397142C28.312064934677124,8.1340065,28.336797934677126,8.1263962,28.361531934677124,8.1206884ZM28.165555934677123,8.1644497C28.140820934677123,8.1682549,28.116088934677123,8.1739626,28.089450934677124,8.1777687C28.116088934677123,8.1739626,28.140822934677125,8.1682549,28.165555934677123,8.1644497ZM28.945660934677125,9.698019C28.841012934677124,9.7208509,28.734462934677126,9.7398777,28.620299934677124,9.7531967C28.732556934677124,9.7379761,28.841012934677124,9.7189484,28.945660934677125,9.698019ZM29.280534934677124,9.608592C29.179690934677122,9.6409378,29.075042934677125,9.6694784,28.966590934677125,9.6942129C29.076947934677126,9.6694784,29.181594934677126,9.6409388,29.280534934677124,9.608592ZM29.822800934677122,9.3612432C29.773333934677122,9.3916855,29.720055934677124,9.4183235,29.668683934677123,9.4449606C29.721959934677123,9.4183235,29.773333934677122,9.3916855,29.822800934677122,9.3612432ZM29.565936934677126,9.4963331C29.505048934677124,9.5248737,29.438456934677124,9.5477066,29.373767934677122,9.5724421C29.440362934677125,9.5477066,29.505051934677123,9.5248737,29.565936934677126,9.4963331ZM3.925269334677124,9.5743437C3.864383234677124,9.5496092,3.805399934677124,9.5248737,3.748318934677124,9.4963331C3.805399634677124,9.5248737,3.864383234677124,9.5496092,3.925269334677124,9.5743437ZM3.660795334677124,9.4468641C3.611325334677124,9.4202261,3.5637580346771243,9.3916855,3.518093434677124,9.3612432C3.5637580346771243,9.3916855,3.6132280346771237,9.4202261,3.660795334677124,9.4468641ZM3.053836734677124,8.9236231C3.0233936346771237,8.883667,2.9929505346771244,8.8418083,2.9644100346771243,8.7999487C2.992950334677124,8.8437099,3.0233936346771237,8.883666,3.053836734677124,8.9236231ZM2.901621334677124,8.7010088C2.874983634677124,8.655344,2.850248534677124,8.6096802,2.825513734677124,8.5621128C2.850248734677124,8.6096802,2.874983834677124,8.6572475,2.901621334677124,8.7010088ZM2.7722381346771243,8.4517565C2.749405834677124,8.4022865,2.728476344677124,8.3490114,2.709449474677124,8.2976379C2.728476344677124,8.350913,2.749405834677124,8.4022856,2.7722381346771243,8.4517565ZM2.667590204677124,8.1777697C2.648563204677124,8.1225901,2.633341674677124,8.0636082,2.618120134677124,8.0046244C2.633341674677124,8.0636082,2.650465964677124,8.1225901,2.667590204677124,8.1777697ZM2.585774364677124,7.8790464C2.572455584677124,7.8162575,2.561039384677124,7.7496634,2.549623314677124,7.6830697C2.561039564677124,7.7496634,2.572455584677124,7.816258,2.585774364677124,7.8790464ZM2.526790854677124,7.5555887C2.517277414677124,7.4794812,2.509666624677124,7.4014707,2.5020558246771243,7.321558C2.509666624677124,7.4014707,2.515374664677124,7.4794817,2.526790854677124,7.5555887ZM3.126138834677124,9.0111485C3.160387234677124,9.049202,3.194635734677124,9.0853529,3.230786534677124,9.1215048C3.194635434677124,9.0853539,3.158484534677124,9.049202,3.126138834677124,9.0111485ZM3.4324722346771237,9.2965517C3.390613234677124,9.2642069,3.348753734677124,9.2337627,3.3107001346771243,9.1995153C3.348754034677124,9.2337637,3.390613234677124,9.2661085,3.4324722346771237,9.2965517ZM5.045954434677125,9.7912512C5.112548834677124,9.7931538,5.179142934677124,9.7950573,5.249542234677124,9.7950573C5.2362234346771235,9.7950573,5.222904934677124,9.7950573,5.209585934677124,9.7950573C5.152505434677124,9.7950573,5.101132634677124,9.7912512,5.045954434677125,9.7893496L5.045954434677125,9.7912512ZM4.6920535346771235,9.7646132C4.762453534677125,9.774127,4.834755434677124,9.7817383,4.908960334677124,9.787446C4.834755434677124,9.7817383,4.762453034677124,9.774127,4.6920535346771235,9.7646132ZM5.687161434677124,9.7760296L27.345496934677126,9.7760296C27.484391934677124,9.7855434,27.619483934677124,9.7912512,27.750771934677125,9.7931538C27.619483934677124,9.7912512,27.486296934677124,9.7855434,27.345496934677126,9.7760296L6.162832034677124,9.7760296L5.687161434677124,9.7760296ZM27.830683934677126,9.7950573C27.920110934677123,9.7950573,28.003827934677123,9.7950573,28.089450934677124,9.7912512C28.026658934677123,9.7912512,27.965775934677126,9.7969589,27.901080934677125,9.7969589C27.878249934677125,9.7969589,27.855414934677125,9.7969589,27.832583934677125,9.7969589L27.830683934677126,9.7950573ZM28.496625934677123,9.7646132C28.414811934677125,9.7722244,28.332993934677123,9.7817383,28.247372934677124,9.787446C28.332993934677123,9.7817383,28.414811934677125,9.774127,28.496625934677123,9.7646132ZM30.140551934677124,9.1215038C30.178603934677124,9.0872555,30.216656934677125,9.0511045,30.250907934677123,9.013051C30.216660934677122,9.0511045,30.178603934677124,9.0853529,30.140551934677124,9.1215038ZM29.921742934677123,9.2946482C29.965503934677123,9.2642059,30.011168934677123,9.2337627,30.053027934677125,9.1995144C30.011168934677123,9.2337627,29.967408934677124,9.2642059,29.921742934677123,9.2946482Z" fill="#FF6D6D" fill-opacity="1" style="mix-blend-mode:passthrough"/></svg>