<svg xmlns="http://www.w3.org/2000/svg" xmlns:xlink="http://www.w3.org/1999/xlink" fill="none" version="1.1" width="30" height="30" viewBox="0 0 30 30"><defs><mask id="master_svg0_45_4715" style="mask-type:alpha" maskUnits="objectBoundingBox"><g><g><rect x="0" y="0" width="30" height="29.251405715942383" rx="0" fill="#000000" fill-opacity="1" style="mix-blend-mode:passthrough"/></g></g></mask></defs><g mask="url(#master_svg0_45_4715)"><g><g><path d="M27.578196336978756,22.096775405055045C27.578196336978756,22.539728405055047,27.937407336978755,22.898868405055048,28.380450336978758,22.898868405055048C28.823492336978756,22.898868405055048,29.182707336978755,22.539728405055047,29.182707336978755,22.096775405055045C29.182707336978755,21.653822405055045,28.823492336978756,21.294681405055044,28.380450336978758,21.294681405055044C27.937407336978755,21.294681405055044,27.578196336978756,21.653822405055045,27.578196336978756,22.096775405055045ZM28.380450336978758,18.286823405055046C28.380450336978758,18.729778405055047,28.739663336978754,19.088918405055047,29.182707336978755,19.088918405055047C29.625748336978756,19.088918405055047,29.984963336978755,18.729778405055047,29.984963336978755,18.286823405055046C29.984963336978755,17.843870405055046,29.625748336978756,17.484727405055047,29.182707336978755,17.484727405055047C28.739663336978754,17.484727405055047,28.380450336978758,17.843870405055046,28.380450336978758,18.286823405055046ZM20.157325336978758,7.458540005055046C20.558453336978758,7.458540005055046,20.959581336978758,7.156971005055046,20.959581336978758,6.656444805055046C20.959581336978758,6.155918905055046,20.657951336978755,5.854349905055046,20.157325336978758,5.854349905055046L18.953940336978754,5.854349905055046L20.657951336978755,4.250160005055046C20.959581336978758,3.948982645055046,21.059078336978757,3.448064845055046,20.657951336978755,3.146887765055046C20.256823336978755,2.846493845055046,19.956367336978758,2.946363898055046,19.555631336978756,3.247541295055046L17.148862636978755,5.552781405055046L14.841983136978756,3.247541295055046C14.541919936978756,2.946363898055046,14.039726536978755,2.846493845055046,13.638598736978757,3.146887765055046C13.237470836978755,3.448065175055046,13.438034736978757,4.049636205055046,13.739272336978756,4.350030305055046L15.343784536978756,5.9542203050550455L14.140400136978755,5.9542203050550455C13.926517736978756,5.9510873050550455,13.720861236978756,6.034508305055046,13.569654236978757,6.185684505055046C13.418448736978757,6.336860505055046,13.335010336978755,6.542475705055046,13.338143636978756,6.756315005055046C13.338143636978756,7.258016105055046,13.638206236978757,7.558410205055046,14.140400136978755,7.558410205055046L16.446104336978756,7.558410205055046L16.446104336978756,8.862205505055046L14.140401636978755,8.862205505055046C13.926519136978756,8.859072705055045,13.720862636978756,8.942493505055047,13.569655236978756,9.093670405055047C13.418449636978757,9.244845905055046,13.335011736978757,9.450461405055046,13.338145036978755,9.664301405055046C13.338145036978755,10.165219305055047,13.638207636978755,10.466396405055047,14.140401636978755,10.466396405055047L16.446104336978756,10.466396405055047L16.446104336978756,11.268491805055046C16.446104336978756,11.669539505055045,16.747733836978757,12.070588205055046,17.248361336978753,12.070588205055046C17.649488236978755,12.070588205055046,18.050617936978757,11.769410205055046,18.050617936978757,11.268491805055046L18.050617936978757,10.466396405055047L20.256823336978755,10.466396405055047C20.657951336978755,10.466396405055047,21.059078336978757,10.164826905055046,21.059078336978757,9.664301405055046C21.059078336978757,9.163776405055046,20.758625336978756,8.862207005055046,20.256823336978755,8.862207005055046L18.050617936978757,8.862207005055046L18.050617936978757,7.4585410050550465L20.156933336978756,7.4585410050550465L20.157325336978758,7.458540005055046ZM8.524609336978756,16.180933405055047C8.524609336978756,16.682633405055046,8.725173216978757,16.883157405055044,8.925737716978755,16.883157405055044C9.426755856978756,16.883157405055044,9.527429936978756,16.782502405055048,9.627320336978755,16.581588405055044C9.727994436978756,15.980016405055046,9.928558236978756,15.479099405055045,10.730814436978756,15.479099405055045C11.533071036978756,15.479099405055045,11.632961036978756,15.880145405055046,11.833132736978756,16.581588405055044C11.833132736978756,16.782110405055047,12.033696636978757,16.883157405055044,12.234260336978757,16.883157405055044L12.535890336978756,16.883157405055044C12.535890336978756,16.883157405055044,12.635389536978757,16.883157405055044,12.736454236978755,16.782502405055048C12.836344036978755,16.682633405055046,12.937018636978756,16.482108405055044,12.937018636978756,16.180933405055047C12.937018636978756,15.378836405055045,12.234652536978755,14.276348405055046,10.730813236978756,14.376217405055046C9.326864846978756,14.476871405055046,8.524608141523755,15.479491405055047,8.524609336978756,16.180933405055047Z" fill="#F95F5F" fill-opacity="1" style="mix-blend-mode:passthrough"/></g><g><path d="M27.17651199945434,22.998329554224966C26.87527499945434,22.998329554224966,26.674709999454343,23.098981554224967,26.57481999945434,23.299898554224967C26.57481999945434,23.299898554224967,25.57199899945434,24.703567554224968,23.26512199945434,26.00657855422497L23.26512199945434,27.610771554224968L20.758463999454342,27.610771554224968C20.758463999454342,27.610771554224968,20.456833999454343,26.608150554224967,19.654968999454344,26.307754554224967C18.752823999454343,26.006185554224967,18.15113099945434,26.70880155422497,18.15113099945434,26.70880155422497L13.036354999454343,26.70880155422497C12.735899999454341,26.50827555422497,12.535335999454341,26.207099554224968,11.733080999454343,26.307754554224967C10.830150999454341,26.50827555422497,10.228457999454342,27.71142155422497,10.228457999454342,27.71142155422497L8.222817199454342,27.71142155422497L8.222817199454342,25.50565955422497C6.818868899454342,24.803434554224967,5.013792799454341,23.399375554224967,4.512773799454342,21.59505455422497C4.1116458994543414,20.792961554224966,3.4088883994543417,20.592439554224967,2.807195899454342,20.49256755422497C2.406067599454342,20.49256755422497,2.004939299454342,20.292043554224968,1.6038111994543418,20.39191255422497L1.6038111994543418,16.381435554224968L3.1084339994543417,16.381435554224968C4.010188799454342,16.381435554224968,4.311818399454342,15.680386554224969,4.712945699454342,14.878290554224968C5.114073999454342,13.373579554224968,5.6147009994543415,12.370961554224968,6.416958099454342,11.469387554224967C6.818085899454342,10.967684554224968,7.319887899454342,10.566637554224968,7.8209063994543415,10.266243554224967L7.8209063994543415,7.859959654224968L9.125356399454342,7.859959654224968C9.125356399454342,9.363494954224969,9.024290799454342,10.967684554224968,10.628802999454342,13.373970554224968L23.967098999454343,13.373970554224968C24.066595999454343,13.173446554224968,24.167661999454342,12.972923554224968,24.26755199945434,12.672921554224969C24.46811599945434,12.271874554224969,24.66868099945434,11.670302554224968,24.869241999454342,10.967684554224968C26.775385999454343,12.472004554224968,28.278831999454344,14.176065554224968,28.47939399945434,17.485099554224966L28.47939399945434,18.28719555422497L29.98401699945434,18.28719555422497C29.98401699945434,13.274101554224968,27.07544599945434,10.766769554224968,25.270366999454343,9.363103954224968C25.371042999454342,8.661663054224968,25.371042999454342,8.060092054224969,25.371042999454342,7.458911954224968C25.270366999454343,4.050007854224968,22.162018999454343,0.24005618422496797,17.64854099945434,0.03953260222496796C12.334376999454342,-0.261644705775032,9.727043899454342,3.6489606542249677,9.224850399454342,6.456293654224968C8.924397199454342,6.456293654224968,8.523268499454343,6.556163354224968,8.122140699454341,6.456293654224968C7.619948199454342,6.255769754224968,6.617519199454342,5.954592254224968,6.015825999454342,6.055245954224968C6.1165005994543415,6.857340854224968,6.1165005994543415,7.659435354224968,6.216389899454342,8.461531654224968L6.317064499454342,9.664673854224969C5.915935799454342,9.964675954224967,5.4141337994543415,10.366115554224969,5.013005499454342,10.867815554224968C4.311423599454342,11.769781554224968,3.509166999454342,12.972923554224968,3.007364999454342,14.878290554224968L1.5035261994543418,14.878290554224968C0.8011602894543418,14.878290554224968,-0.0010960005456581712,15.279337554224968,-0.0010960005456581712,16.081432554224968L-0.0010960005456581712,20.792959554224968C-0.0010960005456581712,21.49518355422497,0.7012699294543419,21.896230554224967,1.102789899454342,21.896230554224967L2.907866999454342,21.896230554224967C3.007757399454342,22.297279554224968,3.208321299454342,22.898849554224967,3.408884999454342,23.399375554224967C3.911078699454342,24.302124554224967,4.812833999454342,25.20409055422497,6.518411899454342,26.40723255422497L6.518411899454342,28.112073554224967C6.518411899454342,28.81351455422497,6.9195401994543415,29.11469255422497,7.620730599454342,29.21456555422497L11.230882999454343,29.21456555422497C11.532513999454341,29.21456555422497,12.233703999454342,29.21456555422497,12.334768999454342,28.112073554224967L18.752817999454344,28.112073554224967C18.85271099945434,28.312599554224967,18.85271099945434,28.513122554224967,18.95338299945434,28.612993554224968C19.15394699945434,28.91456255422497,19.354511999454342,29.115083554224967,19.855137999454342,29.115083554224967L23.46529299945434,29.115083554224967C23.46529299945434,29.115083554224967,24.668674999454343,29.214563554224966,24.569177999454343,27.711416554224968L24.569177999454343,26.708799554224967C25.571996999454342,26.10722955422497,26.37425499945434,25.505657554224967,27.075443999454343,24.70356155422497C27.17611799945434,24.602907554224966,27.27600899945434,24.40238355422497,27.476574999454343,24.302515554224968C27.60231699945434,24.16543755422497,27.673610999454343,23.986845554224967,27.677131999454343,23.80081355422497C27.97876399945434,23.399765554224967,27.677131999454343,22.99871855422497,27.17611799945434,22.99871855422497L27.17651199945434,22.998329554224966ZM10.530084999454342,7.357473454224968C10.629583999454342,5.453281454224968,12.835788999454342,1.041757854224968,17.649326999454342,1.341759754224968L17.95095699945434,1.341759754224968C21.05930599945434,1.542283454224968,23.76731399945434,4.550139954224968,23.967878999454342,7.357473454224968C24.06737599945434,9.162187654224969,23.76731399945434,10.265458554224969,23.366186999454342,10.966901554224968Q23.16562199945434,11.367948554224968,22.96505799945434,11.869648554224968L11.632795999454341,11.869648554224968C11.432232999454342,11.669125554224967,11.332340999454342,11.468602554224969,11.131777999454341,11.067554554224968C10.730649999454341,10.365329554224967,10.429018999454343,9.362319054224969,10.530084999454342,7.357473454224968Z" fill="#F95F5F" fill-opacity="1" style="mix-blend-mode:passthrough"/></g></g></g></svg>