<svg xmlns="http://www.w3.org/2000/svg" xmlns:xlink="http://www.w3.org/1999/xlink" fill="none" version="1.1" width="32" height="33" viewBox="0 0 32 33"><path d="M31.504202,9.8707104C31.505764,9.8487825,31.507334,9.8237219,31.507334,9.7970953L31.507334,6.0160899C31.504202,2.7002707,28.803932,0.0015660194,25.489677,0L6.0740423,0C2.7284636,0.0031325645,0.0031325645,2.7284636,0,6.0724764L0,26.922825C0.0031325645,30.268404,2.7268975,32.993732,6.0709095,33L25.870283,33C28.974653,32.995304,31.502636,30.465757,31.507334,27.362949L31.507334,23.94219C31.507334,23.055674,30.786844,22.335186,29.900328,22.335186C29.013815,22.335186,28.293325,23.055676,28.293325,23.94219L28.293325,27.362949C28.29019,28.695854,27.20319,29.782854,25.868719,29.784422L6.0740423,29.784422C4.4967961,29.784422,3.214011,28.500072,3.214011,26.921259L3.214011,6.0740423C3.2155774,4.4983625,4.499929,3.2155774,6.0756087,3.214011L25.491243,3.214011C27.037163,3.214011,28.294888,4.4733014,28.296455,6.0192227L28.296455,9.7391434C28.296455,9.7563725,28.294891,9.7767344,28.294891,9.7986612C28.291756,12.60544,26.004986,14.892211,23.198208,14.895345L17.166458,14.895345L18.890934,13.169301C18.906597,13.153638,18.920694,13.137976,18.934788,13.122313C19.512749,12.494232,19.497084,11.509041,18.889368,10.899757C18.889368,10.899757,18.883101,10.893492,18.883101,10.893492C18.582376,10.594332,18.18454,10.429873,17.761644,10.428307C17.761644,10.428307,17.758512,10.428307,17.758512,10.428307C17.601883,10.428307,17.440556,10.453367,17.280796,10.503489C17.031757,10.580236,16.804646,10.714936,16.624523,10.891927L12.945327,14.57269C12.934362,14.582088,12.923399,14.596185,12.909302,14.610281C12.903036,14.616546,12.896771,14.62281,12.892073,14.629076C12.835686,14.687029,12.787131,14.743415,12.741709,14.7998C12.730745,14.812331,12.721348,14.826427,12.711949,14.838958C12.661829,14.903176,12.619539,14.961127,12.581948,15.01908C12.570984,15.034742,12.561586,15.051971,12.550623,15.069201C12.522429,15.114624,12.483273,15.177275,12.447248,15.249324C12.436283,15.269685,12.426887,15.290047,12.417488,15.311975L12.42062,15.30571C12.395558,15.357398,12.3658,15.42005,12.337607,15.488965C12.32821,15.512459,12.318811,15.535954,12.310981,15.561014C12.293751,15.608003,12.271824,15.667521,12.251462,15.734872C12.24363,15.761497,12.237366,15.78969,12.229534,15.816318L12.229534,15.825714C12.229534,15.825714,12.224835,15.835112,12.224835,15.835112C12.212305,15.885233,12.199775,15.935354,12.190377,15.987041C12.184113,16.016802,12.179413,16.048126,12.176281,16.079453L12.176281,16.091984C12.176281,16.091984,12.171582,16.109213,12.171582,16.109213C12.165318,16.153067,12.159052,16.196922,12.154353,16.242346C12.151221,16.276804,12.149655,16.312826,12.148088,16.347284L12.148088,16.362947C12.148088,16.362947,12.146522,16.380177,12.146522,16.380177C12.144955,16.419334,12.14339,16.45849,12.14339,16.49765C12.14339,16.536806,12.144957,16.575962,12.146522,16.61512L12.146522,16.632349C12.146522,16.632349,12.148088,16.649578,12.148088,16.649578C12.148088,16.685602,12.15122,16.72006,12.154353,16.756084C12.159052,16.79994,12.165318,16.843798,12.171582,16.887653L12.174715,16.903316L12.174715,16.91741C12.18098,16.948736,12.185678,16.980062,12.191944,17.011387C12.201342,17.061508,12.213872,17.111629,12.226402,17.161751L12.229534,17.171148L12.229534,17.180546C12.238932,17.208738,12.245196,17.235365,12.253029,17.263559C12.27339,17.330908,12.295319,17.391994,12.310981,17.435848C12.320379,17.462475,12.328211,17.487537,12.339175,17.51103C12.365801,17.576815,12.392427,17.634768,12.419056,17.688021C12.430019,17.711514,12.439417,17.73031,12.448815,17.750673C12.478575,17.807058,12.5099,17.863445,12.552191,17.930796C12.563154,17.948025,12.572552,17.965254,12.583516,17.980915C12.621106,18.037302,12.663397,18.096821,12.711951,18.161037C12.721348,18.175135,12.730746,18.187666,12.74171,18.200195C12.787133,18.256582,12.835687,18.312967,12.892074,18.37092C12.898339,18.37875,12.90617,18.386581,12.912435,18.392847C12.924965,18.406942,12.937496,18.419474,12.950025,18.432005L16.619825,22.104937C16.80308,22.286627,17.03019,22.419758,17.27923,22.498074C17.43429,22.546627,17.590919,22.57169,17.744415,22.573254C17.749113,22.573254,17.753813,22.573254,17.756947,22.573254C18.182974,22.57169,18.580811,22.407228,18.881536,22.109632C18.884668,22.106501,18.890934,22.100237,18.894068,22.097101C19.500217,21.489384,19.512749,20.499495,18.930092,19.871416C18.917561,19.857319,18.905031,19.84479,18.892502,19.830692L17.168024,18.106216L23.201344,18.106216C27.746696,18.101515,31.463484,14.412922,31.507338,9.8722696L31.504202,9.8707104ZM17.753809,11.288197C17.728746,11.288197,17.702122,11.291327,17.677061,11.294461C17.702124,11.291329,17.727182,11.288197,17.752243,11.288197L17.753809,11.288197ZM17.641037,11.297593C17.603447,11.303859,17.567421,11.313256,17.531397,11.32422C17.567421,11.313256,17.603447,11.303859,17.641037,11.297593ZM17.752243,21.708672C17.72718,21.708672,17.702122,21.70554,17.677059,21.70241C17.702122,21.705542,17.728746,21.708672,17.753807,21.708672L17.752243,21.708672ZM17.531395,21.672649C17.567421,21.683615,17.605011,21.69301,17.641035,21.699276C17.603445,21.69301,17.567419,21.683613,17.531395,21.672649Z" fill="#C9985A" fill-opacity="1" style="mix-blend-mode:passthrough"/></svg>