<svg xmlns="http://www.w3.org/2000/svg" xmlns:xlink="http://www.w3.org/1999/xlink" fill="none" version="1.1" width="94" height="33" viewBox="0 0 94 33"><g><g><g><path d="M81.9576336875,4.733830022521973L20.0692366875,4.733830022521973L18.6906186875,1.7274415225219726C18.4912986875,1.2789748325219725,18.0926646875,0.9467772525219726,17.6275826875,0.7972883125219726C17.2123336875,0.6145796555219727,16.7140366875,0.5979697515219726,16.2821846875,0.7640685825219726C15.8171106875,0.9301673725219727,15.4350866875,1.2789748325219725,15.2523716875,1.7108316225219726L11.3158286875,10.048992122521973C11.2826046875,10.115432722521973,11.2327776875,10.165261222521973,11.1497296875,10.181869522521973L2.3631040875,11.527271022521973C1.9644679875,11.577100022521973,1.5824377575000002,11.759809022521972,1.3000728475,12.058785022521972C0.9678752575,12.407593022521972,0.7685546875,12.872672022521973,0.7685546875,13.354359022521972C0.7685546875,13.836045022521972,0.9678752575,14.317731022521972,1.3166785875,14.666537022521972L7.8443588875,21.260661022521973C7.8941859875,21.32709602252197,7.9274081875,21.393538022521973,7.9108023875,21.476588022521973L6.4159130875,30.695071022521972C6.3162579875,31.060489022521974,6.3162579875,31.442513022521972,6.4325189875,31.79132602252197L6.4657411875,31.874375022521974L6.5155677875,31.940814022521973C6.8643722875,32.53876802252197,7.4955558875,32.887574022521974,8.1433348875,32.887574022521974C8.4423102875,32.887574022521974,8.7412857875,32.821137022521974,9.0236549875,32.67164302252197L16.8303016875,28.336465022521974C16.8967436875,28.303248022521974,16.9631766875,28.303248022521974,17.0130026875,28.336465022521974L24.8030416875,32.65503802252197L24.8362636875,32.67164302252197C25.2016826875,32.85436002252197,25.6169266875,32.92079302252197,25.9989546875,32.85436002252197C26.4806446875,32.787919022521976,26.9291036875,32.50554602252197,27.2114736875,32.10690802252198C27.4938446875,31.708274022521973,27.6101146875,31.209981022521973,27.5270656875,30.72829002252197L27.2114736875,28.784936022521972L81.9576266875,28.784936022521972C88.5849766875,28.784936022521972,93.9997936875,23.370116022521973,93.9997936875,16.742774022521974C93.9997936875,10.148650122521973,88.5849766875,4.733830022521973,81.9576336875,4.733830022521973ZM25.8660886875,31.16015002252197C25.8328646875,31.193368022521973,25.7996406875,31.226584022521973,25.7498146875,31.226584022521973C25.6999876875,31.243199022521974,25.6501596875,31.226584022521973,25.6003226875,31.209975022521974L17.8102856875,26.891406022521974C17.2621626875,26.59243102252197,16.5977666875,26.59243102252197,16.0496426875,26.891406022521974L8.2596063875,31.209975022521974C8.1765565875,31.24319602252197,8.0935072875,31.24319602252197,8.0270633875,31.193362022521974C8.0270633875,31.17675302252197,8.0270633875,31.16014602252197,8.0436691875,31.143535022521974L8.060275087499999,31.07709602252197L9.5717696875,21.709125022521974L9.5717696875,21.675902022521974C9.6382131875,21.111167022521972,9.4554986875,20.529822022521973,9.0734729875,20.114575022521972L2.4959607875,13.470623022521973C2.4627388875,13.437405022521972,2.4461329875,13.387574022521973,2.4461329875,13.337744022521973C2.4461329875,13.287914022521973,2.4627440875,13.238085022521973,2.4959607875,13.204865022521973L2.5291823874999997,13.171645022521973C2.5457932875,13.155035022521973,2.5624042874999997,13.155035022521973,2.5790100875,13.155035022521973L11.4320796875,11.809636022521973L11.4486836875,11.809636022521973C12.0466356875,11.709976022521973,12.5615476875,11.311338022521973,12.8273016875,10.746603022521972L16.7638456875,2.3918338225219724C16.7804506875,2.3586142225219726,16.8136726875,2.3253944225219727,16.8634986875,2.3087845225219725C16.9133276875,2.2921744225219727,16.9465486875,2.2921744225219727,16.9963776875,2.3087845225219725L17.0794256875,2.342004322521973L17.1624776875,2.3586142225219726C17.1790826875,2.3586142225219726,17.1956976875,2.375224022521973,17.1956976875,2.3918338225219724L21.0159706875,10.746603022521972C21.2817246875,11.294730022521973,21.7966386875,11.693365022521972,22.3945886875,11.793025022521972L31.2144276875,13.138427022521972C31.2974776875,13.155035022521973,31.3473076875,13.204866022521973,31.3805296875,13.271306022521973C31.3971326875,13.337747022521972,31.3971326875,13.420794022521973,31.3473076875,13.470623022521973L24.9192806875,20.06474802252197L24.9026776875,20.081357022521974C24.5206506875,20.49660002252197,24.3379366875,21.077952022521973,24.4043806875,21.64268602252197L25.9158746875,30.977439022521974C25.8992686875,31.07709602252197,25.8826526875,31.126924022521973,25.8660886875,31.16015002252197Z" fill="#F95F5F" fill-opacity="1" style="mix-blend-mode:passthrough"/></g><g><path d="M13.060546875,23.868365577209474L16.930646175,16.576627777209474C17.246237775,15.962063277209474,17.462164375,15.513595577209472,17.561819575,15.198008077209472C17.661474675,14.882420077209472,17.711312275,14.583442877209473,17.711312275,14.284464077209472C17.711312275,13.952266977209472,17.628262975,13.703118777209472,17.478770275,13.503800677209473C17.329277474999998,13.304482177209472,17.113351375,13.204822077209473,16.847596875,13.204822077209473C16.532005075,13.204822077209473,16.299473075,13.354311277209472,16.133374175,13.636678977209472C15.967275175000001,13.919046377209472,15.884225875,14.334293377209473,15.884225875,14.849200477209472L15.884225875,15.131567977209473L13.475793805,15.131567977209473L13.475793805,14.815979977209473C13.475793805,13.620068977209472,13.774769545,12.689914977209472,14.356115175,12.058740197209472C14.937460975,11.427564267209473,15.784560675,11.111977577209473,16.880818575,11.111977577209473C17.977076574999998,11.111977577209473,18.757732875000002,11.394345017209472,19.339077975000002,11.942471567209473C19.920424475,12.507207677209472,20.202794575,13.287871377209473,20.202794575,14.317684377209472C20.202794575,14.865811377209473,20.119745275,15.397326477209472,19.937039875,15.945454077209472C19.770941275,16.476969277209474,19.405522375,17.224413377209473,18.840791675,18.154568177209473L16.864212775,21.559594577209474L19.853991075,21.559594577209474L19.853991075,23.868365577209474L13.060546875,23.868365577209474Z" fill="#F95F5F" fill-opacity="1" style="mix-blend-mode:passthrough"/></g></g><g><g><path d="M40.3671737,16.676323915234377L40.3671737,18.486801115234375C41.2474957,17.922064315234376,41.9783344,17.340718315234376,42.5762863,16.709544615234375L43.2905083,17.440379115234375C42.460014799999996,18.320703015234375,41.546471600000004,19.051537515234376,40.3671737,19.715932815234375L40.3671737,19.832200515234376C40.3671737,20.396937415234376,40.500051,20.446765915234373,40.965126,20.479986215234376C41.3969789,20.513205515234375,41.8122258,20.513205515234375,42.2440886,20.479986215234376C42.808828399999996,20.446765915234373,42.8752613,20.280668215234375,42.9749269,19.765760415234375C43.0247555,19.549832315234376,43.0579767,19.250855015234375,43.0579767,18.951876115234377L44.071175600000004,19.317293615234377C44.0545692,19.549832315234376,44.021347,19.832200015234374,43.9549046,20.214228615234376C43.738977399999996,21.194210015234376,43.4898291,21.476579715234376,42.4267931,21.526408215234376C41.8454475,21.559625615234374,41.2641015,21.559625615234374,40.682755900000004,21.526408215234376C39.8688674,21.476576815234374,39.3539658,21.277257915234372,39.320744,20.280665415234374C38.6729546,20.596253415234376,37.958731900000004,20.911842315234374,37.1780653,21.194209115234376L36.7462127,20.280665415234374C36.3475716,20.778963115234376,35.8824968,21.260649715234376,35.35097879,21.775554615234377L34.5703125,20.928449615234374C36.1482508,19.533221215234377,36.978745,18.337309815234377,37.3939917,16.692932115234374L34.83606648,16.692932115234374L34.83606648,15.679729715234375L37.593302,15.679729715234375C37.6431296,15.297701815234376,37.7095735,14.699746615234375,37.7594008,14.284499415234375L38.8722644,14.350939015234374C38.8224373,14.749576315234375,38.7559938,15.297701815234376,38.7061663,15.679729715234375L41.0481553,15.679729715234375C40.765785199999996,15.364141415234375,40.4003654,14.982114815234375,40.1346111,14.732966915234375L40.8488345,14.101791415234375C41.2640815,14.450598015234375,41.7789841,15.031944315234375,42.0613537,15.347532015234375L41.6959338,15.679729715234375L44.2372437,15.679729715234375L44.2372437,16.692932115234374L40.3671737,16.676323915234377ZM36.2645323,15.114994515234375L35.18489009,15.114994515234375L35.18489009,12.939100615234375L38.971940000000004,12.939100615234375C38.8722854,12.606903135234376,38.7726197,12.291315105234375,38.6895704,12.042166885234375L39.8024344,11.876068115234375C39.9020896,12.175046445234376,40.034976,12.540463205234374,40.1512375,12.939100615234375L43.8054094,12.939100615234375L43.8054094,15.114994515234375L42.725769,15.114994515234375L42.725769,13.985522315234375L36.2645222,13.985522315234375L36.2645323,15.114994515234375ZM39.3207541,16.676323915234377L38.5068657,16.676323915234377C38.20789,18.005114115234374,37.6929777,19.084756415234374,36.8790998,20.131178815234374C37.7594211,19.832200015234374,38.5733089,19.466783015234377,39.3207541,19.084754515234376L39.3207541,16.676323915234377Z" fill="#FFFFFF" fill-opacity="1" style="mix-blend-mode:passthrough"/></g><g><path d="M54.7508878375,13.420780669921875C54.7010593375,13.885857869921875,54.5349617375,19.450167169921876,54.4851331375,19.898634869921874C54.4020853375,21.028105769921876,53.9203939375,21.310472469921876,52.7909236375,21.393523169921878L51.8773803375,21.459961869921877L51.5617885375,20.430148169921875L52.4919376375,20.363709469921876C53.2393818375,20.313879969921874,53.471924737500004,20.181001669921876,53.5383577375,19.416946369921874C53.5383577375,19.001699969921873,53.7875061375,14.832620669921875,53.7875061375,14.433983069921876L53.3224315375,14.433983069921876C52.8573565375,17.540031469921875,52.1597399375,19.416946369921874,49.8011360375,21.576230969921873L49.1367402375,20.778954469921874C51.2461962375,18.918649669921876,52.0268626375,17.041732769921875,52.475321737499996,14.433981869921876L51.8109269375,14.433981869921876C51.3790741375,16.593265969921873,50.6150131375,18.021715669921875,48.9208037375,19.666092869921876L48.2730143375,18.852209569921875C49.7346816375,17.523419869921874,50.5153470375,16.227848569921875,50.9139881375,14.433981869921876L50.1997661375,14.433981869921876C49.9007907375,15.015327669921875,49.5685930375,15.580063769921875,49.1865675375,16.111579369921877L48.4059014375,15.447184569921875C48.5221727375,15.281085469921875,48.6550495375,15.114986669921874,48.7879266375,14.915668469921876L48.0238764375,14.915668469921876L48.0238764375,16.809195469921875L49.0370745375,16.410557769921876L49.1367299375,17.456980669921876L48.0238659375,17.922057669921877L48.0238659375,21.675890169921875L47.0771011375,21.675890169921875L47.0771011375,18.304084269921873C46.3462623375,18.603063069921873,45.6818671475,18.868821169921876,45.5157684375,18.951869969921873L45.2333984375,17.872228169921875C45.4659407875,17.822397269921876,46.2465969375,17.506810669921876,47.0604851375,17.191223169921876L47.0604851375,14.915669669921876L46.4625334375,14.915669669921876C46.3794843375,15.613284369921875,46.2798289375,16.277679969921877,46.1635577075,16.859024969921876L45.2500144005,16.692926869921877C45.5157684375,15.513625369921876,45.6818671475,13.968906169921874,45.7815325875,12.656725269921875L46.6950757375,12.739774669921875L46.5954206375,13.885856669921875L47.0604952375,13.885856669921875L47.0604952375,11.776402439921876L48.007260037500004,11.826232599921875L48.007260037500004,13.885857869921875L48.9041979375,13.885857869921875L48.9041979375,14.683132869921875C49.4689378375,13.769589169921876,49.9340124375,12.706556669921875,50.2495942375,11.643524169921875L51.2129650375,11.925891609921875C51.0302600375,12.457407239921874,50.8641615375,12.939094069921875,50.6482243375,13.420780669921875L54.7508878375,13.420780669921875Z" fill="#FFFFFF" fill-opacity="1" style="mix-blend-mode:passthrough"/></g><g><path d="M59.751515625,13.4539632875C59.552194825,14.251238087499999,59.303046925,15.0485109875,58.987465424999996,15.8623952875C59.552204825,16.7759384875,59.784737625,17.5898227875,59.784737625,18.4369268875C59.784737625,19.749106887499998,59.452539924999996,19.8985957875,58.389503725,20.1145238875L58.123749425,20.1643542875L57.791552025,19.101321187499998L58.123749425,19.0514912875C58.721701025,18.9684419875,58.887799725,18.8023433875,58.887799725,18.1711673875C58.887799725,17.606430987499998,58.638651725,16.9420356875,58.040699925,16.0617131875C58.339675925,15.1813895875,58.588824125,14.3342856875,58.804750725,13.4539632875L57.708502595,13.4539632875L57.708502595,21.7921211875L56.728515625,21.7921211875L56.728515625,12.424150107500001L59.768121525,12.424150107500001L59.768121525,13.4539619875L59.751515625,13.4539632875ZM65.880564725,15.8457855875L65.880564725,16.8589877875L59.668466325,16.8589877875L59.668466325,15.8457855875L60.947428725,15.8457855875L60.731502524999996,13.985480087500001L60.017280125,13.985480087500001L60.017280125,12.9888876875L62.193170025,12.9888876875C62.093514425,12.6400802775,62.010464625,12.2746622275,61.894194125,11.9590755875L62.907392525,11.7763671875C62.990442325000004,12.0753454875,63.123319625,12.5902514475,63.239590125,12.9888888875L65.38226792500001,12.9888888875L65.38226792500001,13.9854812875L64.634824725,13.9854812875C64.535169125,14.5502175875,64.402281725,15.2312223875,64.269404925,15.845786587500001L65.880564725,15.8457855875ZM60.249812125,17.7227024875L65.033455825,17.7227024875L65.033455825,21.775513687500002L63.987035225,21.775513687500002L63.987035225,21.343654587499998L61.263011025,21.343654587499998L61.263011025,21.775513687500002L60.249812125,21.775513687500002L60.249812125,17.7227024875ZM61.263011025,18.7026862875L61.263011025,20.3470639875L63.987035225,20.3470639875L63.987035225,18.7026862875L61.263011025,18.7026862875ZM61.761306725,13.985480087500001C61.844356024999996,14.5169956875,61.944011725,15.3474895875,62.010455125,15.8457855875L63.256196025,15.8457855875C63.389073325,15.2810499875,63.538566625,14.6000449875,63.621615425,13.985480087500001L61.761306725,13.985480087500001Z" fill="#FFFFFF" fill-opacity="1" style="mix-blend-mode:passthrough"/></g><g><path d="M70.214682825,12.175040602578125C69.965534725,12.972315342578124,69.699780725,13.636710542578125,69.400794725,14.301105742578125L69.400794725,21.675891842578125L68.304546825,21.675891842578125L68.304546825,16.261070742578127C68.005571025,16.692927842578126,67.689979125,17.141394642578124,67.341175855,17.589860942578124L66.626953125,16.643098342578124C67.573718195,15.397357442578125,68.570310825,13.719759842578124,69.135040725,11.892673152578125L70.214682825,12.175040602578125ZM76.725757125,19.134580142578123L73.752584425,19.134580142578123L73.752584425,21.742332442578125L72.672943125,21.742332442578125L72.672943125,19.134581542578125L69.816041425,19.134581542578125L69.816041425,18.104769242578126L72.672943125,18.104769242578126L72.672943125,16.792589142578123L70.414003325,16.792589142578123L70.414003325,15.779386542578125L72.672943125,15.779386542578125L72.672943125,11.759796142578125L73.752584425,11.809626292578125L73.752584425,15.795997142578125L76.194239625,15.795997142578125L76.194239625,16.809199842578124L73.752584425,16.809199842578124L73.752584425,18.121380842578127L76.725757125,18.121380842578127L76.725757125,19.134580142578123ZM71.410596325,15.364136942578124C71.144842125,14.699741842578124,70.530274625,13.503830942578125,70.148249425,12.922485242578125L71.095014525,12.424188732578125C71.460434425,13.005534542578125,72.008557325,14.101786142578124,72.307533725,14.799402242578125L71.410596325,15.364136942578124ZM76.393559425,12.872655042578124C76.161016425,13.487220042578125,75.513237925,14.732961142578125,75.11459632500001,15.397356242578125L74.167831925,14.899059742578125C74.599684225,14.184834442578126,75.181030225,13.038753842578124,75.446795425,12.374358652578126L76.393559425,12.872655042578124Z" fill="#FFFFFF" fill-opacity="1" style="mix-blend-mode:passthrough"/></g><g><path d="M80.0811074125,11.942474365234375L81.0610945125,11.992304511234375L81.0610945125,16.045115465234375C81.0610945125,19.117943265234373,80.5627982125,20.247415565234377,78.8021549025,21.875183065234374L78.0048828125,21.127738965234375C79.7655259125,19.632849265234377,80.0811176125,18.885405565234375,80.0811176125,16.128165765234375L80.0811074125,11.942474365234375ZM79.1841700125,19.167771365234376L78.2374048825,19.167771365234376L78.2374048825,12.640090045234375L79.1841700125,12.689920185234374L79.1841700125,19.167771365234376ZM84.7484794125,13.404142865234375L84.7484794125,14.616664665234374L86.8247137125,14.616664665234374L86.8247137125,19.101331665234376C86.8247137125,20.014875365234374,86.6087875125,20.147754665234373,85.7284665125,20.280633965234372L85.1969480125,20.347071665234374L84.8647508125,19.317260265234374L85.4294906125,19.267430765234373C85.8281317125,19.217600365234375,85.9277863125,19.134551565234375,85.9277863125,18.735915165234374L85.9277863125,15.663087365234375L84.7484898125,15.663087365234375L84.7484898125,21.742300965234374L83.7685017125,21.742300965234374L83.7685017125,15.663085965234375L82.7220821125,15.663085965234375L82.7220821125,20.313852265234374L81.7587116125,20.313852265234374L81.7587116125,14.649883965234375L83.7685017125,14.649883965234375L83.7685017125,13.437362265234375L81.5593908125,13.437362265234375L81.5593908125,12.424159825234375L87.3064041125,12.424159825234375L87.3064041125,13.437362265234375L84.7484794125,13.437362265234375L84.7484794125,13.404142865234375Z" fill="#FFFFFF" fill-opacity="1" style="mix-blend-mode:passthrough"/></g></g></g></svg>