<svg xmlns="http://www.w3.org/2000/svg" xmlns:xlink="http://www.w3.org/1999/xlink" fill="none" version="1.1" width="35" height="35" viewBox="0 0 35 35"><path d="M17.5,31.433336C9.6870031,31.433336,3.5666604,25.312992,3.5666604,17.5C3.5666604,9.687005,9.6870031,3.5666602,17.5,3.5666602C25.312992,3.5666602,31.433336,9.6870031,31.433336,17.5C31.433336,18.532581,32.183266,19.282511,33.215851,19.282511C34.248432,19.282511,34.998363,18.532583,34.998363,17.5C34.998363,12.843571,33.17337,8.4550924,29.85832,5.1400423C26.543268,1.8249925,22.156427,0,17.5,0C12.843571,0,8.4550924,1.8249929,5.1400423,5.1400423C1.8249929,8.4550924,0,12.843571,0,17.5C0,22.156427,1.8249929,26.544905,5.1400423,29.859957C8.4550924,33.175007,12.843571,35,17.5,35C18.532581,35,19.282511,34.250069,19.282511,33.217484C19.282511,32.184898,18.532583,31.434969,17.5,31.434969L17.5,31.433336Z" fill="#D77373" fill-opacity="1" style="mix-blend-mode:passthrough"/><path d="M33.21748501293945,24.099053815161135L27.665716012939455,24.099053815161135L27.665716012939455,18.547286115161132C27.665716012939455,17.514702975161132,26.915787012939454,16.764772415161133,25.883202512939455,16.764772415161133C24.850618312939453,16.764772415161133,24.100688412939455,17.51470172516113,24.100688412939455,18.547286115161132L24.100688412939455,24.099053815161135L18.548920712939452,24.099053815161135C17.516337572939452,24.099053815161135,16.766407012939453,24.848983715161133,16.766407012939453,25.881567915161135C16.766407012939453,26.914152415161134,17.516336322939452,27.664081415161135,18.548920712939452,27.664081415161135L24.100688412939455,27.664081415161135L24.100688412939455,33.21585041516113C24.100688412939455,34.24843441516113,24.850618312939453,34.99836341516114,25.883202512939455,34.99836341516114C26.915787012939454,34.99836341516114,27.665716012939455,34.24843441516113,27.665716012939455,33.21585041516113L27.665716012939455,27.664081415161135L33.21748501293945,27.664081415161135C34.25006901293945,27.664081415161135,34.99999801293946,26.914152415161134,34.99999801293946,25.881567915161135C34.99999801293946,24.848983715161133,34.25006901293945,24.099053815161135,33.21748501293945,24.099053815161135ZM24.834281912939453,18.547286115161132C24.834281912939453,18.508074415161133,24.835913612939454,18.46886161516113,24.839182812939455,18.431284115161134C24.835913612939454,18.46886281516113,24.834281912939453,18.508074415161133,24.834281912939453,18.547286115161132ZM26.93049001293945,18.547286115161132C26.93049001293945,18.508074415161133,26.928859012939455,18.46886161516113,26.925590012939452,18.431284115161134C26.928859012939455,18.46886281516113,26.93049001293945,18.508074415161133,26.93049001293945,18.547286115161132Z" fill="#D77373" fill-opacity="1" style="mix-blend-mode:passthrough"/><path d="M21.591118506469726,16.76313973972168C21.932589506469725,17.104610439721682,22.376993506469727,17.29250143972168,22.844268506469724,17.29250143972168C23.311546506469725,17.29250143972168,23.755949506469726,17.104610439721682,24.097419506469727,16.76313973972168C24.438890506469725,16.421669039721678,24.626783506469728,15.97726533972168,24.626783506469728,15.50998873972168C24.626783506469728,15.04271223972168,24.438894506469726,14.59830903972168,24.097419506469727,14.256838339721678L18.648583506469727,8.808001399721679C18.307111706469726,8.46653002972168,17.86270900646973,8.27863883972168,17.395432506469724,8.27863883972168C16.928155906469726,8.27863883972168,16.483752206469724,8.46653002972168,16.142282006469728,8.808001399721679L8.808000176469726,16.14228343972168C8.383203506469727,16.567079539721682,8.383203506469727,17.19774053972168,8.383203506469727,17.49999903972168C8.383203506469727,17.802258539721677,8.383203506469727,18.43291883972168,8.808000176469726,18.857715839721678L14.256837406469726,24.30655083972168C14.681633906469727,24.73134783972168,15.312293506469727,24.73134783972168,15.614553006469727,24.73134783972168C15.864529606469727,24.73134783972168,16.436370806469725,24.73134783972168,16.846464206469726,24.00756183972168C17.13565160646973,23.679160839721682,17.29250050646973,23.27070283972168,17.29250050646973,22.842636839721678C17.29250050646973,22.375359839721682,17.10460950646973,21.93095683972168,16.763139706469726,21.589485839721682L12.672018006469727,17.49836543972168L17.49999900646973,12.67038533972168L21.591118506469726,16.76150603972168L21.591118506469726,16.76313973972168Z" fill="#D77373" fill-opacity="1" style="mix-blend-mode:passthrough"/></svg>