<svg xmlns="http://www.w3.org/2000/svg" xmlns:xlink="http://www.w3.org/1999/xlink" fill="none" version="1.1" width="30" height="30" viewBox="0 0 30 30"><g><g><path d="M15,30C6.75,30,0,23.249998,0,15C0,6.75,6.75,0,15,0C23.249998,0,30,6.75,30,15C30,15.5625,29.625,15.9375,29.0625,15.9375C28.5,15.9375,28.125,15.5625,28.125,15C28.125,7.6875,22.312498,1.875,15,1.875C7.6875,1.875,1.875,7.6875,1.875,15C1.875,22.312498,7.6875,28.125,15,28.125C15.5625,28.125,15.9375,28.5,15.9375,29.0625C15.9375,29.625,15.5625,30,15,30Z" fill="#F95F5F" fill-opacity="1" style="mix-blend-mode:passthrough"/></g><g><path d="M29.0625,23.4375L15.9375,23.4375C15.37499997,23.4375,15,23.0624999,15,22.5C15,21.93749997,15.37499997,21.5625,15.9375,21.5625L29.0625,21.5625C29.625,21.5625,30,21.93749997,30,22.5C30,23.0624999,29.625,23.4375,29.0625,23.4375Z" fill="#F95F5F" fill-opacity="1" style="mix-blend-mode:passthrough"/></g><g><path d="M22.5,30C21.93749997,30,21.5625,29.625,21.5625,29.0625L21.5625,15.9375C21.5625,15.37499997,21.93749997,15,22.5,15C23.0624999,15,23.4375,15.37499997,23.4375,15.9375L23.4375,29.0625C23.4375,29.625,23.0624999,30,22.5,30Z" fill="#F95F5F" fill-opacity="1" style="mix-blend-mode:passthrough"/></g><g><path d="M13.312499500000001,20.8125C13.125,20.8125,12.75,20.8125,12.562499500000001,20.625L7.68749999,15.75C7.5,15.5625,7.5,15.1875,7.5,15C7.5,14.8125,7.5,14.4375,7.68749999,14.25L14.25,7.6875C14.625,7.312500007,15.1875,7.312500007,15.5625,7.6875L20.4375,12.5625C20.8125,12.937499500000001,20.8125,13.5,20.4375,13.875C20.0625,14.25,19.499999000000003,14.25,19.124999000000003,13.875L15,9.75L9.75,15L13.875,19.125C14.25,19.5,14.25,20.0625,13.875,20.4375C13.6875,20.8125,13.499999500000001,20.8125,13.312499500000001,20.8125Z" fill="#F95F5F" fill-opacity="1" style="mix-blend-mode:passthrough"/></g></g></svg>