<svg xmlns="http://www.w3.org/2000/svg" xmlns:xlink="http://www.w3.org/1999/xlink" fill="none" version="1.1" width="147" height="55" viewBox="0 0 147 55"><defs><linearGradient x1="1" y1="0.5" x2="0.06884807348251343" y2="0.5" id="master_svg0_98_04686"><stop offset="0%" stop-color="#E2D38C" stop-opacity="1"/><stop offset="99.99997615814209%" stop-color="#FFEEA2" stop-opacity="1"/></linearGradient></defs><g transform="matrix(-1,0,0,1,294,0)"><path d="M294.00000000000006,0L401.58018,0C415.03442,0,421.92546,0.028388977,427.08769,2.5870419C431.99088,5.0172963,435.98271,9.0091362,438.41296,13.912313C440.97162000000003,19.074547,441,25.965576,441,39.419811L441,55Q435.92326,46.40625,428.58885,46.40625Q428.33709999999996,46.324608,340.263988,46.380386C327.924309,46.388203,321.597036,46.364128,316.842417,44.014858C312.321169,41.780899,308.635391,38.108894,306.390487,33.597008C304.028057,28.848915,304,22.516342,304,10.157696Q304,10.134504,304,10.111711Q304,4.4135952,294.00000000000006,0Z" fill-rule="evenodd" fill="url(#master_svg0_98_04686)" fill-opacity="1" transform="matrix(-1,0,0,1,588,0)"/></g></svg>