<svg xmlns="http://www.w3.org/2000/svg" xmlns:xlink="http://www.w3.org/1999/xlink" fill="none" version="1.1" width="35" height="35" viewBox="0 0 35 35"><path d="M17.49918080050049,25.742496466064452C18.466095000500488,25.742496466064452,19.250079200500487,24.95858446606445,19.250079200500487,23.993393466064454L19.250079200500487,21.577967666064453L22.02179070050049,21.577967666064453C22.98707270050049,21.577967666064453,23.77105570050049,20.79405686606445,23.77105570050049,19.827233266064454C23.77105570050049,18.860410166064455,22.98707270050049,18.078132666064455,22.02179070050049,18.078132666064455L20.41952320050049,18.078132666064455L22.186754700500487,16.311066166064453C22.86947170050049,15.628410366064454,22.86947170050049,14.519502766064454,22.186754700500487,13.836846826064454C21.50403470050049,13.154190957064452,20.39502330050049,13.154190957064452,19.712303200500486,13.836846826064454L17.466515100500487,16.082425166064453L15.143961000500488,13.760088686064453C14.461240800500487,13.077432816064453,13.352229800500488,13.077432816064453,12.669510200500488,13.760088686064453C11.986790420500489,14.442744566064453,11.986790420500489,15.551652166064454,12.669510200500488,16.234307966064453L14.51350670050049,18.078132666064455L12.979837500500489,18.078132666064455C12.014557420500488,18.078132666064455,11.230572700500488,18.862043366064455,11.230572700500488,19.827233266064454C11.230572700500488,20.792423766064452,12.014557420500488,21.577967666064453,12.979837500500489,21.577967666064453L15.751548800500489,21.577967666064453L15.751548800500489,23.993393466064454C15.751548800500489,24.960216466064452,16.535533400500487,25.742496466064452,17.500813500500488,25.742496466064452L17.49918080050049,25.742496466064452Z" fill="#6686B2" fill-opacity="1" style="mix-blend-mode:passthrough"/><path d="M32.579449,12.620155403416634C31.633764,12.811233403416633,31.019642,13.733963403416634,31.215637,14.682820403416633C31.401836,15.605549403416633,31.499834,16.556041403416632,31.499834,17.500001403416633C31.499834,25.219892403416633,25.219793,31.497709403416632,17.500814,31.497709403416632C9.7818365,31.497709403416632,3.5001631,25.221523403416633,3.5001631,17.501634403416634C3.5001631,9.781745903416633,9.7785702,3.5039236034166334,17.499182,3.5039236034166334C18.466095,3.5039236034166334,19.250082,2.7200129034166336,19.250082,1.7548220034166335C19.250082,0.7896315634166337,18.466095,0.004087403416633606,17.499182,0.004087403416633606C7.851275,0.004087403416633606,0,7.854629903416634,0,17.501634403416634C0,27.148637403416632,7.851275,34.999181403416635,17.499182,34.999181403416635C27.147085,34.999181403416635,34.998363,27.148637403416632,34.993465,17.501634403416634C34.993465,16.319236403416635,34.874237,15.136838403416634,34.6423,13.985468403416634C34.45121,13.039875403416634,33.528393,12.430710403416633,32.579449,12.621790403416634L32.579449,12.620155403416634Z" fill="#6686B2" fill-opacity="1" style="mix-blend-mode:passthrough"/><path d="M20.595921197094725,8.5405474L29.023751397094728,8.5405474L26.969058997094727,10.595047C26.28634119709473,11.277703,26.28634119709473,12.38661,26.969058997094727,13.069266C27.312053697094726,13.412229,27.756311397094727,13.582075,28.207101797094726,13.582075C28.65789129709473,13.582075,29.105415397094724,13.412229,29.445142397094727,13.069266L34.487141397094724,8.0277386C34.81380139709473,7.7011094,34.99999839709473,7.2568927,34.99999839709473,6.7914462C34.99999839709473,6.3259993,34.81380139709473,5.8801489,34.487141397094724,5.5535192L29.445142397094727,0.51199186C28.762425397094727,-0.17066397,27.653411897094728,-0.17066397,26.970693597094726,0.51199186C26.287975797094727,1.1946478,26.287975797094727,2.3035553,26.970693597094726,2.9862108L29.025386397094728,5.0407104L20.597555997094727,5.0407104C19.632276117094726,5.0407104,18.848291397094727,5.8246222,18.848291397094727,6.7898126C18.848291397094727,7.7550025,19.632276117094726,8.5405474,20.597555997094727,8.5405474L20.595921197094725,8.5405474Z" fill="#6686B2" fill-opacity="1" style="mix-blend-mode:passthrough"/></svg>