<svg xmlns="http://www.w3.org/2000/svg" xmlns:xlink="http://www.w3.org/1999/xlink" fill="none" version="1.1" width="35" height="42" viewBox="0 0 35 42"><path d="M27.997707,14.042229L11.23673,14.042229L11.23673,9.6064634C11.23673,7.9287286,11.812888,6.5374365,12.999578,5.3507457C14.186269,4.1640558,15.577561,3.5862606,17.255295,3.5862606L18.558199,3.5862606C20.235933,3.5862606,21.628862,4.1624193,22.815552,5.3507457C24.000608,6.535799,24.578403,7.9287286,24.578403,9.6064634C24.578403,9.8781738,24.797737,10.097507,25.069447,10.097507L27.673618,10.097507C27.945332,10.097507,28.164665,9.8781738,28.164665,9.6064634C28.163025,4.309732,23.853292,0,18.558199,0L17.255295,0C11.958565,0,7.6488328,4.309732,7.6488328,9.6064625L7.6488328,14.042229L7.0006547,14.042229C3.1410468,14.042229,0,17.183277,0,21.042885L0,32.436749C0,37.194965,3.8710656,41.066029,8.6292849,41.066029L26.370714,41.066029C31.128931,41.066029,35,37.194965,35,32.436749L35,21.042885C35,17.181639,31.858952,14.040592,27.997707,14.040592L27.997707,14.042229ZM29.898048,39.772945C30.135386,39.658371,30.366179,39.53397,30.590422,39.396481C30.366179,39.532337,30.135386,39.658371,29.898048,39.772945ZM31.412102,32.436745C31.412102,33.842766,30.929243,35.008183,29.934059,36.001728C28.940512,36.995274,27.773466,37.479771,26.369078,37.479771L8.6292849,37.479771C7.2248979,37.479771,6.0578499,36.99691,5.0643034,36.001728C4.0707569,35.008179,3.5862598,33.841133,3.5862598,32.436745L3.5862598,21.042879C3.5862598,20.091892,3.9136229,19.301311,4.5863533,18.62858C5.2590842,17.955849,6.0496655,17.628487,7.0006547,17.628487L27.996071,17.628487C28.947062,17.628487,29.737642,17.955849,30.410372,18.62858C31.083103,19.301311,31.410467,20.091892,31.410467,21.042879L31.410467,32.436745L31.412102,32.436745Z" fill="#49AABB" fill-opacity="1" style="mix-blend-mode:passthrough"/><path d="M21.8105497607666,28.532945635253906C22.7991841607666,28.532945635253906,23.602860160766603,27.727633435253907,23.602860160766603,26.738996035253905C23.602860160766603,25.750361435253907,22.7991841607666,24.946685335253907,21.8105497607666,24.946685335253907L20.746620160766604,24.946685335253907L22.303229160766602,22.722255435253906C22.303229160766602,22.722255435253906,22.306503160766603,22.717345235253905,22.309775160766602,22.714070835253906C22.576577160766604,22.316326135253906,22.671512160766603,21.838374235253905,22.5782131607666,21.368609335253907C22.484913160766602,20.898843225253906,22.214840160766602,20.492914025253906,21.817095760766602,20.227749645253905C21.5208320607666,20.029695285253908,21.177101160766604,19.924939273253905,20.8202762607666,19.924939273253905C20.250664760766604,19.924939273253905,19.710516460766602,20.198286955253906,19.373332960766604,20.658232565253908C19.3716964607666,20.661505695253908,19.3684229607666,20.663142855253906,19.3667855607666,20.666417125253908L17.8232698607666,22.869570235253907L16.281391160766603,20.668055535253906C15.945843660766602,20.188468965253907,15.395874260766602,19.903663635253906,14.811532760766601,19.903663635253906C14.441612460766601,19.903663635253906,14.086424160766601,20.016604215253906,13.783613660766601,20.227753405253907C12.973391160766601,20.795728145253907,12.775335430766601,21.915309635253905,13.343310160766602,22.725532335253906L14.899920960766602,24.949962135253905L13.673947460766602,24.949962135253905C12.685311440766602,24.949962135253905,11.881636324566601,25.755274335253908,11.881636324566601,26.743911735253906C11.881636324566601,27.732546335253907,12.685312690766601,28.536223435253905,13.673947460766602,28.536223435253905L16.0456910607666,28.536223435253905L16.0456910607666,29.019082035253906L13.6723102607666,29.019082035253906C12.683674280766601,29.019082035253906,11.879999160766602,29.824394235253905,11.879999160766602,30.813032635253904C11.879999160766602,31.801667635253906,12.683674280766601,32.605342635253905,13.6723102607666,32.605342635253905L16.044053560766603,32.605342635253905L16.044053560766603,34.39274363525391C16.044053560766603,35.38137863525391,16.847730160766602,36.1866936352539,17.838001760766602,36.1866936352539C18.828273760766603,36.1866936352539,19.631950360766602,35.38301763525391,19.631950360766602,34.39274363525391L19.631950360766602,32.605342635253905L21.8121871607666,32.605342635253905C22.8008231607666,32.605342635253905,23.6045001607666,31.800030635253904,23.6045001607666,30.811393635253907C23.6045001607666,29.822758635253905,22.8008231607666,29.019082035253906,21.8121871607666,29.019082035253906L19.6319513607666,29.019082035253906L19.6319513607666,28.536223435253905L21.8121871607666,28.536223435253905L21.8105497607666,28.532945635253906ZM20.8202762607666,20.414347645253905C20.8202762607666,20.414347645253905,20.8235492607666,20.414347645253905,20.826823260766602,20.414347645253905C20.8153667607666,20.414347645253905,20.803908360766602,20.414347645253905,20.7924508607666,20.414347645253905C20.802271860766602,20.414347645253905,20.8104562607666,20.414347645253905,20.8202762607666,20.414347645253905ZM14.803348060766602,20.391432315253905C14.803348060766602,20.391432315253905,14.808258260766602,20.391432315253905,14.811532760766601,20.391432315253905C14.821353460766602,20.391432315253905,14.832810860766601,20.391432315253905,14.842632760766602,20.393069505253905C14.829537860766601,20.393069505253905,14.816443160766601,20.393069505253905,14.8033494607666,20.393069505253905L14.803348060766602,20.391432315253905Z" fill="#49AABB" fill-opacity="1" style="mix-blend-mode:passthrough"/></svg>