<svg xmlns="http://www.w3.org/2000/svg" xmlns:xlink="http://www.w3.org/1999/xlink" fill="none" version="1.1" width="35" height="26" viewBox="0 0 35 26"><defs><clipPath id="master_svg0_45_4702"><rect x="0" y="0" width="35" height="26" rx="0"/></clipPath></defs><g clip-path="url(#master_svg0_45_4702)"><g><path d="M31.500156,26L3.500366,26C1.575374,26,0,24.413715,0,22.474747L0,3.5257812C0,1.5862852,1.5748508,0,3.500366,0L31.500156,0C33.425148,0,35.000523,1.5862852,35.000523,3.5257812L35.000523,22.474747C35.000523,24.413715,33.425671,26,31.500156,26ZM3.500366,1.7628906C2.5378702,1.7628906,1.750183,2.5562971,1.750183,3.5257812L1.750183,22.474747C1.750183,23.444233,2.5378702,24.23711,3.500366,24.23711L31.500156,24.23711C32.46265,24.23711,33.25034,23.443705,33.25034,22.474747L33.25034,3.5257812C33.25034,2.5562971,32.46265,1.7628906,31.500156,1.7628906L3.500366,1.7628906Z" fill="#333333" fill-opacity="1" style="mix-blend-mode:passthrough"/></g><g><rect x="0.875" y="5.7288818359375" width="33.25033950805664" height="3.9659769535064697" rx="0" fill="#333333" fill-opacity="1" style="mix-blend-mode:passthrough"/></g><g><path d="M5.2505447825000005,21.32915873359375C4.7690351925,21.32915873359375,4.3759765625,20.93272023359375,4.3759765625,20.44771383359375L4.3759765625,13.83739972359375C4.3759765625,13.35292089359375,4.7695582825,12.95648193359375,5.2505447825000005,12.95648193359375C5.7315312625,12.95648193359375,6.1256363625,13.35292169359375,6.1256363625,13.83739972359375L6.1256363625,20.44771383359375C6.1256363625,20.93272023359375,5.7320548625,21.32915873359375,5.2505447825000005,21.32915873359375Z" fill="#FF9E4A" fill-opacity="1" style="mix-blend-mode:passthrough"/></g><g><path d="M9.62509167,21.32915873359375C9.14410517,21.32915873359375,8.75,20.93272023359375,8.75,20.44771383359375L8.75,13.83739972359375C8.75,13.35292089359375,9.14358208,12.95648193359375,9.62509167,12.95648193359375C10.1066011,12.95648193359375,10.5001833,13.35292169359375,10.5001833,13.83739972359375L10.5001833,20.44771383359375C10.5001833,20.93272023359375,10.1066011,21.32915873359375,9.62509167,21.32915873359375Z" fill="#FF9E4A" fill-opacity="1" style="mix-blend-mode:passthrough"/></g><g><path d="M13.99956822,21.32915873359375C13.51805863,21.32915873359375,13.125,20.93272023359375,13.125,20.44771383359375L13.125,13.83739972359375C13.125,13.35292089359375,13.51858172,12.95648193359375,13.99956822,12.95648193359375C14.480554699999999,12.95648193359375,14.8746598,13.35292169359375,14.8746598,13.83739972359375L14.8746598,20.44771383359375C14.8746598,20.93272023359375,14.4810783,21.32915873359375,13.99956822,21.32915873359375Z" fill="#FF9E4A" fill-opacity="1" style="mix-blend-mode:passthrough"/></g></g></svg>