<svg xmlns="http://www.w3.org/2000/svg" xmlns:xlink="http://www.w3.org/1999/xlink" fill="none" version="1.1" width="30" height="30" viewBox="0 0 30 30"><defs><clipPath id="master_svg0_45_4728"><rect x="0" y="0" width="30" height="30" rx="0"/></clipPath></defs><g clip-path="url(#master_svg0_45_4728)"><g><path d="M27.3073748125,29.14066284375L2.7020411125,29.14066284375C1.2148145125,29.14066284375,0.0048828125,27.93070184375,0.0048828125,26.44350784375L0.0048828125,10.05799814375C0.0048828125,8.57077174375,1.2148145125,7.36083984375,2.7020411125,7.36083984375L27.3073768125,7.36083984375C28.7946018125,7.36083984375,30.0045338125,8.57077174375,30.0045338125,10.05799814375L30.0045338125,13.93875024375C30.0045338125,14.475762343749999,29.5692118125,14.91108464375,29.0321998125,14.91108464375L23.5775318125,14.91108464375C21.7360478125,14.91108464375,20.2378938125,16.40926834375,20.2378938125,18.250723843750002C20.2378938125,20.09217784375,21.7360478125,21.59036284375,23.5775318125,21.59036284375L29.0321708125,21.59036284375C29.5691818125,21.59036284375,30.0045028125,22.02568484375,30.0045028125,22.56269584375L30.0045028125,26.44347784375C30.0045028125,27.93070184375,28.7945728125,29.14066284375,27.3073748125,29.14066284375ZM2.7020411125,9.30556654375C2.2871384125,9.30556654375,1.9495802125,9.64309644375,1.9495802125,10.05799814375L1.9495802125,26.44350784375C1.9495802125,26.85838084375,2.2871094125,27.19593784375,2.7020411125,27.19593784375L27.3073768125,27.19593784375C27.7222498125,27.19593784375,28.0598088125,26.85840784375,28.0598088125,26.44350784375L28.0598088125,23.53508984375L23.5775318125,23.53508984375C20.6637248125,23.53508984375,18.2931648125,21.164531843749998,18.2931648125,18.250753843749997C18.2931648125,15.33697414375,20.6637228125,12.966417343749999,23.5775318125,12.966417343749999L28.0597758125,12.966417343749999L28.0597758125,10.05799964375C28.0597758125,9.64309744375,27.7222478125,9.30556774375,27.3073468125,9.30556774375L2.7020411125,9.30556654375Z" fill="#529CFF" fill-opacity="1" style="mix-blend-mode:passthrough"/></g><g><path d="M25.94405375,18.250776C25.94405375,19.560492,24.88221975,20.622358,23.57247175,20.622358C22.26269575,20.622358,21.20086075,19.560492,21.20086075,18.250776C21.20086075,16.940884,22.26269575,15.879166,23.57247175,15.879166C24.88221975,15.879166,25.94405375,16.940884,25.94405375,18.250776ZM24.21961175,2.817066C24.38959475,2.7676716,24.56815675,2.8657575,24.61758275,3.035738L25.66687775,6.6446147L27.69211175,6.6446147L26.48496475,2.4928082C26.13618275,1.29310107,24.87644975,0.6009624,23.67670975,0.9496830549999999L4.08984375,6.6446147L11.05535265,6.6446147L24.21961175,2.817066Z" fill="#529CFF" fill-opacity="1" style="mix-blend-mode:passthrough"/></g></g></svg>