<svg xmlns="http://www.w3.org/2000/svg" xmlns:xlink="http://www.w3.org/1999/xlink" fill="none" version="1.1" width="47" height="43" viewBox="0 0 47 43"><defs><clipPath id="master_svg0_43_4712"><rect x="0" y="0" width="47" height="43" rx="0"/></clipPath></defs><g clip-path="url(#master_svg0_43_4712)"><g><path d="M41.143799,5.8637428L41.125,5.8637428L41.125,5.8496699C41.115601,2.6222658,38.4977,0.0070366524,35.264099,0L11.7359,0C8.5023003,0.0093819881,5.8820496,2.6222658,5.8749995,5.8496699L5.8749995,5.8637428L5.8561997,5.8637428C2.6273,5.8637428,0,8.4883537,0,11.727486L0,37.136257C0,37.136257,0,37.145638,0,37.152676C0,40.382427,2.62025,43.000004,5.8562002,43.000004L41.143799,43.000004C44.3727,43.000004,47,40.375393,47,37.136261L47,11.727486C47,11.727486,47,11.715758,47,11.708721C47,8.4789715,44.377399,5.8637424,41.141453,5.8637424L41.143799,5.8637428ZM43.0849,35.198879C43.0849,37.349697,41.327099,39.092403,39.188599,39.092403L7.8137498,39.092403C5.66115,39.092403,3.91745,37.347355,3.91745,35.198879L3.91745,13.667212C3.91745,11.516391,5.6775999,9.7736864,7.8137498,9.7736864L9.79245,9.7736864L9.79245,5.852015C9.79245,3.6730483,11.5479,3.9099433,13.72165,3.9099433L33.280697,3.9099433C35.449749,3.9099433,37.2099,3.68243,37.2099,5.8520145L37.2099,5.8660874L37.2099,9.7760315L39.188599,9.7760315C41.341198,9.7760315,43.0849,11.521081,43.0849,13.669558L43.0849,35.201221L43.0849,35.198879Z" fill="#3D3D3D" fill-opacity="1" style="mix-blend-mode:passthrough"/></g><g><path d="M35.25,15.63739335C35.25,14.558465,36.11715055,13.68359375,37.2075504,13.68359375L39.169802,13.68359375C40.2508035,13.68359375,41.1273522,14.5514279,41.1273522,15.63739335C41.1273522,16.72335955,40.2602019,17.59119295,39.169802,17.59119295L37.2075504,17.59119295C36.1289013,17.59119295,35.252352295,16.72335955,35.25,15.64677545C35.25,15.64442955,35.25,15.63973925,35.25,15.63739335Z" fill="#3D3D3D" fill-opacity="1" style="mix-blend-mode:passthrough"/></g><g><path d="M23.5,11.7275390625C17.0116496,11.7275390625,11.75,16.9791068625,11.75,23.4550250625C11.75,29.9309420625,17.0116496,35.1825100625,23.5,35.1825100625C29.98835,35.1825100625,35.25,29.9309420625,35.25,23.4550250625C35.25,16.9791068625,29.98835,11.7275390625,23.5,11.7275390625ZM23.5,31.2725680625C19.1736493,31.2725680625,15.6674495,27.7730860625,15.6674495,23.4550250625C15.6674495,19.1369638625,19.1736493,15.6351382625,23.5,15.6351382625C27.826351,15.6351382625,31.33255,19.1369657625,31.33255,23.4550250625C31.33255,27.7730860625,27.823999,31.2725680625,23.497650999999998,31.2725680625L23.5,31.2725680625Z" fill="#FF9E4A" fill-opacity="1" style="mix-blend-mode:passthrough"/></g></g></svg>