<svg xmlns="http://www.w3.org/2000/svg" xmlns:xlink="http://www.w3.org/1999/xlink" fill="none" version="1.1" width="41" height="40" viewBox="157 0 41 40"><g><g><path d="M189.26759137792968,26.6474C189.26759137792968,26.6474,190.0705413779297,32.774277,190.60583537792968,37.302834C190.8734783779297,39.433922,189.26759137792968,40.499462,187.3940603779297,39.700317C183.91464437792968,38.101997,178.82933837792967,35.438133,177.75875237792968,34.905365C176.6881613779297,35.438133,171.3352083779297,38.101997,167.85578937792968,39.700317C165.9822568779297,40.499466,164.3763718779297,39.700317,164.6440186779297,37.302834C165.17931417792968,33.040661,165.9822568779297,26.913788,165.9822568779297,26.913788C165.9822568779297,26.913788,160.89695357792968,21.319679,157.9528307579297,17.856665C156.88224035792967,16.524738,157.6851831379297,14.926419,159.5587160779297,14.393647C163.5734295779297,13.59449,169.9969713779297,12.528945,169.9969713779297,12.528945C169.9969713779297,12.528945,173.47638937792968,6.1356835,175.6175723779297,2.1398938C176.95581037792968,-0.25757933,177.75875437792968,0.0088064075,177.75875437792968,0.0088064075C178.0263973779297,0.0088064075,178.82933837792967,0.54157835,179.36463737792968,2.1398938C181.5058173779297,6.1356821,184.98523537792968,12.528945,184.98523537792968,12.528945C184.98523537792968,12.528945,191.14112437792969,13.860875,195.42349237792968,14.660034C197.2970203779297,14.926418,198.09996837792968,16.791121,197.0293693779297,18.123051C194.3529013779297,20.786913,189.26759137792968,26.6474,189.26759137792968,26.6474Z" fill="#F1F1F1" fill-opacity="1" style="mix-blend-mode:passthrough"/></g></g></svg>