<svg xmlns="http://www.w3.org/2000/svg" xmlns:xlink="http://www.w3.org/1999/xlink" fill="none" version="1.1" width="41" height="40" viewBox="0 0 41 40"><defs><linearGradient x1="0" y1="0.5" x2="1.0003067054258745" y2="0.9563793284913924" id="master_svg0_43_5569"><stop offset="0%" stop-color="#FEE540" stop-opacity="1"/><stop offset="100%" stop-color="#FFCA00" stop-opacity="1"/></linearGradient></defs><g><g><path d="M31.794279,26.6474C31.794279,26.6474,32.597229,32.774277,33.132523,37.302834C33.400166,39.433922,31.794279,40.499462,29.920748,39.700317C26.441332,38.101997,21.356026,35.438133,20.28544,34.905365C19.214849,35.438133,13.861896,38.101997,10.382477,39.700317C8.5089445,40.499466,6.9030595,39.700317,7.1707063,37.302834C7.7060018,33.040661,8.5089445,26.913788,8.5089445,26.913788C8.5089445,26.913788,3.4236412,21.319679,0.47951838,17.856665C-0.59107202,16.524738,0.21187076,14.926419,2.0854037,14.393647C6.1001172,13.59449,12.523659,12.528945,12.523659,12.528945C12.523659,12.528945,16.003077,6.1356835,18.14426,2.1398938C19.482498,-0.25757933,20.285442,0.0088064075,20.285442,0.0088064075C20.553085,0.0088064075,21.356026,0.54157835,21.891325,2.1398938C24.032505,6.1356821,27.511923,12.528945,27.511923,12.528945C27.511923,12.528945,33.667812,13.860875,37.95018,14.660034C39.823708,14.926418,40.626656,16.791121,39.556057,18.123051C36.879589,20.786913,31.794279,26.6474,31.794279,26.6474Z" fill="url(#master_svg0_43_5569)" fill-opacity="1" style="mix-blend-mode:passthrough"/></g></g></svg>