<svg xmlns="http://www.w3.org/2000/svg" xmlns:xlink="http://www.w3.org/1999/xlink" fill="none" version="1.1" width="55" height="40" viewBox="0 0 55 40"><g><g><path d="M34.315434,0C39.782372,0.021898422,44.272903,4.2840438,44.528576,9.6936932L44.534027,9.924324L48.262787,7.3441448C49.991776,6.2329383,52.270626,6.4759045,53.721317,7.926126L53.941402,8.1603613L54.137836,8.405406C54.505257,9.0108109,54.769001,9.6720734,54.921787,10.378378L55,10.805405L55,30.272072C54.995979,32.557838,53.122154,34.407585,50.814697,34.403599C50.068951,34.403599,49.339573,34.212612,48.693859,33.852253L48.379185,33.657654L44.504921,31.052254L44.492191,31.163963C43.862896,35.910465,39.974243,39.5779,35.157578,39.967564L34.731953,39.992794L34.313606,40L10.224056,40C4.7571244,39.9781,0.26658875,35.715961,0.01091367,30.306311L0,29.909914L0,10.088288C0.043365344,4.6734395,4.3625436,0.241981,9.8238974,0.0090095578L10.224055,0L34.315434,0ZM34.315434,4.3117113L10.222239,4.3117113C7.1278811,4.3172169,4.5699959,6.7027907,4.3781033,9.7621593L4.3671894,10.09009L4.3671894,29.908104C4.3850136,32.973518,6.8036551,35.497971,9.8930159,35.675671L10.224056,35.686478L34.253593,35.686478C37.347946,35.680981,39.905838,33.295403,40.097733,30.236032L40.110462,29.908104L40.168671,29.846846L40.168671,10.09009C40.150906,7.0253258,37.733303,4.5011315,34.644661,4.3225226L34.313618,4.3117123L34.315434,4.3117113ZM50.450924,11.136935L44.479462,15.162159L44.401253,25.690084L50.450924,29.859453L50.450924,11.136935Z" fill="#3D3D3D" fill-opacity="1" style="mix-blend-mode:passthrough"/></g><g><path d="M28.713327234375,21.556820820056153L19.598801834375,26.80907162005615C19.036270334375,27.133381620056152,18.341678134375,27.13522162005615,17.777400494375,26.813896620056152C17.213123084375,26.492570620056153,16.865176187945,25.897059620056154,16.864990234375,25.25231562005615L16.864990234375,14.747811820056153C16.865176187945,14.103066320056152,17.213123084375,13.507558580056152,17.777400494375,13.186233270056153C18.341675234375,12.864907980056152,19.036267234375,12.866747282056153,19.598801834375,13.191055600056153L28.711509234375,18.443305920056154C29.915643234375,19.138411020056154,29.915643234375,20.86171342005615,28.711509234375,21.556818920056152L28.713327234375,21.556820820056153Z" fill="#FF9E4A" fill-opacity="1" style="mix-blend-mode:passthrough"/></g></g></svg>