<?xml version="1.0" encoding="UTF-8"?>
<svg width="28px" height="30px" viewBox="0 0 28 30" version="1.1" xmlns="http://www.w3.org/2000/svg" xmlns:xlink="http://www.w3.org/1999/xlink">
    <title>筛选</title>
    <g id="页面-1" stroke="none" stroke-width="1" fill="none" fill-rule="evenodd">
        <g id="首页" transform="translate(-676.000000, -1351.000000)" fill="#666666" fill-rule="nonzero">
            <g id="编组-14备份" transform="translate(22.000000, 1321.000000)">
                <g id="筛选" transform="translate(654.000000, 30.000000)">
                    <path d="M1.18759811,4.15603817 L8.74306662,11.7600945 L8.74306662,11.7600945 C8.79378569,11.8105115 8.82243823,11.8789862 8.82273969,11.9504998 L8.82273969,24.3835882 C8.82273969,25.2356859 9.26836915,26.0256673 9.99758269,26.4658959 L14.4322604,29.1396758 L14.4322605,29.1396758 C15.5816428,29.8332716 17.0756714,29.4637839 17.7692506,28.3144005 C17.998154,27.9350753 18.1190298,27.5004062 18.1188183,27.0573682 L18.1188183,12.0085706 L18.1188183,12.0085764 C18.1189148,11.9310025 18.1523631,11.8572155 18.2106406,11.8060155 L26.8342475,4.27351875 L26.8342475,4.27351874 C27.8455578,3.39067847 27.9497009,1.85516857 27.066862,0.843848285 C26.604878,0.314634625 25.9365281,0.0111757384 25.2340345,0.011663742 L2.91204033,0.011663742 L2.91204038,0.011663742 C1.56959592,0.0113465172 0.481073917,1.09935398 0.48075654,2.44179515 C0.48075654,3.08415227 0.734726345,3.70045708 1.18759006,4.15602221 L1.18759811,4.15603817 Z M2.72029521,2.63144235 L2.72029522,2.63144235 C2.61513702,2.52565681 2.6156457,2.35465322 2.72143133,2.249496 C2.77208658,2.19914119 2.84062579,2.17095886 2.91205117,2.17095886 L25.2340453,2.17095886 L25.2340453,2.17095886 C25.3832055,2.17095886 25.5037359,2.29226516 25.5037359,2.4414254 C25.5037359,2.51880295 25.4703304,2.59241644 25.4122971,2.64359691 L16.7900455,10.178804 L16.7900453,10.1788041 C16.2614068,10.6404642 15.9581165,11.3080903 15.9582024,12.0099394 L15.9582024,27.0600921 L15.9582024,27.0600935 C15.9590734,27.2092514 15.8388632,27.3308735 15.6897052,27.3317536 C15.6396281,27.3320369 15.5904559,27.3184006 15.5476815,27.292359 L11.1130038,24.6185792 L11.1130038,24.6185792 C11.0320175,24.5692784 10.982814,24.4811219 10.983366,24.3863113 L10.983366,11.9519008 L10.9833661,11.9513208 C10.9833661,11.3092446 10.7293206,10.6932505 10.2767012,10.2378407 L2.71895198,2.63282586 L2.72029521,2.63144235 Z M21.2733637,17.0266514 L26.6749385,17.0266514 L26.6749384,17.0266514 C27.2715801,17.0266514 27.7552534,16.5429781 27.7552534,15.9463365 C27.7552534,15.3496948 27.2715801,14.8660215 26.6749384,14.8660215 L21.2733636,14.8660215 L21.2733635,14.8660215 C20.6767219,14.8660215 20.1930486,15.3496948 20.1930486,15.9463365 C20.1930486,16.5429781 20.6767219,17.0266514 21.2733635,17.0266514 L21.2733637,17.0266514 Z M21.2220487,21.077816 L26.6236235,21.077816 L26.6236235,21.077816 C27.2202651,21.077816 27.7039384,20.5941426 27.7039384,19.997501 C27.7039384,19.4008594 27.2202651,18.9171861 26.6236235,18.9171861 L21.2220486,18.9171861 L21.2220486,18.9171861 C20.625407,18.9171861 20.1417336,19.4008594 20.1417336,19.997501 C20.1417336,20.5941426 20.625407,21.077816 21.2220486,21.077816 L21.2220487,21.077816 Z M20.9870801,25.1289805 L26.3886548,25.1289805 L26.3886548,25.1289805 C26.9852965,25.1289805 27.4689698,24.6453072 27.4689698,24.0486656 C27.4689698,23.452024 26.9852965,22.9683506 26.3886548,22.9683506 L20.98708,22.9683506 L20.98708,22.9683506 C20.3904384,22.9683506 19.906765,23.452024 19.906765,24.0486656 C19.906765,24.6453072 20.3904384,25.1289805 20.98708,25.1289805 L20.9870801,25.1289805 Z" id="形状"></path>
                </g>
            </g>
        </g>
    </g>
</svg>