<?xml version="1.0" encoding="UTF-8"?>
<svg width="28px" height="25px" viewBox="0 0 28 25" version="1.1" xmlns="http://www.w3.org/2000/svg" xmlns:xlink="http://www.w3.org/1999/xlink">
    <title>即时通讯备份</title>
    <g id="页面-1" stroke="none" stroke-width="1" fill="none" fill-rule="evenodd">
        <g id="首页" transform="translate(-322.000000, -1738.000000)" fill="#999999">
            <g id="编组-14备份" transform="translate(22.000000, 1321.000000)">
                <g id="即时通讯备份" transform="translate(300.000000, 417.000000)">
                    <path d="M27.9999989,8.23842301 C28.0036238,5.96580351 27.2032376,4.02471702 25.5988301,2.41516354 L25.5985539,2.41488849 L25.5974115,2.41374394 L25.5805013,2.39686505 C23.9756869,0.791894849 22.0380869,-0.00704685333 19.7677013,-6.78499428e-06 C17.6380872,-0.00156074489 15.7843441,0.714518317 14.206472,2.14827713 L14.0000276,2.33461407 L13.7949735,2.14909714 C12.2164261,0.717202964 10.3611205,0.000849134222 8.22905664,-6.78499428e-06 C5.95897294,-0.00206062578 4.020473,0.798856775 2.41355681,2.40278786 C0.806639182,4.00672047 0.00212126756,5.94389625 -1.11403634e-06,8.2143152 C-0.00212111822,10.4971007 0.80624679,12.4432177 2.42510679,14.0526661 L12.312572,23.671396 C12.7746048,24.1311373 13.3350141,24.3618181 13.9937997,24.3634469 C14.6525847,24.3650587 15.2166248,24.1346964 15.6859201,23.6723517 L25.5718531,14.0621865 C27.1869752,12.4523042 27.9963538,10.5110497 27.9999989,8.23842301 Z M24.2767859,3.7329824 L24.277064,3.73326221 C25.5173819,4.97768637 26.1361352,6.4784114 26.1333335,8.23543728 C26.1305128,9.99259657 25.5096452,11.4886905 24.2707211,12.7237189 L14.3758733,22.3426075 C14.1238586,22.5908878 13.8699644,22.5878184 13.6141906,22.3333992 L3.74118603,12.7288922 C2.48986608,11.4848465 1.86502707,9.98056783 1.86666577,8.21605624 C1.86830633,6.46110049 2.49017055,4.96373074 3.73226168,3.72394699 C4.974353,2.48416305 6.47304716,1.86508147 8.22834413,1.86666155 C9.88035222,1.86733238 11.3184486,2.4228733 12.5426332,3.53332504 L13.9985615,4.85053557 L15.4618065,3.52979125 C16.6833374,2.41982803 18.1205777,1.86546348 19.7735272,1.86666155 C21.5261368,1.86122703 23.0222938,2.47840405 24.2619981,3.71822864 L24.2759235,3.73211739 L24.2767859,3.7329824 Z M9.57090885,4.81695536 L9.57092752,4.81680136 L9.57095328,4.81658501 L9.57355597,4.79438083 L9.57379715,4.79085021 C9.61515228,4.38935473 9.51014083,4.02910884 9.2587628,3.71011256 C9.00183965,3.38407956 8.66727213,3.1966289 8.25506024,3.14776056 L8.22133275,3.14376216 L8.18740365,3.14222571 C6.78694881,3.07880708 5.58894236,3.54581236 4.59338432,4.54324155 C3.61331612,5.54859847 3.10810796,6.7532869 3.07775981,8.15730683 L3.07751472,8.16974461 C3.07129163,8.58359245 3.21229664,8.93903422 3.50052976,9.23606992 C3.78876562,9.5331086 4.14448652,9.6847744 4.56769245,9.69106731 L4.5900568,9.69096763 C5.55780014,9.67681095 6.05497281,9.18413745 6.0815748,8.21294712 C6.0945729,7.60663425 6.30962845,7.08988977 6.72674147,6.66271368 C7.07229245,6.3194455 7.48695957,6.14605196 7.97074283,6.14253304 C8.3576304,6.17198369 8.70505963,6.06430135 9.01303051,5.81948603 C9.33676252,5.56214126 9.52270536,5.22814121 9.57085901,4.81748587 L9.57090885,4.81695536 Z" id="形状"></path>
                </g>
            </g>
        </g>
    </g>
</svg>