<?xml version="1.0" encoding="UTF-8"?>
<svg width="28px" height="25px" viewBox="0 0 28 25" version="1.1" xmlns="http://www.w3.org/2000/svg" xmlns:xlink="http://www.w3.org/1999/xlink">
    <title>红心备份</title>
    <g id="页面-1" stroke="none" stroke-width="1" fill="none" fill-rule="evenodd">
        <g id="首页" transform="translate(-684.000000, -1738.000000)" fill="#FF3254" fill-rule="nonzero">
            <g id="编组-14备份" transform="translate(22.000000, 1321.000000)">
                <g id="红心备份" transform="translate(662.000000, 417.000000)">
                    <path d="M25.7006666,2.31114838 L25.7006669,2.31114859 C24.2376515,0.847993758 22.2514401,0.0288697581 20.1823362,0.0352903816 L20.1823364,0.0352903816 C18.2266954,0.0338625661 16.3408084,0.761869048 14.8934474,2.0770366 L13.9990022,2.88436996 L13.1092246,2.07936902 L13.1092246,2.07936906 C11.6598565,0.764652687 9.77325593,0.0360748863 7.81645283,0.0352903816 L7.81645264,0.0352903816 C3.50370932,0.0313459432 0.00430680917,3.52424183 0.000280487898,7.83698516 C-0.00165325206,9.91844032 0.827472221,11.9145445 2.30356613,13.382058 L12.889137,23.6798356 L12.889137,23.6798356 C13.5011154,24.288705 14.4892869,24.2911358 15.1042513,23.6852801 L25.700705,13.3843853 L25.7007049,13.3843854 C28.7585054,10.336374 28.7664077,5.38663 25.7184056,2.32885691 C25.7125149,2.32294731 25.7066147,2.31704715 25.7007051,2.31115646 L25.7006666,2.31114838 Z M8.26132211,4.07981801 L8.26132211,4.07981794 C8.2223099,4.41400817 7.92058578,4.65385689 7.58620959,4.61648614 L7.58620965,4.61648614 C6.80626654,4.60926448 6.05589028,4.91456891 5.50253964,5.46426369 L5.50253967,5.46426365 C4.88772294,6.09376399 4.5351741,6.9334314 4.51631509,7.81315468 L4.51631512,7.81315354 C4.50718076,8.14650429 4.23686714,8.41338782 3.90342613,8.41826593 L3.89409161,8.41826593 L3.89409163,8.41826593 C3.55950491,8.41323395 3.2923507,8.13791835 3.29738195,7.80333438 C3.2974185,7.80090392 3.29746968,7.79847365 3.29753549,7.79604382 L3.29753546,7.79604484 C3.32339486,6.59970519 3.80235089,5.45777142 4.63764601,4.60092393 L4.63764566,4.60092429 C5.45284036,3.78424756 6.57425809,3.34861189 7.72697348,3.40081117 L7.72697355,3.40081118 C8.06182822,3.44050915 8.30110273,3.74414517 8.26140503,4.07900259 C8.26137295,4.07927284 8.26134075,4.07954307 8.26130836,4.07981328 L8.26132211,4.07981801 Z" id="形状"></path>
                </g>
            </g>
        </g>
    </g>
</svg>