<?xml version="1.0" encoding="UTF-8"?>
<svg width="30px" height="30px" viewBox="0 0 30 30" version="1.1" xmlns="http://www.w3.org/2000/svg" xmlns:xlink="http://www.w3.org/1999/xlink">
    <title>布局方式1</title>
    <g id="页面-1" stroke="none" stroke-width="1" fill="none" fill-rule="evenodd">
        <g id="首页" transform="translate(-616.000000, -1351.000000)" fill="#666666" fill-rule="nonzero">
            <g id="编组-14备份" transform="translate(22.000000, 1321.000000)">
                <g id="布局方式1" transform="translate(594.000000, 30.000000)">
                    <path d="M25.8639331,2.7798987 L20.433026,2.7798987 C20.0582201,2.7798987 19.7387804,2.91293292 19.4723107,3.17780617 C19.2076364,3.44467102 19.0744032,3.76351657 19.0744032,4.13812259 L19.0744032,9.56902978 C19.0744032,9.94483144 19.2078358,10.2650679 19.4723107,10.5293462 C19.7387771,10.7958127 20.0582185,10.9280505 20.433026,10.9280505 L25.8639331,10.9280505 C26.238938,10.9280505 26.5589763,10.795813 26.8236493,10.5293462 C27.0905142,10.2650704 27.2227516,9.94483219 27.2227516,9.56883244 L27.2227516,4.13812662 C27.2227516,3.76371919 27.0905142,3.44447725 26.8236493,3.1778102 C26.5587761,2.91293695 26.238938,2.7798987 25.8639331,2.7798987 M20.4322203,0.0634581574 L25.8631275,0.0634581574 C26.9867482,0.0634581574 27.9476608,0.461365628 28.7434765,1.25717977 C29.5392923,2.0529955 29.9364005,3.01291313 29.9364005,4.1373274 L29.9364005,9.56803322 C29.9364005,10.6924515 29.5392894,11.6529652 28.7434765,12.4487811 C27.9476608,13.2443954 26.9867482,13.6423053 25.8631275,13.6423053 L20.4322203,13.6423053 C19.3070044,13.6423053 18.3474855,13.2443978 17.5516738,12.4487811 C16.7558581,11.6529652 16.3579523,10.6922541 16.3579523,9.56803322 L16.3579523,4.1373274 C16.3579523,3.0129091 16.7558597,2.05299148 17.5516738,1.25717977 C18.347687,0.461364016 19.3068069,0.0634581574 20.4322203,0.0634581574 M25.8639331,19.0734058 L20.433026,19.0734058 C20.0582201,19.0734058 19.7387804,19.2074359 19.4723107,19.4713133 C19.2076364,19.7385765 19.0744032,20.0580187 19.0744032,20.4326247 L19.0744032,25.8633305 C19.0744032,26.2383353 19.2078358,26.5591713 19.4723107,26.8232482 C19.7387771,27.0897145 20.0582185,27.2221514 20.433026,27.2221514 L25.8639331,27.2221514 C26.238938,27.2221514 26.5589763,27.0897145 26.8236493,26.8234471 C27.0905142,26.5591713 27.2227516,26.2383369 27.2227516,25.8633321 L27.2227516,20.4326263 C27.2227516,20.0580195 27.0905142,19.7385782 26.8236493,19.4713149 C26.5587761,19.2074375 26.238938,19.0734058 25.8639331,19.0734058 M20.4322203,16.3581552 L25.8631275,16.3581552 C26.9867482,16.3581552 27.9476608,16.7560628 28.7434765,17.5516794 C29.5392923,18.3474953 29.9364005,19.3068126 29.9364005,20.4320285 L29.9364005,25.8627343 C29.9364005,26.9861576 29.5392894,27.9470702 28.7434765,28.742882 C27.9476608,29.5386977 26.9867482,29.9366035 25.8631275,29.9366035 L20.4322203,29.9366035 C19.3070044,29.9366035 18.3474855,29.5386961 17.5516738,28.742882 C16.7558581,27.9470662 16.3579523,26.986355 16.3579523,25.8627343 L16.3579523,20.4320285 C16.3579523,19.3068126 16.7558597,18.3474953 17.5516738,17.5516794 C18.3474895,16.7560651 19.3068069,16.3581552 20.4322203,16.3581552 M9.56943909,2.77992005 L4.13792762,2.77992005 C3.76292279,2.77992005 3.44387945,2.91335307 3.177015,3.17802732 C2.91313756,3.44489217 2.77910753,3.76373772 2.77910753,4.13834375 L2.77910753,25.8635436 C2.77910753,26.2385484 2.91313756,26.5593844 3.177015,26.8234613 C3.44387985,27.0899276 3.76292279,27.2223645 4.13792762,27.2223645 L9.56943909,27.2223645 C9.94444388,27.2223645 10.2644823,27.0899276 10.5291553,26.8236602 C10.7960201,26.5593844 10.9278595,26.23855 10.9278595,25.8635452 L10.9278595,4.13814394 C10.9278595,3.76373651 10.7958211,3.44449458 10.5291553,3.17782751 C10.264282,2.91295427 9.94444388,2.77992005 9.56923763,2.77992005 M4.13732337,0.0634754792 L9.56883478,0.0634754792 C10.6928543,0.0634754792 11.6529693,0.461382949 12.4485877,1.25719708 C13.2446008,2.05301283 13.6425107,3.01293045 13.6425107,4.13734472 L13.6425107,25.8625446 C13.6425107,26.9859679 13.2446032,27.9468804 12.4487891,28.7426922 C11.6529733,29.5385079 10.6928584,29.9364138 9.56883881,29.9364138 L4.13712598,29.9364138 C3.01230888,29.9364138 2.05219387,29.5385063 1.25677693,28.7426922 C0.460961183,27.9468765 0.063454129,26.9861652 0.063454129,25.8625446 L0.063454129,4.13734472 C0.063454129,3.01292642 0.460963197,2.0530088 1.25677693,1.25719708 C2.05219387,0.461381338 3.01230888,0.0634754792 4.13712598,0.0634754792" id="形状"></path>
                </g>
            </g>
        </g>
    </g>
</svg>