<?xml version="1.0" encoding="UTF-8"?>
<svg width="28px" height="28px" viewBox="0 0 28 28" version="1.1" xmlns="http://www.w3.org/2000/svg" xmlns:xlink="http://www.w3.org/1999/xlink">
    <title>搜索</title>
    <g id="页面-1" stroke="none" stroke-width="1" fill="none" fill-rule="evenodd">
        <g id="首页" transform="translate(-72.000000, -204.000000)" fill="#999999" fill-rule="nonzero">
            <g id="编组-17" transform="translate(22.000000, 183.000000)">
                <g id="搜索" transform="translate(50.000000, 21.000000)">
                    <path d="M27.1953067,25.8026879 L22.6174108,20.9089713 C24.4732332,18.674164 25.4958907,15.8919342 25.4958907,12.9593136 C25.4958907,6.08344621 19.8953373,0.488908448 13.0104465,0.488908448 C6.12555563,0.491916264 0.52500224,6.08645402 0.52500224,12.9623214 C0.52500224,19.8381888 6.12555563,25.4297187 13.0104465,25.4297187 C14.8151361,25.4297187 16.5506459,25.0507339 18.1808822,24.313819 C18.6651405,24.0942484 18.8786955,23.5257712 18.6561171,23.0445206 C18.4335387,22.5602623 17.8650615,22.3467073 17.3838109,22.5692857 C16.0062312,23.1949114 14.5354092,23.5137399 13.0104465,23.5137399 C7.18430686,23.5137399 2.44699666,18.7794375 2.44699666,12.9653292 C2.44699666,7.14821307 7.18430686,2.41391069 13.0104465,2.41391069 C18.836586,2.41391069 23.5738962,7.14821307 23.5738962,12.9653292 C23.5738962,15.7054496 22.5271763,18.298187 20.6292444,20.2713143 C20.2622908,20.6533069 20.2743221,21.2608857 20.6563147,21.6278393 C20.6863929,21.6549096 20.7224867,21.6639331 20.7525648,21.6910034 C20.7796352,21.7270972 20.7886586,21.7722145 20.8247524,21.8083083 L25.7906566,27.1171035 C25.9771412,27.3186272 26.2358134,27.4208929 26.4914778,27.4208929 C26.7290952,27.4208929 26.9606971,27.3336662 27.1471817,27.1622207 C27.5381977,26.798275 27.5562446,26.1906962 27.1953067,25.8026879" id="路径"></path>
                </g>
            </g>
        </g>
    </g>
</svg>