<?xml version="1.0" encoding="UTF-8"?>
<svg width="33px" height="34px" viewBox="0 0 33 34" version="1.1" xmlns="http://www.w3.org/2000/svg" xmlns:xlink="http://www.w3.org/1999/xlink">
    <title>左</title>
    <g id="页面-1" stroke="none" stroke-width="1" fill="none" fill-rule="evenodd">
        <g id="陪伴师详情" transform="translate(-177.000000, -1849.000000)" fill="#EEEEEE" fill-rule="nonzero">
            <g id="编组-11" transform="translate(22.000000, 1798.000000)">
                <g id="编组-9" transform="translate(44.000000, 19.000000)">
                    <g id="左" transform="translate(127.666667, 49.000000) rotate(-180.000000) translate(-127.666667, -49.000000) translate(111.666667, 32.000000)">
                        <path d="M15.3114935,15.4615277 C16.1612875,16.2201848 16.2350649,17.5240301 15.4763648,18.3736952 L15.4763648,18.3736952 C15.424559,18.4317022 15.3695143,18.4867328 15.3114935,18.5385235 L17.0348002,17.0000257 L15.3114935,15.4615277 L15.3114935,15.4615277 Z M31.1250806,4.11295201 L31.1250806,0.580186181 L31.1250806,0.58021256 C31.1250806,0.39036437 30.971141,0.23646216 30.7812928,0.23646216 C30.6968531,0.23646216 30.6153671,0.267541708 30.5523748,0.323773902 L13.0218778,15.9743429 C12.9832059,16.0088898 12.9465106,16.0455422 12.9119636,16.0842141 C12.4061349,16.6507148 12.4553772,17.5198877 13.0218778,18.0256734 L30.5524178,33.6762424 L30.5524178,33.6762424 C30.6940567,33.8026575 30.9113572,33.7903164 31.0377719,33.6486776 C31.0939763,33.5857047 31.1250806,33.5042543 31.1250806,33.4198477 L31.1250806,29.8870819 L31.1250806,29.8870487 C31.1250806,29.6911862 31.041523,29.5046217 30.8954124,29.374186 L17.0348376,17.000031 L30.8954553,4.62583298 L30.8954553,4.62583299 C31.0415596,4.49538831 31.1250806,4.30881992 31.1250806,4.11295739 L31.1250806,4.11295201 Z M15.3114935,15.4615277 C16.1612875,16.2201848 16.2350649,17.5240301 15.4763648,18.3736952 L15.4763648,18.3736952 C15.424559,18.4317022 15.3695143,18.4867328 15.3114935,18.5385235 L17.0348002,17.0000257 L15.3114935,15.4615277 L15.3114935,15.4615277 Z M31.1250806,4.11295201 L31.1250806,0.580186181 L31.1250806,0.58021256 C31.1250806,0.39036437 30.971141,0.23646216 30.7812928,0.23646216 C30.6968531,0.23646216 30.6153671,0.267541708 30.5523748,0.323773902 L13.0218778,15.9743429 C12.9832059,16.0088898 12.9465106,16.0455422 12.9119636,16.0842141 C12.4061349,16.6507148 12.4553772,17.5198877 13.0218778,18.0256734 L30.5524178,33.6762424 L30.5524178,33.6762424 C30.6940567,33.8026575 30.9113572,33.7903164 31.0377719,33.6486776 C31.0939763,33.5857047 31.1250806,33.5042543 31.1250806,33.4198477 L31.1250806,29.8870819 L31.1250806,29.8870487 C31.1250806,29.6911862 31.041523,29.5046217 30.8954124,29.374186 L17.0348376,17.000031 L30.8954553,4.62583298 L30.8954553,4.62583299 C31.0415596,4.49538831 31.1250806,4.30881992 31.1250806,4.11295739 L31.1250806,4.11295201 Z" id="形状"></path>
                        <path d="M3.6239799,15.4615277 C4.47377391,16.2201848 4.54755134,17.5240301 3.78885123,18.3736952 L3.78885118,18.3736952 C3.73704542,18.4317022 3.68200067,18.4867328 3.6239799,18.5385235 L5.34728659,17.0000257 L3.6239799,15.4615277 L3.6239799,15.4615277 Z M19.437567,4.11295201 L19.437567,0.580186181 L19.437567,0.58021256 C19.437567,0.39036437 19.2836274,0.23646216 19.0937792,0.23646216 C19.0093395,0.23646216 18.9278535,0.267541708 18.8648612,0.323773902 L1.33436424,15.9743429 C1.29569232,16.0088898 1.25899696,16.0455422 1.22445005,16.0842141 C0.718621335,16.6507148 0.767863579,17.5198877 1.33436424,18.0256734 L18.8649042,33.6762424 L18.8649042,33.6762424 C19.0065431,33.8026575 19.2238436,33.7903164 19.3502583,33.6486776 C19.4064627,33.5857047 19.437567,33.5042543 19.437567,33.4198477 L19.437567,29.8870819 L19.437567,29.8870487 C19.437567,29.6911862 19.3540094,29.5046217 19.2078988,29.374186 L5.34732404,17.000031 L19.2079417,4.62583298 L19.2079417,4.62583299 C19.354046,4.49538831 19.437567,4.30881992 19.437567,4.11295739 L19.437567,4.11295201 Z M3.6239799,15.4615277 C4.47377391,16.2201848 4.54755134,17.5240301 3.78885123,18.3736952 L3.78885118,18.3736952 C3.73704542,18.4317022 3.68200067,18.4867328 3.6239799,18.5385235 L5.34728659,17.0000257 L3.6239799,15.4615277 L3.6239799,15.4615277 Z M19.437567,4.11295201 L19.437567,0.580186181 L19.437567,0.58021256 C19.437567,0.39036437 19.2836274,0.23646216 19.0937792,0.23646216 C19.0093395,0.23646216 18.9278535,0.267541708 18.8648612,0.323773902 L1.33436424,15.9743429 C1.29569232,16.0088898 1.25899696,16.0455422 1.22445005,16.0842141 C0.718621335,16.6507148 0.767863579,17.5198877 1.33436424,18.0256734 L18.8649042,33.6762424 L18.8649042,33.6762424 C19.0065431,33.8026575 19.2238436,33.7903164 19.3502583,33.6486776 C19.4064627,33.5857047 19.437567,33.5042543 19.437567,33.4198477 L19.437567,29.8870819 L19.437567,29.8870487 C19.437567,29.6911862 19.3540094,29.5046217 19.2078988,29.374186 L5.34732404,17.000031 L19.2079417,4.62583298 L19.2079417,4.62583299 C19.354046,4.49538831 19.437567,4.30881992 19.437567,4.11295739 L19.437567,4.11295201 Z" id="形状"></path>
                    </g>
                </g>
            </g>
        </g>
    </g>
</svg>