<svg xmlns="http://www.w3.org/2000/svg" xmlns:xlink="http://www.w3.org/1999/xlink" fill="none" version="1.1" width="141" height="141" viewBox="0 0 141 141"><defs><clipPath id="master_svg0_46_04436"><rect x="0" y="0" width="141" height="141" rx="0"/></clipPath></defs><g clip-path="url(#master_svg0_46_04436)"><g><ellipse cx="70.5" cy="70.5" rx="70.5" ry="70.5" fill="#FF9E4A" fill-opacity="1" style="mix-blend-mode:passthrough"/></g><g><g><ellipse cx="65.3525140285492" cy="63.611528158187866" rx="2.293363332748413" ry="2.293363332748413" fill="#FFFED1" fill-opacity="1" style="mix-blend-mode:passthrough"/></g><g><path d="M112.27439897705078,78.30078864770508C109.69644897705078,73.53829164770508,106.34011097705078,69.16918164770507,103.56128697705078,65.92164964770508C103.27671097705078,64.29787864770508,102.86657697705078,62.674114647705075,102.29742397705078,61.10893664770508L102.29742397705078,61.09219764770508C102.29742397705078,61.09219764770508,101.24280597705078,57.88650864770508,100.51462597705078,56.90722864770508C100.51462597705078,56.90722864770508,99.82829297705078,55.48434064770508,98.22962997705078,56.12045264770508C98.22962997705078,56.12045264770508,97.01599097705078,56.84863864770507,97.66047697705078,58.23804464770508C97.66047697705078,58.23804464770508,98.24636797705078,59.493537647705075,98.83226797705078,60.96664764770508C96.66445497705078,59.06667364770508,94.23717497705078,57.46801364770508,91.59226997705079,56.312963647705075C81.50648897705078,51.89363664770508,74.09909397705079,55.45086064770508,74.09909397705079,55.45086064770508C74.09909397705079,55.45086064770508,92.73058297705077,66.99300764770507,97.60188297705078,85.35665864770507C94.14510297705078,91.40812264770508,88.23592397705079,96.46357364770508,78.17525897705079,97.50143764770507C77.10390897705078,97.65210364770508,75.94885297705079,97.74416764770508,74.60966097705078,97.81113064770508C73.20350997705077,97.87809364770507,71.94802097705079,97.03271864770508,71.40397297705078,95.72700864770508C68.02251797705078,87.66677064770508,57.426169977050776,86.04299964770507,55.953065977050784,85.72493764770508C55.844258977050785,85.70820664770508,55.74381797705078,85.69982864770508,55.63501197705078,85.68308664770507C42.00875087705078,84.83772664770507,39.305257777050784,72.39999364770509,39.305257777050784,72.39999364770509C38.24227477705078,69.00180064770507,38.27575537705078,66.65821464770508,38.63566307705078,65.10977564770508C38.96209047705078,63.68688964770508,40.29291057705078,62.70760364770508,41.74090957705078,62.87500364770508C46.51177597705078,63.435790647705076,52.638570977050776,61.041988647705075,54.28745097705078,60.35565164770508C54.56365997705078,60.238471647705076,54.81475497705078,60.06270564770508,55.02400197705078,59.84508464770508C60.72392797705078,53.986127647705075,66.48245197705077,51.83505464770508,70.70926697705079,51.11523864770508C70.89340597705078,51.08175864770508,71.08591097705079,51.05665064770508,71.26168397705078,51.02316864770508C71.59648497705078,50.93947064770508,71.95639397705078,50.95620764770508,72.29119097705077,50.88924964770508C72.29119097705077,50.88924964770508,80.41840397705079,50.38705464770508,87.97645597705079,53.29142164770508C89.54163697705079,53.89405864770508,91.30769397705077,53.65132864770508,92.63014197705078,52.62182664770508C94.22880197705078,51.38307564770508,94.12836097705079,48.93068464770508,92.43762997705079,47.825853647705074C85.85048297705077,43.523704647705074,77.48054497705078,41.79949564770508,68.31546397705078,41.79949564770508C66.63310597705077,41.79949564770508,65.02607697705078,41.85808564770508,63.477639977050785,41.966894647705075C63.871028977050784,40.351496647705076,63.81243897705078,38.67750964770508,63.209802977050785,37.09559164770508C62.64064597705078,35.59737204770508,61.64462097705078,34.35025264770508,60.380765977050785,33.42118884770508L58.08740397705078,27.41157257770508C57.77771397705078,26.608059197705078,56.70636197705078,26.465770167705077,56.20416597705078,27.160475017705078L53.02358997705078,31.54632424770508C51.87690897705078,31.646762847705077,50.713489977050784,31.90623184770508,49.56680497705078,32.34146924770508C48.42012397705078,32.77670624770508,47.37388197705078,33.362602747705076,46.45318697705078,34.04893734770508L41.15501307705078,32.89388514770508C40.31801937705078,32.709745447705075,39.60657597705078,33.52999874770508,39.91626257705078,34.33351564770508L42.20962807705078,40.35150064770508C41.88320067705078,41.89156864770508,41.96689887705078,43.47348764770508,42.53605457705078,44.98007564770508C42.94618297705078,46.06816664770508,43.59066597705078,47.00560164770508,44.39418197705078,47.80074264770508C36.22511987705078,53.33327264770508,32.68463897705078,62.31421264770508,32.68463897705078,73.13655064770508C32.68463897705078,91.68434564770507,43.130321977050784,103.10094064770507,68.31547197705078,103.10094064770507C78.81137497705078,103.10094064770507,93.10723097705079,101.26791764770508,99.95384197705079,90.81386164770508C102.54015397705078,93.44202064770508,107.00132797705078,93.87726164770508,110.07309697705078,91.09843864770508C113.67217297705078,87.84252964770508,114.57612597705078,82.55273464770508,112.26601397705078,78.27569164770509L112.27439897705078,78.30078864770508ZM55.33369797705078,35.14538474770508C55.785676977050784,35.14538474770508,56.187428977050786,35.34626484770508,56.472011977050784,35.66431994770508C56.32135197705078,35.58899024770508,56.16232097705078,35.54714104770508,55.98655297705078,35.54714104770508C55.36717997705078,35.54714104770508,54.87334997705078,36.04933644770508,54.87334997705078,36.66034504770508C54.87334997705078,37.27135264770508,55.37554597705078,37.77354764770508,55.98655297705078,37.77354764770508C56.16232097705078,37.77354764770508,56.32135197705078,37.73169864770508,56.472011977050784,37.65636964770508C56.19580297705078,37.97442864770508,55.79404797705078,38.175304647705076,55.33369797705078,38.175304647705076C54.49670597705078,38.175304647705076,53.81874297705078,37.49733864770508,53.81874297705078,36.66034504770508C53.81874297705078,35.82335094770508,54.49670597705078,35.13701624770508,55.33369797705078,35.13701624770508L55.33369797705078,35.14538474770508ZM47.59987697705078,37.94931364770508C48.05185397705078,37.94931364770508,48.45361097705078,38.150192647705076,48.73818997705078,38.46824864770508C48.58752997705078,38.39291864770508,48.42850197705078,38.351069647705074,48.25273097705078,38.351069647705074C47.63335397705078,38.351069647705074,47.13952697705078,38.853264647705075,47.13952697705078,39.46427264770508C47.13952697705078,40.07528064770508,47.64172297705078,40.577476647705076,48.25273097705078,40.577476647705076C48.42849897705078,40.577476647705076,48.58752997705078,40.53562764770508,48.73818997705078,40.460297647705076C48.46197997705078,40.77835664770508,48.060222977050785,40.979232647705075,47.59987697705078,40.979232647705075C46.76288297705078,40.979232647705075,46.08491697705078,40.30126664770508,46.08491697705078,39.46427264770508C46.08491697705078,38.62727964770508,46.76288297705078,37.94094464770508,47.59987697705078,37.94094464770508L47.59987697705078,37.94931364770508Z" fill="#FFFED1" fill-opacity="1" style="mix-blend-mode:passthrough"/></g></g></g></svg>