<?xml version="1.0" encoding="UTF-8"?>
<svg width="40px" height="36px" viewBox="0 0 40 36" version="1.1" xmlns="http://www.w3.org/2000/svg" xmlns:xlink="http://www.w3.org/1999/xlink">
    <title>客服</title>
    <g id="页面-1" stroke="none" stroke-width="1" fill="none" fill-rule="evenodd">
        <g id="首页" transform="translate(-668.000000, -200.000000)" fill="#333333" fill-rule="nonzero">
            <g id="客服" transform="translate(668.000000, 200.000000)">
                <path d="M35.4988718,12.4656442 C35.5074655,12.4957223 35.5117624,12.5258005 35.5203562,12.5515818 C33.5180101,5.87423024 27.326206,0.99297456 20.0086194,0.99297456 C12.6910327,0.99297456 6.49922864,5.87423024 4.49688256,12.5515818 C4.50547632,12.5215036 4.5097732,12.4914254 4.51836696,12.4656442 C2.36563008,12.9640822 0.75430008,14.8847876 0.75430008,17.1879153 C0.75430008,19.491043 2.36563008,21.4117483 4.51836696,21.9101864 C4.51407008,21.8972958 4.51407008,21.888702 4.5097732,21.8758114 C4.66446088,22.3312806 5.15000832,22.5847966 5.61407136,22.4515933 C6.09102504,22.3097962 6.36172848,21.8070613 6.21563456,21.3301076 C5.81602472,19.9937779 5.60977448,18.5972919 5.60977448,17.1879153 C5.60977448,9.25157792 12.0679851,2.79336728 20.0043225,2.79336728 C27.9406598,2.79336728 34.3988705,9.25157792 34.3988705,17.1879153 C34.3988705,23.7191729 30.0246466,29.2363668 24.0519834,30.9937907 C23.566436,30.2633211 22.741435,29.7863674 21.8047152,29.7863674 L18.2082266,29.7863674 C16.7172093,29.7863674 15.509786,30.9937907 15.509786,32.4848081 C15.509786,33.9758254 16.7172093,35.1832487 18.2082266,35.1832487 L21.8047152,35.1832487 C23.209795,35.1832487 24.3484682,34.1090287 24.4773746,32.7426209 C29.7582401,31.2215254 33.9391043,27.0836299 35.5160593,21.8285457 C35.5074655,21.8586238 35.5031686,21.888702 35.4945749,21.9144833 C37.6430149,21.4160452 39.2457511,19.5039336 39.2543449,17.2093997 L39.2543449,17.1750246 C39.250048,14.871897 37.6430149,12.9597854 35.4988718,12.4656442 Z M28.1469101,20.8832321 C28.3015978,20.4406534 28.0652694,19.9594029 27.6226907,19.8047152 C27.1801121,19.6543244 26.6945646,19.8863559 26.5441738,20.3289346 C25.5988602,23.0574534 23.0207322,24.8922211 20.128932,24.8922211 C17.2328349,24.8922211 14.65041,23.0531565 13.7093933,20.311747 C13.5590025,19.8691684 13.073455,19.63284 12.6308764,19.7875277 C12.1882978,19.9379185 11.9519694,20.4234659 12.106657,20.8660446 C13.2840022,24.2906579 16.5066622,26.5894887 20.128932,26.5894887 C23.7426081,26.5851918 26.9652681,24.2906579 28.1469101,20.8832321 L28.1469101,20.8832321 Z" id="形状"></path>
            </g>
        </g>
    </g>
</svg>